<?xml version="1.0" encoding="utf-8"?>
<!-- Generator: Adobe Illustrator 16.0.4, SVG Export Plug-In . SVG Version: 6.00 Build 0)  -->
<!DOCTYPE svg PUBLIC "-//W3C//DTD SVG 1.1//EN" "http://www.w3.org/Graphics/SVG/1.1/DTD/svg11.dtd" [
	<!ENTITY ns_flows "http://ns.adobe.com/Flows/1.0/">
	<!ENTITY ns_extend "http://ns.adobe.com/Extensibility/1.0/">
	<!ENTITY ns_ai "http://ns.adobe.com/AdobeIllustrator/10.0/">
	<!ENTITY ns_graphs "http://ns.adobe.com/Graphs/1.0/">
	<!ENTITY ns_vars "http://ns.adobe.com/Variables/1.0/">
	<!ENTITY ns_imrep "http://ns.adobe.com/ImageReplacement/1.0/">
	<!ENTITY ns_sfw "http://ns.adobe.com/SaveForWeb/1.0/">
	<!ENTITY ns_custom "http://ns.adobe.com/GenericCustomNamespace/1.0/">
	<!ENTITY ns_adobe_xpath "http://ns.adobe.com/XPath/1.0/">
]>
<svg version="1.1" xmlns:x="&ns_extend;" xmlns:i="&ns_ai;" xmlns:graph="&ns_graphs;"
	 xmlns="http://www.w3.org/2000/svg" xmlns:xlink="http://www.w3.org/1999/xlink" xmlns:a="http://ns.adobe.com/AdobeSVGViewerExtensions/3.0/"
	 x="0px" y="0px" width="326px" height="600px" viewBox="0 0 326 600" enable-background="new 0 0 326 600" xml:space="preserve">
<metadata>
	<sfw  xmlns="&ns_sfw;">
		<slices></slices>
		<sliceSourceBounds  width="713.901" height="579.213" y="13.771" x="163.427" bottomLeftOrigin="true"></sliceSourceBounds>
	</sfw>
</metadata>
<g id="body">
	<path display="none" fill-rule="evenodd" clip-rule="evenodd" fill="#F9E7D9" d="M220.577,178.068
		c-1.017-0.047-2.068,0.145-3.071,0.374c-6.517,1.488-6.264,9.344-3.109,12.104c2.963,2.593,6.345,4.704,9.508,7.072
		c2.146,1.606,3.99,3.419,5.014,6.051c1.08,2.773,2.588,5.376,3.794,8.104c0.806,1.824,1.41,3.736,2.104,5.609
		c1.033,2.788,1.933,5.634,3.13,8.349c1.723,3.905,3.622,7.733,5.529,11.554c0.702,1.407,1.544,2.768,2.488,4.025
		c3.164,4.215,6.594,8.199,10.786,11.446c2.155,1.669,4.357,3.279,6.558,4.886c1.111,0.811,2.211,1.664,3.415,2.314
		c5.019,2.709,10.114,5.224,15.668,6.73c5.143,1.395,10.213,3.06,15.343,4.506c6.623,1.867,13.311,3.365,20.146,4.361
		c3.896,0.568,7.774,1.363,11.709,1.61c3.03,0.19,6.081,0.122,9.121,0.071c4.971-0.083,9.942-0.193,14.91-0.39
		c5.739-0.228,11.401-1.022,16.951-2.563c2.555-0.709,5.189-1.163,7.695-2.007c5.186-1.749,10.301-3.627,15.019-6.554
		c4.986-3.094,10.287-5.673,15.342-8.663c5.942-3.515,11.568-7.512,16.208-12.684c4.25-4.737,6.993-10.269,8.461-16.506
		c1.236-5.256,2.585-10.518,4.406-15.589c0.961-2.676,3.009-4.971,4.62-7.402c1.133-1.708,2.37-3.346,3.536-5.032
		c1.396-2.021,2.791-4.044,4.14-6.098c1.564-2.381,3.115-4.767,2.736-7.853c-0.257-2.094-2.253-3.454-5.239-3.811
		c-3.685-0.441-5.458,1.854-7.012,4.546c-0.86,1.49-1.575,1.631-2.773,0.464c0.332-0.849,0.501-1.793,1.018-2.472
		c0.629-0.824,1.473-1.55,2.361-2.095c2.2-1.349,4.442-2.642,6.739-3.817c1.424-0.729,3.846,0.135,5.175,1.622
		c2.897,3.241,3.248,7.695,0.68,11.359c-3.68,5.251-7.51,10.398-11.232,15.621c-0.714,1.001-1.333,2.1-1.816,3.23
		c-1.382,3.236-2.854,6.397-3.62,9.917c-1.041,4.784-2.486,9.514-4.188,14.107c-1.431,3.864-3.42,7.505-6.664,10.316
		c-3.152,2.73-5.977,5.864-9.267,8.404c-3.854,2.976-8.025,5.549-12.123,8.199c-1.661,1.075-3.485,1.898-5.243,2.823
		c-1.549,0.813-1.62,1.132-0.237,2.283c3.908,3.256,7.212,7.042,10.454,10.963c3.558,4.301,7.138,8.567,9.487,13.624
		c2.505,5.391,4.863,10.889,6.743,16.521c1.924,5.763,3.255,11.729,4.726,17.637c1.034,4.158,1.988,8.344,2.756,12.558
		c0.782,4.288,1.518,8.606,1.871,12.944c0.649,7.997,1.176,16.013,1.424,24.03c0.177,5.713-0.038,11.45-0.358,17.161
		c-0.245,4.346-0.815,8.685,0.463,12.936c0.811,2.692,2.098,5.25,2.809,7.964c1.152,4.395,2.3,8.771,1.598,13.481
		c-0.448,3.01-0.785,5.908-2.469,8.539c-2.037,3.184-5.107,4.386-8.623,4.466c-1.174,0.026-2.455-0.757-3.534-1.419
		c-1.555-0.953-3.17-1.949-4.387-3.27c-1.205-1.307-2.058-2.983-2.871-4.596c-1.721-3.41-1.905-2.582-4.369-1.78
		c-1.249,0.406-2.816-0.11-4.229-0.289c-0.475-0.06-0.918-0.365-1.556-0.634c-0.419,3.843-0.765,7.428-1.212,11
		c-0.499,3.986-1.074,7.963-1.646,11.939c-0.633,4.396-1.225,8.799-1.975,13.174c-0.615,3.591-1.445,7.146-2.164,10.719
		c-0.711,3.526-1.399,7.057-2.103,10.584c-0.678,3.403-1.438,6.794-2.027,10.213c-1.073,6.22-2.029,12.46-3.074,18.686
		c-0.269,1.599-0.786,3.159-1.008,4.762c-0.237,1.717-0.141,3.482-0.4,5.195c-0.867,5.714-0.174,11.288,1.848,16.616
		c1.41,3.719,3.364,7.234,5.134,10.813c1.229,2.484,2.617,4.891,3.825,7.385c2.366,4.889,2.924,10.037,0.879,15.063
		c-0.782,1.921-2.68,3.671-4.499,4.814c-2.347,1.476-5.054,2.513-7.735,3.287c-3.733,1.078-7.602,0.505-11.237-0.511
		c-6.354-1.775-12.385-4.418-17.905-8.098c-2.732-1.821-5.708-3.416-8.044-5.663c-4.568-4.391-8.119-9.475-8.704-16.142
		c-0.317-3.615,0.394-7.017,1.566-10.352c1.904-5.418,3.247-10.855,2.164-16.684c-0.409-2.204-0.311-4.504-0.44-6.76
		c-0.363-6.288-0.728-12.575-1.084-18.864c-0.249-4.393-0.36-8.797-0.761-13.176c-0.419-4.575-1.089-9.128-1.695-13.685
		c-0.326-2.449-0.572-4.929-1.163-7.318c-1.562-6.321-3.292-12.602-4.955-18.897c-0.887-3.357-1.678-6.744-2.701-10.06
		c-0.428-1.386-1.265-2.673-2.061-3.911c-0.968-1.507-2.554-2.227-4.18-1.633c-1,0.364-2.083,1.466-2.433,2.478
		c-1.764,5.099-3.629,10.2-4.827,15.445c-1.347,5.899-1.925,11.97-3.027,17.931c-0.542,2.932-1.541,5.776-2.28,8.675
		c-0.927,3.637-1.882,7.27-2.676,10.937c-0.945,4.362-1.707,8.764-2.593,13.139c-1.528,7.547-3.132,15.078-4.61,22.635
		c-0.431,2.203-0.494,4.477-0.81,6.705c-0.281,1.985-0.817,3.943-0.981,5.935c-0.124,1.519-0.012,3.104,0.292,4.6
		c0.975,4.792-0.282,9.227-1.854,13.66c-1.198,3.377-3.007,6.432-5.262,9.13c-1.87,2.238-4.095,4.252-6.423,6.021
		c-5.661,4.3-12.414,6.453-18.949,8.92c-3.302,1.247-6.92,2.084-10.433,2.232c-4.433,0.188-8.902-0.371-12.634-3.429
		c-4.632-3.794-6.391-8.422-5.076-14.351c1.387-6.251,4.702-11.336,8.814-16.062c2.954-3.396,5.726-6.948,8.63-10.387
		c1.354-1.603,2.93-3.022,4.229-4.665c2.389-3.022,3.645-6.41,2.544-10.308c-1.39-4.924-2.843-9.831-4.26-14.748
		c-0.906-3.146-1.908-6.269-2.664-9.45c-0.763-3.206-1.237-6.479-1.908-9.71c-0.633-3.048-1.405-6.068-2.022-9.119
		c-0.393-1.938-0.549-3.923-0.939-5.86c-0.213-1.061-0.793-2.045-1.035-3.104c-1.445-6.321-2.889-12.645-4.233-18.988
		c-0.72-3.397-1.317-6.837-2.075-10.228c-0.349-1.564-0.99-4.009-1.371-5.1c-0.197-0.566-0.749-0.162-0.971-0.083
		c-0.959,0.345-2.199,0.629-3.341,0.925c-0.74,0.191-1.336,1.217-1.848,1.962c-3.123,4.551-7.136,7.875-12.842,7.999
		c-3.641,0.079-6.232-2.344-8.179-5.269c-1.596-2.397-1.704-5.187-1.398-7.901c0.412-3.651,1.02-7.291,1.76-10.891
		c0.507-2.47,1.472-4.841,2.071-7.296c0.709-2.906,1.582-5.833,1.773-8.79c0.247-3.824-0.133-7.687-0.203-11.533
		c-0.064-3.478-0.096-6.955-0.104-10.433c-0.01-4.018-0.154-8.046,0.082-12.05c0.254-4.312,0.792-8.615,1.37-12.9
		c0.622-4.615,1.239-9.245,2.212-13.793c1.215-5.678,2.716-11.299,4.242-16.903c1.064-3.905,2.256-7.787,3.611-11.601
		c1.768-4.979,3.656-9.92,5.676-14.801c1.564-3.778,3.319-7.486,5.153-11.143c3.215-6.412,6.977-12.499,11.459-18.112
		c1.424-1.784,2.853-3.628,4.583-5.083c1.655-1.391,0.585-1.948-0.384-2.681c-3.802-2.879-7.704-5.634-11.418-8.622
		c-7.653-6.157-12.686-14.292-16.596-23.116c-2.099-4.738-3.422-9.815-5.388-14.62c-1.833-4.482-3.804-8.95-6.214-13.136
		c-1.123-1.949-3.326-3.356-5.222-4.761c-3.149-2.333-6.743-4.022-9.012-7.506c-2.699-4.144-0.979-11.947,4.262-13.768
		c4.003-1.391,9.241-0.157,11.479,3.216C227.956,180.68,223.577,178.208,220.577,178.068z M433.885,367.509
		c0.107-0.009,0.215-0.019,0.322-0.027c-0.547-5.76-0.869-11.552-1.7-17.271c-0.99-6.824-2.338-13.6-3.687-20.366
		c-0.743-3.732-1.629-7.455-2.76-11.088c-2.117-6.804-4.174-13.649-6.79-20.268c-2.365-5.983-5.8-11.435-9.843-16.527
		c-3.991-5.028-7.497-10.438-13.129-13.92c-0.945-0.584-1.637-0.809-2.587-0.202c-5.245,3.349-11.012,5.54-16.918,7.337
		c-3.917,1.192-7.889,2.318-11.916,3c-4.156,0.703-8.404,0.975-12.624,1.177c-6.513,0.312-13.044,0.686-19.552,0.499
		c-5.377-0.154-10.774-0.838-16.086-1.735c-5.73-0.966-11.407-2.322-17.045-3.75c-5.239-1.328-10.423-2.89-15.581-4.509
		c-3.973-1.248-7.878-2.717-11.792-4.146c-1.512-0.552-2.78-0.7-3.934,0.771c-3.225,4.112-6.833,7.959-9.721,12.289
		c-3.148,4.72-5.843,9.774-8.387,14.856c-1.928,3.85-3.375,7.948-4.917,11.981c-1.847,4.827-3.726,9.652-5.296,14.572
		c-1.457,4.562-2.625,9.223-3.741,13.884c-1.239,5.177-2.371,10.384-3.364,15.612c-0.603,3.178-0.824,6.427-1.275,9.636
		c-0.25,1.778-0.816,3.532-0.895,5.312c-0.184,4.16-0.167,8.328-0.215,12.494c-0.021,1.765-0.044,3.532,0.011,5.296
		c0.055,1.75,0.258,3.496,0.306,5.245c0.089,3.275,0.155,6.553,0.151,9.829c-0.003,2.791,0.3,5.671-0.267,8.356
		c-1.219,5.772-3.033,11.417-4.359,17.17c-0.69,2.995-1.3,6.132-1.146,9.164c0.157,3.085,1.287,6.036,4.365,7.844
		c1.592,0.935,3.271,1.575,4.821,0.949c4.461-1.805,8.203-4.465,9.082-9.723c0.254-1.521,0.482-3.081,1.034-4.501
		c0.294-0.758,1.255-1.256,1.916-1.871c0.39,0.588,0.876,1.136,1.148,1.774c0.349,0.821,0.42,1.768,0.813,2.559
		c0.279,0.562,0.892,0.958,1.356,1.428c0.295-0.644,0.878-1.306,0.84-1.93c-0.291-4.739-0.662-9.474-1.089-14.202
		c-0.333-3.692-0.876-7.367-1.163-11.062c-0.683-8.799-1.414-17.599-1.84-26.411c-0.259-5.352-0.12-10.734,0.083-16.094
		c0.21-5.549,0.687-11.089,1.103-16.628c0.197-2.618,0.429-5.24,0.811-7.836c0.763-5.189,1.656-10.359,2.468-15.541
		c1.058-6.754,3.318-13.098,6.53-19.106c0.264-0.493,1.011-0.728,1.534-1.082c0.042,0.646,0.273,1.352,0.093,1.93
		c-1.06,3.396-2.463,6.705-3.293,10.153c-2.297,9.539-3.892,19.213-4.765,28.99c-0.547,6.136-1.042,12.278-1.404,18.427
		c-0.206,3.489-0.112,6.996-0.123,10.495c-0.006,1.887,0.036,3.773,0.088,5.66c0.131,4.716,0.212,9.435,0.447,14.146
		c0.171,3.429,0.559,6.846,0.841,10.269c0.12,1.447-0.15,3.061,0.405,4.31c0.983,2.208,0.373,4.478,0.778,6.695
		c0.466,2.549,0.141,5.234,0.495,7.813c0.672,4.888,1.506,9.756,2.414,14.606c1.34,7.157,2.816,14.289,4.197,21.439
		c0.144,0.742-0.113,1.569,0.063,2.297c0.672,2.784,1.533,5.525,2.16,8.318c0.765,3.406,1.345,6.853,2.04,10.274
		c0.824,4.058,1.671,8.109,2.532,12.158c0.692,3.255,1.3,6.534,2.168,9.742c0.721,2.664,1.854,5.214,2.645,7.862
		c1.065,3.57,2.035,7.172,2.928,10.789c0.382,1.549,0.958,3.3,0.582,4.731c-0.697,2.657-1.834,5.255-3.159,7.674
		c-1.002,1.83-2.583,3.343-3.902,5c-1.188,1.495-2.3,3.059-3.569,4.481c-4.141,4.643-8.491,9.114-11.568,14.598
		c-1.825,3.252-2.896,6.755-2.787,10.475c0.172,5.867,4.899,10.078,10.748,11.284c6.432,1.327,12.481-0.35,18.372-2.717
		c3.701-1.487,7.38-3.06,10.949-4.836c6.126-3.05,10.867-7.455,13.811-13.845c1.981-4.298,2.553-8.686,2.42-13.273
		c-0.041-1.414-0.485-2.847-0.345-4.23c0.43-4.234,0.974-8.462,1.623-12.668c0.734-4.756,1.55-9.502,2.48-14.224
		c0.909-4.613,2.027-9.186,3.016-13.783c1.314-6.113,2.562-12.239,3.893-18.349c0.938-4.302,2.072-8.563,2.93-12.88
		c1.111-5.584,1.97-11.217,3.064-16.804c0.67-3.425,1.392-6.86,2.437-10.183c0.885-2.812,1.659-5.726,3.805-8.021
		c2.558-2.734,7.181-3.256,9.855,0.439c2.33,3.22,3.493,6.853,4.492,10.548c1.146,4.237,1.895,8.58,2.914,12.854
		c1.163,4.875,2.747,9.67,3.595,14.595c1.817,10.557,2.371,21.249,2.874,31.941c0.354,7.508,0.637,15.043,1.554,22.492
		c0.806,6.555-0.12,12.691-2.34,18.78c-1.253,3.437-2.087,6.992-1.45,10.662c1.267,7.294,5.854,12.396,11.564,16.567
		c4.923,3.596,10.428,6.158,16.071,8.463c6.75,2.758,13.375,3.91,20.388,0.668c4.045-1.869,5.961-4.791,6.166-9.006
		c0.191-3.916-1.12-7.378-3.018-10.831c-2.803-5.1-4.988-10.535-7.631-15.729c-2.664-5.232-3.476-10.665-2.659-16.442
		c0.711-5.027,1.104-10.103,1.916-15.111c1-6.165,2.28-12.286,3.455-18.423c1.05-5.488,2.109-10.975,3.188-16.457
		c0.644-3.272,1.449-6.518,1.979-9.807c1.063-6.607,2.082-13.226,2.944-19.862c0.884-6.807,1.577-13.64,2.317-20.465
		c0.417-3.851,0.737-7.712,1.14-11.564c0.463-4.442,1.016-8.877,1.442-13.323c0.432-4.494,0.803-8.996,1.114-13.501
		c0.358-5.174,0.81-10.351,0.892-15.531c0.205-12.914,0.425-25.838-0.981-38.713c-0.384-3.521-0.813-7.042-1.408-10.531
		c-0.58-3.395-1.445-6.739-2.063-10.128c-0.099-0.54,0.35-1.621,0.711-1.701c0.578-0.128,1.345,0.291,1.931,0.646
		c0.283,0.172,0.406,0.709,0.484,1.104c0.942,4.719,1.974,9.424,2.76,14.169c1.092,6.581,1.624,13.214,1.585,19.901
		c-0.051,8.479,0.272,16.963,0.07,25.437c-0.162,6.779-0.756,13.555-1.362,20.313c-0.802,8.932-1.823,17.843-2.682,26.77
		c-0.069,0.726,0.364,1.507,0.594,2.254c0.21,0.679,0.543,1.328,0.679,2.02c0.529,2.695,1.998,4.08,4.919,2.186
		c2.27-1.472,3.345-1.048,4.496,1.386c1.354,2.862,2.669,5.778,5.436,7.595c2.539,1.668,5.056,3.55,8.393,1.756
		c2.111-1.136,2.988-3.042,3.514-5.163c1.48-5.974,0.222-11.74-1.7-17.359c-1.484-4.344-3.596-8.49-3.305-13.272
		c0.356-5.839,0.667-11.68,1.002-17.52c0.105-1.842,0.38-3.688,0.306-5.522C434.477,373.922,434.137,370.717,433.885,367.509z"/>
	<g>
		<path fill-rule="evenodd" clip-rule="evenodd" fill="#F9E7D9" d="M274.422,182.112c-0.169-2.513-0.646-3.539-2.821-5.397
			c-2.046-1.749-4.671-2.228-7.046-0.478c-1.003,0.58-2.64,1.243-3.533,1.874c-0.679,0.479-2.891,2.694-3.319,3.333
			c-0.431-0.596,0.491-2.716-0.154-3.105c-0.75-90.583-45.508-100.714-98.809-100.25c-75.438,0.657-118.941,39-112.441,97.912
			c-0.474-0.215-6.062-2.697-6.661-2.749c-0.577-0.148-1.326-0.196-1.921-0.202c-0.017,0-0.731,0.014-0.857,0.014
			c-0.478,0-0.903,0.048-1.311,0.15c-0.7,0.012-1.357,0.266-2.104,0.626c-3.948,1.906-5.005,6.291-4.696,9.962
			c0.085,0.797,0.399,1.801,0.528,2.228c0.115,0.381,0.786,2.062,1.341,2.619c0.374,0.488,1.027,1.403,1.899,2.263
			c0.647,0.643,1.744,1.518,2.719,2.219c0.629,0.476,2.983,1.829,3.629,2.307c0.223,0.165,2.324,1.756,2.946,2.335
			c0.565,0.389,1.795,1.58,2.66,2.58c0.447,0.5,1.307,2.172,1.952,3.485c0.168,0.438,2.961,5.393,3.33,6.315
			c0.238,0.596,1.796,4.07,2.219,5.65c0.514,1.451,0.756,2.446,1.418,4.159c0.004,0.023,2.95,8.736,3.502,9.596
			c0.125,0.296,3.437,7.018,5.092,9.66c2.296,3.663,8.485,11.08,10.709,12.646c4.122,2.903,8.541,6.477,13.023,8.864
			c-0.847,0.382-11.78,14.015-12.293,14.901c-6.311,10.903-3.829,7.779-9.65,19.062c-12.35,23.937-22.85,77.437-19.441,113.8
			c-0.549,5.795-3.159,14.137-3.268,18.104c-0.163,5.971-0.062,10.781,4.907,14.287c6.952,4.902,14.065-1.879,18.468-8.424
			c0.564,2.729,1.839,5.623,4.493,4.396c1.898-0.877,1.495-3.701,1.269-5.318c-0.086-0.615-0.199-1.271-0.361-1.92
			c-0.292-1.029-0.159-1.609-0.292-2.41c0,0-0.099-1.324-0.102-1.369c-0.291-4.738-0.662-9.473-1.089-14.201
			c-0.333-3.693-0.876-7.367-1.163-11.062c-0.683-8.799-1.414-17.6-1.84-26.412c-0.259-5.352-0.12-10.734,0.083-16.094
			c0.21-5.549,0.687-11.088,1.103-16.627c0.197-2.619,0.429-5.24,0.811-7.836c0.763-5.189,1.656-10.359,2.468-15.541
			c1.058-6.754,3.318-13.098,6.53-19.106c0.264-0.492,1.011-0.727,1.534-1.082c0.042,0.646-1.53,1.008-1.71,1.586
			c-1.06,3.395-3.169,6.426-4,9.874c-2.297,9.539-4.501,19.098-5.375,28.875c-0.547,6.137-1.042,12.279-1.404,18.428
			c-0.206,3.488-0.112,6.996-0.123,10.494c-0.006,1.887,0.036,3.773,0.088,5.66c0.131,4.717,0.212,9.436,0.447,14.146
			c0.171,3.43,0.559,6.846,0.841,10.27c0.12,1.447,0.099,3.363,0.655,4.611c0.983,2.209,0.409,5.193,0.814,7.41
			c0.466,2.549,0.316,4.809,0.67,7.387c0.672,4.889,0.402,9.408,1.31,14.258c1.34,7.158,3.615,15.703,4.996,22.854
			c0.144,0.742,0.62,1.562,0.796,2.289c0.672,2.785,1.533,5.525,2.16,8.318c0.765,3.406,1.345,6.854,2.04,10.275
			c0.824,4.057,1.671,8.109,2.532,12.158c0.692,3.254,4.023,14.955,4.813,17.604c1.065,3.57,2.035,7.172,2.928,10.789
			c0.382,1.549,0.958,3.301,0.582,4.732c-0.697,2.656-1.834,5.254-3.159,7.674c-0.754,1.377-1.835,2.574-2.887,3.787
			c-0.242,0.127-0.485,0.27-0.729,0.449c-10.781,7.926-16.936,20.045-17.213,33.777c-0.074,3.682,9.118,8.994,11.593,9.504
			c6.432,1.328,13.481-1.1,19.372-3.467c3.701-1.486,7.38-3.059,10.949-4.836c6.126-3.049,12.398-8.779,15.342-15.17
			c1.981-4.297,2.553-8.686,2.42-13.273c-0.041-1.414-0.485-2.846-0.345-4.23c0.43-4.234,0.974-8.461,1.623-12.668
			c0.734-4.756,1.55-9.502,2.48-14.223c0.909-4.613,2.027-9.186,3.016-13.783c1.314-6.113,2.562-12.24,3.893-18.35
			c0.938-4.301,2.072-8.562,2.93-12.879c1.111-5.584,1.97-11.217,3.064-16.805c0.67-3.424,1.392-6.859,2.437-10.182
			c0.885-2.812,0.789-3.094,2.069-5.719c1.667-3.416,4.826-4.799,7.5-1.104c2.33,3.221,2.625,5.555,3.625,9.25
			c1.146,4.238,2.387,7.963,3.407,12.236c1.163,4.875,2.747,9.67,3.595,14.594c1.817,10.557,2.371,21.25,2.874,31.941
			c0.354,7.508,0.637,15.043,1.554,22.492c0.806,6.555-0.884,14.418-3.104,20.508c-1.253,3.436-2.087,6.992-1.45,10.662
			c1.268,7.293,5.854,12.395,11.564,16.566c4.923,3.596,10.439,6.131,16.071,8.463c8.273,3.428,18.198,5.648,25.289,0.891
			c3.7-2.484,5.952-6.379,6.157-10.594c0.191-3.916-1.12-7.377-3.018-10.83c-2.803-5.1-4.988-10.535-7.631-15.73
			c-2.664-5.232-3.476-10.664-2.659-16.441c0.711-5.027,1.104-10.104,1.916-15.111c1-6.166,2.28-12.287,3.455-18.424
			c1.05-5.488,2.109-10.975,3.188-16.457c0.644-3.271,1.449-6.518,1.979-9.807c1.063-6.607,2.082-13.225,2.944-19.861
			c0.884-6.807,2.734-13.221,3.475-20.045c0.417-3.852,0.737-7.713,1.14-11.564c0.463-4.443,1.016-8.877,1.442-13.324
			c0.432-4.494,0.803-8.996,1.114-13.5c0.358-5.174,0.81-10.352,0.892-15.531c0.205-12.914,0.425-25.838-0.981-38.713
			c-0.384-3.521-0.813-7.043-1.408-10.531c-0.58-3.395-1.445-6.74-2.063-10.129c-0.099-0.539-2.612-1.762-2.251-1.842
			c0.578-0.129,1.345,0.291,1.931,0.645c0.283,0.172,0.406,0.709,0.484,1.105c0.942,4.719,1.974,9.424,2.76,14.168
			c1.092,6.582,1.624,13.215,1.585,19.902c-0.051,8.479,0.272,16.963,0.07,25.436c-0.162,6.779-0.756,13.555-1.362,20.314
			c-0.802,8.932-1.823,17.842-2.682,26.77c-0.017,0.172-0.001,0.35,0.03,0.527c-0.054,0.207-0.081,0.434-0.055,0.695
			c0.012,0.111,0.014,0.223,0.023,0.332c-0.011,0.096-0.025,0.189-0.023,0.293c0.067,3.9-1.404,7.76-1.115,11.676
			c0.155,2.113,1.751,3.23,3.159,2.678c0.485-0.025,0.97-0.223,1.37-0.564c-0.403,0.344-0.244,0.193-0.094,0.113
			c0.195-0.102,0.369-0.25,0.52-0.41c0.121-0.127,0.223-0.273,0.312-0.428c0.219-0.281,0.408-0.605,0.562-0.988
			c0.206-0.51,0.276-1.061,0.322-1.613c0.208-0.486,0.342-0.986,0.432-1.504c2.985,9.189,11.611,18.672,21.656,12.248
			c8.021-5.131,6.052-15.666,4.161-23.832c-0.604-3.645-3.208-11.309-3.333-11.586c-1.519-3.898-1-4.66-1.339-7.041
			c0.175-6.172,0.698-16.979,0.511-25.791c-0.143-6.686-1.12-23.715-1.125-24.25c-0.085-8.746-2.935-15.914-3.875-19.938
			c-1.125-4.812-2.725-9.008-3.849-13.078c-1.065-4.088-3.371-11.998-4.088-13.627c-2.559-6.771-5.345-13.079-9.309-19.167
			c-2.177-3.344-4.74-6.443-7.505-9.313c-0.492-0.51-1.03-0.985-1.584-1.449c-2.111-2.718-5.159-5.188-7.868-7.264
			c3.615-1.881,7.33-3.555,10.828-6.079c2.102-1.517,7.243-4.893,9.287-6.588c0.111-0.054,2.171-1.431,4.088-3.246
			c1.267-1.2,2.159-2.24,3.747-3.99c2.981-3.285,3.141-3.513,4.418-5.301c0.389-0.484,1.529-2.248,2.46-4.541
			c2.323-5.727,5.094-15.668,6.88-21.499c1.153-3.415,2.25-6.083,3.833-8.25c1.78-2.437,5.258-7.519,5.282-7.548
			c0.315-0.37,1.554-1.969,1.948-2.512c0.024-0.033,1.51-1.847,2.291-2.815c1.203-1.703,1.986-3.629,2.229-5.791
			C274.41,184.256,274.438,182.44,274.422,182.112z M85.717,260.73"/>
		<path fill-rule="evenodd" clip-rule="evenodd" fill="#F9E7D9" d="M149.652,265.111c-6.034-0.21-11.523-2.797-17.337-4.155
			c-7.033-1.643-14.235-2.372-21.333-3.667c-6.303-1.149-8.996,8.487-2.658,9.643c2.15,0.392,4.308,0.736,6.467,1.07
			c0.489,0.514,1.105,0.95,1.867,1.263c10.643,4.371,21.554,5.791,32.996,5.846C156.119,275.142,156.076,265.334,149.652,265.111z"
			/>
	</g>
	<g>
		<path opacity="0.4" fill-rule="evenodd" clip-rule="evenodd" fill="#F4782C" d="M158.468,206.895
			c-0.305-1.007-0.882-1.654-1.607-2.078c-0.69-0.526-1.506-0.819-2.342-0.667c-0.285-0.024-0.574-0.038-0.866-0.04
			c-0.588-0.003-2.473,1.809-1.276,1.31c1.383-0.577,3.438,0.257,4.359,1.908c0.018,0.032,0.644,1.462,0.1,2.163
			C156.637,209.747,158.629,207.428,158.468,206.895z"/>
		<path fill-rule="evenodd" clip-rule="evenodd" fill="#423B3E" d="M154.902,210.36c0.958-0.417,2.707-2.084,3.042-2.708
			c0.419-0.782,0.083-1.667-1.042-2.5c-0.807-0.915-2.458-1.082-3.646-0.27c-0.933,0.638-1.729,1.188-2.072,2.85
			c-0.219,0.171-0.151,0.141-0.344,0.025c0.18-0.612,0.238-1.48,0.672-1.986c2.021-2.353,4.653-2.735,6.584-0.206
			c0.953,1.248,0.409,2.458-0.579,3.488C156.756,209.849,154.655,211.86,154.902,210.36z"/>
	</g>
</g>
<g id="face">
	<g display="none">
		<path display="inline" fill-rule="evenodd" clip-rule="evenodd" fill="#3D3D3D" d="M364.612,240.349
			c-3.77-0.588-4.744-0.703-7.756-0.412c-6.716,0.645-14.14,0.823-20.856,1.469c-6.25,0.938-11.812,0.344-18.521-0.323
			c-0.821-0.082-3.697-0.021-4.685,0.167c-2.087,0.069-3.144,2.465-2.25,4.396c0.422,0.913,1.033,1.873,1.542,2.75
			c0.387,0.667,0.482,0.824,1.354,2.062c0.763,1.197,0.623,0.588,0.878,1.225c-0.131,0.27-0.539-0.095-0.679-0.317
			c-1.238-1.947-2.659-3.838-3.518-5.952c-0.952-2.343,0.314-4.37,2.839-4.761c1.923-0.297,3.929-0.221,5.887-0.115
			c3.697,0.198,7.398,0.875,11.076,0.744c6.324-0.227,12.629-0.945,18.946-1.408c4.409-0.322,8.842-0.941,13.234-0.75
			c5.849,0.254,7.131,3.072,4.075,8.029c-2.07,3.358-4.114,6.747-7.187,9.352c-0.449,0.267-1.033,0.662-1.324,0.308
			c0.125-0.438,1.278-1.411,2.146-2.25c2.934-3.105,6.152-7.064,7.188-11.729C367.334,241.917,365.925,240.787,364.612,240.349z"/>
		<path display="inline" fill-rule="evenodd" clip-rule="evenodd" fill="#3D3D3D" d="M286.397,177.38
			c4.811,0.027,7.731,3.625,8.225,8.052c-0.123,0.506-0.513-0.251-0.963-1.27c-0.659-1.662-1.685-3.15-2.909-4.321
			c-1.972-1.886-7.763-1.281-9.895,0.501c-1.223,1.022-2.705,2.699-3.774,3.901c-0.479,0.659-0.692,0.994-1.252,1.488
			c-0.562,0.294-0.276-0.515,0.031-0.918c1.437-1.89,2.75-4.001,4.578-5.428C283.333,177.362,285.53,177.373,286.397,177.38z"/>
	</g>
	<g display="none">
		<path display="inline" fill-rule="evenodd" clip-rule="evenodd" d="M335.547,238.546c7.97,0.046,13.882,1.77,19.053,5.521
			c3.271,2.375,4.985,5.864,5.646,9.846c0.147,0.884,0.238,1.777,0.405,2.657c0.423,2.235-0.776,4.245-2.884,5.097
			c-3.333,1.345-6.131-0.143-8.989-1.499c-2.311-1.096-4.557-2.475-6.993-3.13c-4.424-1.189-8.715-0.365-12.896,1.568
			c-4.026,1.861-8.279,2.668-12.731,1.506c-2.436-0.635-4.101-2.104-4.57-4.532c-0.43-2.222,0.979-3.778,2.526-5.208
			c1.968-1.819,3.73-3.875,5.79-5.576C324.875,240.689,330.696,238.759,335.547,238.546z M338.521,240.89
			c-2.549-0.312-5.714,0.566-8.852,1.584c-6.047,1.959-10.783,5.666-14.243,10.959c-1.891,2.895-1.102,4.388,2.336,4.761
			c0.472,0.052,0.982,0.106,1.429-0.013c3.389-0.902,6.843-1.637,10.128-2.832c5.158-1.877,10.188-1.918,15.201,0.26
			c2.688,1.168,5.265,2.595,7.959,3.746c3.111,1.33,5.314-0.314,5.042-3.617c-0.023-0.292,0.069-0.592,0.074-0.889
			c0.061-3.153-1.026-5.876-3.228-8.107C350.237,242.554,344.979,241.245,338.521,240.89z"/>
		<path display="inline" fill-rule="evenodd" clip-rule="evenodd" d="M284.708,179.146c-4.205-0.803-8.704,0.841-13.034-0.288
			c-0.034-0.249-0.069-0.497-0.103-0.745c0.905-0.256,1.796-0.641,2.719-0.747c3.328-0.381,6.664-0.841,10.004-0.92
			c1.796-0.042,3.637,0.533,5.397,1.038c0.557,0.16,1.091,0.938,1.292,1.546c0.084,0.255-0.655,0.928-1.138,1.202
			c-4.234,2.395-8.197,5.155-11.641,8.606c-0.842,0.844-1.681,0.942-2.496,0.219c-0.817-0.725-0.412-1.521,0.269-2.133
			C278.85,184.346,281.739,181.788,284.708,179.146z"/>
		<path display="inline" fill-rule="evenodd" clip-rule="evenodd" d="M270.263,233.263c-2.054-0.045-3.883-1.671-3.604-3.568
			c0.245-1.673,0.938-3.292,1.565-4.883c0.1-0.252,0.972-0.438,1.347-0.293c0.792,0.305,1.87,0.684,2.155,1.33
			c0.671,1.523,1.139,3.199,1.325,4.855C273.216,232.186,271.796,233.296,270.263,233.263z"/>
		<path display="inline" fill-rule="evenodd" clip-rule="evenodd" d="M265.791,209.398c0.226-0.92,0.344-1.886,0.71-2.747
			c0.285-0.668,0.909-1.713,1.33-1.689c0.775,0.045,1.665,0.613,2.224,1.222c0.618,0.673,0.938,1.628,1.354,2.477
			c0.654,1.333,0.517,2.741-0.621,3.552c-0.706,0.503-2.156,0.664-2.879,0.266c-1.006-0.554-1.645-1.775-2.441-2.711
			C265.576,209.645,265.684,209.521,265.791,209.398z"/>
		<path display="inline" fill-rule="evenodd" clip-rule="evenodd" fill="#FFFFFF" d="M338.521,240.89
			c6.459,0.355,11.717,1.664,15.847,5.852c2.201,2.231,3.288,4.954,3.228,8.107c-0.005,0.297-0.098,0.597-0.074,0.889
			c0.272,3.303-1.931,4.947-5.042,3.617c-2.694-1.151-5.271-2.578-7.959-3.746c-5.013-2.178-10.043-2.137-15.201-0.26
			c-3.286,1.195-6.74,1.93-10.128,2.832c-0.447,0.119-0.957,0.064-1.429,0.013c-3.438-0.373-4.228-1.866-2.336-4.761
			c3.46-5.293,8.196-9,14.243-10.959C332.806,241.456,335.972,240.577,338.521,240.89z"/>
	</g>
	<g>
		<g>
			<path fill-rule="evenodd" clip-rule="evenodd" fill="#423B3E" d="M133.095,240.551c0.52,0.173,1.513,1.608,1.977,1.877
				c7.748,5.265,14.57,6.097,26.415,5.599c4.68-0.475,9.292-1.896,13.12-4.714c0.604-0.407,1.047-0.578,1.578-1.375
				c0.531-0.531,0.663-1.567,0.973-2.075c0.621-0.294,0.914,0.438,0.777,0.787c-0.418,1.062-0.938,2.292-1.806,2.935
				c-3.507,2.6-7.462,4.255-11.812,4.911c-5.976,0.901-11.911,0.589-17.84-0.455c-4.453-0.784-8.389-2.81-12.011-5.43
				c-0.634-0.458-1.057-1.095-1.569-1.721C132.652,240.485,132.923,240.486,133.095,240.551z"/>
		</g>
		<path fill-rule="evenodd" clip-rule="evenodd" fill="#423B3E" d="M105.121,185.298c-0.125,1.657-1.503,2.981-3.165,2.981l0,0
			c-1.662,0-2.429-1.293-3.009-3.009c-0.279-0.826-0.327-1.513-0.379-3.12c-0.025-0.785,0.24-3.165,0.24-3.165
			c0.188-1.656,1.486-2.963,3.147-2.963l0,0c1.662,0,2.915,1.261,3.165,2.994c0,0,0.197,0.938,0.197,3.134
			C105.318,182.935,105.18,184.515,105.121,185.298z"/>
		<path fill-rule="evenodd" clip-rule="evenodd" fill="#423B3E" d="M211.697,185.298c-0.125,1.657-1.504,2.981-3.165,2.981l0,0
			c-1.661,0-2.429-1.293-3.009-3.009c-0.279-0.826-0.326-1.513-0.379-3.12c-0.025-0.785,0.24-3.165,0.24-3.165
			c0.188-1.656,1.486-2.963,3.147-2.963l0,0c1.661,0,2.915,1.261,3.165,2.994c0,0,0.197,0.938,0.197,3.134
			C211.895,182.935,211.756,184.515,211.697,185.298z"/>
	</g>
</g>
<g id="hair">
	<g display="none">
		<path display="inline" fill-rule="evenodd" clip-rule="evenodd" fill="#423B3E" d="M470.412,163.781
			c0.014-5.508-0.203-11.017-0.309-16.526c-0.092-4.667,0.025-9.348-0.309-13.997c-0.279-3.891-1.289-7.729-1.602-11.619
			c-0.602-7.449-2.402-14.637-5.012-21.548c-4.963-13.146-12.408-24.759-22.869-34.284c-8.137-7.408-17.625-12.623-27.854-16.436
			c-7.078-2.638-14.312-4.875-21.541-7.086c-7.672-2.346-15.381-4.585-23.143-6.608c-5.574-1.454-11.258-2.494-16.9-3.68
			c-2.557-0.538-5.134-1.397-7.697-1.383c-5.374,0.03-10.748,0.493-16.115,0.871c-3.8,0.268-7.604,0.576-11.38,1.069
			c-4.95,0.645-9.89,1.402-14.806,2.271c-5.686,1.005-11.434,1.845-16.984,3.375c-6.52,1.798-12.839,4.217-18.827,7.547
			c-7.392,4.111-15.103,7.579-21.953,12.712c-8.611,6.454-16.248,13.654-21.161,23.366c-2.26,4.465-4.719,8.883-6.42,13.564
			c-3.008,8.278-5.576,16.72-8.188,25.136c-1.232,3.969-2.371,7.997-3.132,12.076c-0.788,4.221-1.104,8.532-1.561,12.811
			c-0.763,7.129-1.717,14.25-2.148,21.401c-0.626,10.383-0.671,20.785,0.996,31.108c1.396,8.64,2.351,17.39,4.406,25.872
			c1.938,8.002,5.176,15.682,7.612,23.574c1.407,4.56,4.648,6.553,8.929,7.471c2.391,0.512,4.793,0.972,7.192,1.451
			c8.419,1.684,16.839,3.14,25.289-0.081c-3.076-6.091-6.02-12.15-9.171-18.101c-3.422-6.459-5.369-13.387-6.556-20.512
			c-1.156-6.934-2.065-13.924-2.714-20.924c-0.581-6.279-0.729-12.604-0.92-18.914c-0.066-2.191,0.144-4.426,0.532-6.585
			c0.639-3.55,3.062-5.394,7.991-5.769c5.53-0.422,11.11-0.389,16.661-0.256c4.935,0.117,4.882,0.172,4.87-4.543
			c-0.015-5.566,0.011-11.138,0.233-16.698c0.19-4.765,0.629-9.524,1.057-14.276c0.32-3.55,0.717-7.097,1.225-10.625
			c0.711-4.934,1.514-9.855,2.412-14.756c0.091-0.497,1.108-0.824,1.696-1.229c0.257,0.581,0.768,1.177,0.73,1.739
			c-0.338,5.127-0.979,10.243-1.122,15.373c-0.144,5.192,0.163,10.397,0.307,15.596c0.039,1.366,0.198,2.729,0.319,4.092
			c0.354,3.971,0.687,7.943,1.084,11.909c0.344,3.431,0.722,6.859,1.168,10.278c0.233,1.792,1.343,2.745,3.193,2.69
			c2.209-0.065,4.42-0.14,6.627-0.253c6.619-0.339,13.241-0.635,19.854-1.065c8.651-0.564,17.291-1.282,25.94-1.857
			c6.811-0.453,13.627-0.819,20.443-1.169c6.928-0.356,14.25,0.828,21.178,0.836c7.594,0.008,9.248-0.402,16.836,0.015
			c3.432,0.189,12.414-0.231,15.814,0.291c4.896,0.752,9.777,1.619,14.637,2.578c2.445,0.482,5.061,0.856,7.184,2.029
			c2.805,1.549,3.887,4.521,3.977,7.711c0.102,3.567,0.064,7.139,0.148,10.706c0.154,6.575,0.342,13.149,0.535,19.724
			c0.332,11.346-2.619,22.092-5.969,32.763c-0.996,3.171-1.936,6.372-3.168,9.454c-1.285,3.217-2.797,6.357-4.412,9.425
			c-0.602,1.14-0.711,1.824,0.623,2.144c2.484,0.592,5,1.389,7.518,1.448c6.453,0.153,12.924,0.14,19.369-0.185
			c3.502-0.178,7.006-1.159,9.938-3.23c3.779-2.674,6.578-6.107,7.771-10.77c0.988-3.863,2.523-7.59,3.445-11.467
			c0.631-2.651,0.654-5.452,0.895-8.191c0.367-4.215,0.717-8.432,1.02-12.652c0.27-3.748,0.398-7.506,0.705-11.25
			c0.43-5.232,1.057-10.448,1.416-15.684c0.158-2.283-0.246-4.599-0.211-6.896C470.109,174.029,470.402,168.906,470.412,163.781z"/>
		<path fill-rule="evenodd" clip-rule="evenodd" fill="#423B3E" d="M255.17,256.778c-3.076-6.091-6.02-12.15-9.171-18.101
			c-3.422-6.459-5.369-13.387-6.556-20.512c-1.156-6.934-2.065-13.924-2.714-20.924c-0.581-6.279-0.729-12.604-0.92-18.914
			c-0.066-2.191,0.144-4.426,0.532-6.585c0.639-3.55,3.062-5.394,7.991-5.769c5.53-0.422,11.11-0.389,16.661-0.256
			c4.935,0.117,4.882,0.172,4.87-4.543c-0.015-5.566,0.011-11.138,0.233-16.698c0.19-4.765,0.629-9.524,1.057-14.276
			c0.32-3.55,0.717-7.097,1.225-10.625c0.711-4.934,1.514-9.855,2.412-14.756c0.091-0.497,1.108-0.824,1.696-1.229
			c0.257,0.581,0.768,1.177,0.73,1.739c-0.338,5.127-0.979,10.243-1.122,15.373c-0.144,5.192,0.163,10.397,0.307,15.596
			c0.039,1.366,0.198,2.729,0.319,4.092c0.354,3.971,0.687,7.943,1.084,11.909c0.344,3.431,0.722,6.859,1.168,10.278
			c0.233,1.792,1.343,2.745,3.193,2.69c2.209-0.065,4.42-0.14,6.627-0.253c6.619-0.339,13.241-0.635,19.854-1.065
			c8.651-0.564,17.291-1.282,25.94-1.857c6.811-0.453,13.627-0.819,20.443-1.169c6.928-0.356,14.25,0.828,21.178,0.836
			c7.594,0.008,13.994,0.499,20.848-0.338c9.004,0.675,8.402,0.122,11.803,0.645c4.896,0.752,9.777,1.619,14.637,2.578
			c2.445,0.482,5.061,0.856,7.184,2.029c2.805,1.549,3.887,4.521,3.977,7.711c0.102,3.567,0.064,7.139,0.148,10.706
			c0.154,6.575,0.342,13.149,0.535,19.724c0.332,11.346-2.619,22.092-5.969,32.763c-0.996,3.171-1.936,6.372-3.168,9.454
			c-1.285,3.217-2.797,6.357-4.412,9.425c-0.602,1.14-0.711,1.824,0.623,2.144c2.484,0.592,5,1.389,7.518,1.448
			c6.453,0.153,12.924,0.14,19.369-0.185c3.502-0.178,7.006-1.159,9.938-3.23c3.779-2.674,6.578-6.107,7.771-10.77
			c0.988-3.863,2.523-7.59,3.445-11.467c0.631-2.651,0.654-5.452,0.895-8.191c0.367-4.215,0.717-8.432,1.02-12.652
			c0.27-3.748,0.398-7.506,0.705-11.25c0.43-5.232,1.057-10.448,1.416-15.684c0.158-2.283-0.246-4.599-0.211-6.896
			c0.074-5.125,0.367-10.248,0.377-15.374c0.014-5.508-0.203-11.017-0.309-16.526c-0.092-4.667,0.025-9.348-0.309-13.997
			c-0.279-3.891-1.289-7.729-1.602-11.619c-0.602-7.449-2.402-14.637-5.012-21.548c-4.963-13.146-12.408-24.759-22.869-34.284
			c-8.137-7.408-17.625-12.623-27.854-16.436c-7.078-2.638-14.312-4.875-21.541-7.086c-7.672-2.346-15.381-4.585-23.143-6.608
			c-5.574-1.454-11.258-2.494-16.9-3.68c-2.557-0.538-5.134-1.397-7.697-1.383c-5.374,0.03-10.748,0.493-16.115,0.871
			c-3.8,0.268-7.604,0.576-11.38,1.069c-4.95,0.645-9.89,1.402-14.806,2.271c-5.686,1.005-11.434,1.845-16.984,3.375
			c-6.52,1.798-12.839,4.217-18.827,7.547c-7.392,4.111-15.103,7.579-21.953,12.712c-8.611,6.454-16.248,13.654-21.161,23.366
			c-2.26,4.465-4.719,8.883-6.42,13.564c-3.008,8.278-5.576,16.72-8.188,25.136c-1.232,3.969-2.371,7.997-3.132,12.076
			c-0.788,4.221-1.104,8.532-1.561,12.811c-0.763,7.129-1.717,14.25-2.148,21.401c-0.626,10.383-0.671,20.785,0.996,31.108
			c1.396,8.64,2.351,17.39,4.406,25.872c1.938,8.002,5.176,15.682,7.612,23.574c1.407,4.56,4.648,6.553,8.929,7.471
			c2.391,0.512,4.793,0.972,7.192,1.451C238.301,258.542,246.72,259.999,255.17,256.778z M420.269,246.366
			c1.881-6.46,3.895-12.88,5.836-19.322c2-6.634,2.846-13.466,2.932-20.351c0.072-5.931-0.342-11.867-0.51-17.801
			c-0.129-4.539-0.107-9.084-0.361-13.615c-0.125-2.238-0.42-4.754-2.662-5.928c-2.072-1.086-4.377-1.898-6.674-2.355
			c-5.631-1.119-11.289-2.182-16.984-2.859c-20.719,1.172-39.537-0.349-46.398,0.065c-3.938,0.238-50.926,2.388-55.106,2.606
			c-7.582,0.398-15.174,0.598-22.762,0.877c-2.254,0.083-4.189-1.129-4.925-3.167c-0.363-1.006-0.748-2.047-0.845-3.098
			c-0.686-7.453-1.312-14.912-1.929-22.371c-0.168-2.029-0.243-4.065-0.361-6.099c-0.218-0.01-0.437-0.021-0.655-0.031
			c-0.122,0.944-0.327,1.888-0.35,2.834c-0.131,5.446-0.27,10.894-0.301,16.341c-0.02,3.472-0.12,6.976,0.289,10.409
			c0.445,3.758-1.095,5.682-4.959,5.607c-2.784-0.054-5.572,0.127-8.359,0.203c-1.673,0.047-3.347,0.145-5.02,0.134
			c-2.618-0.017-5.239-0.21-7.852-0.13c-1.916,0.059-2.923,1.109-3.229,3.016c-0.198,1.234-0.391,2.492-0.368,3.736
			c0.148,8.243,0.016,16.513,0.652,24.721c0.494,6.379,1.655,12.756,3.1,18.999c1.374,5.936,3.365,11.743,5.361,17.512
			c0.859,2.482,2.28,4.811,3.695,7.052c2.075,3.287,2.202,6.584,5.122,9.987l0.966,2.787c0.105,2.229-0.849,3.22-3.124,3.641
			c-8.089,1.495-16.103,1.22-24.092-0.778c-3.17-0.794-6.481-1.047-9.625-1.916c-3.62-1.001-7.189-2.441-9.161-5.94
			c-1.118-1.983-1.834-4.217-2.552-6.396c-1.544-4.687-3.17-9.362-4.397-14.136c-1.394-5.425-2.592-10.919-3.509-16.443
			c-1.31-7.883-2.632-15.792-3.297-23.744c-0.537-6.421-0.195-12.924-0.084-19.388c0.073-4.244,0.268-8.5,0.688-12.722
			c0.752-7.546,1.587-15.089,2.64-22.598c0.602-4.297,1.468-8.59,2.635-12.769c1.694-6.067,3.655-12.068,5.707-18.026
			c2.358-6.847,4.764-13.688,7.479-20.398c2.281-5.642,6.075-10.367,10.213-14.797c5.175-5.539,11.115-10.132,17.249-14.564
			c5.637-4.073,11.902-6.921,17.891-10.313c5.734-3.249,11.741-5.81,17.99-7.762c3.751-1.172,7.669-1.829,11.534-2.611
			c3.812-0.771,7.633-1.543,11.483-2.072c7.026-0.965,14.069-1.835,21.123-2.582c4.457-0.472,8.941-0.812,13.42-0.918
			c6.899-0.163,13.68,0.689,20.385,2.505c5.445,1.475,11.057,2.341,16.568,3.591c3.172,0.72,6.318,1.581,9.432,2.526
			c7.754,2.354,15.518,4.688,23.211,7.227c7.061,2.33,13.842,5.344,20.389,8.902c7.197,3.91,13.527,8.896,19.094,14.86
			c2.254,2.417,4.318,5.011,6.498,7.499c1.354,1.543,2.936,2.917,4.102,4.588c1.627,2.335,3.127,4.794,4.389,7.346
			c2.898,5.869,5.143,12.006,6.797,18.342c1.023,3.926,2.264,7.843,2.773,11.845c0.781,6.147,1.258,12.357,1.43,18.552
			c0.287,10.419,0.264,20.849,0.309,31.275c0.018,3.935-0.439,7.895-0.115,11.797c0.229,2.73,0.285,5.426,0.049,8.113
			c-0.469,5.326-1.252,10.625-1.688,15.951c-0.309,3.787-0.135,7.613-0.404,11.404c-0.334,4.688-0.996,9.35-1.344,14.037
			c-0.361,4.848-1.234,9.564-2.844,14.152c-1.518,4.322-2.977,8.615-6.332,12.029c-3.74,3.803-8.238,5.853-13.42,6.36
			c-4.625,0.452-9.281,0.668-13.928,0.814c-4.84,0.151-9.637-0.302-14.348-1.536c-3.312-0.867-4.133-2.776-2.461-5.889
			L420.269,246.366z"/>
	</g>
</g>
<g id="outfit">
	<g id="boy">
		<g>
			<path display="none" fill-rule="evenodd" clip-rule="evenodd" d="M191.415,534.693c1.764,0.215,3.516,0.518,5.33,0.789
				c-0.684-3.514,0.035-4.973,3.218-6.523c3.884-1.893,7.85-2.764,11.97-0.684c1.059,0.535,1.792,1.166,1.643,2.596
				c-0.101,0.955,0.246,1.99,0.551,2.939c0.121,0.375,0.666,0.617,1.023,0.914c0.869,0.723,2.052,1.297,2.484,2.225
				c0.221,0.471-0.938,1.551-1.402,2.396c-0.243,0.441-0.555,1.023-0.451,1.449c0.892,3.664,2.503,7.008,4.708,10.068
				c1.976,2.74,4.005,5.443,5.898,8.238c1.982,2.926,2.314,6.297,1.76,9.641c-0.8,4.828-2.689,9.201-7.133,11.836
				c-1.66,0.982-3.562,1.758-5.451,2.125c-7.084,1.375-13.497-0.684-19.53-4.277c-6.622-3.943-13.243-7.887-19.84-11.871
				c-2.784-1.68-5.832-3.109-8.188-5.273c-4.649-4.271-5.433-9.965-4.766-15.998c0.52-4.695,0.913-9.406,1.315-14.113
				c0.248-2.9,2.681-5.52,5.296-5.383c0.334,2.684,1.888,4.15,4.277,5.062 M167.944,530.369c-0.428,4.07-0.924,8.145-1.262,12.23
				c-0.229,2.779-0.706,5.656-0.242,8.346c0.822,4.762,3.337,8.506,7.854,10.91c6.702,3.566,13.235,7.455,19.829,11.223
				c1.33,0.76,2.615,1.598,4.232,2.592c1.021-12.973,8.651-18.998,20.696-20.412c-1.893-4.264-4.648-0.902-6.826-1.498
				c-0.327,1.846-1.287,2.471-2.689,1.953c-1.466-0.543-3.896,0.553-4.281,2.168c-0.429,1.797-1.507,2.312-3.081,1.965
				c-0.702-0.156-1.691-0.65-1.846-1.191c-0.158-0.559,0.495-1.387,0.885-2.043c0.19-0.32,0.588-0.52,0.891-0.773
				c-0.076-0.131-0.154-0.262-0.23-0.391c-0.425,0.115-0.849,0.24-1.275,0.35c-1.371,0.35-2.748-0.398-3.031-1.773
				c-0.278-1.348,0.502-2.094,1.728-2.43c0.511-0.141,1.116-0.082,1.544-0.338c0.469-0.281,0.98-0.77,1.114-1.264
				c0.188-0.697,0.048-1.484,0.048-2.232c-0.732,0.246-1.043,0.693-1.434,1.053c-0.764,0.701-1.477,1.568-2.387,1.971
				c-1.222,0.541-2.787-0.502-3.053-1.764c-0.28-1.332,0.617-2.338,2.018-2.633c1.788-0.379,3.531-0.973,5.226-1.453
				c-0.264-1.959-0.89-2.51-2.588-2.158c-1.244,0.26-2.739,0.045-3.946-0.42c-1.931-0.742-1.771-2.557-1.324-4.295
				C185.384,535.826,175.632,536.477,167.944,530.369z M217.464,558.018c-3.55,0.021-7.42,1.773-10.764,4.641
				c-4.212,3.611-5.001,8.762-5.774,13.852c-0.06,0.395,0.447,1.121,0.861,1.299c1.86,0.803,3.73,1.689,5.691,2.123
				c3.679,0.811,7.318-0.031,10.904-0.867c0.89-0.207,1.863-0.627,2.5-1.254c3.968-3.904,4.998-8.738,3.958-14.037
				C224.169,560.348,221.429,558.049,217.464,558.018z M206.505,529.49c-1.994,0.49-3.917,1.305-5.821,2.098
				c-0.394,0.162-0.884,0.982-0.768,1.289c0.212,0.568,0.793,1.322,1.302,1.391c1.525,0.205,3.099,0.02,4.285,1.355
				c0.195,0.221,0.81,0.203,1.182,0.107c1.423-0.365,2.826-0.809,4.368-1.26 M208.789,549.494c0.522,1.729,1.132,2.455,2.607,2.057
				c1.481-0.4,3-0.662,4.91-1.072c-0.755-0.773-1.247-1.689-1.705-1.674C212.702,548.877,210.813,549.229,208.789,549.494z
				 M212.688,546.225c-1.417-2.184-2.407-2.221-5.666-0.188c0.512,0.459,1.015,1.254,1.415,1.205
				C209.823,547.074,211.173,546.613,212.688,546.225z M199.293,537.938c-0.361-0.035-0.723-0.07-1.084-0.105
				c-0.151,0.725-0.414,1.459-0.37,2.174c0.01,0.166,1.059,0.27,1.63,0.402C199.41,539.584,199.352,538.762,199.293,537.938z
				 M206.832,553.205c-0.476-0.723-0.864-1.312-1.252-1.9c-0.184,0.041-0.367,0.084-0.551,0.125
				c-0.066,1.039-0.133,2.076-0.226,3.539C205.654,554.23,206.161,553.789,206.832,553.205z"/>
			
				<path fill-rule="evenodd" clip-rule="evenodd" fill="#FFFFFF" stroke="#4C4B4B" stroke-width="0.2835" stroke-miterlimit="10" d="
				M222.413,554.969c-1.542,0.453-11.465,2.574-12.99,2.369c-3.591-1.268-12.691-21.52-12.903-22.088
				c-0.013-1.5,0.483-2.031,0.828-2.611c1.311-2.045,5.923-3.162,8.492-3.445c2.43-0.596,6.985,0.559,7.276,2.994
				C213.116,540.25,222.282,554.281,222.413,554.969z"/>
			
				<path fill-rule="evenodd" clip-rule="evenodd" fill="#FFFFFF" stroke="#4C4B4B" stroke-width="0.2835" stroke-miterlimit="10" d="
				M169.85,525.787c-0.567,6.781,15.151,12.762,24.428,9.885c4.938-1.625,8.938,20.75,17.465,21.135
				c-11.009,5.227-12.562,9.914-13.582,22.887c-1.617-0.992-2.902-1.83-4.232-2.59c-6.594-3.77-13.447-8.926-20.15-12.494
				c-5.445-2.848-9.59-6.42-10.412-11.182c-0.464-2.689,0.143-10.24,0.372-13.02C164.075,536.322,165.816,524.533,169.85,525.787z"
				/>
			
				<path fill-rule="evenodd" clip-rule="evenodd" fill="#FFFFFF" stroke="#4C4B4B" stroke-width="0.2835" stroke-miterlimit="10" d="
				M70.481,546.189c-0.035,0.279,17-22.033,17.039-22.184c1.138-4.434,1.174-4.521,6.175-2.822c2.743,0.934,6.004,1.848,8.707,2.895
				c9.241,3.574-14.478,24.801-15.605,28.283C80.986,551.818,75.419,549.971,70.481,546.189z"/>
			
				<path fill-rule="evenodd" clip-rule="evenodd" fill="#FFFFFF" stroke="#4C4B4B" stroke-width="0.2835" stroke-miterlimit="10" d="
				M94.099,574.416c0.011-0.994,0.105-1.996,0.018-2.98c-0.421-4.76-1.416-9.393-3.453-13.742c-0.566-1.209-3.786-3.098-4.429-4.146
				c1.98-3.625,14.78-21.352,17.717-22.352c2.325-1.773,3.45,1.664,7.888,0.744c6.937-0.768,12.5-2.771,15.548-6.957
				c0.664-0.912,2.865,1.314,2.794,8.574c-0.218,3.443-0.342,6.896-0.727,10.32c-0.305,2.691-0.771,5.389-1.473,8.002
				c-0.935,3.482-3.758,5.58-6.485,7.551c-3.938,2.85-7.894,5.744-12.144,8.072c-4.873,2.666-10.075,4.732-15.134,7.059
				L94.099,574.416z"/>
			<path fill-rule="evenodd" clip-rule="evenodd" fill="#4C4B4B" d="M94.038,572.186c4.643-2.135,9.418-4.031,13.89-6.479
				c3.9-2.135,7.531-4.793,11.146-7.408c2.503-1.809,9.408-8.623,9.408-8.623c-0.4,5.205-3.021,7.354-7.128,10.188
				c-3.807,2.629-7.638,5.227-11.533,7.719c-5.346,3.42-11.294,5.551-17.178,7.816L94.038,572.186"/>
			<path fill-rule="evenodd" clip-rule="evenodd" fill="#FFFFFF" d="M87.81,548.234c-2.443-1.398-10.941-4.926-13.033-6.125
				c0.065-0.172,3.75-3.617,4.387-3.469c1.928,0.451,9.103,3.49,10.824,4.562c0.315,0.197,0.222,1.494-0.063,2.104
				C89.536,546.139,88.264,547.678,87.81,548.234z"/>
			<path fill-rule="evenodd" clip-rule="evenodd" fill="#FFFFFF" d="M86.863,551.215c-4.515-1.713-10.479-4.697-14.674-6.289
				c-0.693-1.066,2.076-1.461,3.992-1.025c3.2,0.729,10.88,6.037,11.326,6.934"/>
			<path fill-rule="evenodd" clip-rule="evenodd" fill="#FFFFFF" d="M93.293,541.025c-2.231-1.043-9.727-3.955-11.865-4.955
				c0.414-1.666,1.897-3.4,3.1-3.041c1.295,0.387,8.158,3.125,8.822,4.211C93.955,538.232,94.925,539.951,93.293,541.025z"/>
			<path fill-rule="evenodd" clip-rule="evenodd" fill="#4C4B4B" d="M198.496,576.121c-1.617-0.992-2.902-1.83-4.232-2.59
				c-6.594-3.77-13.127-7.656-19.829-11.225c-4.517-2.404-11.348-10.053-11.348-10.053c-0.149,1.352-0.235,2.34-0.229,3.131
				c-0.027,0.094-0.023,0.191,0.001,0.287c0.103,2.48,1.36,2.777,5.285,6.061c3.998,2.576,5.404,3.594,8.188,5.275
				c6.597,3.982,13.218,7.928,19.84,11.871c6.033,3.592,12.021,4.355,19.104,2.98L198.496,576.121z"/>
			<path fill-rule="evenodd" clip-rule="evenodd" fill="#0466C0" d="M94.192,574.805c-4.086,2.014-9.572,2.967-13.782,3.439
				c-5.342,0.016-9.587-1.982-12.782-4.607c-4.115-3.381-6.39-10.758-4.089-15.844c0.363-3.1,4.629-8.736,6.428-11.289
				c0.472-0.852,3.312,0.26,4.436,0.641c4.418,1.49,4.004,1.148,10.059,3.818c1.773,0.672,5.532,3.791,5.886,4.93
				c1.603,3.705,2.532,5.871,3.166,9.967C93.874,568.18,94.192,574.805,94.192,574.805z"/>
			<path fill-rule="evenodd" clip-rule="evenodd" fill="#0466C0" d="M223.413,554.969c3.332,2.656,4.302,6.465,4.974,9.891
				c-0.216,5.631-1.234,10.811-5.636,14.492c-0.637,0.627-3.699,2.445-4.75,2.586c-1.694,1.191-7.226,1.678-10.904,0.865
				c-1.961-0.432-4.158-1.012-6.019-1.814c-0.414-0.178-3.304-1.15-3.244-1.545c0.773-5.088,1.318-11.709,4.891-16.301
				C207.402,557.484,214.277,554.969,223.413,554.969z"/>
			<g>
				<g>
					
						<circle fill-rule="evenodd" clip-rule="evenodd" fill="#FFFFFF" stroke="#4C4B4B" stroke-width="1.4173" stroke-miterlimit="10" cx="91.152" cy="551.764" r="1.949"/>
					
						<circle fill-rule="evenodd" clip-rule="evenodd" fill="#FFFFFF" stroke="#4C4B4B" stroke-width="1.4173" stroke-miterlimit="10" cx="103.802" cy="535.596" r="1.949"/>
					
						<circle fill-rule="evenodd" clip-rule="evenodd" fill="#FFFFFF" stroke="#4C4B4B" stroke-width="1.4173" stroke-miterlimit="10" cx="97.478" cy="543.436" r="1.949"/>
				</g>
				<g>
					
						<circle fill-rule="evenodd" clip-rule="evenodd" fill="#FFFFFF" stroke="#4C4B4B" stroke-width="1.4173" stroke-miterlimit="10" cx="194.57" cy="538.875" r="1.949"/>
					
						<circle fill-rule="evenodd" clip-rule="evenodd" fill="#FFFFFF" stroke="#4C4B4B" stroke-width="1.4173" stroke-miterlimit="10" cx="204.682" cy="556.352" r="1.949"/>
					
						<circle fill-rule="evenodd" clip-rule="evenodd" fill="#FFFFFF" stroke="#4C4B4B" stroke-width="1.4173" stroke-miterlimit="10" cx="199.039" cy="547.727" r="1.949"/>
				</g>
				<g>
					<path fill-rule="evenodd" clip-rule="evenodd" fill="#F7143A" d="M103.952,534.961c-4.177-1.283-8.046-3.422-12.12-4.998
						c-2.414-0.932-6.043-2.596-8.646-1.502c-0.585,0.246-0.329,1.215,0.266,0.965c2.535-1.066,6.241,0.777,8.616,1.695
						c3.912,1.512,7.601,3.57,11.618,4.805C104.305,536.115,104.567,535.148,103.952,534.961z"/>
					<path fill-rule="evenodd" clip-rule="evenodd" fill="#F7143A" d="M97.619,542.961c-4.284-0.865-7.744-4.322-11.787-5.924
						c-2.094-0.83-6.231-3.23-8.366-1.447c-0.496,0.414,0.216,1.117,0.707,0.707c1.735-1.449,7.224,1.57,8.989,2.336
						c3.522,1.529,6.335,4.514,10.191,5.293C97.982,544.053,98.25,543.088,97.619,542.961z"/>
					<path fill-rule="evenodd" clip-rule="evenodd" fill="#F7143A" d="M91.072,551.344c-5.349-4.131-11.894-8.863-18.919-9.068
						c-0.176-0.004-0.343,0.1-0.432,0.248c-0.269,0.449-0.195,0.57-0.05,1.053c0.185,0.615,1.15,0.354,0.964-0.266
						c-0.024-0.08-0.043-0.139-0.059-0.186c0.044,0.08,0.112,0.166,0.2,0.168c1.06,0.031,2.103,0.295,3.122,0.564
						c2.091,0.555,4.061,1.525,5.962,2.537c3.08,1.641,5.951,3.684,8.708,5.812C91.077,552.602,91.574,551.732,91.072,551.344z"/>
				</g>
				<g>
					<path fill-rule="evenodd" clip-rule="evenodd" fill="#F7143A" d="M220.917,551.189c-1.547-2.312-4.884-0.977-6.905-0.146
						c-3.195,1.312-6.06,3.674-9.325,4.75c-0.609,0.201-0.349,1.166,0.266,0.965c2.147-0.709,4.127-2.137,6.111-3.193
						c1.745-0.928,7.347-4.328,8.99-1.871C220.41,552.227,221.276,551.727,220.917,551.189z"/>
					<path fill-rule="evenodd" clip-rule="evenodd" fill="#F7143A" d="M217.339,542.922c-1.571-1.436-4.186-0.09-5.809,0.604
						c-4.061,1.738-7.895,3.008-12.378,3.084c-0.645,0.01-0.646,1.01,0,1c3.42-0.059,6.65-0.719,9.863-1.887
						c1.718-0.623,5.981-3.588,7.616-2.094C217.106,544.062,217.815,543.357,217.339,542.922z"/>
					<path fill-rule="evenodd" clip-rule="evenodd" fill="#F7143A" d="M213.917,535.023c-1.678-2.512-5.945-1.018-8.195-0.346
						c-2.175,0.65-4.294,1.484-6.419,2.275c-1.369,0.51-2.991,1.326-4.483,1.322c-0.645-0.002-0.645,0.998,0,1
						c2.684,0.01,5.667-1.717,8.133-2.611c2.049-0.742,8.435-3.631,10.102-1.137C213.41,536.061,214.276,535.561,213.917,535.023z"
						/>
				</g>
			</g>
			<path display="none" fill-rule="evenodd" clip-rule="evenodd" d="M144.157,525.375c0.036-4.682,3.158-5.41,6.212-4.635
				c3.139,0.797,6.13,2.252,9.104,3.598c2.537,1.15,2.341,3.477,1.945,5.912c7.141,4.43,13.568,1.75,19.91-1.844
				c0.301-0.17,0.674-0.463,0.736-0.758c0.418-1.982,1.861-1.773,3.338-1.732c1.463,0.041,2.104,0.783,2.064,2.131
				c-0.074,2.451-0.172,4.904-0.369,7.346c-0.363,4.465-0.859,8.92-1.205,13.385c-0.4,5.205-3.219,8.869-7.324,11.705
				c-3.807,2.627-7.639,5.225-11.534,7.719c-5.346,3.42-11.294,5.549-17.178,7.816c-4.58,1.764-9.3,3.061-14.198,2.834
				c-8.65-0.398-18.217-8.553-15.264-19.252c1.769-6.41,5.71-11.342,10.2-15.91c3.929-4,6.754-8.77,9.903-13.32
				c0.175-0.252,0.257-0.678,0.188-0.977c-0.677-2.928-0.053-3.742,3.011-3.859C143.807,525.529,143.915,525.461,144.157,525.375z
				 M151.252,572.805c4.643-2.137,9.418-4.031,13.89-6.48c3.901-2.135,7.532-4.793,11.145-7.406
				c2.504-1.811,5.094-3.734,5.953-6.932c0.643-2.396,1.072-4.873,1.352-7.344c0.354-3.143,0.467-6.312,0.666-9.471
				c0.115-1.803,0.195-3.607,0.311-5.764c-1.529,0.725-2.697,1.164-3.748,1.799c-4.488,2.707-9.344,3.818-14.552,3.502
				c-2.253-0.137-4.682-1.691-6.611,0.818c-0.026,0.035-0.115,0.033-0.173,0.029c-1.9-0.113-2.478,1.334-3.24,2.619
				c0.471,0.574,0.912,1.055,1.291,1.582c1.337,1.861,1.412,2.76-0.676,3.572c-2.317,0.9-2.106,2.609-2.42,4.307
				c-0.052,0.285-0.122,0.564-0.184,0.85c-2.013,0.371-4.03,1.303-5.587-1.07c-0.828,0.621-1.509,1.133-2.191,1.643
				c1.708,0.898,2.789,1.682,2.069,3.053c-0.486,0.926-1.652,1.494-2.416,2.139c0.591,0.963,1.341,1.965,1.86,3.072
				c1.87,3.992,2.782,8.244,3.168,12.613c0.08,0.904-0.006,1.824-0.017,2.736c-2.255,0.555-2.229,0.549-2.852-1.861
				c-1.037-4.014-2.005-8.049-3.235-12.002c-0.354-1.139-1.344-2.248-2.328-2.994c-3.759-2.85-8.176-4.33-12.595-5.82
				c-1.124-0.381-1.723-0.133-2.195,0.719c-1.32,2.389-2.712,4.75-3.834,7.23c-2.3,5.088-1.085,11.176,3.03,14.557
				c3.195,2.627,6.548,4.732,11.196,3.998C142.83,575.787,147.166,574.818,151.252,572.805z M147.055,525.688
				c3.389,2.838,7.178,3.689,11.166,4.098c0.504-1.703,0.344-2.984-1.427-3.734c-1.854-0.785-3.616-1.803-5.498-2.504
				c-3.431-1.275-3.457-1.209-4.237,2.119C147.033,525.777,147.032,525.896,147.055,525.688z M145.542,547.975
				c0.454-0.557,1.208-1.217,1.597-2.049c0.285-0.611,0.378-1.906,0.063-2.104c-1.721-1.072-3.526-2.193-5.454-2.645
				c-0.637-0.148-1.733,1.643-2.606,2.561c-0.101,0.105-0.119,0.293-0.184,0.465C141.051,545.4,143.1,546.576,145.542,547.975z
				 M130.66,547.398c4.195,1.594,8.274,3.143,12.789,4.855c-0.446-0.896-0.634-1.564-1.042-2.045
				c-2.19-2.586-5.166-3.75-8.366-4.479C132.125,545.295,131.378,545.703,130.66,547.398z M150.507,541.645
				c1.632-1.076,0.662-2.793,0.056-3.785c-0.664-1.086-2.157-1.906-3.452-2.293c-1.202-0.359-2.686,1.375-3.1,3.041
				C146.15,539.607,148.276,540.602,150.507,541.645z M141.686,533.037c-0.909,1.602-1.717,3.027-2.56,4.514
				c1.961,0.453,3.729-1.148,4.369-3.736C142.975,533.592,142.444,533.363,141.686,533.037z M134.938,543.146
				c2.046,0.881,2.301,0.693,3.627-2.676C137.107,540.057,135.725,541.076,134.938,543.146z M148.282,529.492
				c-1.767-1.723-2.576-1.74-3.625,0C145.901,529.492,147.003,529.492,148.282,529.492z"/>
		</g>
		<path fill="#0466C0" d="M232.531,458.074c0-0.096-0.675-4.309-0.943-6.59c-0.188-1.598-0.273-4.912-0.259-5.193
			c0.061-1.221,0.055-2.443,0.038-3.666c0.139-2.693,0.314-5.385,0.337-8.084c0.003-0.354-0.102-2.248-0.046-3.438
			c-0.118-2.75,0.039-2.684-0.579-5.832c-0.5-1.719-0.592-2.141-1.229-4.271c-0.365-1.219-0.147-0.389-1.831-0.141
			c-0.241,0.035-4.698,0.422-4.886,0.557c-1.997,0.172-3.949,0.463-5.952,0.504c-3.565,0.367-9.518,0.648-9.702,0.689
			c-1.405,0.086-11.335,0.75-14.341,0.625c-5.699,0.398-18.73,0.842-20.923,0.717c-13.006,0.562-25.39,0.514-38.263,0.699
			c-0.949-0.104-30.366,0.521-37.761,0.064c-0.885-0.055-11.792-0.469-12.593-0.566c-2.488-0.303-7.868-0.889-8.79-1.023
			c-1.975-0.365-3.405-0.811-4.571-1c-1.265-0.205-1.174-0.375-1.174,1.016c0,0,0.329,5.297,1.222,10.34
			c1.202,6.748,1.038,11.699,0.925,15.629c-0.06,1.193-0.459,4.529-0.505,4.943c-0.102,0.916-0.041,3.963,0.161,4.695
			c0.31,1.125,1.125,2.006,2.072,2.689c1.558,1.125,5.544,2.029,7.353,2.609c1.754,0.562,3.632,1.188,7.168,1.74
			c3.731,0.582,7.471,1.166,11.224,1.572c4.388,0.475,8.809,0.613,13.2,1.09c8.363,0.906,14.566,1.281,24.018,0.889
			c3.633-0.152,6.815-0.633,10.082-1.041c2.505-0.312,1.912-3.041,2.409-6.826c0.949-7.227,0.216-13.141,2.61-20.186
			c0.224-0.658,1.118-3.551,1.717-3.848c2.407,1.984,3.083,5.766,3.523,9.031c0.46,2.189,0.354,5.006,0.208,7.047
			c-0.091,1.277-0.082,1.857-0.166,2.375c-0.105,1.27-0.265,4.469-0.242,5.75c0.041,2.287-0.034,6.348,3.093,5.969
			c0.874-0.105,9.891,0.037,11.928,0.059c9.343,0.104,18.404,0.365,27.484-0.055c4.608-0.211,8.561-0.184,13.734-0.4
			c1.38-0.057,8.444-0.412,9.936-0.436c2.294-0.205,2.804-0.096,3.925-0.334c1.496-0.316,3.21-0.449,4.521-1.236
			C232.838,464.072,232.531,461.24,232.531,458.074z"/>
		<g>
			<path fill-rule="evenodd" clip-rule="evenodd" fill="#FFFFFF" d="M90.064,263.121c1.843,3.024,18.385,9.698,20.98,11.237
				c8.48,5.028,17.677,7.936,27.498,8.645c6.025,0.435,12.11,0.993,18.111,0.607c10.952-0.702,21.742-2.8,32.076-6.564
				c3.572-1.302,4.511-2.771,8.162-4.886c2.291-1.035,6.127-3.313,9.762-3.299c5.579,0.021,10.069,9.996,10.5,11.5
				c3.75,7.75,6.245,14.767,8.101,22.716c1.831,7.844,3.895,16.432,5.118,24.391c1.175,7.654-0.293,15.664,0.32,23.389
				c0.395,4.971,0.229,9.988,0.3,14.984c0.003,0.213,1.449,33.617,2.252,38.42c0.698,3.85,0.676,5.443,0.065,8.756
				c-0.166,0.9-0.875,2.438-1.406,3.75c-0.27,0.914-1.843,3.375-2.377,3.59c-2.311,1.379-31.188,2.73-34.117,2.879
				c-11.104,0.561-22.395,0.664-33.506,0.945c-9.819,0.248-19.836,0.787-29.663,0.854c-5.127,0.486-10.434-0.609-15.589-0.207
				c-6.295,0.488-12.294-0.043-18.628-0.041c-4.651,0.002-9.494-0.387-14.13-0.637c-3.235-0.172-6.993-0.58-10.166-1.311
				c-1.316-0.303-3.55,0.07-4.676-0.812c-0.089-0.918-0.294-1.482-0.333-3.041c-1.397-7.189,0.115-41.809,0.115-42.5
				c0-3.625-0.104-4.738,0.23-7.891c0.156-1.469-0.395-5.502-0.23-5.984c-0.117-6.5-0.809-10.215-0.352-14.979
				c0.647-6.762,1.258-11.604,2.084-18.344c0.579-4.723,1.335-9.527,2.136-14.215c1.36-7.967,3.665-15.704,6.22-23.378
				c1.894-5.688,4.673-11.316,6.242-17.106C85.573,273.063,89.879,264.833,90.064,263.121z"/>
			<path fill="#FFFFFF" stroke="#4C4B4B" stroke-width="0.2835" stroke-miterlimit="10" d="M216.95,262.648
				c3.699-0.268,7.111,4.839,8.605,6.212c5.17,4.762,9.771,10.072,12.91,16.41c3.197,6.463,6.453,12.944,8.979,19.679
				c3.238,8.637,5.256,19.928,6.943,28.992c2.314,12.449,1.921,24.182,1.765,36.793c-0.123,9.832,0.597,17.479,3.319,27.84
				c0.537,1.482-0.009,3.41-1.919,4.592c-5.197,2.713-13.838,6.881-20.275,6.693c-0.997-0.012-3.015,0.344-3.537-0.055
				c-0.874-0.666-0.024-2.73-0.291-4.338c-0.867-5.23-2.976-12.355-2.823-17.529c0.125-4.244,0.36-2.746,0.86-6.246
				c-0.982-1.25,0.076-42.645-1.115-54.225c-0.746-7.248-2.939-14.127-5.221-21.023c-2.867-8.666-5.536-16.979-8.798-25.5
				c-1.762-4.6-6.2-11.771-8.053-13.317L216.95,262.648z M89.792,263.509c-1.538,3.344-3.336,7.642-4.631,11.079
				c-2.827,7.508-5.631,15.033-8.105,22.663c-1.604,4.941-2.787,10.039-3.834,15.134c-1.041,5.061-1.789,10.189-2.457,15.314
				c-0.865,6.631-1.471,13.293-2.285,19.932c-0.783,6.387,0.627,12.508,2.005,18.812c0.092,0.42-1.343,15.873-1.351,16.293
				c-0.011,0.643-0.219,1.281-0.221,1.922c-0.006,4.473,0.119,8.947,0.004,13.416c-0.084,3.279,0.282,10.385-0.061,13.65
				c-0.058,0.543-2.34,1.369-2.828,1.51c-4.631,1.328-11.965,0.338-16.631-1.229c-5.528-1.857-8.84-6.197-7.612-11.225
				c1.317-5.389,1.435-10.873,0.868-16.258c-0.822-7.812-0.288-15.559,0.181-23.314c0.255-4.221,3.35-22.402,4.603-27.182
				c0.994-3.793,7.095-22.496,10.861-32.25c5.483-10.996,10.546-20.513,17.069-29.56c1.439-1.994,6.065-7.701,6.684-8.738
				c0.769-0.987,2.721-2.632,3.521-2.729c0,0,4.692,2.02,4.331,2.516L89.792,263.509z"/>
			<g>
				<path fill-rule="evenodd" clip-rule="evenodd" fill="#0466C0" d="M228.39,272.09c-2.657,2.822-7.76,5.437-11.554,5.521
					c-0.644,0.014-0.646,1.014,0,1c4.052-0.09,9.424-2.8,12.261-5.814C229.538,272.329,228.832,271.62,228.39,272.09z"/>
				<path fill-rule="evenodd" clip-rule="evenodd" fill="#0466C0" d="M253.86,329.49c-6.125,3.412-17.98,7.205-22.69,6.902
					c-0.645-0.041-0.726,1.779-0.085,1.82c7.055,0.453,17.482-3.896,22.956-6.936C254.603,330.965,254.425,329.176,253.86,329.49z"
					/>
				<path fill-rule="evenodd" clip-rule="evenodd" fill="#0466C0" d="M257.122,384.359c-7.807,4.211-17.191,7.055-25.739,7.025
					c-0.645-0.002-0.686,1.555-0.041,1.557c8.746,0.031,18.112-2.783,26.093-7.09C258.003,385.545,257.689,384.053,257.122,384.359z
					"/>
				<path fill-rule="evenodd" clip-rule="evenodd" fill="#F7143A" d="M245.406,300.916c-5.271,3.062-11.401,5.881-18.621,5.818
					c-0.638-0.006-0.667,1.289-0.023,1.297c8.328,0.1,14.474-2.67,19.391-5.922C246.69,301.754,245.965,300.59,245.406,300.916z"/>
				<path fill-rule="evenodd" clip-rule="evenodd" fill="#F7143A" d="M255.88,357.994c-7.589,2.969-16.182,5.869-24.459,5.66
					c-0.646-0.018-0.703,1.617-0.06,1.633c8.365,0.213,17.05-2.693,24.725-5.695C256.68,359.359,256.481,357.758,255.88,357.994z"/>
			</g>
			<g>
				<path fill-rule="evenodd" clip-rule="evenodd" fill="#0466C0" d="M68.399,390.904c-8.756,0.498-17.833-3.166-24.867-5.982
					c-0.599-0.238-1.395,1.117,0.138,1.725c9.299,3.684,15.216,5.684,25.133,6.018C69.444,392.686,69.044,390.869,68.399,390.904z"
					/>
				<path fill-rule="evenodd" clip-rule="evenodd" fill="#0466C0" d="M71.142,332.277c-7.214-0.096-14.49-1.402-21.501-3.959
					c-0.606-0.221-1.196,0.934-0.583,1.133c6.408,2.096,10.533,3.658,21.767,3.994C71.469,333.465,71.787,332.285,71.142,332.277z"
					/>
				<path fill-rule="evenodd" clip-rule="evenodd" fill="#0466C0" d="M84.452,275.628c-3.108-0.462-5.633-1.415-8.979-3.333
					c-0.559-0.32-0.796,0.597-0.266,0.964c2.612,1.81,5.86,2.87,8.979,3.333C84.817,276.686,85.088,275.723,84.452,275.628z"/>
				<path fill-rule="evenodd" clip-rule="evenodd" fill="#F7143A" d="M76.415,301.627c-7.02-0.311-9.506-0.889-15.763-4.016
					c-0.572-0.286-0.505,0.599,0,1c4.25,3.374,10.796,3.624,15.497,3.981C76.788,302.641,77.059,301.656,76.415,301.627z"/>
				<path fill-rule="evenodd" clip-rule="evenodd" fill="#F7143A" d="M68.152,362.244c-8.085-0.492-15.75-2.65-24.367-5.949
					c-0.594-0.229-0.763,1.127-0.196,1.43c6.813,3.635,16.449,5.486,24.633,5.984C68.866,363.748,68.793,362.283,68.152,362.244z"/>
			</g>
		</g>
		<g>
			<g>
				<path fill-rule="evenodd" clip-rule="evenodd" fill="#F7143A" d="M203.898,291.858c-42.425,17.431-82.569,6.585-106.643,0.421
					c-0.624-0.16-0.556,1.235,0.076,1.368c18.133,3.807,61.465,18.558,107.071-0.926
					C204.996,292.468,204.495,291.613,203.898,291.858z"/>
				<path fill-rule="evenodd" clip-rule="evenodd" fill="#F7143A" d="M216.395,342.943c-57.992,17.916-91.082,12.227-129.971,3.602
					c-0.629-0.139-0.316,2.51,0.315,2.641c41.251,8.523,71.763,13.59,129.255-4.076C216.609,344.92,217.012,342.754,216.395,342.943
					z"/>
				<path fill-rule="evenodd" clip-rule="evenodd" fill="#F7143A" d="M225.598,400.318c-68.957,16.918-114.223,3.48-149.22,2.51
					c-0.72-0.02-0.695,0.914,0.02,1c25.737,3.088,99.759,14.025,149.219-2.51C226.299,401.09,226.296,400.146,225.598,400.318z"/>
				<path fill-rule="evenodd" clip-rule="evenodd" fill="#0466C0" d="M212.379,318.299c-47.098,14.316-96.772,4.879-125.43,0.471
					c0,0-0.653,0.885,0,1c32.815,5.723,78.332,15.096,125.703-0.506C213.281,319.057,213.014,318.105,212.379,318.299z"/>
				<path fill-rule="evenodd" clip-rule="evenodd" fill="#0466C0" d="M220.3,369.326c-60.397,21.016-106.397,9.533-135.02,3.627
					c-0.632-0.131-0.594,0.854,0.03,1c26.842,6.336,69.511,20.365,135.619-2.955C221.536,370.783,220.909,369.113,220.3,369.326z"/>
			</g>
			<path fill-rule="evenodd" clip-rule="evenodd" d="M230.402,384.928c0.718,1.871-2.536,0.805-4.625,0.625
				c-2.097-0.18-4.122,0.328-6.208,0.084c-0.266,0.824-2.753-0.289-2.792-0.75c-0.277-3.193-0.043-9.6-0.139-12.805
				c-0.013-0.4,0.918-1.518,1.317-1.592c0.97-0.178,3.077-0.1,4.071-0.018c1.064,0.088,2.435,0.639,3.5,0.705
				c2.604,0.166,3.78-2.428,3.875,0.125C229.482,373.502,230.402,382.727,230.402,384.928z"/>
			<path fill-rule="evenodd" clip-rule="evenodd" d="M82.277,374.984c-0.098-2.449,1.916-6.117-0.868-5.758
				c-2.31,0.297-7.458-0.355-9.762-0.617c-3.003-0.342-1.724,4.779-2.057,7.826c-0.098,0.893-0.149,3.502,0.11,4.102
				c0.113,0.467-1.027-1.432-0.782-1.012c0.261,0.338,0.521,0.674,0.782,1.012c0.624,0.619,1.359,1.049,2.207,1.285
				c0.51,0.207,1.086,0.244,1.638,0.26c0.753,0.465,1.619,0.754,2.554,0.754c1.952,0,2.487,1.119,4.304,0.055
				C83.03,381.352,82.385,377.693,82.277,374.984z"/>
			<path fill="#F7143A" d="M90.064,263.121c3.021,1.092,13.488,6.065,13.414,6.631c-0.372,2.838-0.698,5.21-1.442,7.938
				c-2.119,7.773-4.691,15.422-6.85,23.184c-1.756,6.328-3.455,12.697-4.656,19.146c-1.227,6.578-1.902,13.264-2.658,19.922
				c-0.699,6.148-1.082,12.332-1.807,18.475c-0.326,2.758-1.116,6.598-1.769,9.311c-0.088,0.361-0.576,0.893-0.879,0.893
				c-2.678,0.008-8.799-0.736-11.476-0.74c-2.383-0.115-3.255-1.678-3.445-3.334c-0.619-6.592-1.028-13.254-0.168-19.854
				c0.468-3.598,1.095-7.174,1.529-10.773c0.551-4.557,0.756-9.166,1.52-13.682c0.949-5.615,2.097-11.219,3.569-16.717
				c1.505-5.618,3.35-11.159,5.333-16.629c2.568-7.086,5.01-13.736,8.048-20.739L90.064,263.121z M208.093,267.289
				c3.111,2.902,6.35,6.975,7.992,10.83c1.211,2.695,2.545,5.3,3.428,8.771c2.633,7.625,5.336,15.088,7.711,22.793
				c1.789,5.803,3.142,12.348,3.517,18.426c0.369,5.963,0.613,11.557,0.92,17.521c0.277,5.385-0.202,10.861-0.11,16.256
				c0.037,2.262,1.213,7.982-0.368,8.287c-3.746,0.721-12.217,2.779-14.545,0.592c-1.925-1.807-1.179-9.443-1.417-12.934
				c-0.557-8.146-0.977-16.328-2.1-24.406c-1.207-8.686-2.982-17.305-4.838-25.881c-1.389-6.422-9.107-31.188-11.598-35.723
				C198.347,270.491,208.093,267.289,208.093,267.289z"/>
			<path d="M231.777,399.984c0.531,3.178,1.1,7.666,1.375,10.875c0.205,2.398-2.061,4.959-4.375,5.393
				c-1.969,0.369-5.383,0.178-7.375-0.018c-3.434-0.336-5.9-2.051-4.791-5.387c0.828-2.486,1.465-5.822,0.666-8.238
				c-1.732-5.242-1.91-10.148-0.75-15.5c0.135-0.631,0.374-2.373,1.066-1.889c4.045,0,8.618-0.162,11.315-0.195
				c0.544-0.014,0.736-0.041,1.061,0.59C230.412,385.955,231.09,395.875,231.777,399.984z"/>
			<path fill-rule="evenodd" clip-rule="evenodd" d="M82.387,386.432c0.885,3.498,1.619,7.07,2.91,10.422
				c2.312,6.004,1.354,13.582-0.446,19.641c-0.478,1.609-1.562,2.457-3.559,3.201c-1.42,0.004-8.525,0.318-9.916,0.029
				c-2.96-0.615-4.086-1.395-3.292-4.301c1.391-5.088,0.963-11.629,0.1-16.762c-0.587-3.49,0.159-7.371,0.076-10.945
				c-0.023-1.004,1.123-5.234,1.123-5.945c3.645,0.963,8.412,2.16,12.02,1.578C81.834,383.527,82.211,383.963,82.387,386.432z"/>
			<path fill-rule="evenodd" clip-rule="evenodd" fill="none" stroke="#423B3E" stroke-width="2.8347" stroke-miterlimit="10" d="
				M84.234,375.971c-0.214,3.783-1.911,7.01-5.5,6.807l-6.035-0.178c-3.589-0.203-5.082-4.033-4.868-7.816l0.033-0.572
				c0.214-3.783,1.424-6.508,5.013-6.305l7.44-0.012c3.589,0.205,4.298,3.66,4.083,7.445L84.234,375.971z"/>
			<path fill-rule="evenodd" clip-rule="evenodd" fill="none" stroke="#423B3E" stroke-width="2.8347" stroke-miterlimit="10" d="
				M232.277,379.422c-0.24,3.682,0.223,5.52-3.688,5.607l-9.301,0.602c-3.91,0.088-4.182-3.439-4.267-7.113l-0.011-0.557
				c-0.083-3.676,0.156-6.826,4.069-6.918l11.077-0.277c0.885-0.02,1.194,1.199,1.847,6.094L232.277,379.422z"/>
		</g>
		<g>
			<g>
				<path opacity="0.4" fill-rule="evenodd" clip-rule="evenodd" fill="#E25A3B" d="M200.527,202.318
					c-2.112,0.067-2.008,3.341,0.104,3.274C202.742,205.525,202.639,202.251,200.527,202.318z"/>
				<path opacity="0.4" fill-rule="evenodd" clip-rule="evenodd" fill="#E25A3B" d="M191.033,213.182
					c-2.111,0.067-2.008,3.341,0.104,3.274S193.145,213.115,191.033,213.182z"/>
				<path opacity="0.4" fill-rule="evenodd" clip-rule="evenodd" fill="#E25A3B" d="M216.676,209.548
					c-2.111,0.067-2.007,3.341,0.104,3.274C218.893,212.755,218.788,209.481,216.676,209.548z"/>
				<path opacity="0.4" fill-rule="evenodd" clip-rule="evenodd" fill="#E25A3B" d="M227.933,205.545
					c-2.111,0.067-2.007,3.341,0.104,3.274S230.045,205.478,227.933,205.545z"/>
				<path opacity="0.4" fill-rule="evenodd" clip-rule="evenodd" fill="#E25A3B" d="M236.46,216.113
					c-2.111,0.067-2.008,3.34,0.104,3.273S238.57,216.046,236.46,216.113z"/>
				<path opacity="0.4" fill-rule="evenodd" clip-rule="evenodd" fill="#E25A3B" d="M209.476,217.701
					c-2.112,0.067-2.008,3.341,0.104,3.274C211.691,220.908,211.587,217.634,209.476,217.701z"/>
			</g>
			<g>
				<path opacity="0.4" fill-rule="evenodd" clip-rule="evenodd" fill="#E25A3B" d="M90.957,202.738c-2.028,0-2.028,3.145,0,3.145
					C92.985,205.883,92.985,202.738,90.957,202.738z"/>
				<path opacity="0.4" fill-rule="evenodd" clip-rule="evenodd" fill="#E25A3B" d="M78.876,211.674c-2.028,0-2.028,3.145,0,3.145
					C80.905,214.818,80.905,211.674,78.876,211.674z"/>
				<path opacity="0.4" fill-rule="evenodd" clip-rule="evenodd" fill="#E25A3B" d="M102.673,210.888c-2.028,0-2.028,3.145,0,3.145
					C104.702,214.033,104.702,210.888,102.673,210.888z"/>
				<path opacity="0.4" fill-rule="evenodd" clip-rule="evenodd" fill="#E25A3B" d="M110.396,204.669c-2.028,0-2.028,3.145,0,3.145
					C112.424,207.813,112.424,204.669,110.396,204.669z"/>
				<path opacity="0.4" fill-rule="evenodd" clip-rule="evenodd" fill="#E25A3B" d="M120.257,213.749c-2.029,0-2.029,3.145,0,3.145
					C122.285,216.894,122.285,213.749,120.257,213.749z"/>
				<path opacity="0.4" fill-rule="evenodd" clip-rule="evenodd" fill="#E25A3B" d="M95.315,218.252c-2.029,0-2.029,3.144,0,3.144
					C97.343,221.396,97.343,218.252,95.315,218.252z"/>
			</g>
		</g>
		<g>
			<path fill-rule="evenodd" clip-rule="evenodd" fill="#D08836" d="M280.884,141.364c-0.404-0.637-9.731-15.087-11.804-17.064
				c-3.614-3.447-11.634-8.592-11.904-8.757c-3.162-1.933-29.907-9.928-40.217-11.452c-12.881-4.374-60.973-4.298-68.474-3.786
				c-1.694,0.022-24.189,1.51-41.334,4.138c-6.816,1.045-15.063,3.443-23.757,6.531c-2.78,0.494-28.268,14.111-33.678,17.41
				c-3.117,1.437-20.328,11.285-25.587,14.909c-0.597,0.411-3.636,1.595-3.984,2.11c-1.191,1.071,0.769,2.002,1.437,4.037
				c2.496,7.606,4.992,15.296,8.754,22.444c1.504,2.859,1.504,2.859,3.668,1.572c1.899-0.72,7.052,0.739,8.742,1.661
				c0.917,0.745,4.032,2.619,4.793,4.325c0.203,0.519,0.422,1.033,0.632,1.552c0.127,0.313,0.457,0.383,0.704,0.293
				c0.291,0.173,9.813-3.113,9.903-3.176c2.573-0.709,24.039-10.887,25.674-11.79c3.269-1.805,8.73-6.888,11.15-9.714
				c4.006-4.85,5.251-7.747,7.191-13.387c1.047-3.047,1.68-6.308,1.816-9.572c0.186,0.436,0.388,0.868,0.615,1.293
				c2.252,4.211,4.679,7.67,7.304,12.045c2.534,3.463,5.57,6.259,9.021,8.199c4.524,3.342,9.944,5.344,15.854,7.051
				c11.083,2.395,22.041,3.9,33.375,4.375c6.211,0.947,37.52,2.205,34.375,2c12.33,0.801,27.092,4.365,29.126,4.893
				c5.028,1.563,10.334,4.359,13.459,7.021c1,0.796,4.775,5.503,6.062,6.69c0.175,0.162,3.097-0.171,3.104-0.604
				c0.006-0.388,0.376-4.854,1.273-6.087c0.299-0.603,1.324-1.543,2.7-2.392c1.088-0.671,3.006-2.057,3.694-2.521
				c1.097-0.535,1.959-0.833,3.167-0.958c1.141,0.083,2.23,0.47,3.019,0.959c0.6,0.373,2.479,2.146,2.479,2.146
				c0.396-0.167,0.854-2.381,1.167-3.229c0.333-0.9,0.633-2.282,0.821-3.089c1.217-5.227,3.074-10.12,3.854-15.233
				c0.205-0.543,2.043-9.832,2.088-10.032C281.416,145.058,281.09,141.688,280.884,141.364z"/>
			<path display="none" fill-rule="evenodd" clip-rule="evenodd" d="M103.815,132.594c-0.349,2.321-0.765,4.344-0.939,6.388
				c-0.673,7.933-4.327,14.304-9.776,19.948c-5.849,6.057-13.138,9.785-20.633,13.069c-7.801,3.419-15.866,6.235-23.828,9.319
				c-0.472-1.003-0.734-1.562-1.025-2.181c3.415-1.234,6.886-2.48,10.351-3.743c2.516-0.917,5.026-1.849,7.534-2.786
				c6.585-2.459,12.72-5.841,18.678-9.502c4.359-2.679,7.844-6.367,10.888-10.528c3.863-5.282,4.436-11.432,5.244-17.574
				c0.622-4.727,0.661-9.403-0.581-14.057c-0.148-0.555,0.338-1.279,0.531-1.925c0.492,0.219,1.041,0.36,1.465,0.67
				c1.633,1.195,2.361,2.912,2.793,4.841c1.422,6.351,4.903,11.73,8.29,17.128c3.331,5.311,7.681,9.67,13.312,12.487
				c5.645,2.824,11.655,4.875,17.873,5.821c9.163,1.394,18.386,2.532,27.623,3.265c10.986,0.872,22.03,1.002,33.022,1.816
				c13.2,0.978,26.146,3.445,38.335,8.801c3.632,1.596,6.97,3.964,10.212,6.297c1.381,0.995,2.246,2.762,3.206,4.267
				c0.619,0.97,0.165,1.812-0.786,2.406c-1.032,0.645-1.384-0.156-1.781-0.818c-3.273-5.448-8.821-7.919-14.176-10.452
				c-6.997-3.31-14.589-4.75-22.165-6.141c-9.146-1.679-18.376-2.274-27.655-2.574c-8.974-0.29-17.96-0.659-26.898-1.463
				c-10.922-0.982-21.815-2.343-32.259-6.044c-7.878-2.792-14.518-7.206-19.096-14.328c-2.44-3.796-4.688-7.716-7.031-11.575
				C104.405,133.2,104.191,133.019,103.815,132.594z"/>
			<path display="none" fill-rule="evenodd" clip-rule="evenodd" d="M23.011,144.867c3.738,9.724,7.362,19.157,10.993,28.588
				c0.393,1.02-0.372-2.002-1.601-1.533c-1.227,0.469-1.018-1.628,0.25,1.062c-3.014-7.47-7.059-13.359-10.028-20.847
				c-0.854-2.155-1.605-4.35-2.48-6.735c-0.193-0.034-0.711-0.154-1.235-0.209c-1.279-0.133-1.624-0.916-0.933-1.831
				c0.897-1.186,0.472-2.137,0.037-3.302c-3.055-8.185-4.288-16.662-3.655-25.369c0.62-8.531,2.417-16.819,5.137-24.949
				c4.861-14.526,12.66-27.12,23.975-37.478c5.703-5.22,12.047-9.604,18.714-13.459c5.772-3.338,11.673-6.504,17.723-9.301
				c6.907-3.194,13.94-6.184,21.11-8.718c5.078-1.794,10.453-2.784,15.738-3.942c3.907-0.856,7.869-1.501,11.831-2.067
				c4.485-0.64,8.994-1.128,13.501-1.588c1.176-0.12,1.822-0.296,1.895-1.716c0.092-1.793,2.762-4.154,4.989-4.301
				c2.246-0.148,4.552-0.066,6.775,0.277c2.382,0.367,3.81,2.936,3.206,5.339c2.604,0.259,5.192,0.532,7.782,0.771
				c7.085,0.656,14.005,2.076,20.735,4.409c4.021,1.393,8.055,2.746,12.097,4.078c0.487,0.161,1.086,0.204,1.583,0.088
				c8.065-1.879,16.278-2.733,24.515-2.945c6.113-0.157,12.255,0.323,18.366,0.756c4.458,0.316,9.002,0.564,13.305,1.649
				c7.552,1.902,15.056,4.126,22.371,6.789c4.775,1.738,9.436,3.99,13.324,7.55c3.208,2.938,5.587,6.426,7.273,10.32
				c2.267,5.232,4.272,10.586,6.147,15.973c0.633,1.818,0.754,3.899,0.715,5.852c-0.144,7.113-0.342,14.229-0.752,21.331
				c-0.184,3.194-0.487,6.501-1.503,9.498c-1.446,4.267-3.155,8.572-5.538,12.369c-5.492,8.75-11.429,17.224-17.261,25.757
				c-0.932,1.362-2.396,2.368-1.229,4.331c0.184,0.31-0.377,1.061-0.64,1.727c1.71,1.64,0.693,3.721,0.306,5.499
				c-1.523,6.984-3.332,13.907-5.042,20.851c-0.47,1.905-0.936,3.812-1.454,5.705c-0.461,1.682-0.772-0.879-1.381,1.155
				c-0.848-1.58-1.426,0.576-0.896-1.479c2.363-9.154,3.486-16.903,5.542-26.132c0.545-2.448,0.707-4.938,0.532-7.571
				c-0.23-3.476-1.928-5.984-3.477-8.728c-2.553-4.524-5.612-8.634-9.821-11.766c-4.832-3.595-10.175-6.161-15.998-7.701
				c-7.866-2.081-15.715-4.235-23.618-6.165c-4.878-1.19-9.823-2.145-14.776-2.978c-5.129-0.863-10.286-1.86-15.461-2.065
				c-7.957-0.315-15.94-0.042-23.912,0.053c-6.354,0.076-12.712,0.149-19.059,0.427c-6.04,0.265-12.068,0.792-18.103,1.206
				c-5.721,0.392-11.472,0.538-17.157,1.227c-14.473,1.753-28.313,5.841-41.491,12.084c-8.302,3.933-16.688,7.724-24.77,12.074
				c-8.263,4.447-16.2,9.497-24.277,14.288C24.915,143.676,23.917,144.31,23.011,144.867z M278.851,136.099
				c1.108-1.639,1.94-2.973,2.873-4.233c5.911-7.988,11.604-16.126,16.315-24.891c1.634-3.041,3.47-6.162,4.183-9.469
				c1.65-7.651,2.703-15.387,2.387-23.329c-0.246-6.197-0.378-12.293-2.805-18.107c-0.646-1.545-1.034-3.209-1.784-4.696
				c-1.932-3.83-3.716-7.778-6.08-11.333c-3.295-4.952-8.927-6.838-14.075-8.898c-9.732-3.895-19.785-6.933-30.303-7.95
				c-9.111-0.881-18.234-1.381-27.406-0.796c-7.794,0.498-15.531,1.38-23.023,3.557c-7.056,2.05-13.953,4.64-20.956,6.883
				c-9.311,2.983-18.352,6.69-26.983,11.199c-10.685,5.58-21.163,11.583-31.497,17.792c-6.034,3.626-11.72,7.868-17.369,12.091
				c-7.42,5.547-14.644,11.358-21.965,17.04c-4.152,3.222-8.477,6.238-12.464,9.65c-7.708,6.595-15.294,13.335-22.813,20.146
				c-6.431,5.825-12.699,11.83-19.027,17.768c-0.503,0.473-0.917,1.041-1.373,1.565c0.856-0.254,1.452-0.759,2.114-1.154
				c5.025-3.003,9.937-6.231,15.125-8.923c11.332-5.879,22.723-11.66,34.247-17.152c12.632-6.021,26.026-9.636,39.93-11.164
				c6.246-0.686,12.547-0.855,18.821-1.284c5.555-0.379,11.102-0.975,16.662-1.153c10.9-0.349,21.812-0.32,32.709-0.738
				c9.055-0.348,17.959,0.735,26.771,2.457c8.325,1.626,16.57,3.702,24.789,5.819c7.155,1.843,14.425,3.34,21.175,6.563
				c7.834,3.741,14.131,9.109,18.441,16.703C276.52,131.916,277.551,133.779,278.851,136.099z M21.012,139.4
				c1.709-1.794,3.296-3.664,5.09-5.309c9.217-8.447,18.414-16.917,27.763-25.218c6.352-5.639,12.871-11.096,19.442-16.48
				c6.623-5.425,13.346-10.731,20.125-15.959c9.615-7.417,19.272-14.811,29.87-20.791c10.156-5.731,20.42-11.285,30.779-16.638
				c9.861-5.095,20.436-8.474,30.907-12.061c3.303-1.132,6.645-2.151,10.161-3.285c-1.688-0.913-3.021-1.867-4.503-2.394
				c-6.995-2.486-14.188-4.373-21.558-5.11c-6.526-0.654-13.135-0.88-19.694-0.729c-6.2,0.143-12.4,0.883-18.569,1.622
				c-4.384,0.525-8.74,1.37-13.064,2.278c-5.019,1.054-10.118,1.957-14.95,3.608c-6.322,2.161-12.37,5.11-18.621,7.501
				c-8.768,3.354-16.922,7.842-24.687,13.048c-5.86,3.929-11.86,7.711-16.477,13.217c-2.913,3.474-6.178,6.687-8.808,10.359
				c-5.918,8.267-10.239,17.358-13.098,27.148c-2.584,8.852-3.766,17.842-3.575,27.07C17.677,127.502,18.645,133.498,21.012,139.4z
				 M155.804,12.598c-0.211-2.641-2.023-3.535-5.873-3.188c-2.507,0.226-3.234,0.979-2.987,3.188
				C149.846,12.598,152.756,12.598,155.804,12.598z"/>
			<g>
				
					<path fill-rule="evenodd" clip-rule="evenodd" fill="#FFFFFF" stroke="#4C4B4B" stroke-width="0.2835" stroke-miterlimit="10" d="
					M18.844,144.313c-2.52-6.353-5.115-12.846-5.252-19.544c-0.204-9.933,0.917-18.804,3.667-28.333
					C20.3,85.898,24.022,76.009,30.32,67.111c2.797-3.952,6.734-8.595,9.833-12.333c5.548-5.143,11.931-10.604,18.167-14.833
					c9.546-5.577,13.679-7.262,22.333-11.5c6.434-3.15,12.941-5.508,19.667-7.833c5.141-1.777,11.16-3.366,16.5-4.5
					c4.601-0.979,9.002-1.604,13.667-2.168c6.563-0.795,14.24-1.191,20.838-1.344c6.979-0.162,14.323,0.639,21.267,1.344
					c7.842,0.794,15.286,2.894,22.729,5.569c1.576,0.568,2.911,1.651,4.707,2.634c-3.739,1.22-6.296,0.621-9.811,1.84
					c-11.142,3.86-20.627,7.099-31.118,12.583c-11.023,5.762-21.944,11.741-32.75,17.909c-11.276,6.436-21.552,14.395-31.783,22.378
					C87.353,82.483,80.2,88.194,73.153,94.034c-6.992,5.794-13.929,11.668-20.688,17.738c-9.947,8.934-19.733,18.052-29.539,27.144
					C21.017,140.686,20.663,142.381,18.844,144.313z"/>
				<g>
					<path fill-rule="evenodd" clip-rule="evenodd" fill="#0466C0" d="M245.581,112.301c0.012,0.004,0.032,0.012,0.072,0.025
						C245.629,112.317,245.605,112.309,245.581,112.301z"/>
					<g>
						<path fill-rule="evenodd" clip-rule="evenodd" fill="#F7143A" d="M150.376,12.479v28.667c0,0.645,1.652,0.859,1.652-1.786
							V12.049C152.028,13.404,150.376,11.834,150.376,12.479z"/>
						<path fill-rule="evenodd" clip-rule="evenodd" fill="#0466C0" d="M181.943,27.609c-5.604-5.643-12.43-13.592-20.875-14.574
							c-0.64-0.074-3.542-0.402-2.909-0.328c8.104,0.942,15.62,9.771,20.995,15.184C179.609,28.348,182.398,28.067,181.943,27.609z"
							/>
						<path fill-rule="evenodd" clip-rule="evenodd" fill="#F7143A" d="M133.54,13.607c-46.219,19.318-52.803,31.67-62.047,41.171
							c-6.042,6.209-25.101,32.457-38.851,75.832c-0.194,0.611,3.044-2.143,3.261-2.75c14.875-41.75,33.165-67.34,37.25-72.25
							c17.333-20.833,35.753-29.484,65.664-42.547C139.407,12.806,134.134,13.359,133.54,13.607z"/>
					</g>
					<path fill-rule="evenodd" clip-rule="evenodd" fill="#0466C0" d="M310.953,68.11c-0.26-3.916-1.155-9.25-3.78-14.625
						c-2.424-4.963-3.508-7.519-4.646-9.125c-1.185-1.673-1.282-1.84-2.185-3.07c-1.107-1.51-1.97-2.592-3.44-3.867
						c-1.619-1.404-2.985-2.722-4.562-3.812c-1.104-0.764-2.842-2.007-3.625-2.562c-2.321-1.648-6.084-3.291-11.812-5.438
						c-7.164-2.684-13.946-3.761-15.538-4.095c-4.702-0.987-9.989-1.646-14.788-1.875c-4.039-0.193-25.73-0.283-32.559,0.573
						c-3.412,0.428-8.938,0.723-14.451,1.833c-7.303,1.471-14.47,3.82-15.573,4.374c-8.887,2.539-26.031,10.504-26.201,10.605
						c-2.582,1.059-27.906,15.008-28.756,15.656c-1.027,0.425-14.463,9.646-25.179,17.072c2.352-5.506,4.907-10.923,7.802-16.166
						c3.224-5.841,7.289-11.199,11.45-16.395c3.612-4.511,7.374-8.913,11.21-13.235c3.669-4.134,8.774-8.983,13.833-11.381
						c0.583-0.276-2.505-0.175-3.085,0.1c-4.912,2.328-8.808,6.308-12.418,10.278c-4.062,4.467-7.945,9.124-11.736,13.821
						c-4.059,5.028-7.979,10.239-11.19,15.857c-3.227,5.644-5.967,11.575-8.5,17.557c-0.095,0.223-0.028,0.434,0.104,0.579
						c-3.601,2.515-6.628,4.737-8.333,6.205c-0.009,0.007-0.018,0.015-0.028,0.021c-6.314,4.123-19.815,14.963-24.814,19.95
						c-5.607,5.594-22.755,20.76-27.703,25.304c-2.741,2.517-21.562,20.256-21.562,20.256s-1.363,2.913,1.258,2.898
						c1.276,0.553,24.441-13.729,28.194-16.326c0.728-0.219,22.314-11.943,23.314-12.529c24-12.688,50.508-14.028,71-15.771
						c9.492-0.529,13.169,0.333,22.833-0.041c11.86,1.057,33.529,1.648,38.584,2.624c-4.749-0.917,20.584,2.25,29.084,4.75
						c3.438,0.88,5.981,2.129,9.38,3.155c1.028,0.311,2.041,0.667,3.048,1.036c-0.282-0.118,8.146,2.402,12.601,4.688l0.029,0.032
						c0.007,0.008,0.008,0.01,0.015,0.018c10.094,5.238,11.929,8.97,15.479,13.472c1.782,2.433,6.64,11.848,7.179,10.854
						c1.656-3.056,3.728-6.092,12.773-20.32c2.887-4.54,10.011-15.207,11.878-20.085c0.429-1.12,2.39-6.247,2.742-8.349
						c0.508-3.026,1.415-6.537,1.908-10.146c0.342-2.503,0.593-3.212,0.717-4.854C311.174,74.011,311.079,70.006,310.953,68.11z"/>
				</g>
				<path fill-rule="evenodd" clip-rule="evenodd" fill="#0466C0" d="M159.554,13.942c-5.632,0-11.009,0-16.373,0
					c-0.456-4.692,0.888-6.292,5.521-6.773C155.814,6.431,159.164,8.331,159.554,13.942z"/>
			</g>
		</g>
	</g>
	<g id="girl" display="none">
		<g display="inline">
			<path fill-rule="evenodd" clip-rule="evenodd" fill="#40393C" d="M470.412,163.781c0.013-5.508-0.203-11.017-0.31-16.526
				c-0.091-4.667,0.025-9.348-0.309-13.997c-0.279-3.891-71.647-88.762-78.877-90.972c-7.671-2.346-15.38-4.585-23.142-6.608
				c-5.574-1.454-11.258-2.494-16.9-3.68c-2.557-0.538-5.134-1.397-7.698-1.383c-5.374,0.03-10.748,0.493-16.115,0.871
				c-3.8,0.268-7.604,0.576-11.38,1.069c-4.95,0.645-9.89,1.402-14.806,2.271c-5.686,1.005-11.434,1.845-16.984,3.375
				c-6.52,1.798-12.839,4.217-18.827,7.547c-7.392,4.111-15.103,7.579-21.953,12.712c-8.611,6.454-16.248,13.654-21.161,23.366
				c-2.26,4.465-4.719,8.883-6.42,13.564c-3.008,8.278-5.576,16.72-8.188,25.136c-1.232,3.969-2.371,7.997-3.132,12.076
				c-0.788,4.221-1.104,8.532-1.561,12.811c-0.763,7.129-1.717,14.25-2.148,21.401c-0.626,10.382-0.671,20.785,0.996,31.108
				c1.396,8.64,44.978,61.508,53.428,58.287c-3.076-6.091-6.02-12.15-9.171-18.1c-3.422-6.46-5.369-13.388-6.556-20.512
				c-1.156-6.934-2.065-13.924-2.714-20.924c-0.581-6.28-0.729-12.605-0.92-18.915c-0.066-2.19,0.144-4.425,0.532-6.584
				c0.639-3.549,3.062-5.393,7.991-5.769c5.53-0.421,11.11-0.389,16.661-0.256c4.935,0.118,4.882,0.173,4.87-4.542
				c-0.015-5.566,0.011-11.138,0.233-16.698c0.19-4.765,0.629-9.524,1.057-14.276c0.32-3.55,0.717-7.097,1.225-10.625
				c0.711-4.934,1.514-9.855,2.412-14.756c0.091-0.497,1.108-0.824,1.696-1.229c0.257,0.581,0.768,1.177,0.73,1.739
				c-0.338,5.127-0.979,10.243-1.122,15.373c-0.144,5.192,0.163,10.397,0.307,15.596c0.039,1.366,0.198,2.729,0.319,4.092
				c0.354,3.971,0.687,7.943,1.084,11.909c0.344,3.431,0.722,6.859,1.168,10.278c0.233,1.792,1.343,2.745,3.193,2.69
				c2.209-0.066,4.42-0.14,6.627-0.253c6.619-0.339,13.241-0.635,19.854-1.065c8.651-0.564,17.291-1.282,25.94-1.857
				c6.811-0.453,13.627-0.819,20.444-1.169c6.927-0.356,14.249,0.828,21.178,0.836c7.593,0.008,9.248-0.402,16.835,0.015
				c3.433,0.189,12.414-0.231,15.815,0.291c4.896,0.752,9.777,1.619,14.637,2.578c2.445,0.482,5.06,0.856,7.184,2.029
				c2.804,1.549,3.886,4.521,3.977,7.71c0.101,3.568,0.063,7.139,0.147,10.707c0.154,6.575,0.342,13.149,0.535,19.724
				c0.332,11.345-2.618,22.091-5.968,32.762c-0.996,3.171-1.936,6.373-3.168,9.455c-1.286,3.216-2.797,6.357-4.413,9.424
				c-0.601,1.139,52.341-64.602,52.7-69.837c0.157-2.283-0.246-4.599-0.212-6.897C470.109,174.029,470.402,168.906,470.412,163.781z
				"/>
			<path display="none" fill-rule="evenodd" clip-rule="evenodd" fill="#40393C" d="M254.927,257.21
				c-3.076-6.091-6.02-12.15-9.171-18.1c-3.422-6.46-5.369-13.388-6.556-20.512c-1.156-6.934-2.065-13.924-2.714-20.924
				c-0.581-6.28-0.729-12.605-0.92-18.915c-0.066-2.19,0.144-4.425,0.532-6.584c0.639-3.549,3.062-5.393,7.991-5.769
				c5.53-0.421,11.11-0.389,16.661-0.256c4.935,0.118,4.882,0.173,4.87-4.542c-0.015-5.566,0.011-11.138,0.233-16.698
				c0.19-4.765,0.629-9.524,1.057-14.276c0.32-3.55,0.717-7.097,1.225-10.625c0.711-4.934,1.514-9.855,2.412-14.756
				c0.091-0.497,1.108-0.824,1.696-1.229c0.257,0.581,0.768,1.177,0.73,1.739c-0.338,5.127-0.979,10.243-1.122,15.373
				c-0.144,5.192,0.163,10.397,0.307,15.596c0.039,1.366,0.198,2.729,0.319,4.092c0.354,3.971,0.687,7.943,1.084,11.909
				c0.344,3.431,0.722,6.859,1.168,10.278c0.233,1.792,1.343,2.745,3.193,2.69c2.209-0.066,4.42-0.14,6.627-0.253
				c6.619-0.339,13.241-0.635,19.854-1.065c8.651-0.564,17.291-1.282,25.94-1.857c6.811-0.453,13.627-0.819,20.444-1.169
				c6.927-0.356,14.249,0.828,21.178,0.836c7.593,0.008,13.993,0.499,20.848-0.338c9.004,0.675,8.401,0.122,11.803,0.645
				c4.896,0.752,9.777,1.619,14.637,2.578c2.445,0.482,5.06,0.856,7.184,2.029c2.804,1.549,3.886,4.521,3.977,7.71
				c0.101,3.568,0.063,7.139,0.147,10.707c0.154,6.575,0.342,13.149,0.535,19.724c0.332,11.345-2.618,22.091-5.968,32.762
				c-0.996,3.171-1.936,6.373-3.168,9.455c-1.286,3.216-2.797,6.357-4.413,9.424c-0.601,1.139-0.711,1.824,0.623,2.143
				c2.484,0.592,5.001,1.389,7.519,1.449c6.453,0.153,12.924,0.14,19.368-0.185c3.502-0.177,7.007-1.159,9.938-3.23
				c3.778-2.673,6.578-6.107,7.771-10.77c0.988-3.863,2.523-7.59,3.445-11.467c0.631-2.651,0.654-5.452,0.895-8.19
				c0.367-4.215,0.717-8.432,1.02-12.652c0.269-3.748,0.397-7.507,0.704-11.251c0.43-5.231,1.058-10.448,1.417-15.683
				c0.157-2.283-0.246-4.599-0.212-6.897c0.075-5.125,0.368-10.248,0.378-15.373c0.013-5.508-0.203-11.017-0.31-16.526
				c-0.091-4.667,0.025-9.348-0.309-13.997c-0.279-3.891-1.288-7.729-1.602-11.619c-0.602-7.449-2.402-14.637-5.011-21.548
				c-4.963-13.146-12.408-24.759-22.869-34.284c-8.137-7.408-17.625-12.623-27.854-16.436c-7.078-2.638-14.312-4.875-21.542-7.086
				c-7.671-2.346-15.38-4.585-23.142-6.608c-5.574-1.454-11.258-2.494-16.9-3.68c-2.557-0.538-5.134-1.397-7.698-1.383
				c-5.374,0.03-10.748,0.493-16.115,0.871c-3.8,0.268-7.604,0.576-11.38,1.069c-4.95,0.645-9.89,1.402-14.806,2.271
				c-5.686,1.005-11.434,1.845-16.984,3.375c-6.52,1.798-12.839,4.217-18.827,7.547c-7.392,4.111-15.103,7.579-21.953,12.712
				c-8.611,6.454-16.248,13.654-21.161,23.366c-2.26,4.465-4.719,8.883-6.42,13.564c-3.008,8.278-5.576,16.72-8.188,25.136
				c-1.232,3.969-2.371,7.997-3.132,12.076c-0.788,4.221-1.104,8.532-1.561,12.811c-0.763,7.129-1.717,14.25-2.148,21.401
				c-0.626,10.382-0.671,20.785,0.996,31.108c1.396,8.64,2.351,17.39,4.406,25.873c1.938,8.002,5.176,15.681,7.612,23.573
				c1.407,4.56,4.648,6.554,8.929,7.471c2.391,0.512,4.793,0.972,7.192,1.451C238.057,258.975,246.477,260.431,254.927,257.21z
				 M420.024,246.798c1.881-6.459,3.896-12.88,5.837-19.322c2-6.634,2.846-13.465,2.931-20.351
				c0.072-5.931-0.341-11.867-0.509-17.801c-0.13-4.539-0.108-9.084-0.362-13.615c-0.124-2.238-0.419-4.753-2.661-5.928
				c-2.073-1.086-4.378-1.898-6.675-2.356c-5.63-1.119-11.288-2.181-16.983-2.859c-20.719,1.172-39.538-0.349-46.398,0.065
				c-3.938,0.238-50.927,2.388-55.107,2.607c-7.582,0.398-15.174,0.597-22.762,0.876c-2.254,0.083-4.189-1.128-4.925-3.167
				c-0.363-1.006-0.748-2.047-0.845-3.098c-0.686-7.453-1.312-14.912-1.929-22.371c-0.168-2.029-0.243-4.065-0.361-6.099
				c-0.218-0.01-0.437-0.021-0.655-0.031c-0.122,0.944-0.327,1.888-0.35,2.834c-0.131,5.446-0.27,10.894-0.301,16.341
				c-0.02,3.472-0.12,6.976,0.289,10.409c0.445,3.758-1.095,5.682-4.959,5.607c-2.784-0.054-5.572,0.126-8.359,0.204
				c-1.673,0.047-3.347,0.144-5.02,0.133c-2.618-0.017-5.239-0.21-7.852-0.13c-1.916,0.058-2.923,1.109-3.229,3.015
				c-0.198,1.234-0.391,2.493-0.368,3.736c0.148,8.244,0.016,16.513,0.652,24.721c0.494,6.38,1.655,12.756,3.1,19
				c1.374,5.936,3.365,11.744,5.361,17.512c0.859,2.482,2.28,4.811,3.695,7.052c2.075,3.288,2.202,6.584,5.122,9.987l0.966,2.787
				c0.105,2.229-0.849,3.22-3.124,3.641c-8.089,1.495-16.103,1.219-24.092-0.779c-3.17-0.793-6.481-1.046-9.625-1.916
				c-3.62-1-7.189-2.441-9.161-5.94c-1.118-1.983-1.834-4.217-2.552-6.396c-1.544-4.687-3.17-9.362-4.397-14.135
				c-1.394-5.425-2.592-10.919-3.509-16.444c-1.31-7.882-2.632-15.792-3.297-23.744c-0.537-6.421-0.195-12.923-0.084-19.388
				c0.073-4.244,0.268-8.5,0.688-12.722c0.752-7.546,1.587-15.089,2.64-22.598c0.602-4.297,1.468-8.59,2.635-12.769
				c1.694-6.067,3.655-12.068,5.707-18.026c2.358-6.847,4.764-13.688,7.479-20.398c2.281-5.642,6.075-10.367,10.213-14.797
				c5.175-5.539,11.115-10.132,17.249-14.564c5.637-4.073,11.902-6.921,17.891-10.313c5.734-3.249,11.741-5.81,17.99-7.762
				c3.751-1.172,7.669-1.829,11.534-2.611c3.812-0.771,7.633-1.543,11.483-2.072c7.026-0.965,14.069-1.835,21.123-2.582
				c4.457-0.472,8.941-0.812,13.42-0.918c6.899-0.163,13.68,0.689,20.385,2.505c5.446,1.475,11.057,2.341,16.568,3.591
				c3.172,0.72,6.318,1.581,9.432,2.526c7.755,2.354,15.518,4.688,23.211,7.227c7.062,2.33,13.842,5.344,20.39,8.902
				c7.196,3.91,13.526,8.896,19.093,14.86c2.255,2.417,4.318,5.011,6.498,7.499c1.354,1.543,2.937,2.917,4.102,4.588
				c1.628,2.335,3.128,4.794,4.389,7.346c2.898,5.869,5.143,12.006,6.797,18.342c1.023,3.926,2.265,7.843,2.773,11.845
				c0.782,6.147,1.259,12.357,1.43,18.552c0.287,10.419,0.265,20.849,0.31,31.275c0.018,3.935-0.439,7.895-0.115,11.797
				c0.228,2.731,0.284,5.426,0.048,8.114c-0.469,5.325-1.251,10.624-1.687,15.951c-0.309,3.787-0.135,7.612-0.405,11.404
				c-0.334,4.687-0.996,9.35-1.344,14.036c-0.36,4.848-1.234,9.565-2.844,14.153c-1.518,4.322-2.976,8.615-6.332,12.029
				c-3.739,3.802-8.237,5.852-13.42,6.36c-4.625,0.452-9.28,0.668-13.927,0.814c-4.84,0.151-9.637-0.302-14.348-1.536
				c-3.312-0.867-4.134-2.776-2.461-5.888L420.024,246.798z"/>
		</g>
		<g display="inline">
			
				<ellipse opacity="0.4" fill-rule="evenodd" clip-rule="evenodd" fill="#F32842" cx="271.232" cy="215.184" rx="11.833" ry="4.483"/>
		</g>
		<g display="inline">
			<path fill="#F4E00A" stroke="#F4E00A" stroke-miterlimit="10" d="M334.196,278.313c40.804-3.979,61.932-17.666,64.651-20.131
				c5.424-4.917,12.355-9.616,17.486-14.848c6.607-6.736,11.369-14.125,16.525-22.065c5.775-8.893,10.18-18.44,10.309-29.309
				c0.055-4.492-0.203-9.125-1.279-13.455c-1.184-4.764-16.221-34.837-45.313-52.256c-9.506-5.624-19.48-10.176-29.795-14.056
				c-6.455-2.428-12.939-4.797-19.273-7.511c-4.686-2.009-9.502-3.288-14.506-4.015c-2.529-0.367-5.043-0.871-7.582,0.129
				c-14.475,3.205-42.128,15.871-57.172,27.914c-1.838,1.514-14.133,12.838-18.057,17.334c-4.471,5.117-8.627,10.51-13.146,15.58
				c-4.529,5.082-8.199,10.744-11.766,16.479c-3.27,5.255-6.25,10.688-8.189,16.614c-1.578,4.827-1.832,9.676,0.314,14.37
				c3.287,7.189,8.408,13.018,14.178,18.301c9.819,11.278,51.709,40.945,72.029,47.38c6.578,2.857,10.418,3.832,17.48,4.602
				c1.186,0.129,6.76-0.917,8.184-0.749c0.26,0.031,0.893,0.504,0.419,0.96L334.196,278.313z M333.307,485.469
				c-0.344,0.174-0.488,0.273-0.648,0.326c-4.971,1.59-10.094,1.6-15.242,1.619c-9.238,0.033-18.387-0.699-27.443-2.582
				c-4.91-1.02-9.854-1.873-14.779-2.82c-2.631-0.508-5.332-0.816-7.867-1.631c-6.848-2.201-16.775-5.545-23.566-7.918
				c-1.282-0.735-1.408-1.129-1.802-2.423c0.062-5.136,0.635-12.509,0.885-17.415c0.656-5.312,1.344-10.688,1.094-16
				c0.184-7.34,0.1-11.246-0.031-18.594l0.031-5.844c0,0-24.937-1.102-24.856-5.193c0.461-5.549,0.612-14.502,0.937-20.061
				c0.174-2.98,0.168-5.975,0.412-8.949c0.518-6.312,1.043-12.627,1.766-18.918c0.666-5.809,1.281-11.652,2.48-17.361
				c1.557-7.404,3.369-14.783,5.623-22.002c2.551-8.17,4.998-16.379,8.752-24.172c4.455-9.252,10.219-17.639,15.895-26.109
				c1.475-2.201,1.438-3.613-0.879-5.521c-1.133-0.934-8.021-4.343-9.941-5.635c-5.26-3.541-10.449-7.189-15.621-10.857
				c-6.197-4.395-12.422-8.755-18.492-13.319c-3.867-2.906-7.568-6.055-11.176-9.281c-3.699-3.306-6.086-5.981-9.329-9.713
				c-6.576-7.57-11-16.28-13.074-26.211c-1.811-8.67-0.938-17.07-0.293-25.942C182.5,75.5,283.183,20.101,317,10.707
				c9.99-2.207,20.852-0.352,26,0.287c46.498,2.014,146.886,103.587,141.666,156.365c-0.508,5.017-1.923,16.527-3.78,21.135
				c-4.166,10.588-17.407,28.822-18.144,29.908c-2.012,2.961-30.295,30.559-39.956,35.95c-6.339,4.157-11.752,6.659-15.352,10.257
				c-1.43,1.428-0.391,4.779,0.701,6.416c10.532,11.81,15.572,26.056,19.244,35.635c7.12,14.342,17.287,87.009,15.774,92.961
				c0.117,1.686,0.82,5.65-0.654,6.381c-8.488,3.846-26.938,4.375-26.938,4.375c0.158,8.496-0.122,5.923,0.333,14.403
				c0.279,5.168,0.875,10.172,1.541,15.318c0.828,6.391,0.941,8.012,1.779,14.4c0.367,2.789,0.596,7.29,1.065,10.05
				c0.448,2.631,0.967,7.313,2.096,9.921c0.229,0.527-0.068,1.432-0.383,2.021c-1.559,2.916-4.455,3.943-7.361,4.557
				c-5.482,1.156-14.856,3.577-20.409,4.308c-4.434,0.582-8.932,0.809-13.408,0.908c-5.443,0.123-10.896-0.137-16.344-0.084
				c-7.059,0.068-14.117,0.236-21.175,0.461c-1.976,0.062-3.63-0.469-5.171-1.639c-0.855-0.648-1.889-1.082-2.67-1.801
				L333.307,485.469z"/>
			<path opacity="0.3" fill-rule="evenodd" clip-rule="evenodd" fill="#F47527" d="M252.875,476.125
				c-2.056-0.591-4.425-1.673-5.5-1.938c-6.719-1.656-6.047-3.656-5.871-7.396c0.223-4.726,0.489-10.011,0.871-14.729
				c0.294-3.637,1.072-7.093,1.112-10.73c0.108-9.694-0.092-19.393,0.009-29.087c0.085-8.281,0.344-16.562,0.664-24.838
				c0.303-7.82,0.706-15.639,1.217-23.447c0.37-5.662,0.892-11.318,1.519-16.958c0.845-7.594,1.667-15.199,2.864-22.742
				c0.782-4.925,2.169-9.759,3.372-14.611c0.526-2.124,1.333-4.177,1.888-6.294c0.315-1.2,1.133-1.596,2.114-1.411
				c1.236,0.231-0.367,0.925-0.629,1.866c-1.229,4.409-2.621,8.787-3.553,13.26c-0.969,4.649-1.525,9.388-2.178,14.099
				c-0.835,6.03-1.688,12.061-2.34,18.112c-0.511,4.743-0.708,9.52-1.082,14.278c-0.299,3.812-0.67,7.618-0.975,11.43
				c-0.124,1.549-0.157,3.105-0.229,4.658c-0.268,5.779-0.682,11.556-0.76,17.337c-0.078,5.739,0.189,11.484,0.293,17.227
				c0.132,7.348,0.484,14.701,0.299,22.04c-0.133,5.302-1.063,10.579-1.493,15.879c-0.43,5.303-1.224,9.627-1.514,14.939
				c0.103-0.212-0.223,2.619,0.874,4.268C244.479,472.288,249.875,474.625,252.875,476.125z"/>
			<path opacity="0.3" fill-rule="evenodd" clip-rule="evenodd" fill="#F47527" d="M301.284,425.48 M304.879,433.236
				c-2.557,0.429-5.184,0.513-7.786,0.585c-2.907,0.081-5.83,0.133-8.729-0.058c-6.036-0.398-12.061-0.964-18.472-1.491
				c-0.177,3.653-0.52,7.586-0.51,11.519c0.009,3.152,0.256,6.336,0.774,9.443c0.258,1.549,1.277,3.006,2.114,4.407
				c0.41,0.686,1.199,1.304,0.246,1.91c-0.571,0.364-1.678,0.548-2.188,0.234c-2.418-1.484-3.465-3.915-3.761-6.62
				c-1.004-9.211-0.482-18.388,0.871-27.525c0.154-1.04,0.532-2.102,1.046-3.02c0.677-1.213,1.666-1.889,3.258-1.403
				c4.844,1.479,9.803,1.897,14.877,1.772c5.617-0.136,11.245,0.098,16.866,0.234l-2.202,2.256
				c-4.181-0.013-8.369,0.122-12.54-0.086c-5.871-0.294-11.729-0.845-17.88-1.307c-0.162,1.296-0.379,3.036-0.636,5.099
				c12.09,2.612,24.014,2.469,35.968,2.081L304.879,433.236z"/>
			<path fill-rule="evenodd" clip-rule="evenodd" fill="#F4E00A" stroke="#F4E00A" stroke-miterlimit="10" d="M263.395,485.667
				c0.354,4.121,18.104,5.19,24.938,6.334c1.919,0.383,22.893,2.51,27.253-0.836c1.165,0.213-0.409,6.394-0.712,8.585
				c-0.95,6.854-2.016,13.69-2.956,20.545c-0.667,4.86-0.979,9.779-1.847,14.602c-1.256,6.982-2.644,13.248-4.347,20.135
				c-0.456,1.845-1.87,4.437-3.326,5.714c-5.585,4.896-15.146,11.002-22.355,12.977c-2.922,0.8-5.821,1.816-8.8,2.249
				c-5.432,0.789-10.95,1.569-16.369,0.029c-3.939-1.12-10.793-4-11.007-9.312c-0.308-7.641,2.716-16.865,7.854-22.478
				c5.425-5.927,9.958-12.576,13.739-19.688c1.662-3.128,1.219-6.506,0.77-9.858c-1.076-8.021-1.19-12.011-3.488-19.708
				C262.367,493.7,258.859,485.667,263.395,485.667z"/>
		</g>
	</g>
</g>
<g id="Layer_5">
</g>
</svg>
