<?xml version="1.0" encoding="utf-8"?>
<!-- Generator: Adobe Illustrator 16.0.4, SVG Export Plug-In . SVG Version: 6.00 Build 0)  -->
<!DOCTYPE svg PUBLIC "-//W3C//DTD SVG 1.0//EN" "http://www.w3.org/TR/2001/REC-SVG-20010904/DTD/svg10.dtd">
<svg version="1.0" id="Layer_1" xmlns="http://www.w3.org/2000/svg" xmlns:xlink="http://www.w3.org/1999/xlink" x="0px" y="0px"
	 width="717.572px" height="405.572px" viewBox="0 0 717.572 405.572" enable-background="new 0 0 717.572 405.572"
	 xml:space="preserve">
<g display="none">
	
		<rect x="-71.214" y="-971.694" transform="matrix(1 -0.0014 0.0014 1 0.2852 1.4292)" display="inline" fill-rule="evenodd" clip-rule="evenodd" fill="#E9F8FF" width="2190.991" height="1536"/>
	<g display="inline">
		<g>
			<path fill-rule="evenodd" clip-rule="evenodd" fill="#437419" d="M-399.983,224.758c-2.73,1.6-4.702,2.752-7.527,4.408
				c-28.362-2.84-46.346-30.393-44.318-62.025c2.051-31.958,21.404-48.997,58.358-53.44c0.579-4.242,0.591-8.775,1.884-12.971
				c3.854-12.525,12.512-22.359,22.744-30.861c17.562-14.604,38.143-24.505,62.018-24.136c25.675,0.396,50.016,6.354,67.932,25.452
				c2.524,2.689,4.767,5.6,7.141,8.406c21.896-20.326,46.956-31.71,75.444-33.381c30.171-1.771,60.157,1.401,84.228,21.529
				c3.719,3.107,6.203,1.965,8.237-0.814c18.147-24.822,46.87-31.383,75.904-37.037c19.519-3.802,39.329-6.094,59.36-3.902
				c33.055,3.615,60.785,16.928,83.423,39.314c2.591,2.562,5.075,5.214,7.711,7.929c13.31-19.46,34.619-27.234,56.792-33.369
				c41.148-11.384-43.754,174.159-47.447,174.002C158.815,213.303-402.49,221.734-399.983,224.758z"/>
		</g>
		<g>
			<path fill-rule="evenodd" clip-rule="evenodd" fill="#88A80D" d="M641.344,225.24c15.117,26.928-26.675-170.626-19.179-172.229
				c14.95-3.198,71.774-20.106,86.721-16.167c12.616,3.326,24.825,8.525,36.806,13.842c3.582,1.592,5.675,1.838,8.844-0.031
				c20.607-12.148,42.703-19.646,66.646-21.156c14.248-0.899,28.207,1.329,41.445,6.211c16.074,5.928,31.643,13.253,47.543,19.693
				c2.41,0.979,5.451,0.783,8.15,0.545c7.82-0.689,15.914-0.627,23.346-2.783c12.602-3.652,24.682-9.058,37.146-13.236
				c22.092-7.408,44.549-8.79,67.703-5.209c18.381,2.845,36.602,5.818,52.947,15c10.448,5.872,20.004,13.352,29.75,19.969
				c8.678-6.648,17.987-14.762,28.231-21.402c17.874-11.584,37.764-16.743,59.044-18.673c23.891-2.165,45.812,3.368,67.105,12.919
				c13.509,6.053,26.201,13.672,36.772,24.316c2.6,2.615,4.437,1.925,7.402,0.438c18.666-9.354,36.914-20.021,56.43-27.08
				c26.784-9.684,54.868-8.938,82.854-4.219c19.714,3.322,38.603,8.672,55.509,19.817c1.472,0.97,3.293,1.792,4.204,3.181
				c5.114,7.791,10.415,4.734,16.55,1.18c31.491-18.26,65.317-24.479,101.083-18.006c17.011,3.078,33.228,8.643,46.446,20.848
				c1.4,1.291,4.802,1.332,6.914,0.71c8.825-2.596,17.384-6.185,26.286-8.437c12.958-3.277,25.706-0.25,38.395,2.678
				c15.307,3.531,27.131,13.289,38.969,22.601c9.399,7.398,15.26,18.275,17.703,29.782c3.701,17.476,5.74,35.33,7.952,53.088
				c0.518,4.184-0.551,8.824-1.894,12.922c-1.475,4.51,0.076,7.377,2.619,10.828c11.027,14.955,11.431,38.51-2.595,51.037
				c-2.662,2.373-6.292,3.939-9.741,4.986c-1.509,0.459-4.641-0.855-5.31-2.225C1809.44,239.543,636.85,226.648,641.344,225.24z"/>
			<path fill-rule="evenodd" clip-rule="evenodd" fill="#437419" d="M727.634,252.775c-0.669,1.369-3.801,2.684-5.31,2.225
				c-3.449-1.047-7.079-2.613-9.741-4.986c-14.025-12.527-13.622-36.082-2.595-51.037c2.543-3.451,4.094-6.318,2.619-10.828
				c-1.343-4.098-2.411-8.738-1.894-12.922c2.212-17.76,4.251-35.613,7.952-53.089c2.443-11.506,8.304-22.383,17.703-29.782
				c11.838-9.311,23.662-19.068,38.969-22.6c12.688-2.929,25.437-5.955,38.395-2.678c8.902,2.252,17.461,5.84,26.286,8.436
				c2.112,0.622,5.514,0.582,6.914-0.709c13.219-12.206,29.436-17.77,46.446-20.849c35.766-6.474,69.592-0.253,101.083,18.006
				c6.135,3.555,11.436,6.612,16.55-1.179c0.911-1.389,2.732-2.211,4.204-3.182c16.906-11.145,35.795-16.494,55.509-19.817
				c27.985-4.72,56.069-5.465,82.854,4.22c19.516,7.059,37.765,17.726,56.43,27.08c2.966,1.486,4.802,2.178,7.402-0.438
				c10.571-10.646,23.264-18.265,36.772-24.316c21.294-9.551,43.215-15.085,67.105-12.92c21.28,1.93,41.171,7.089,59.044,18.674
				c10.244,6.641,19.553,14.754,28.232,21.402c9.745-6.617,19.301-14.098,29.749-19.969c16.346-9.182,34.565-12.156,52.947-15
				c23.154-3.582,45.612-2.199,67.704,5.209c12.463,4.178,24.544,9.583,37.146,13.236c7.43,2.156,15.525,2.094,23.344,2.782
				c2.7,0.239,5.742,0.435,8.152-0.545c15.899-6.44,31.467-13.765,47.542-19.693c13.238-4.882,27.197-7.11,41.446-6.21
				c23.941,1.51,46.039,9.007,66.645,21.156c3.17,1.869,5.262,1.623,8.846,0.031c11.98-5.317,24.188-10.517,36.805-13.842
				c14.946-3.939,30.22-1.346,45.17,1.852c7.496,1.603,7.256,213.472,22.372,186.544
				C1900.926,238.447,728.336,251.342,727.634,252.775z"/>
			<path fill-rule="evenodd" clip-rule="evenodd" fill="#437419" d="M104.65,219.539c-2.73,1.6-4.702,2.754-7.527,4.41
				c-28.362-2.84-46.346-30.393-44.318-62.025c2.051-31.959,21.404-48.999,58.358-53.441c0.579-4.243,0.591-8.775,1.884-12.972
				c3.854-12.525,12.512-22.358,22.744-30.862c17.562-14.604,38.143-24.504,62.018-24.135c25.675,0.395,50.016,6.355,67.932,25.453
				c2.524,2.689,4.767,5.598,7.141,8.405c21.896-20.325,46.956-31.71,75.444-33.382c30.171-1.771,60.157,1.402,84.228,21.531
				c3.719,3.106,6.203,1.963,8.237-0.815c18.147-24.822,46.87-31.382,75.904-37.037c19.519-3.802,39.329-6.093,59.36-3.901
				c33.055,3.614,60.785,16.926,83.423,39.312c2.591,2.564,5.075,5.215,7.711,7.93c13.31-19.459,34.619-27.234,56.792-33.369
				c41.148-11.385,74.053,23.079,114.185,37.37c11.153,3.975,10.808,119.516,7.114,119.36
				C832.195,190.812,102.144,216.518,104.65,219.539z"/>
			<path fill-rule="evenodd" clip-rule="evenodd" fill="#53891F" d="M506.179,236.539c-2.73,1.6-4.702,2.754-7.527,4.41
				c-28.362-2.84-46.346-30.393-44.318-62.025c2.051-31.958,21.404-48.999,58.358-53.44c0.579-4.242,0.591-8.775,1.884-12.971
				c3.854-12.526,12.512-22.36,22.744-30.864c17.562-14.604,38.143-24.504,62.018-24.135c25.675,0.395,50.016,6.355,67.932,25.453
				c2.524,2.689,4.767,5.598,7.141,8.406c21.896-20.326,46.956-31.711,75.444-33.383c30.171-1.771,60.157,1.402,84.228,21.531
				c3.719,3.107,6.203,1.963,8.237-0.814c18.147-24.822,46.87-31.383,75.904-37.037c19.519-3.803,39.329-6.094,59.36-3.902
				c33.055,3.615,60.785,16.926,83.423,39.312c2.591,2.564,5.075,5.215,7.711,7.93c13.31-19.459,34.619-27.234,56.792-33.369
				c41.148-11.385,91.656,15.37,114.185,37.371c37.472,37.92,10.808,119.515,7.114,119.359
				C1233.724,207.812,503.672,233.518,506.179,236.539z"/>
		</g>
	</g>
	<path display="inline" fill-rule="evenodd" clip-rule="evenodd" fill="#88A80D" d="M-72.534,147.191
		c21.262,1.407,98.839,2.913,118.153,4.305c10.656,0.772,1087.662,5.158,1104.884,4.029c9.279-0.619,245.212,2.812,285.66,3.324
		c35.07,0.45,70.128-3.337,105.205-3.914c17.188-0.269,488.3,9.802,521.222,7.33c15.479-1.173,38.056,0.185,53.36,1.589
		c7.607,0.7,24.217,662.677,4.014,641.695c-53.127,4.4-2158.601-12.481-2190.215-17.653
		C-71.397,706.295-73.767,314.813-72.534,147.191z"/>
	<path display="inline" fill-rule="evenodd" clip-rule="evenodd" fill="#C6C6C6" d="M-72.407,236.076
		c21.262,1.407,98.839,1.913,118.153,3.304c10.656,0.773,1087.662,8.159,1104.884,7.03c9.279-0.619,245.212,2.812,285.66,3.324
		c35.07,0.45,70.127-3.337,105.205-3.914c17.188-0.269,488.3,9.802,521.222,7.33c15.479-1.173,38.056,0.185,53.36,1.589
		c7.607,0.7,24.217,662.677,4.014,641.694c-53.127,4.4-2158.601-12.48-2190.215-17.652C-71.271,797.18-73.64,403.698-72.407,236.076
		z"/>
	<path display="inline" fill-rule="evenodd" clip-rule="evenodd" fill="#515151" d="M-72.336,286.776
		c21.262,1.407,98.838,1.913,118.153,3.304c10.656,0.773,1087.661,8.159,1104.885,7.03c9.279-0.619,245.212,2.812,285.659,3.324
		c35.07,0.45,70.128-3.337,105.205-3.914c17.188-0.269,488.3,9.802,521.222,7.33c15.48-1.173,38.056,0.185,53.361,1.589
		c7.607,0.7,24.216,662.677,4.014,641.695c-53.127,4.4-2158.601-12.481-2190.215-17.652C-71.2,847.88-73.569,454.398-72.336,286.776
		z"/>
</g>
<image display="none" overflow="visible" opacity="0.4" width="442" height="418" xlink:href="3FD1CFC7247E90A5.png"  transform="matrix(4.6816 0 0 4.6816 -41.1372 -870.7144)">
</image>
<g>
	<path fill-rule="evenodd" clip-rule="evenodd" fill="#F32842" d="M567.394,356.568 M284.652,358.499
		c0.446-2.053,0.827-4.312,0.198-8.394c0-20.791-6.149-34.036-20.113-50.334c-8.261-7.004-24.109-15.22-43.37-15.759
		c-35.693,4.445-56.091,32.132-59.123,58.266c-4.82-0.14-147.939,1.113-138.686-6.693c-3.764-5.6-9.238-12.699-12.025-18.76
		C-1.98,287.428-5.52,257.706,11.3,228.228c9.921-17.384,24.341-30.145,44.067-34.297c26.439-5.566,53.109-10.569,79.93-13.633
		c33.604-3.838,53.992-24.729,68.583-51.722c8.795-16.27,17.663-32.34,28.692-47.04c15.182-20.242,35.86-34.133,57.07-47.5
		c24.69-15.562,51.717-20.043,80.069-19.561c23.61-0.034,68.772,8.075,87.194,19.471c13.924,8.612,27.082,18.813,39.32,29.724
		c24.033,21.426,44.373,46.289,63.479,72.169c6.59,8.926,13.262,17.872,20.73,26.047c9.561,10.467,22.93,14.527,36.057,18.031
		c19.564,5.223,37.414,13.364,52.332,27.229c12.164,11.305,23.109,23.541,28.096,39.94c4.943,16.263,4.59,32.599-0.619,48.578
		c-3.883,11.919-8.096,20.387-20.281,30.763c-5.518,3.696-11.734,7.698-18.523,11.427c-3.66,7.837-70.002,18.585-84.684,18.585
		l-4.953,0.105c0.754-4.374,0.668-8.808,0.402-13.134c-0.385-6.295-3.016-12.436-4.479-18.687
		c-4.568-19.514-32.723-38.025-55.992-36.061c-24.252-0.972-40.6,10.896-50.611,30.756c-6.367,12.632-6.822,26.915-4.258,41.315
		l-8.221,0.252c-16.461-0.438-32.932-0.754-49.402-0.848c-19.32-0.109-38.645,0.225-57.964,0.006L284.652,358.499z"/>
	<g>
		<path fill-rule="evenodd" clip-rule="evenodd" fill="#F4F4F2" d="M165.632,361.866c-2.258-8.488-3.089-14.951-2.393-26.63
			c-11.464,0-26.578,0.2-38.696,0.057c-28.613-0.336-57.225-0.786-85.838-1.219c-4.777-0.073-9.598-0.797-14.315-0.289
			c-4.712,0.509-8.374,3.289-8.759,9.181c-0.375,5.723,2.538,11.157,7.523,12.604c4.047,1.174,8.352,1.551,12.562,1.736
			c37.455,1.657,74.913,3.218,112.372,4.733C153.407,362.255,160.062,361.866,165.632,361.866z"/>
		<path fill-rule="evenodd" clip-rule="evenodd" fill="#F4F4F2" d="M572.744,356.854c18.852,0,38.352,0.043,57.094-0.048
			c12.088-0.057,21.682-6.226,28.5-19.419c-28.791-0.838-56.748-1.777-85.797-2.624
			C573.449,340.897,574.345,347.901,572.744,356.854z"/>
	</g>
	<g>
		<path fill-rule="evenodd" clip-rule="evenodd" fill="#F4CE18" d="M4.684,249.626c-4.039,11.801-2.084,32.067-0.739,39.951
			c3.153-0.188,8.494-1.36,7.306-1.08c9.146-1.759,12.709-7.503,14.15-12.243c0.884-2.906,1.942-10.619,0.164-15.377
			c-2.244-5.996-6.646-8.312-12.082-9.901C11.531,250.405,7.354,249.823,4.684,249.626z"/>
		<g>
			<path fill-rule="evenodd" clip-rule="evenodd" fill="#FFA233" d="M697.394,260.726c-0.5-3.698-2.236-7.682-4.475-9.712
				c-5.256-4.76-11.936-2.965-11.936-2.965s-0.65,28.216,0,33.539c9.916,0,5.312,0.353,15.73,0.169
				C698.261,274.899,698.101,265.944,697.394,260.726z"/>
			<path fill-rule="evenodd" clip-rule="evenodd" fill="#AA0000" d="M696.644,284.001c-6.621-0.09-15.66,0.146-15.66,0.146
				s0.15,7.881,0,18.043C693.107,302.427,694.759,295.507,696.644,284.001z"/>
		</g>
	</g>
	<g>
		<path fill-rule="evenodd" clip-rule="evenodd" fill="#AA0000" d="M382.564,188.248c-2.453,3.438,2.805,148.07,4.174,152.415
			c0.299,6.788,1.693,9.349,1.693-1.691c-0.539-25.26-1.086-50.52-1.787-75.775c-0.686-24.709-1.541-49.414-2.365-74.119
			C384.248,188.11,383.669,182.052,382.564,188.248z"/>
		<path fill-rule="evenodd" clip-rule="evenodd" fill="#AA0000" d="M422.177,241.657c-3.176,5.245,9.035,6.842,15.463,4.576
			c0.873-0.308,1.309-1.724,1.41-2.671c0.062-0.578-0.9-1.808-1.43-1.821C432.476,241.602,427.328,241.657,422.177,241.657z"/>
		<path fill-rule="evenodd" clip-rule="evenodd" fill="#AA0000" d="M330.371,244.299c-1.285,1.377,0.424,3.678,2.01,4.109
			c2.202,0.599,11.422,0.418,13.348-0.089c2.89-0.762,3.537-4.14,2.544-4.13C344.205,244.236,336.768,244.289,330.371,244.299z"/>
	</g>
	<g>
		<path fill-rule="evenodd" clip-rule="evenodd" fill="#DCEBF4" d="M374.378,32.912c-8.303,0-15.884,1.216-23.136,2.327
			C321.625,39.769,292.584,55,271.047,76.464c-17.382,17.319-28.439,32.61-42.851,52.235
			c-10.748,14.635-19.804,27.754-29.527,43.152c-0.654,1.035-2.188,4.623,2.86,4.623c16.15,0,27.229,0.373,43.198,0
			c18.29-0.427,33.396-0.629,55.688-0.987c22.379-0.38,44.771-0.135,67.158-0.012c4.122,0.021,6.123-1.085,6.085-5.725
			c-0.223-26.548-0.361-53.099-0.256-79.647c0.062-16.017,0.627-30.229,0.943-46.245C374.404,41.063,374.378,36.104,374.378,32.912z
			"/>
		<path fill-rule="evenodd" clip-rule="evenodd" fill="#DCEBF4" d="M388.625,33.01c1.396,46.256,1.131,89.582,1.131,135.555
			c0,5.283,3.77,5.659,8.09,5.743c12.969,0.249,24.355-0.397,37.002,0.054c25.877,0.921,48.203,0.598,74.076,1.751
			c10.258,0.456,25.041,0.101,35.309,0.281c4.977,0.053,6.803,0.063,3.854-5.27c-9.51-15.839-18.783-31.934-29.639-46.782
			c-10.98-15.017-23.137-29.263-35.863-42.771c-27.545-26.967-41.795-36.495-72.859-45.462
			C403.089,34.039,394.722,33.01,388.625,33.01z"/>
	</g>
	<g>
		<path fill-rule="evenodd" clip-rule="evenodd" d="M568.806,322.586c2.607,6.446,4.42,13.423,4.838,20.244
			c0.426,6.989-0.697,14.299-2.398,21.152c-8.254,16.544-15.66,25.305-28.58,33.702c-8.348,5.424-17.369,6.68-30.625,7.771
			c-9.549,0.786-21.113-2.623-29.936-6.103c-9.736-4.421-29.105-15.729-33.018-37.756c-2.77-15.599-0.506-31.861,6.371-45.546
			c10.812-21.515,28.922-34.148,56.977-32.685C539.505,283.212,560.337,301.656,568.806,322.586z"/>
		<path fill-rule="evenodd" clip-rule="evenodd" d="M196.262,395.394c-15.212-6.193-41.885-31.371-31.299-67.876
			c8.545-32.325,38.307-48.847,68.783-45.161c37.457,6.012,50.086,42.161,51.559,51.985c3.658,24.398-4.736,40.511-19.789,54.857
			C247.969,403.304,218.273,405.556,196.262,395.394z"/>
		<path fill-rule="evenodd" clip-rule="evenodd" fill="#F4F4F2" d="M536.853,336.156c1.182,2.92,2.004,6.078,2.193,9.168
			c0.189,3.165-0.316,6.475-1.088,9.578c-3.736,7.492-7.092,11.46-12.941,15.261c-3.781,2.456-7.867,3.026-13.869,3.521
			c-4.324,0.355-9.561-1.188-13.557-2.764c-4.408-2.002-13.18-7.123-14.951-17.098c-1.256-7.063-0.229-14.428,2.885-20.624
			c4.896-9.743,13.098-15.466,25.803-14.804C523.585,318.326,533.019,326.68,536.853,336.156z"/>
		<path fill-rule="evenodd" clip-rule="evenodd" fill="#F4F4F2" d="M210.474,366.737c-6.64-2.703-18.282-13.693-13.663-29.627
			c3.73-14.109,16.723-21.322,30.023-19.713c16.351,2.623,21.864,18.403,22.506,22.692c1.598,10.648-2.068,17.682-8.637,23.944
			C233.043,370.19,220.08,371.174,210.474,366.737z"/>
	</g>
</g>
<g display="none">
	<g id="boy" display="inline">
		<g>
			<path fill-rule="evenodd" clip-rule="evenodd" fill="#D08836" d="M1174.926-38.746c-0.715-1.126-17.206-26.676-20.87-30.17
				c-6.39-6.095-20.568-15.191-21.047-15.484c-5.591-3.417-52.877-17.553-71.104-20.246c-22.773-7.735-107.803-7.601-121.064-6.694
				c-2.995,0.04-42.768,2.669-73.08,7.315c-12.052,1.848-26.633,6.088-42.004,11.547c-4.916,0.874-49.979,24.949-59.544,30.782
				c-5.51,2.54-35.94,19.952-45.238,26.358c-1.055,0.729-6.429,2.821-7.044,3.731c-2.106,1.895,1.359,3.54,2.54,7.136
				c4.413,13.449,8.826,27.045,15.477,39.684c2.66,5.055,2.66,5.055,6.486,2.779c3.357-1.273,12.468,1.307,15.456,2.936
				c1.621,1.316,7.129,4.631,8.474,7.646c0.359,0.918,0.746,1.826,1.118,2.744c0.225,0.553,0.807,0.678,1.245,0.52
				c0.515,0.307,17.351-5.506,17.508-5.615c4.549-1.254,42.502-19.249,45.393-20.846c5.779-3.191,15.435-12.178,19.713-17.174
				c7.083-8.574,9.285-13.699,12.714-23.668c1.852-5.387,2.97-11.154,3.211-16.924c0.328,0.77,0.686,1.533,1.087,2.286
				c3.982,7.445,8.273,13.561,12.914,21.296c4.48,6.123,9.848,11.064,15.948,14.497c8,5.909,17.582,9.448,28.031,12.466
				c19.595,4.233,38.969,6.894,59.009,7.735c10.981,1.673,66.335,3.897,60.776,3.536c21.8,1.416,47.898,7.719,51.495,8.65
				c8.891,2.762,18.271,7.705,23.796,12.41c1.769,1.41,8.443,9.732,10.717,11.831c0.31,0.285,5.476-0.304,5.487-1.067
				c0.011-0.687,0.665-8.582,2.252-10.764c0.528-1.062,2.341-2.728,4.773-4.227c1.924-1.188,5.314-3.636,6.532-4.457
				c1.938-0.947,3.463-1.473,5.6-1.694c2.016,0.147,3.943,0.831,5.336,1.697c1.061,0.657,4.385,3.792,4.385,3.792
				c0.699-0.294,1.509-4.21,2.062-5.709c0.589-1.592,1.119-4.033,1.452-5.463c2.151-9.241,5.436-17.891,6.813-26.931
				c0.362-0.96,3.612-17.383,3.691-17.737C1175.866-32.216,1175.29-38.173,1174.926-38.746z"/>
			<path display="none" fill-rule="evenodd" clip-rule="evenodd" d="M718.997-32.555c6.608,17.194,13.017,33.873,19.436,50.547
				c0.694,1.804-0.658-3.54-2.831-2.709c-2.169,0.828-1.8-2.881,0.442,1.878c-5.329-13.208-12.481-23.62-17.73-36.859
				c-1.51-3.809-2.838-7.69-4.384-11.909c-0.342-0.06-1.257-0.272-2.185-0.371c-2.262-0.235-2.871-1.619-1.649-3.235
				c1.586-2.096,0.834-3.778,0.065-5.839c-5.402-14.469-7.581-29.459-6.463-44.854c1.096-15.082,4.272-29.736,9.082-44.109
				c8.594-25.683,22.384-47.95,42.389-66.262c10.083-9.23,21.3-16.979,33.087-23.797c10.206-5.902,20.639-11.499,31.334-16.445
				c12.211-5.648,24.646-10.934,37.324-15.414c8.978-3.171,18.481-4.922,27.826-6.97c6.908-1.514,13.913-2.654,20.918-3.654
				c7.93-1.132,15.902-1.995,23.87-2.808c2.079-0.211,3.222-0.524,3.35-3.034c0.162-3.17,4.883-7.345,8.821-7.604
				c3.971-0.262,8.047-0.117,11.979,0.49c4.211,0.649,6.735,5.191,5.668,9.44c4.603,0.458,9.18,0.94,13.759,1.364
				c12.526,1.16,24.762,3.671,36.661,7.795c7.108,2.463,14.24,4.855,21.387,7.21c0.861,0.284,1.92,0.36,2.799,0.155
				c14.26-3.322,28.781-4.833,43.343-5.207c10.809-0.277,21.667,0.57,32.473,1.336c7.882,0.559,15.915,0.998,23.522,2.916
				c13.353,3.363,26.619,7.295,39.553,12.003c8.443,3.073,16.683,7.054,23.559,13.349c5.672,5.194,9.877,11.361,12.859,18.245
				c4.008,9.251,7.554,18.718,10.869,28.242c1.118,3.215,1.333,6.895,1.264,10.346c-0.254,12.575-0.604,25.158-1.33,37.714
				c-0.324,5.646-0.861,11.494-2.656,16.793c-2.558,7.542-5.579,15.156-9.792,21.867c-9.71,15.472-20.206,30.452-30.518,45.539
				c-1.647,2.41-4.235,4.188-2.172,7.659c0.324,0.545-0.667,1.875-1.131,3.053c3.022,2.897,1.226,6.578,0.54,9.721
				c-2.693,12.349-5.891,24.588-8.914,36.866c-0.831,3.366-1.654,6.741-2.571,10.085c-0.814,2.973-1.365-1.555-2.441,2.043
				c-1.499-2.794-2.521,1.017-1.583-2.617c4.178-16.186,6.164-29.885,9.799-46.201c0.963-4.331,1.25-8.73,0.94-13.388
				c-0.407-6.145-3.408-10.579-6.146-15.429c-4.514-8.001-9.923-15.267-17.364-20.802c-8.543-6.357-17.99-10.893-28.285-13.616
				c-13.908-3.678-27.785-7.488-41.758-10.9c-8.625-2.104-17.368-3.792-26.125-5.264c-9.068-1.526-18.187-3.291-27.336-3.654
				c-14.068-0.556-28.183-0.072-42.277,0.095c-11.233,0.133-22.475,0.264-33.696,0.754c-10.679,0.47-21.337,1.402-32.006,2.132
				c-10.114,0.692-20.282,0.951-30.334,2.169c-25.589,3.099-50.059,10.327-73.357,21.365c-14.678,6.953-29.506,13.656-43.794,21.346
				c-14.609,7.863-28.643,16.793-42.923,25.264C722.364-34.659,720.599-33.539,718.997-32.555z M1171.331-48.056
				c1.959-2.897,3.431-5.256,5.079-7.483c10.451-14.124,20.518-28.513,28.847-44.009c2.889-5.375,6.135-10.893,7.395-16.741
				c2.918-13.528,4.779-27.204,4.22-41.247c-0.435-10.957-0.668-21.734-4.958-32.014c-1.142-2.731-1.829-5.674-3.155-8.302
				c-3.415-6.771-6.569-13.752-10.749-20.035c-5.826-8.756-15.783-12.091-24.886-15.733c-17.207-6.886-34.981-12.258-53.576-14.055
				c-16.109-1.559-32.239-2.441-48.455-1.407c-13.78,0.879-27.46,2.44-40.706,6.289c-12.475,3.625-24.67,8.203-37.052,12.169
				c-16.461,5.274-32.446,11.828-47.708,19.799c-18.891,9.866-37.417,20.479-55.688,31.457
				c-10.668,6.411-20.721,13.911-30.709,21.377c-13.12,9.807-25.891,20.082-38.834,30.127c-7.342,5.696-14.987,11.028-22.038,17.06
				c-13.627,11.662-27.041,23.579-40.334,35.62c-11.37,10.301-22.452,20.916-33.641,31.415c-0.89,0.836-1.622,1.841-2.427,2.768
				c1.514-0.449,2.567-1.343,3.737-2.041c8.885-5.309,17.568-11.016,26.741-15.776c20.036-10.396,40.175-20.614,60.55-30.326
				C835.318-99.788,859-106.18,883.582-108.88c11.043-1.214,22.183-1.513,33.276-2.271c9.821-0.672,19.628-1.723,29.459-2.039
				c19.272-0.615,38.565-0.564,57.831-1.306c16.009-0.614,31.752,1.302,47.332,4.344c14.72,2.875,29.297,6.545,43.828,10.287
				c12.651,3.26,25.504,5.905,37.438,11.606c13.851,6.613,24.983,16.106,32.604,29.532
				C1167.209-55.453,1169.032-52.158,1171.331-48.056z M715.463-42.22c3.022-3.172,5.827-6.478,8.999-9.386
				c16.295-14.933,32.557-29.91,49.085-44.584c11.23-9.971,22.757-19.619,34.375-29.138c11.709-9.593,23.597-18.972,35.582-28.216
				c17-13.115,34.075-26.186,52.812-36.759c17.957-10.132,36.103-19.953,54.419-29.417c17.435-9.009,36.131-14.981,54.645-21.323
				c5.839-2.001,11.748-3.804,17.966-5.808c-2.986-1.613-5.341-3.3-7.962-4.233c-12.367-4.395-25.084-7.731-38.114-9.035
				c-11.539-1.156-23.223-1.556-34.821-1.29c-10.962,0.252-21.924,1.562-32.831,2.867c-7.75,0.928-15.453,2.421-23.099,4.027
				c-8.873,1.863-17.889,3.46-26.431,6.379c-11.178,3.82-21.871,9.035-32.922,13.263c-15.502,5.931-29.919,13.865-43.647,23.07
				c-10.36,6.948-20.969,13.633-29.131,23.368c-5.15,6.143-10.923,11.824-15.572,18.315c-10.464,14.618-18.104,30.69-23.157,48
				c-4.568,15.652-6.659,31.545-6.32,47.861C709.566-63.257,711.277-52.656,715.463-42.22z M953.78-266.41
				c-0.373-4.669-3.578-6.25-10.384-5.636c-4.432,0.399-5.719,1.731-5.282,5.636C943.246-266.41,948.391-266.41,953.78-266.41z"/>
		</g>
	</g>
</g>
<g display="none">
	<g display="inline">
		<path fill-rule="evenodd" clip-rule="evenodd" fill="#F9E7D9" d="M639.866,36.021c-0.298-4.441-1.143-6.256-4.988-9.541
			c-3.618-3.093-8.258-3.94-12.458-0.846c-1.773,1.025-4.667,2.197-6.247,3.314c-1.2,0.846-5.11,4.762-5.869,5.893
			c-0.761-1.055,0.869-4.801-0.272-5.488c-1.326-160.156-80.459-178.068-174.697-177.246
			c-133.378,1.16-210.292,68.953-198.8,173.112c-0.839-0.382-10.719-4.769-11.777-4.86c-1.021-0.262-2.343-0.348-3.396-0.357
			c-0.031,0-1.293,0.023-1.516,0.023c-0.846,0-1.597,0.087-2.317,0.267c-1.238,0.022-2.4,0.47-3.721,1.108
			c-6.981,3.369-8.849,11.121-8.303,17.613c0.152,1.408,0.708,3.186,0.936,3.938c0.204,0.676,1.388,3.647,2.371,4.631
			c0.662,0.863,1.816,2.482,3.358,4.001c1.143,1.138,3.082,2.683,4.807,3.923c1.112,0.841,5.273,3.234,6.417,4.078
			c0.394,0.292,4.109,3.104,5.209,4.129c1,0.688,3.173,2.793,4.703,4.561c0.791,0.885,2.31,3.841,3.452,6.164
			c0.297,0.773,5.235,9.535,5.888,11.164c0.421,1.056,3.175,7.197,3.923,9.99c0.91,2.566,1.336,4.326,2.507,7.355
			c0.007,0.042,5.216,15.445,6.193,16.966c0.223,0.521,6.076,12.407,9.002,17.077c4.059,6.477,15.002,19.591,18.934,22.358
			c7.288,5.134,15.101,11.452,23.026,15.675c-1.497,0.674-20.828,24.775-21.734,26.344c-11.159,19.279-6.771,13.754-17.061,33.703
			c-21.836,42.322-40.401,136.912-34.373,201.203c-0.971,10.246-5.586,24.994-5.777,32.008c-0.289,10.557-0.11,19.062,8.674,25.26
			c12.293,8.668,24.868-3.322,32.653-14.893c0.998,4.824,3.251,9.941,7.942,7.773c3.356-1.551,2.644-6.545,2.245-9.404
			c-0.152-1.088-0.352-2.248-0.639-3.395c-0.517-1.818-0.28-2.846-0.517-4.26c0,0-0.174-2.342-0.179-2.422
			c-0.513-8.377-1.169-16.748-1.925-25.107c-0.589-6.531-1.549-13.025-2.057-19.559c-1.207-15.557-2.498-31.117-3.254-46.697
			c-0.456-9.463-0.21-18.98,0.148-28.455c0.373-9.811,1.215-19.604,1.949-29.396c0.347-4.631,0.758-9.266,1.433-13.855
			c1.349-9.174,2.928-18.314,4.363-27.477c1.87-11.941,5.867-23.156,11.544-33.783c0.466-0.869,1.789-1.283,2.714-1.912
			c0.072,1.143-2.708,1.781-3.025,2.803c-1.875,6.006-5.605,11.365-7.072,17.461c-4.061,16.865-7.96,33.766-9.503,51.051
			c-0.967,10.85-1.842,21.711-2.483,32.582c-0.362,6.166-0.198,12.369-0.217,18.553c-0.01,3.336,0.064,6.672,0.157,10.008
			c0.233,8.34,0.375,16.682,0.789,25.012c0.304,6.064,0.987,12.104,1.488,18.156c0.21,2.559,0.174,5.947,1.157,8.154
			c1.737,3.904,0.722,9.182,1.44,13.102c0.822,4.506,0.558,8.5,1.185,13.059c1.188,8.645,0.711,16.635,2.317,25.209
			c2.369,12.656,6.392,27.764,8.832,40.406c0.254,1.312,1.096,2.762,1.407,4.047c1.189,4.924,2.711,9.77,3.819,14.707
			c1.352,6.021,2.379,12.117,3.607,18.166c1.455,7.174,2.954,14.338,4.477,21.498c1.222,5.752,7.113,26.439,8.508,31.123
			c1.886,6.312,3.599,12.68,5.177,19.074c0.677,2.738,1.695,5.836,1.029,8.367c-1.231,4.697-3.243,9.289-5.584,13.568
			c-1.334,2.434-3.246,4.551-5.104,6.695c-0.428,0.225-0.858,0.477-1.29,0.795c-19.06,14.014-29.944,35.439-30.435,59.719
			c-0.131,6.51,16.121,15.902,20.498,16.805c11.372,2.348,23.836-1.945,34.25-6.131c6.544-2.627,13.048-5.406,19.359-8.549
			c10.831-5.391,21.919-15.523,27.125-26.822c3.503-7.596,4.515-15.355,4.28-23.467c-0.072-2.5-0.86-5.031-0.611-7.48
			c0.76-7.486,1.722-14.959,2.87-22.396c1.298-8.408,2.74-16.801,4.386-25.146c1.606-8.156,3.584-16.24,5.332-24.369
			c2.322-10.809,4.527-21.641,6.882-32.443c1.658-7.604,3.664-15.139,5.18-22.77c1.965-9.873,3.484-19.832,5.418-29.711
			c1.184-6.055,2.462-12.129,4.31-18.002c1.564-4.973,1.395-5.471,3.657-10.111c2.946-6.039,8.533-8.484,13.26-1.951
			c4.12,5.695,4.641,9.82,6.409,16.354c2.027,7.494,4.22,14.08,6.022,21.635c2.058,8.619,4.857,17.098,6.357,25.803
			c3.211,18.664,4.19,37.57,5.08,56.473c0.625,13.275,1.125,26.598,2.747,39.768c1.425,11.59-1.562,25.492-5.487,36.258
			c-2.215,6.074-3.69,12.363-2.564,18.852c2.241,12.895,10.351,21.914,20.446,29.291c8.704,6.357,18.457,10.838,28.415,14.961
			c14.628,6.061,32.175,9.988,44.712,1.576c6.542-4.393,10.523-11.279,10.886-18.73c0.338-6.924-1.98-13.043-5.335-19.148
			c-4.956-9.016-8.82-18.627-13.492-27.812c-4.71-9.25-6.145-18.854-4.702-29.068c1.257-8.889,1.953-17.863,3.388-26.717
			c1.768-10.902,4.031-21.725,6.108-32.574c1.856-9.703,3.729-19.404,5.636-29.098c1.138-5.783,2.562-11.521,3.498-17.338
			c1.88-11.682,3.681-23.381,5.206-35.115c1.563-12.035,4.834-23.375,6.144-35.439c0.737-6.811,1.303-13.637,2.015-20.447
			c0.818-7.855,1.796-15.695,2.55-23.557c0.763-7.947,1.419-15.906,1.97-23.869c0.633-9.148,1.431-18.303,1.576-27.459
			c0.363-22.834,0.751-45.684-1.735-68.447c-0.679-6.225-1.438-12.451-2.49-18.619c-1.025-6.002-2.555-11.916-3.648-17.908
			c-0.174-0.953-4.619-3.115-3.98-3.256c1.022-0.229,2.377,0.514,3.414,1.139c0.5,0.305,0.718,1.254,0.856,1.955
			c1.666,8.344,3.489,16.662,4.879,25.049c1.93,11.639,2.871,23.365,2.802,35.189c-0.09,14.99,0.481,29.99,0.124,44.971
			c-0.287,11.986-1.336,23.965-2.409,35.916c-1.417,15.791-3.223,31.545-4.741,47.33c-0.029,0.303-0.001,0.617,0.054,0.932
			c-0.095,0.365-0.143,0.768-0.097,1.23c0.021,0.195,0.024,0.393,0.042,0.586c-0.019,0.17-0.045,0.336-0.042,0.518
			c0.119,6.896-2.483,13.721-1.972,20.645c0.274,3.736,3.096,5.711,5.585,4.734c0.858-0.045,1.714-0.395,2.422-0.998
			c-0.713,0.607-0.432,0.342-0.166,0.199c0.345-0.18,0.652-0.441,0.918-0.725c0.214-0.225,0.394-0.484,0.551-0.756
			c0.387-0.498,0.722-1.07,0.995-1.748c0.364-0.9,0.488-1.875,0.57-2.852c0.368-0.861,0.604-1.744,0.763-2.66
			c5.278,16.248,20.529,33.014,38.289,21.656c14.183-9.072,10.7-27.699,7.357-42.137c-1.067-6.443-5.672-19.994-5.893-20.484
			c-2.685-6.893-1.768-8.238-2.367-12.449c0.309-10.912,1.234-30.018,0.903-45.6c-0.252-11.82-1.98-41.928-1.989-42.875
			c-0.15-15.463-5.188-28.135-6.851-35.25c-1.989-8.508-4.817-15.926-6.805-23.121c-1.884-7.229-5.96-21.213-7.228-24.098
			c-4.523-11.973-9.45-23.121-16.458-33.885c-3.849-5.912-8.381-11.393-13.269-16.466c-0.871-0.903-1.822-1.741-2.801-2.562
			c-3.733-4.807-9.122-9.172-13.911-12.844c6.392-3.324,12.96-6.284,19.145-10.746c3.716-2.683,12.806-8.651,16.42-11.648
			c0.197-0.096,3.838-2.529,7.228-5.74c2.239-2.121,3.817-3.961,6.625-7.055c5.271-5.809,5.553-6.21,7.811-9.373
			c0.687-0.855,2.704-3.975,4.349-8.029c4.108-10.125,9.006-27.701,12.164-38.009c2.039-6.04,3.978-10.757,6.777-14.587
			c3.147-4.309,9.296-13.295,9.339-13.346c0.558-0.652,2.747-3.48,3.444-4.441c0.043-0.059,2.669-3.267,4.051-4.979
			c2.127-3.012,3.512-6.416,3.94-10.238C639.846,39.812,639.896,36.602,639.866,36.021z M306.229,175.023"/>
		<path fill-rule="evenodd" clip-rule="evenodd" fill="#F9E7D9" d="M419.268,182.768c-10.667-0.373-20.374-4.944-30.652-7.346
			c-12.435-2.906-25.169-4.194-37.718-6.484c-11.145-2.029-15.905,15.006-4.7,17.049c3.8,0.694,7.614,1.303,11.434,1.893
			c0.863,0.91,1.955,1.682,3.299,2.234c18.816,7.729,38.108,10.238,58.336,10.336C430.701,200.502,430.625,183.162,419.268,182.768z
			"/>
	</g>
	<g display="inline">
		<path opacity="0.4" fill-rule="evenodd" clip-rule="evenodd" fill="#F4782C" d="M434.855,79.839
			c-0.539-1.782-1.559-2.925-2.842-3.675c-1.221-0.928-2.663-1.446-4.141-1.177c-0.504-0.042-1.015-0.067-1.531-0.069
			c-1.041-0.007-4.374,3.197-2.257,2.315c2.447-1.021,6.079,0.454,7.708,3.374c0.033,0.057,1.14,2.584,0.176,3.824
			C431.62,84.883,435.142,80.781,434.855,79.839z"/>
		<path fill-rule="evenodd" clip-rule="evenodd" fill="#423B3E" d="M428.552,85.965c1.694-0.735,4.786-3.685,5.378-4.787
			c0.742-1.384,0.146-2.947-1.842-4.421c-1.428-1.618-4.346-1.913-6.445-0.477c-1.649,1.128-3.056,2.1-3.664,5.038
			c-0.387,0.303-0.266,0.249-0.608,0.045c0.318-1.082,0.42-2.617,1.188-3.512c3.574-4.159,8.228-4.836,11.641-0.364
			c1.686,2.206,0.724,4.346-1.022,6.167C431.829,85.062,428.115,88.617,428.552,85.965z"/>
	</g>
	<g display="inline">
		<g>
			<path fill-rule="evenodd" clip-rule="evenodd" fill="#423B3E" d="M389.995,139.344c0.918,0.309,2.674,2.846,3.495,3.32
				c13.699,9.309,25.761,10.779,46.701,9.898c8.276-0.838,16.429-3.353,23.197-8.334c1.067-0.72,1.851-1.021,2.79-2.431
				c0.939-0.939,1.172-2.771,1.72-3.669c1.098-0.521,1.616,0.775,1.374,1.392c-0.739,1.878-1.659,4.05-3.192,5.188
				c-6.2,4.598-13.193,7.522-20.883,8.684c-10.565,1.592-21.06,1.043-31.543-0.805c-7.873-1.387-14.832-4.969-21.235-9.601
				c-1.121-0.812-1.868-1.936-2.775-3.042C389.213,139.227,389.691,139.23,389.995,139.344z"/>
		</g>
		<path fill-rule="evenodd" clip-rule="evenodd" fill="#423B3E" d="M340.537,41.655c-0.221,2.931-2.657,5.271-5.596,5.271l0,0
			c-2.939,0-4.294-2.287-5.32-5.32c-0.494-1.459-0.578-2.674-0.67-5.516c-0.045-1.388,0.425-5.596,0.425-5.596
			c0.332-2.928,2.626-5.238,5.565-5.238l0,0c2.938,0,5.154,2.229,5.596,5.294c0,0,0.349,1.657,0.349,5.54
			C340.886,37.479,340.642,40.271,340.537,41.655z"/>
		<path fill-rule="evenodd" clip-rule="evenodd" fill="#423B3E" d="M528.967,41.655c-0.221,2.931-2.659,5.271-5.596,5.271l0,0
			c-2.937,0-4.294-2.287-5.319-5.32c-0.494-1.459-0.577-2.674-0.67-5.516c-0.045-1.388,0.424-5.596,0.424-5.596
			c0.332-2.928,2.628-5.238,5.565-5.238l0,0c2.937,0,5.154,2.229,5.596,5.294c0,0,0.349,1.657,0.349,5.54
			C529.316,37.479,529.071,40.271,528.967,41.655z"/>
	</g>
	
		<ellipse display="inline" opacity="0.4" fill-rule="evenodd" clip-rule="evenodd" fill="#F32842" cx="541.558" cy="89.385" rx="20.922" ry="7.928"/>
	
		<ellipse display="inline" opacity="0.4" fill-rule="evenodd" clip-rule="evenodd" fill="#F32842" cx="313.597" cy="89.385" rx="20.922" ry="7.928"/>
	<g display="inline">
		<path fill-rule="evenodd" clip-rule="evenodd" fill="#40393C" d="M665.755-1.498c0.022-9.738-0.359-19.478-0.547-29.218
			c-0.161-8.251,0.045-16.527-0.545-24.745c-0.494-6.881-126.675-156.934-139.457-160.843c-13.562-4.147-27.192-8.106-40.916-11.683
			c-9.855-2.571-19.904-4.41-29.88-6.507c-4.52-0.952-9.077-2.471-13.611-2.446c-9.5,0.053-19.003,0.871-28.492,1.54
			c-6.718,0.473-13.443,1.019-20.12,1.89c-8.752,1.141-17.485,2.479-26.177,4.015c-10.054,1.776-20.215,3.262-30.029,5.967
			c-11.527,3.181-22.7,7.456-33.286,13.345c-13.07,7.267-26.704,13.4-38.814,22.475c-15.225,11.409-28.727,24.141-37.414,41.312
			c-3.995,7.894-8.343,15.705-11.351,23.982c-5.318,14.636-9.857,29.561-14.476,44.44c-2.177,7.019-4.19,14.139-5.537,21.351
			c-1.394,7.462-1.951,15.083-2.759,22.65c-1.35,12.605-3.035,25.194-3.798,37.838c-1.109,18.356-1.188,36.749,1.761,55
			c2.466,15.277,79.522,108.748,94.462,103.055c-5.439-10.771-10.643-21.482-16.215-32.002c-6.052-11.422-9.493-23.671-11.59-36.265
			c-2.044-12.261-3.652-24.62-4.798-36.994c-1.027-11.105-1.29-22.287-1.626-33.444c-0.116-3.871,0.254-7.821,0.941-11.641
			c1.129-6.274,5.413-9.534,14.127-10.199c9.776-0.744,19.642-0.689,29.456-0.454c8.726,0.208,8.633,0.307,8.612-8.031
			c-0.028-9.841,0.019-19.692,0.411-29.523c0.337-8.424,1.112-16.838,1.868-25.239c0.566-6.278,1.269-12.549,2.167-18.786
			c1.259-8.723,2.676-17.425,4.263-26.09c0.162-0.879,1.961-1.456,2.999-2.174c0.454,1.025,1.357,2.082,1.29,3.073
			c-0.597,9.064-1.73,18.11-1.982,27.18c-0.256,9.182,0.287,18.385,0.542,27.575c0.069,2.416,0.349,4.826,0.564,7.236
			c0.625,7.021,1.214,14.042,1.917,21.054c0.609,6.067,1.276,12.127,2.065,18.174c0.413,3.167,2.374,4.852,5.646,4.755
			c3.907-0.118,7.814-0.249,11.718-0.447c11.703-0.599,23.409-1.123,35.102-1.884c15.294-0.996,30.571-2.265,45.862-3.282
			c12.042-0.801,24.095-1.449,36.146-2.067c12.247-0.632,25.193,1.464,37.443,1.478c13.424,0.014,16.351-0.711,29.765,0.028
			c6.069,0.335,21.949-0.411,27.962,0.515c8.655,1.329,17.287,2.862,25.878,4.558c4.324,0.851,8.946,1.512,12.701,3.586
			c4.957,2.74,6.87,7.994,7.031,13.631c0.178,6.309,0.112,12.622,0.261,18.931c0.272,11.625,0.604,23.248,0.946,34.873
			c0.587,20.057-4.629,39.058-10.551,57.924c-1.761,5.608-3.422,11.268-5.602,16.717c-2.273,5.686-4.945,11.24-7.802,16.662
			c-1.062,2.014,92.541-114.218,93.176-123.475c0.278-4.037-0.435-8.131-0.375-12.194C665.22,16.622,665.738,7.563,665.755-1.498z"
			/>
		<path display="none" fill-rule="evenodd" clip-rule="evenodd" fill="#40393C" d="M284.77,163.689
			c-5.439-10.771-10.643-21.482-16.215-32.001c-6.052-11.423-9.493-23.671-11.59-36.265c-2.044-12.262-3.652-24.62-4.798-36.994
			c-1.027-11.105-1.29-22.287-1.626-33.445c-0.116-3.871,0.254-7.821,0.941-11.64c1.129-6.274,5.413-9.534,14.127-10.199
			c9.776-0.744,19.642-0.688,29.456-0.454c8.726,0.209,8.633,0.308,8.612-8.03c-0.028-9.842,0.019-19.692,0.411-29.523
			c0.337-8.424,1.112-16.838,1.868-25.24c0.566-6.277,1.269-12.549,2.167-18.785c1.259-8.723,2.676-17.425,4.263-26.09
			c0.162-0.879,1.961-1.456,2.999-2.174c0.454,1.025,1.357,2.082,1.29,3.073c-0.597,9.064-1.73,18.11-1.982,27.18
			c-0.256,9.182,0.287,18.385,0.542,27.575c0.069,2.416,0.349,4.826,0.564,7.236c0.625,7.021,1.214,14.042,1.917,21.054
			c0.609,6.067,1.276,12.127,2.065,18.174c0.413,3.166,2.374,4.852,5.646,4.755c3.907-0.118,7.814-0.249,11.718-0.447
			c11.703-0.599,23.409-1.122,35.102-1.884c15.294-0.996,30.571-2.265,45.862-3.282c12.042-0.801,24.095-1.449,36.146-2.067
			c12.247-0.632,25.193,1.464,37.443,1.478c13.424,0.014,24.74,0.882,36.859-0.597c15.919,1.193,14.854,0.214,20.868,1.139
			c8.655,1.33,17.287,2.863,25.878,4.559c4.324,0.851,8.946,1.512,12.701,3.586c4.957,2.74,6.87,7.994,7.031,13.632
			c0.178,6.309,0.112,12.621,0.261,18.93c0.272,11.625,0.604,23.248,0.946,34.873c0.587,20.057-4.629,39.059-10.551,57.924
			c-1.761,5.609-3.422,11.269-5.602,16.718c-2.273,5.686-4.945,11.239-7.802,16.661c-1.062,2.014-1.257,3.226,1.102,3.789
			c4.393,1.047,8.842,2.457,13.293,2.562c11.41,0.271,22.85,0.248,34.244-0.328c6.191-0.312,12.388-2.049,17.572-5.713
			c6.68-4.723,11.63-10.796,13.74-19.041c1.747-6.828,4.461-13.418,6.091-20.273c1.115-4.686,1.157-9.637,1.582-14.479
			c0.649-7.452,1.267-14.91,1.803-22.37c0.475-6.626,0.703-13.274,1.245-19.894c0.76-9.248,1.87-18.471,2.505-27.728
			c0.278-4.036-0.435-8.13-0.375-12.194c0.133-9.062,0.651-18.12,0.668-27.181c0.022-9.738-0.359-19.478-0.547-29.217
			c-0.161-8.252,0.045-16.527-0.545-24.746c-0.494-6.88-2.277-13.664-2.832-20.543c-1.064-13.17-4.248-25.88-8.859-38.099
			c-8.774-23.24-21.938-43.773-40.434-60.614c-14.386-13.098-31.162-22.318-49.246-29.059c-12.515-4.665-25.305-8.619-38.087-12.528
			c-13.562-4.147-27.192-8.106-40.916-11.682c-9.855-2.571-19.904-4.411-29.88-6.507c-4.52-0.951-9.077-2.471-13.611-2.446
			c-9.5,0.053-19.003,0.871-28.492,1.54c-6.718,0.473-13.443,1.019-20.12,1.89c-8.752,1.14-17.485,2.479-26.177,4.014
			c-10.054,1.777-20.215,3.261-30.029,5.967c-11.527,3.18-22.7,7.455-33.286,13.345c-13.07,7.267-26.704,13.4-38.814,22.475
			c-15.225,11.409-28.727,24.141-37.414,41.312c-3.995,7.894-8.343,15.705-11.351,23.982c-5.318,14.637-9.857,29.562-14.476,44.441
			c-2.177,7.019-4.19,14.139-5.537,21.351c-1.394,7.462-1.951,15.083-2.759,22.649c-1.35,12.606-3.035,25.195-3.798,37.839
			c-1.109,18.355-1.188,36.749,1.761,55c2.466,15.276,4.156,30.747,7.789,45.745c3.427,14.146,9.152,27.721,13.458,41.676
			c2.486,8.062,8.219,11.589,15.788,13.211c4.227,0.904,8.474,1.717,12.715,2.563C254.944,166.809,269.829,169.384,284.77,163.689z
			 M576.668,145.28c3.325-11.419,6.887-22.772,10.32-34.163c3.536-11.73,5.031-23.806,5.181-35.98
			c0.128-10.484-0.603-20.979-0.899-31.474c-0.229-8.023-0.191-16.061-0.641-24.07c-0.219-3.958-0.741-8.403-4.705-10.48
			c-3.666-1.92-7.74-3.356-11.801-4.167c-9.954-1.977-19.958-3.855-30.027-5.054c-36.632,2.072-69.905-0.616-82.034,0.116
			c-6.962,0.421-90.041,4.223-97.43,4.61c-13.405,0.703-26.828,1.055-40.244,1.548c-3.985,0.147-7.407-1.994-8.709-5.599
			c-0.642-1.778-1.322-3.619-1.495-5.477c-1.212-13.177-2.317-26.365-3.41-39.553c-0.298-3.588-0.43-7.188-0.639-10.782
			c-0.385-0.019-0.771-0.037-1.159-0.056c-0.214,1.67-0.577,3.338-0.618,5.013c-0.231,9.627-0.477,19.258-0.532,28.889
			c-0.034,6.14-0.21,12.335,0.511,18.404c0.788,6.644-1.937,10.047-8.77,9.914c-4.922-0.095-9.852,0.223-14.778,0.361
			c-2.959,0.083-5.919,0.254-8.876,0.235c-4.629-0.029-9.263-0.371-13.883-0.229c-3.386,0.102-5.168,1.961-5.708,5.33
			c-0.35,2.182-0.69,4.41-0.651,6.606c0.263,14.575,0.028,29.196,1.152,43.707c0.874,11.282,2.926,22.553,5.482,33.593
			c2.429,10.494,5.948,20.764,9.479,30.961c1.52,4.389,4.032,8.506,6.532,12.468c3.671,5.813,3.894,11.642,9.056,17.658l1.708,4.927
			c0.187,3.941-1.502,5.695-5.523,6.438c-14.301,2.642-28.47,2.154-42.595-1.378c-5.604-1.401-11.459-1.847-17.016-3.388
			c-6.402-1.768-12.711-4.314-16.199-10.501c-1.976-3.507-3.243-7.456-4.512-11.31c-2.73-8.285-5.606-16.551-7.775-24.99
			c-2.466-9.594-4.583-19.307-6.206-29.076c-2.313-13.936-4.651-27.919-5.829-41.979c-0.95-11.353-0.346-22.848-0.149-34.278
			c0.128-7.504,0.473-15.028,1.216-22.493c1.33-13.341,2.806-26.678,4.668-39.954c1.064-7.599,2.595-15.188,4.659-22.575
			c2.994-10.727,6.461-21.337,10.088-31.871c4.17-12.105,8.424-24.202,13.222-36.065c4.033-9.974,10.741-18.329,18.057-26.161
			c9.149-9.793,19.652-17.914,30.497-25.749c9.966-7.203,21.044-12.238,31.631-18.234c10.139-5.744,20.759-10.271,31.807-13.723
			c6.632-2.072,13.559-3.234,20.393-4.617c6.739-1.362,13.495-2.728,20.303-3.663c12.423-1.707,24.874-3.245,37.347-4.565
			c7.88-0.835,15.809-1.436,23.727-1.623c12.199-0.288,24.186,1.218,36.041,4.429c9.629,2.608,19.548,4.14,29.293,6.35
			c5.608,1.271,11.171,2.793,16.676,4.465c13.71,4.161,27.436,8.288,41.038,12.777c12.485,4.12,24.473,9.448,36.049,15.74
			c12.724,6.912,23.915,15.728,33.757,26.272c3.987,4.273,7.635,8.861,11.489,13.26c2.393,2.728,5.192,5.156,7.251,8.111
			c2.878,4.128,5.531,8.476,7.76,12.988c5.125,10.376,9.092,21.227,12.017,32.429c1.809,6.942,4.004,13.868,4.903,20.943
			c1.383,10.867,2.226,21.849,2.528,32.802c0.508,18.421,0.468,36.861,0.547,55.294c0.031,6.957-0.777,13.96-0.204,20.857
			c0.402,4.829,0.502,9.595,0.084,14.347c-0.829,9.413-2.212,18.781-2.982,28.201c-0.545,6.695-0.238,13.457-0.716,20.164
			c-0.591,8.285-1.761,16.53-2.376,24.814c-0.637,8.572-2.183,16.912-5.028,25.025c-2.683,7.643-5.261,15.232-11.195,21.268
			c-6.611,6.721-14.564,10.346-23.727,11.244c-8.177,0.798-16.408,1.182-24.623,1.439c-8.557,0.268-17.038-0.535-25.367-2.715
			c-5.857-1.531-7.309-4.909-4.351-10.41L576.668,145.28z"/>
	</g>
	<g id="girl_1_" display="inline">
		<path fill="#F4E00A" stroke="#F4E00A" stroke-width="1.768" stroke-miterlimit="10" d="M424.921,201.001
			c72.142-7.034,109.497-31.233,114.304-35.592c9.59-8.695,21.845-17.003,30.917-26.251c11.682-11.91,20.101-24.975,29.218-39.015
			c10.211-15.722,17.998-32.602,18.226-51.818c0.097-7.942-0.359-16.134-2.262-23.789c-2.093-8.422-28.679-61.593-80.116-92.39
			c-16.807-9.943-34.442-17.991-52.679-24.851c-11.413-4.292-22.877-8.481-34.074-13.279c-8.284-3.551-16.8-5.813-25.647-7.098
			c-4.472-0.649-8.916-1.54-13.405,0.228c-25.593,5.665-74.485,28.061-101.082,49.351c-3.25,2.677-24.987,22.698-31.925,30.647
			c-7.904,9.047-15.253,18.582-23.244,27.546c-8.008,8.985-14.497,18.996-20.802,29.134c-5.781,9.293-11.05,18.896-14.479,29.377
			c-2.79,8.533-3.239,17.107,0.556,25.404c5.812,12.712,14.866,23.016,25.066,32.357c17.359,19.939,91.423,72.393,127.351,83.771
			c11.63,5.052,18.419,6.775,30.906,8.136c2.096,0.229,11.951-1.621,14.469-1.324c0.459,0.054,1.578,0.893,0.741,1.697
			L424.921,201.001z M423.35,567.258c-0.608,0.307-0.863,0.482-1.146,0.576c-8.789,2.811-17.846,2.828-26.949,2.863
			c-16.333,0.059-32.508-1.236-48.521-4.566c-8.681-1.803-17.421-3.311-26.13-4.986c-4.651-0.898-9.427-1.443-13.909-2.883
			c-12.107-3.893-29.66-9.805-41.667-14c-2.265-1.299-2.49-1.996-3.187-4.281c0.11-9.082,1.124-22.117,1.566-30.793
			c1.16-9.393,2.376-18.895,1.934-28.287c0.325-12.979,0.176-19.885-0.055-32.875l0.055-10.332c0,0-44.088-1.947-43.947-9.182
			c0.815-9.811,1.083-25.641,1.656-35.469c0.307-5.27,0.297-10.562,0.729-15.822c0.915-11.16,1.844-22.324,3.122-33.447
			c1.178-10.27,2.266-20.602,4.386-30.695c2.752-13.092,5.957-26.137,9.942-38.9c4.51-14.445,8.836-28.959,15.474-42.736
			c7.876-16.357,18.067-31.185,28.102-46.161c2.607-3.892,2.542-6.388-1.554-9.763c-2.002-1.65-14.182-7.678-17.577-9.963
			c-9.299-6.262-18.475-12.712-27.619-19.197c-10.957-7.77-21.962-15.477-32.695-23.547c-6.837-5.139-13.381-10.705-19.759-16.41
			c-6.54-5.846-10.762-10.574-16.494-17.174c-11.626-13.385-19.448-28.784-23.115-46.342c-3.201-15.329-1.658-30.181-0.518-45.867
			c11.245-154.598,189.255-252.545,249.046-269.154c17.663-3.902,36.866-0.622,45.969,0.507
			c82.21,3.561,259.699,183.146,250.471,276.458c-0.898,8.87-3.4,29.22-6.684,37.367c-7.365,18.721-30.776,50.959-32.078,52.879
			c-3.557,5.235-53.562,54.029-70.644,63.56c-11.208,7.353-20.778,11.775-27.142,18.136c-2.528,2.525-0.691,8.449,1.24,11.342
			c18.621,20.881,27.532,46.068,34.024,63.002c12.589,25.357,30.564,153.836,27.89,164.359c0.208,2.979,1.451,9.99-1.157,11.281
			c-15.007,6.799-47.626,7.734-47.626,7.734c0.28,15.021-0.216,10.475,0.589,25.467c0.494,9.139,1.547,17.984,2.725,27.084
			c1.464,11.299,1.665,14.166,3.146,25.461c0.649,4.932,1.053,12.887,1.884,17.766c0.792,4.652,1.709,12.934,3.705,17.543
			c0.404,0.932-0.121,2.531-0.677,3.574c-2.756,5.156-7.877,6.973-13.015,8.057c-9.693,2.043-26.267,6.322-36.084,7.613
			c-7.839,1.029-15.792,1.43-23.707,1.605c-9.624,0.219-19.265-0.24-28.896-0.148c-12.48,0.121-24.96,0.418-37.438,0.816
			c-3.493,0.109-6.417-0.83-9.142-2.898c-1.513-1.146-3.339-1.912-4.721-3.184L423.35,567.258z"/>
		<path opacity="0.3" fill-rule="evenodd" clip-rule="evenodd" fill="#F47527" d="M281.142,550.736
			c-3.634-1.043-7.823-2.955-9.724-3.426c-11.879-2.928-10.691-6.463-10.378-13.076c0.394-8.354,0.863-17.697,1.539-26.041
			c0.52-6.43,1.894-12.539,1.966-18.973c0.19-17.137-0.162-34.285,0.016-51.424c0.15-14.643,0.608-29.283,1.174-43.914
			c0.536-13.826,1.249-27.65,2.151-41.455c0.655-10.012,1.577-20.012,2.685-29.984c1.495-13.426,2.949-26.873,5.066-40.209
			c1.381-8.705,3.835-17.252,5.96-25.834c0.931-3.754,2.357-7.383,3.339-11.127c0.556-2.123,2.003-2.82,3.736-2.496
			c2.186,0.412-0.649,1.637-1.112,3.301c-2.174,7.795-4.634,15.537-6.283,23.445c-1.714,8.219-2.697,16.596-3.85,24.924
			c-1.476,10.664-2.985,21.324-4.137,32.025c-0.903,8.385-1.251,16.83-1.911,25.242c-0.53,6.742-1.186,13.471-1.725,20.209
			c-0.219,2.738-0.278,5.49-0.406,8.236c-0.473,10.217-1.205,20.432-1.343,30.654c-0.138,10.145,0.335,20.305,0.518,30.457
			c0.235,12.99,0.856,25.992,0.528,38.965c-0.235,9.375-1.878,18.707-2.638,28.074c-0.76,9.375-2.165,17.021-2.678,26.414
			c0.181-0.373-0.394,4.631,1.545,7.545C266.298,543.955,275.838,548.084,281.142,550.736z"/>
		<path opacity="0.3" fill-rule="evenodd" clip-rule="evenodd" fill="#F47527" d="M427.189,564.516c0,0-4.163-6.707-4.8-10.906
			c-0.8-7.514-1.784-15.35-1.428-22.432c0.558-11.102,1.646-22.176,2.229-33.275c0.427-8.129,0.333-16.285,0.608-24.42
			c0.245-7.275,0.951-14.545,0.969-21.818c0.029-12.285-0.095-24.582-0.596-36.855c-0.38-9.285-1.475-18.539-2.196-27.812
			c-0.27-3.469-0.425-6.951-0.561-10.428c-0.432-11.1-0.955-22.197-1.187-33.299c-0.114-5.488,0.28-10.992,0.537-16.482
			c0.741-15.75,1.378-31.482-0.599-47.209c-0.552-4.396-0.349-8.877-0.622-13.312c-0.539-8.742-1.267-17.477-1.723-26.223
			c-0.316-6.025-0.407-12.066-0.4-18.098c0.001-3.191-0.504-5.896-2.842-8.41c-3.46-3.717-3.002-6.471,0.257-12.193
			c0.948-1.666,2.832-0.344,3.108,0.578c0.221,0.736-0.589,1.768-1.16,4.881c-0.444,2.416,1.038,4.156,2.483,5.764
			c2.429,2.703,3.375,5.873,3.476,9.578c0.273,10.289,0.72,20.58,1.395,30.854c1.543,23.52,3.74,47.053,2.003,70.613
			c-1.086,14.725-0.803,29.381-0.117,44.049c0.671,14.359,2.162,28.684,2.852,43.041c1.24,25.838,1.716,51.688-0.001,77.539
			c-0.463,6.957-0.212,13.961-0.699,20.916c-0.649,9.35-1.898,18.656-2.504,28.008c-0.4,6.172-0.231,12.391-0.052,18.578
			c0.038,1.227-0.135,1.164,0.173,3.508C426,561.203,426.159,561.496,427.189,564.516z"/>
		<path opacity="0.3" fill-rule="evenodd" clip-rule="evenodd" fill="#F47527" d="M577.066,531.34
			c-1.076-4.834-1.329-9.848-1.977-14.775c-1.483-11.299-3.189-23.262-4.653-34.561c-1.179-9.098-1.771-18.457-2.264-27.594
			c-0.805-14.994-2.265-30.703-2.543-45.725c-0.365-19.592-2.464-39.037-2.302-58.627c0.164-19.729-1.059-39.332-3.553-58.867
			c-1.176-9.203-3.21-17.113-5.03-26.213c-0.52-2.594-2.084-3.916-3.369-6.354c-0.705-1.34-2.501-2.66-3.301-4.131
			c3.184-1.812,4.002-1.271,5.38,1.316c1.478,2.775,3.375,5.512,4.052,8.502c2.264,9.99,4.43,20.031,5.917,30.156
			c1.134,7.715,1.295,15.58,1.682,23.393c0.52,10.465,1.062,20.939,1.193,31.412c0.179,14.594,0.647,29.416,1.042,43.998
			c0.456,16.713,1.739,33.029,2.542,49.727c0.268,5.598-0.236,11.314,0.111,16.906c0.202,3.26,2.571,21.309,3.205,27.072
			c1.547,8.619,1.633,16.814,2.652,25.305c0.542,4.514,0.981,9.1,1.63,13.592c0.891,6.326,1.188,10.691,2.956,18.096
			c0.713,2.648,0.694,2.607,1.114,3.475C580.943,547.057,578.118,536.061,577.066,531.34z"/>
		<path display="none" fill-rule="evenodd" clip-rule="evenodd" d="M262.23,433.107c1.001,3.098-0.152,4.793-2.721,4.824
			c-11.792,0.145-23.635-0.031-33.817-7.139c-1.504-1.049-2.259-4.016-2.311-6.119c-0.093-3.891,0.691-7.789,0.929-11.699
			c0.354-5.811,0.428-11.641,0.839-17.445c1.088-15.297,2.324-30.584,3.445-45.879c1.336-18.25,4.069-36.334,8.579-54.018
			c4.296-16.852,9.617-33.465,15.098-49.982c4.869-14.668,12.293-28.193,20.698-41.146c4.251-6.553,8.664-13.002,13.024-19.486
			c2.194-3.26,2.03-5.066-1.311-7.419c-2.384-1.68-5.159-2.796-7.635-4.358c-5.176-3.27-10.327-6.583-15.38-10.035
			c-13.17-8.994-26.443-17.849-39.356-27.2c-8.284-5.995-16.133-12.621-23.944-19.239c-7.813-6.621-15.54-13.371-22.935-20.451
			c-9.418-9.02-16.663-19.539-22.107-31.553c-5.554-12.255-8.099-25.014-9.708-38.174c-1.827-14.958,0.794-29.38,5.342-43.435
			c5.181-16.022,10.717-31.959,16.87-47.63c4.318-10.997,9.911-21.493,14.968-32.197c4.285-9.068,8.405-18.223,12.982-27.144
			c6.684-13.029,14.502-25.321,24.568-36.094c6.492-6.948,12.406-14.467,19.177-21.12c7.076-6.951,14.812-13.239,22.368-19.69
			c5.856-5,11.817-9.888,17.853-14.669c6.458-5.114,12.837-10.373,19.649-14.981c11.079-7.494,22.167-15.08,33.855-21.533
			c8.229-4.543,17.417-7.382,26.26-10.769c5.409-2.073,10.936-3.865,16.477-5.567c11.354-3.491,23.076-4.611,34.825-3.695
			c9.472,0.739,19,2.039,28.227,4.249c7.968,1.909,15.62,5.261,23.278,8.312c11.59,4.618,23.095,9.458,34.577,14.341
			c6.784,2.886,13.649,5.679,20.137,9.147c12.92,6.904,25.868,13.825,38.296,21.555c8.591,5.344,16.492,11.856,24.416,18.205
			c11.831,9.481,23.611,19.046,35.034,29.012c9.735,8.49,19.267,17.316,26.312,28.321c6.97,10.886,13.818,21.86,20.462,32.949
			c4.674,7.797,9.175,15.723,13.294,23.824c5.052,9.935,8.537,20.491,10.574,31.465c1.946,10.494,1.78,21.094,0.688,31.638
			c-0.748,7.217-1.922,14.417-3.4,21.524c-0.938,4.51-2.336,9.045-4.303,13.203c-6.863,14.506-13.813,28.985-21.246,43.205
			c-3.65,6.985-8.597,13.284-12.67,20.066c-7.944,13.224-18.392,24.425-28.579,35.834c-8.36,9.364-16.722,18.739-25.4,27.809
			c-7.585,7.927-15.646,15.396-23.419,23.146c-3.735,3.723-7.281,7.636-10.93,11.446c-1.645,1.717-1.75,3.397-0.321,5.373
			c4.686,6.475,9.394,12.936,13.887,19.543c7.483,11.008,13.278,22.854,17.133,35.627c4.15,13.75,8.476,27.453,12.514,41.24
			c2.773,9.473,4.886,19.145,7.83,28.559c4.446,14.217,6.628,28.857,9.099,43.463c1.618,9.572,1.188,19.172,0.732,28.809
			c-0.551,11.621-0.734,23.264,1.341,34.801c0.598,3.326-0.508,5.955-3.124,8.01c-0.582,0.455-1.122,1.031-1.782,1.318
			c-5.361,2.307-10.562,5.486-16.168,6.6c-7.331,1.453-14.983,1.318-22.506,1.682c-0.829,0.041-1.716-1.129-2.578-1.738
			c0.753-0.598,1.459-1.625,2.269-1.715c2.93-0.328,5.946-0.045,8.84-0.535c7.148-1.213,14.265-2.635,21.35-4.176
			c1.918-0.418,3.705-1.502,5.499-2.387c2.607-1.291,3.155-3.27,2.947-6.25c-0.761-10.961-2.108-22.023-1.348-32.918
			c1.39-19.957-1.261-39.381-6.148-58.467c-6.585-25.709-14.013-51.211-21.496-76.682c-2.702-9.193-6.131-18.25-10.13-26.955
			c-2.782-6.057-7.005-11.473-10.757-17.058c-4.292-6.388-8.863-12.593-13.138-18.991c-1.932-2.892-1.516-6.441,1.012-8.967
			c6.364-6.357,13.103-12.354,19.277-18.885c12.917-13.662,25.659-27.492,38.291-41.419c7.954-8.771,15.813-17.653,23.257-26.855
			c3.958-4.892,6.85-10.632,10.406-15.868c1.304-1.92,3.383-3.318,4.669-5.244c2.462-3.686,4.905-7.439,6.834-11.415
			c7.469-15.394,15.412-30.614,21.791-46.454c3.282-8.146,4.253-17.408,5.15-26.275c0.881-8.701,1.221-17.649,0.183-26.296
			c-1.055-8.793-3.418-17.585-6.383-25.961c-6.025-17.018-16.225-31.9-25.669-47.136c-4.232-6.824-8.293-13.754-12.573-20.547
			c-6.511-10.337-15.218-18.789-24.402-26.605c-14.222-12.104-29.197-23.321-43.339-35.513
			c-12.478-10.757-27.021-17.991-41.027-26.232c-13.245-7.793-27.154-13.935-41.532-19.292
			c-14.534-5.416-28.606-12.086-43.196-17.33c-7.568-2.721-15.752-4.089-23.78-5.083c-9.103-1.128-18.357-1.703-27.515-1.448
			c-5.237,0.147-10.576,1.99-15.589,3.829c-12.009,4.402-24.138,8.65-35.673,14.114c-9.576,4.536-18.443,10.606-27.489,16.214
			c-4.936,3.06-9.729,6.391-14.336,9.927c-7.443,5.713-14.755,11.604-21.986,17.587c-10.17,8.417-20.419,16.76-30.234,25.578
			c-5.411,4.862-10.141,10.515-14.937,16.021c-6.108,7.008-12.576,13.818-17.784,21.463c-5.926,8.699-10.898,18.084-15.802,27.425
			c-6.178,11.775-12.347,23.599-17.646,35.782C171.815-66,166.197-51.279,160.834-36.496c-3.845,10.593-7.268,21.386-10.059,32.301
			c-3.896,15.239-2.685,30.537,0.518,45.869c3.667,17.557,11.489,32.957,23.116,46.342c5.732,6.596,12.415,12.411,18.953,18.258
			c6.379,5.705,12.923,11.268,19.759,16.408c10.734,8.069,21.74,15.779,32.697,23.549c9.144,6.484,18.319,12.936,27.619,19.195
			c3.395,2.287,7.2,3.958,10.794,5.953c2.298,1.277,4.778,2.359,6.781,4.01c4.097,3.373,4.161,5.872,1.556,9.762
			c-10.035,14.977-20.226,29.805-28.102,46.162c-6.637,13.779-10.964,28.293-15.476,42.738c-3.985,12.762-7.188,25.809-9.94,38.898
			c-2.122,10.094-3.21,20.426-4.387,30.695c-1.276,11.123-2.205,22.287-3.122,33.449c-0.432,5.258-0.419,10.553-0.727,15.822
			c-0.573,9.828-1.112,19.662-1.927,29.473c-0.29,3.49,1.302,5.352,4.064,6.74c6.799,3.426,14.267,4.023,21.627,4.887
			C256.985,434.295,259.523,433.463,262.23,433.107z"/>
		<g>
			<path opacity="0.7" fill-rule="evenodd" clip-rule="evenodd" fill="#F47527" d="M429.878,208.992c-5.7,0-5.7,8.84,0,8.84
				C435.577,217.832,435.577,208.992,429.878,208.992z"/>
			<path opacity="0.7" fill-rule="evenodd" clip-rule="evenodd" fill="#F47527" d="M437.834,290.615c-5.7,0-5.7,8.84,0,8.84
				C443.533,299.455,443.533,290.615,437.834,290.615z"/>
			<path opacity="0.7" fill-rule="evenodd" clip-rule="evenodd" fill="#F47527" d="M437.539,367.523c-5.7,0-5.7,8.842,0,8.842
				C443.24,376.365,443.24,367.523,437.539,367.523z"/>
		</g>
	</g>
</g>
</svg>
