<?xml version="1.0" encoding="utf-8"?>
<!-- Generator: Adobe Illustrator 16.0.4, SVG Export Plug-In . SVG Version: 6.00 Build 0)  -->
<!DOCTYPE svg PUBLIC "-//W3C//DTD SVG 1.1//EN" "http://www.w3.org/Graphics/SVG/1.1/DTD/svg11.dtd" [
	<!ENTITY ns_flows "http://ns.adobe.com/Flows/1.0/">
	<!ENTITY ns_extend "http://ns.adobe.com/Extensibility/1.0/">
	<!ENTITY ns_ai "http://ns.adobe.com/AdobeIllustrator/10.0/">
	<!ENTITY ns_graphs "http://ns.adobe.com/Graphs/1.0/">
	<!ENTITY ns_vars "http://ns.adobe.com/Variables/1.0/">
	<!ENTITY ns_imrep "http://ns.adobe.com/ImageReplacement/1.0/">
	<!ENTITY ns_sfw "http://ns.adobe.com/SaveForWeb/1.0/">
	<!ENTITY ns_custom "http://ns.adobe.com/GenericCustomNamespace/1.0/">
	<!ENTITY ns_adobe_xpath "http://ns.adobe.com/XPath/1.0/">
]>
<svg version="1.1" xmlns:x="&ns_extend;" xmlns:i="&ns_ai;" xmlns:graph="&ns_graphs;"
	 xmlns="http://www.w3.org/2000/svg" xmlns:xlink="http://www.w3.org/1999/xlink" xmlns:a="http://ns.adobe.com/AdobeSVGViewerExtensions/3.0/"
	 x="0px" y="0px" width="326px" height="600px" viewBox="0 0 326 600" enable-background="new 0 0 326 600" xml:space="preserve">
<metadata>
	<sfw  xmlns="&ns_sfw;">
		<slices></slices>
		<sliceSourceBounds  width="713.901" height="579.213" y="13.771" x="163.427" bottomLeftOrigin="true"></sliceSourceBounds>
	</sfw>
</metadata>
<g id="body">
	<path display="none" fill-rule="evenodd" clip-rule="evenodd" fill="#F9E7D9" d="M-187.423,178.068
		c-1.017-0.047-2.068,0.145-3.071,0.374c-6.517,1.488-6.264,9.344-3.109,12.104c2.963,2.593,6.345,4.704,9.508,7.072
		c2.146,1.606,3.99,3.419,5.014,6.051c1.08,2.773,2.588,5.376,3.794,8.104c0.806,1.824,1.41,3.736,2.104,5.609
		c1.033,2.788,1.933,5.634,3.13,8.349c1.723,3.905,3.622,7.733,5.529,11.554c0.702,1.407,1.544,2.768,2.488,4.025
		c3.164,4.215,6.594,8.199,10.786,11.446c2.155,1.669,4.357,3.279,6.558,4.886c1.111,0.811,2.211,1.664,3.415,2.314
		c5.019,2.709,10.114,5.224,15.668,6.73c5.143,1.395,10.213,3.06,15.343,4.506c6.623,1.867,13.311,3.365,20.146,4.361
		c3.896,0.568,7.774,1.363,11.709,1.61c3.03,0.19,6.081,0.122,9.121,0.071c4.971-0.083,9.942-0.193,14.91-0.39
		c5.739-0.228,11.401-1.022,16.951-2.563c2.555-0.709,5.189-1.163,7.695-2.007c5.186-1.749,10.301-3.627,15.019-6.554
		c4.986-3.094,10.287-5.673,15.342-8.663c5.942-3.515,11.568-7.512,16.208-12.684c4.25-4.737,6.993-10.269,8.461-16.506
		c1.236-5.256,2.585-10.518,4.406-15.589c0.961-2.676,3.009-4.971,4.62-7.402c1.133-1.708,2.37-3.346,3.536-5.032
		c1.396-2.021,2.791-4.044,4.14-6.098c1.564-2.381,3.115-4.767,2.736-7.853c-0.257-2.094-2.253-3.454-5.239-3.811
		c-3.685-0.441-5.458,1.854-7.012,4.546c-0.86,1.49-1.575,1.631-2.773,0.464c0.332-0.849,0.501-1.793,1.018-2.472
		c0.629-0.824,1.473-1.55,2.361-2.095c2.2-1.349,4.442-2.642,6.739-3.817c1.424-0.729,3.846,0.135,5.175,1.622
		c2.897,3.241,3.248,7.695,0.68,11.359c-3.68,5.251-7.51,10.398-11.232,15.621c-0.714,1.001-1.333,2.1-1.816,3.23
		c-1.382,3.236-2.854,6.397-3.62,9.917c-1.041,4.784-2.486,9.514-4.188,14.107c-1.431,3.864-3.42,7.505-6.664,10.316
		c-3.152,2.73-5.977,5.864-9.267,8.404c-3.854,2.976-8.025,5.549-12.123,8.199c-1.661,1.075-3.485,1.898-5.243,2.823
		c-1.549,0.813-1.62,1.132-0.237,2.283c3.908,3.256,7.212,7.042,10.454,10.963c3.558,4.301,7.138,8.567,9.487,13.624
		c2.505,5.391,4.863,10.889,6.743,16.521c1.924,5.763,3.255,11.729,4.726,17.637c1.034,4.158,1.988,8.344,2.756,12.558
		c0.782,4.288,1.518,8.606,1.871,12.944c0.649,7.997,1.176,16.013,1.424,24.03c0.177,5.713-0.038,11.45-0.358,17.161
		c-0.245,4.346-0.815,8.685,0.463,12.936c0.811,2.692,2.098,5.25,2.809,7.964c1.152,4.395,2.3,8.771,1.598,13.481
		c-0.448,3.01-0.785,5.908-2.469,8.539c-2.037,3.184-5.107,4.386-8.623,4.466c-1.174,0.026-2.455-0.757-3.534-1.419
		c-1.555-0.953-3.17-1.949-4.387-3.27c-1.205-1.307-2.058-2.983-2.871-4.596c-1.721-3.41-1.905-2.582-4.369-1.78
		c-1.249,0.406-2.816-0.11-4.229-0.289c-0.475-0.06-0.918-0.365-1.556-0.634c-0.419,3.843-0.765,7.428-1.212,11
		c-0.499,3.986-1.074,7.963-1.646,11.939c-0.633,4.396-1.225,8.799-1.975,13.174c-0.615,3.591-1.445,7.146-2.164,10.719
		c-0.711,3.526-1.399,7.057-2.103,10.584c-0.678,3.403-1.438,6.794-2.027,10.213c-1.073,6.22-2.029,12.46-3.074,18.686
		c-0.269,1.599-0.786,3.159-1.008,4.762c-0.237,1.717-0.141,3.482-0.4,5.195c-0.867,5.714-0.174,11.288,1.848,16.616
		c1.41,3.719,3.364,7.234,5.134,10.813c1.229,2.484,2.617,4.891,3.825,7.385c2.366,4.889,2.924,10.037,0.879,15.063
		c-0.782,1.921-2.68,3.671-4.499,4.814c-2.347,1.476-5.054,2.513-7.735,3.287c-3.733,1.078-7.602,0.505-11.237-0.511
		c-6.354-1.775-12.385-4.418-17.905-8.098c-2.732-1.821-5.708-3.416-8.044-5.663c-4.568-4.391-8.119-9.475-8.704-16.142
		c-0.317-3.615,0.394-7.017,1.566-10.352c1.904-5.418,3.247-10.855,2.164-16.684c-0.409-2.204-0.311-4.504-0.44-6.76
		c-0.363-6.288-0.728-12.575-1.084-18.864c-0.249-4.393-0.36-8.797-0.761-13.176c-0.419-4.575-1.089-9.128-1.695-13.685
		c-0.326-2.449-0.572-4.929-1.163-7.318c-1.562-6.321-3.292-12.602-4.955-18.897c-0.887-3.357-1.678-6.744-2.701-10.06
		c-0.428-1.386-1.265-2.673-2.061-3.911c-0.968-1.507-2.554-2.227-4.18-1.633c-1,0.364-2.083,1.466-2.433,2.478
		c-1.764,5.099-3.629,10.2-4.827,15.445c-1.347,5.899-1.925,11.97-3.027,17.931c-0.542,2.932-1.541,5.776-2.28,8.675
		c-0.927,3.637-1.882,7.27-2.676,10.937c-0.945,4.362-1.707,8.764-2.593,13.139c-1.528,7.547-3.132,15.078-4.61,22.635
		c-0.431,2.203-0.494,4.477-0.81,6.705c-0.281,1.985-0.817,3.943-0.981,5.935c-0.124,1.519-0.012,3.104,0.292,4.6
		c0.975,4.792-0.282,9.227-1.854,13.66c-1.198,3.377-3.007,6.432-5.262,9.13c-1.87,2.238-4.095,4.252-6.423,6.021
		c-5.661,4.3-12.414,6.453-18.949,8.92c-3.302,1.247-6.92,2.084-10.433,2.232c-4.433,0.188-8.902-0.371-12.634-3.429
		c-4.632-3.794-6.391-8.422-5.076-14.351c1.387-6.251,4.702-11.336,8.814-16.062c2.954-3.396,5.726-6.948,8.63-10.387
		c1.354-1.603,2.93-3.022,4.229-4.665c2.389-3.022,3.645-6.41,2.544-10.308c-1.39-4.924-2.843-9.831-4.26-14.748
		c-0.906-3.146-1.908-6.269-2.664-9.45c-0.763-3.206-1.237-6.479-1.908-9.71c-0.633-3.048-1.405-6.068-2.022-9.119
		c-0.393-1.938-0.549-3.923-0.939-5.86c-0.213-1.061-0.793-2.045-1.035-3.104c-1.445-6.321-2.889-12.645-4.233-18.988
		c-0.72-3.397-1.317-6.837-2.075-10.228c-0.349-1.564-0.99-4.009-1.371-5.1c-0.197-0.566-0.749-0.162-0.971-0.083
		c-0.959,0.345-2.199,0.629-3.341,0.925c-0.74,0.191-1.336,1.217-1.848,1.962c-3.123,4.551-7.136,7.875-12.842,7.999
		c-3.641,0.079-6.232-2.344-8.179-5.269c-1.596-2.397-1.704-5.187-1.398-7.901c0.412-3.651,1.02-7.291,1.76-10.891
		c0.507-2.47,1.472-4.841,2.071-7.296c0.709-2.906,1.582-5.833,1.773-8.79c0.247-3.824-0.133-7.687-0.203-11.533
		c-0.064-3.478-0.096-6.955-0.104-10.433c-0.01-4.018-0.154-8.046,0.082-12.05c0.254-4.312,0.792-8.615,1.37-12.9
		c0.622-4.615,1.239-9.245,2.212-13.793c1.215-5.678,2.716-11.299,4.242-16.903c1.064-3.905,2.256-7.787,3.611-11.601
		c1.768-4.979,3.656-9.92,5.676-14.801c1.564-3.778,3.319-7.486,5.153-11.143c3.215-6.412,6.977-12.499,11.459-18.112
		c1.424-1.784,2.853-3.628,4.583-5.083c1.655-1.391,0.585-1.948-0.384-2.681c-3.802-2.879-7.704-5.634-11.418-8.622
		c-7.653-6.157-12.686-14.292-16.596-23.116c-2.099-4.738-3.422-9.815-5.388-14.62c-1.833-4.482-3.804-8.95-6.214-13.136
		c-1.123-1.949-3.326-3.356-5.222-4.761c-3.149-2.333-6.743-4.022-9.012-7.506c-2.699-4.144-0.979-11.947,4.262-13.768
		c4.003-1.391,9.241-0.157,11.479,3.216C-180.044,180.68-184.423,178.208-187.423,178.068z M25.885,367.509
		c0.107-0.009,0.215-0.019,0.322-0.027c-0.547-5.76-0.869-11.552-1.7-17.271c-0.99-6.824-2.338-13.6-3.687-20.366
		c-0.743-3.732-1.629-7.455-2.76-11.088c-2.117-6.804-4.174-13.649-6.79-20.268c-2.365-5.983-5.8-11.435-9.843-16.527
		c-3.991-5.028-7.497-10.438-13.129-13.92c-0.945-0.584-1.637-0.809-2.587-0.202c-5.245,3.349-11.012,5.54-16.918,7.337
		c-3.917,1.192-7.889,2.318-11.916,3c-4.156,0.703-8.404,0.975-12.624,1.177c-6.513,0.312-13.044,0.686-19.552,0.499
		c-5.377-0.154-10.774-0.838-16.086-1.735c-5.73-0.966-11.407-2.322-17.045-3.75c-5.239-1.328-10.423-2.89-15.581-4.509
		c-3.973-1.248-7.878-2.717-11.792-4.146c-1.512-0.552-2.78-0.7-3.934,0.771c-3.225,4.112-6.833,7.959-9.721,12.289
		c-3.148,4.72-5.843,9.774-8.387,14.856c-1.928,3.85-3.375,7.948-4.917,11.981c-1.847,4.827-3.726,9.652-5.296,14.572
		c-1.457,4.562-2.625,9.223-3.741,13.884c-1.239,5.177-2.371,10.384-3.364,15.612c-0.603,3.178-0.824,6.427-1.275,9.636
		c-0.25,1.778-0.816,3.532-0.895,5.312c-0.184,4.16-0.167,8.328-0.215,12.494c-0.021,1.765-0.044,3.532,0.011,5.296
		c0.055,1.75,0.258,3.496,0.306,5.245c0.089,3.275,0.155,6.553,0.151,9.829c-0.003,2.791,0.3,5.671-0.267,8.356
		c-1.219,5.772-3.033,11.417-4.359,17.17c-0.69,2.995-1.3,6.132-1.146,9.164c0.157,3.085,1.287,6.036,4.365,7.844
		c1.592,0.935,3.271,1.575,4.821,0.949c4.461-1.805,8.203-4.465,9.082-9.723c0.254-1.521,0.482-3.081,1.034-4.501
		c0.294-0.758,1.255-1.256,1.916-1.871c0.39,0.588,0.876,1.136,1.148,1.774c0.349,0.821,0.42,1.768,0.813,2.559
		c0.279,0.562,0.892,0.958,1.356,1.428c0.295-0.644,0.878-1.306,0.84-1.93c-0.291-4.739-0.662-9.474-1.089-14.202
		c-0.333-3.692-0.876-7.367-1.163-11.062c-0.683-8.799-1.414-17.599-1.84-26.411c-0.259-5.352-0.12-10.734,0.083-16.094
		c0.21-5.549,0.687-11.089,1.103-16.628c0.197-2.618,0.429-5.24,0.811-7.836c0.763-5.189,1.656-10.359,2.468-15.541
		c1.058-6.754,3.318-13.098,6.53-19.106c0.264-0.493,1.011-0.728,1.534-1.082c0.042,0.646,0.273,1.352,0.093,1.93
		c-1.06,3.396-2.463,6.705-3.293,10.153c-2.297,9.539-3.892,19.213-4.765,28.99c-0.547,6.136-1.042,12.278-1.404,18.427
		c-0.206,3.489-0.112,6.996-0.123,10.495c-0.006,1.887,0.036,3.773,0.088,5.66c0.131,4.716,0.212,9.435,0.447,14.146
		c0.171,3.429,0.559,6.846,0.841,10.269c0.12,1.447-0.15,3.061,0.405,4.31c0.983,2.208,0.373,4.478,0.778,6.695
		c0.466,2.549,0.141,5.234,0.495,7.813c0.672,4.888,1.506,9.756,2.414,14.606c1.34,7.157,2.816,14.289,4.197,21.439
		c0.144,0.742-0.113,1.569,0.063,2.297c0.672,2.784,1.533,5.525,2.16,8.318c0.765,3.406,1.345,6.853,2.04,10.274
		c0.824,4.058,1.671,8.109,2.532,12.158c0.692,3.255,1.3,6.534,2.168,9.742c0.721,2.664,1.854,5.214,2.645,7.862
		c1.065,3.57,2.035,7.172,2.928,10.789c0.382,1.549,0.958,3.3,0.582,4.731c-0.697,2.657-1.834,5.255-3.159,7.674
		c-1.002,1.83-2.583,3.343-3.902,5c-1.188,1.495-2.3,3.059-3.569,4.481c-4.141,4.643-8.491,9.114-11.568,14.598
		c-1.825,3.252-2.896,6.755-2.787,10.475c0.172,5.867,4.899,10.078,10.748,11.284c6.432,1.327,12.481-0.35,18.372-2.717
		c3.701-1.487,7.38-3.06,10.949-4.836c6.126-3.05,10.867-7.455,13.811-13.845c1.981-4.298,2.553-8.686,2.42-13.273
		c-0.041-1.414-0.485-2.847-0.345-4.23c0.43-4.234,0.974-8.462,1.623-12.668c0.734-4.756,1.55-9.502,2.48-14.224
		c0.909-4.613,2.027-9.186,3.016-13.783c1.314-6.113,2.562-12.239,3.893-18.349c0.938-4.302,2.072-8.563,2.93-12.88
		c1.111-5.584,1.97-11.217,3.064-16.804c0.67-3.425,1.392-6.86,2.437-10.183c0.885-2.812,1.659-5.726,3.805-8.021
		c2.558-2.734,7.181-3.256,9.855,0.439c2.33,3.22,3.493,6.853,4.492,10.548c1.146,4.237,1.895,8.58,2.914,12.854
		c1.163,4.875,2.747,9.67,3.595,14.595c1.817,10.557,2.371,21.249,2.874,31.941c0.354,7.508,0.637,15.043,1.554,22.492
		c0.806,6.555-0.12,12.691-2.34,18.78c-1.253,3.437-2.087,6.992-1.45,10.662c1.267,7.294,5.854,12.396,11.564,16.567
		c4.923,3.596,10.428,6.158,16.071,8.463c6.75,2.758,13.375,3.91,20.388,0.668c4.045-1.869,5.961-4.791,6.166-9.006
		c0.191-3.916-1.12-7.378-3.018-10.831c-2.803-5.1-4.988-10.535-7.631-15.729c-2.664-5.232-3.476-10.665-2.659-16.442
		c0.711-5.027,1.104-10.103,1.916-15.111c1-6.165,2.28-12.286,3.455-18.423c1.05-5.488,2.109-10.975,3.188-16.457
		c0.644-3.272,1.449-6.518,1.979-9.807c1.063-6.607,2.082-13.226,2.944-19.862c0.884-6.807,1.577-13.64,2.317-20.465
		c0.417-3.851,0.737-7.712,1.14-11.564c0.463-4.442,1.016-8.877,1.442-13.323c0.432-4.494,0.803-8.996,1.114-13.501
		c0.358-5.174,0.81-10.351,0.892-15.531c0.205-12.914,0.425-25.838-0.981-38.713c-0.384-3.521-0.813-7.042-1.408-10.531
		c-0.58-3.395-1.445-6.739-2.063-10.128c-0.099-0.54,0.35-1.621,0.711-1.701c0.578-0.128,1.345,0.291,1.931,0.646
		c0.283,0.172,0.406,0.709,0.484,1.104c0.942,4.719,1.974,9.424,2.76,14.169c1.092,6.581,1.624,13.214,1.585,19.901
		c-0.051,8.479,0.272,16.963,0.07,25.437c-0.162,6.779-0.756,13.555-1.362,20.313c-0.802,8.932-1.823,17.843-2.682,26.77
		c-0.069,0.726,0.364,1.507,0.594,2.254c0.21,0.679,0.543,1.328,0.679,2.02c0.529,2.695,1.998,4.08,4.919,2.186
		c2.27-1.472,3.345-1.048,4.496,1.386c1.354,2.862,2.669,5.778,5.436,7.595c2.539,1.668,5.056,3.55,8.393,1.756
		c2.111-1.136,2.988-3.042,3.514-5.163c1.48-5.974,0.222-11.74-1.7-17.359c-1.484-4.344-3.596-8.49-3.305-13.272
		c0.356-5.839,0.667-11.68,1.002-17.52c0.105-1.842,0.38-3.688,0.306-5.522C26.477,373.922,26.137,370.717,25.885,367.509z"/>
</g>
<g id="face">
	<g display="none">
		<path display="inline" fill-rule="evenodd" clip-rule="evenodd" d="M-5.889,196.473c0.197-1.474,0.344-2.958,0.615-4.417
			c0.163-0.873,2.172-0.903,3.154,0.109c1.669,1.72,2.529,3.885,2.532,6.273c0.003,1.574-1.64,2.548-3.19,2.09
			C-4.722,199.955-5.901,198.417-5.889,196.473z"/>
		<path display="inline" fill-rule="evenodd" clip-rule="evenodd" d="M0.096,213.259c-0.547,0.776-0.994,2.097-1.808,2.386
			c-0.938,0.333-2.327,0.004-3.287-0.49c-1.062-0.547-1.339-1.748-0.938-2.986c0.294-0.91,0.522-1.84,0.793-2.757
			c0.212-0.718-0.166-1.837,1.209-1.779c1.229,0.052,2.373,0.087,2.709,1.699C-0.974,210.541-0.444,211.691,0.096,213.259z"/>
	</g>
</g>
<g id="hair">
	<g display="none">
		<path display="inline" fill-rule="evenodd" clip-rule="evenodd" fill="#423B3E" d="M62.412,163.781
			c0.014-5.508-0.203-11.017-0.309-16.526c-0.092-4.667,0.025-9.348-0.309-13.997c-0.279-3.891-1.289-7.729-1.602-11.619
			c-0.602-7.449-2.402-14.637-5.012-21.548c-4.963-13.146-12.408-24.759-22.869-34.284C24.176,58.4,14.688,53.185,4.459,49.372
			c-7.078-2.638-14.312-4.875-21.541-7.086c-7.672-2.346-15.381-4.585-23.143-6.608c-5.574-1.454-11.258-2.494-16.9-3.68
			c-2.557-0.538-5.134-1.397-7.697-1.383c-5.374,0.03-10.748,0.493-16.115,0.871c-3.8,0.268-7.604,0.576-11.38,1.069
			c-4.95,0.645-9.89,1.402-14.806,2.271c-5.686,1.005-11.434,1.845-16.984,3.375c-6.52,1.798-12.839,4.217-18.827,7.547
			c-7.392,4.111-15.103,7.579-21.953,12.712c-8.611,6.454-16.248,13.654-21.161,23.366c-2.26,4.465-4.719,8.883-6.42,13.564
			c-3.008,8.278-5.576,16.72-8.188,25.136c-1.232,3.969-2.371,7.997-3.132,12.076c-0.788,4.221-1.104,8.532-1.561,12.811
			c-0.763,7.129-1.717,14.25-2.148,21.401c-0.626,10.383-0.671,20.785,0.996,31.108c1.396,8.64,2.351,17.39,4.406,25.872
			c1.938,8.002,5.176,15.682,7.612,23.574c1.407,4.56,4.648,6.553,8.929,7.471c2.391,0.512,4.793,0.972,7.192,1.451
			c8.419,1.684,16.839,3.14,25.289-0.081c-3.076-6.091-6.02-12.15-9.171-18.101c-3.422-6.459-5.369-13.387-6.556-20.512
			c-1.156-6.934-2.065-13.924-2.714-20.924c-0.581-6.279-0.729-12.604-0.92-18.914c-0.066-2.191,0.144-4.426,0.532-6.585
			c0.639-3.55,3.062-5.394,7.991-5.769c5.53-0.422,11.11-0.389,16.661-0.256c4.935,0.117,4.882,0.172,4.87-4.543
			c-0.015-5.566,0.011-11.138,0.233-16.698c0.19-4.765,0.629-9.524,1.057-14.276c0.32-3.55,0.717-7.097,1.225-10.625
			c0.711-4.934,1.514-9.855,2.412-14.756c0.091-0.497,1.108-0.824,1.696-1.229c0.257,0.581,0.768,1.177,0.73,1.739
			c-0.338,5.127-0.979,10.243-1.122,15.373c-0.144,5.192,0.163,10.397,0.307,15.596c0.039,1.366,0.198,2.729,0.319,4.092
			c0.354,3.971,0.687,7.943,1.084,11.909c0.344,3.431,0.722,6.859,1.168,10.278c0.233,1.792,1.343,2.745,3.193,2.69
			c2.209-0.065,4.42-0.14,6.627-0.253c6.619-0.339,13.241-0.635,19.854-1.065c8.651-0.564,17.291-1.282,25.94-1.857
			c6.811-0.453,13.627-0.819,20.443-1.169c6.928-0.356,14.25,0.828,21.178,0.836c7.594,0.008,9.248-0.402,16.836,0.015
			c3.432,0.189,12.414-0.231,15.814,0.291c4.896,0.752,9.777,1.619,14.637,2.578c2.445,0.482,5.061,0.856,7.184,2.029
			c2.805,1.549,3.887,4.521,3.977,7.711c0.102,3.567,0.064,7.139,0.148,10.706c0.154,6.575,0.342,13.149,0.535,19.724
			c0.332,11.346-2.619,22.092-5.969,32.763c-0.996,3.171-1.936,6.372-3.168,9.454c-1.285,3.217-2.797,6.357-4.412,9.425
			c-0.602,1.14-0.711,1.824,0.623,2.144c2.484,0.592,5,1.389,7.518,1.448c6.453,0.153,12.924,0.14,19.369-0.185
			c3.502-0.178,7.006-1.159,9.938-3.23c3.779-2.674,6.578-6.107,7.771-10.77c0.988-3.863,2.523-7.59,3.445-11.467
			c0.631-2.651,0.654-5.452,0.895-8.191c0.367-4.215,0.717-8.432,1.02-12.652c0.27-3.748,0.398-7.506,0.705-11.25
			c0.43-5.232,1.057-10.448,1.416-15.684c0.158-2.283-0.246-4.599-0.211-6.896C62.109,174.029,62.402,168.906,62.412,163.781z"/>
		<path fill-rule="evenodd" clip-rule="evenodd" fill="#423B3E" d="M-152.83,256.778c-3.076-6.091-6.02-12.15-9.171-18.101
			c-3.422-6.459-5.369-13.387-6.556-20.512c-1.156-6.934-2.065-13.924-2.714-20.924c-0.581-6.279-0.729-12.604-0.92-18.914
			c-0.066-2.191,0.144-4.426,0.532-6.585c0.639-3.55,3.062-5.394,7.991-5.769c5.53-0.422,11.11-0.389,16.661-0.256
			c4.935,0.117,4.882,0.172,4.87-4.543c-0.015-5.566,0.011-11.138,0.233-16.698c0.19-4.765,0.629-9.524,1.057-14.276
			c0.32-3.55,0.717-7.097,1.225-10.625c0.711-4.934,1.514-9.855,2.412-14.756c0.091-0.497,1.108-0.824,1.696-1.229
			c0.257,0.581,0.768,1.177,0.73,1.739c-0.338,5.127-0.979,10.243-1.122,15.373c-0.144,5.192,0.163,10.397,0.307,15.596
			c0.039,1.366,0.198,2.729,0.319,4.092c0.354,3.971,0.687,7.943,1.084,11.909c0.344,3.431,0.722,6.859,1.168,10.278
			c0.233,1.792,1.343,2.745,3.193,2.69c2.209-0.065,4.42-0.14,6.627-0.253c6.619-0.339,13.241-0.635,19.854-1.065
			c8.651-0.564,17.291-1.282,25.94-1.857c6.811-0.453,13.627-0.819,20.443-1.169c6.928-0.356,14.25,0.828,21.178,0.836
			c7.594,0.008,13.994,0.499,20.848-0.338c9.004,0.675,8.402,0.122,11.803,0.645c4.896,0.752,9.777,1.619,14.637,2.578
			c2.445,0.482,5.061,0.856,7.184,2.029c2.805,1.549,3.887,4.521,3.977,7.711c0.102,3.567,0.064,7.139,0.148,10.706
			c0.154,6.575,0.342,13.149,0.535,19.724c0.332,11.346-2.619,22.092-5.969,32.763c-0.996,3.171-1.936,6.372-3.168,9.454
			c-1.285,3.217-2.797,6.357-4.412,9.425c-0.602,1.14-0.711,1.824,0.623,2.144c2.484,0.592,5,1.389,7.518,1.448
			c6.453,0.153,12.924,0.14,19.369-0.185c3.502-0.178,7.006-1.159,9.938-3.23c3.779-2.674,6.578-6.107,7.771-10.77
			c0.988-3.863,2.523-7.59,3.445-11.467c0.631-2.651,0.654-5.452,0.895-8.191c0.367-4.215,0.717-8.432,1.02-12.652
			c0.27-3.748,0.398-7.506,0.705-11.25c0.43-5.232,1.057-10.448,1.416-15.684c0.158-2.283-0.246-4.599-0.211-6.896
			c0.074-5.125,0.367-10.248,0.377-15.374c0.014-5.508-0.203-11.017-0.309-16.526c-0.092-4.667,0.025-9.348-0.309-13.997
			c-0.279-3.891-1.289-7.729-1.602-11.619c-0.602-7.449-2.402-14.637-5.012-21.548C50.462,87.514,43.017,75.9,32.556,66.375
			C24.419,58.968,14.931,53.753,4.702,49.94c-7.078-2.638-14.312-4.875-21.541-7.086c-7.672-2.346-15.381-4.585-23.143-6.608
			c-5.574-1.454-11.258-2.494-16.9-3.68c-2.557-0.538-5.134-1.397-7.697-1.383c-5.374,0.03-10.748,0.493-16.115,0.871
			c-3.8,0.268-7.604,0.576-11.38,1.069c-4.95,0.645-9.89,1.402-14.806,2.271c-5.686,1.005-11.434,1.845-16.984,3.375
			c-6.52,1.798-12.839,4.217-18.827,7.547c-7.392,4.111-15.103,7.579-21.953,12.712c-8.611,6.454-16.248,13.654-21.161,23.366
			c-2.26,4.465-4.719,8.883-6.42,13.564c-3.008,8.278-5.576,16.72-8.188,25.136c-1.232,3.969-2.371,7.997-3.132,12.076
			c-0.788,4.221-1.104,8.532-1.561,12.811c-0.763,7.129-1.717,14.25-2.148,21.401c-0.626,10.383-0.671,20.785,0.996,31.108
			c1.396,8.64,2.351,17.39,4.406,25.872c1.938,8.002,5.176,15.682,7.612,23.574c1.407,4.56,4.648,6.553,8.929,7.471
			c2.391,0.512,4.793,0.972,7.192,1.451C-169.699,258.542-161.28,259.999-152.83,256.778z M12.269,246.366
			c1.881-6.46,3.895-12.88,5.836-19.322c2-6.634,2.846-13.466,2.932-20.351c0.072-5.931-0.342-11.867-0.51-17.801
			c-0.129-4.539-0.107-9.084-0.361-13.615c-0.125-2.238-0.42-4.754-2.662-5.928c-2.072-1.086-4.377-1.898-6.674-2.355
			c-5.631-1.119-11.289-2.182-16.984-2.859c-20.719,1.172-39.537-0.349-46.398,0.065c-3.938,0.238-50.926,2.388-55.106,2.606
			c-7.582,0.398-15.174,0.598-22.762,0.877c-2.254,0.083-4.189-1.129-4.925-3.167c-0.363-1.006-0.748-2.047-0.845-3.098
			c-0.686-7.453-1.312-14.912-1.929-22.371c-0.168-2.029-0.243-4.065-0.361-6.099c-0.218-0.01-0.437-0.021-0.655-0.031
			c-0.122,0.944-0.327,1.888-0.35,2.834c-0.131,5.446-0.27,10.894-0.301,16.341c-0.02,3.472-0.12,6.976,0.289,10.409
			c0.445,3.758-1.095,5.682-4.959,5.607c-2.784-0.054-5.572,0.127-8.359,0.203c-1.673,0.047-3.347,0.145-5.02,0.134
			c-2.618-0.017-5.239-0.21-7.852-0.13c-1.916,0.059-2.923,1.109-3.229,3.016c-0.198,1.234-0.391,2.492-0.368,3.736
			c0.148,8.243,0.016,16.513,0.652,24.721c0.494,6.379,1.655,12.756,3.1,18.999c1.374,5.936,3.365,11.743,5.361,17.512
			c0.859,2.482,2.28,4.811,3.695,7.052c2.075,3.287,2.202,6.584,5.122,9.987l0.966,2.787c0.105,2.229-0.849,3.22-3.124,3.641
			c-8.089,1.495-16.103,1.22-24.092-0.778c-3.17-0.794-6.481-1.047-9.625-1.916c-3.62-1.001-7.189-2.441-9.161-5.94
			c-1.118-1.983-1.834-4.217-2.552-6.396c-1.544-4.687-3.17-9.362-4.397-14.136c-1.394-5.425-2.592-10.919-3.509-16.443
			c-1.31-7.883-2.632-15.792-3.297-23.744c-0.537-6.421-0.195-12.924-0.084-19.388c0.073-4.244,0.268-8.5,0.688-12.722
			c0.752-7.546,1.587-15.089,2.64-22.598c0.602-4.297,1.468-8.59,2.635-12.769c1.694-6.067,3.655-12.068,5.707-18.026
			c2.358-6.847,4.764-13.688,7.479-20.398c2.281-5.642,6.075-10.367,10.213-14.797c5.175-5.539,11.115-10.132,17.249-14.564
			c5.637-4.073,11.902-6.921,17.891-10.313c5.734-3.249,11.741-5.81,17.99-7.762c3.751-1.172,7.669-1.829,11.534-2.611
			c3.812-0.771,7.633-1.543,11.483-2.072c7.026-0.965,14.069-1.835,21.123-2.582c4.457-0.472,8.941-0.812,13.42-0.918
			c6.899-0.163,13.68,0.689,20.385,2.505c5.445,1.475,11.057,2.341,16.568,3.591c3.172,0.72,6.318,1.581,9.432,2.526
			c7.754,2.354,15.518,4.688,23.211,7.227c7.061,2.33,13.842,5.344,20.389,8.902c7.197,3.91,13.527,8.896,19.094,14.86
			c2.254,2.417,4.318,5.011,6.498,7.499c1.354,1.543,2.936,2.917,4.102,4.588c1.627,2.335,3.127,4.794,4.389,7.346
			c2.898,5.869,5.143,12.006,6.797,18.342c1.023,3.926,2.264,7.843,2.773,11.845c0.781,6.147,1.258,12.357,1.43,18.552
			c0.287,10.419,0.264,20.849,0.309,31.275c0.018,3.935-0.439,7.895-0.115,11.797c0.229,2.73,0.285,5.426,0.049,8.113
			c-0.469,5.326-1.252,10.625-1.688,15.951c-0.309,3.787-0.135,7.613-0.404,11.404c-0.334,4.688-0.996,9.35-1.344,14.037
			c-0.361,4.848-1.234,9.564-2.844,14.152c-1.518,4.322-2.977,8.615-6.332,12.029c-3.74,3.803-8.238,5.853-13.42,6.36
			c-4.625,0.452-9.281,0.668-13.928,0.814c-4.84,0.151-9.637-0.302-14.348-1.536c-3.312-0.867-4.133-2.776-2.461-5.889
			L12.269,246.366z"/>
	</g>
</g>
<g id="outfit">
	<g id="girl" display="none">
		<g display="inline">
			<path fill-rule="evenodd" clip-rule="evenodd" fill="#40393C" d="M62.412,163.781c0.013-5.508-0.203-11.017-0.31-16.526
				c-0.091-4.667,0.025-9.348-0.309-13.997c-0.279-3.891-71.647-88.762-78.877-90.972c-7.671-2.346-15.38-4.585-23.142-6.608
				c-5.574-1.454-11.258-2.494-16.9-3.68c-2.557-0.538-5.134-1.397-7.698-1.383c-5.374,0.03-10.748,0.493-16.115,0.871
				c-3.8,0.268-7.604,0.576-11.38,1.069c-4.95,0.645-9.89,1.402-14.806,2.271c-5.686,1.005-11.434,1.845-16.984,3.375
				c-6.52,1.798-12.839,4.217-18.827,7.547c-7.392,4.111-15.103,7.579-21.953,12.712c-8.611,6.454-16.248,13.654-21.161,23.366
				c-2.26,4.465-4.719,8.883-6.42,13.564c-3.008,8.278-5.576,16.72-8.188,25.136c-1.232,3.969-2.371,7.997-3.132,12.076
				c-0.788,4.221-1.104,8.532-1.561,12.811c-0.763,7.129-1.717,14.25-2.148,21.401c-0.626,10.382-0.671,20.785,0.996,31.108
				c1.396,8.64,44.978,61.508,53.428,58.287c-3.076-6.091-6.02-12.15-9.171-18.1c-3.422-6.46-5.369-13.388-6.556-20.512
				c-1.156-6.934-2.065-13.924-2.714-20.924c-0.581-6.28-0.729-12.605-0.92-18.915c-0.066-2.19,0.144-4.425,0.532-6.584
				c0.639-3.549,3.062-5.393,7.991-5.769c5.53-0.421,11.11-0.389,16.661-0.256c4.935,0.118,4.882,0.173,4.87-4.542
				c-0.015-5.566,0.011-11.138,0.233-16.698c0.19-4.765,0.629-9.524,1.057-14.276c0.32-3.55,0.717-7.097,1.225-10.625
				c0.711-4.934,1.514-9.855,2.412-14.756c0.091-0.497,1.108-0.824,1.696-1.229c0.257,0.581,0.768,1.177,0.73,1.739
				c-0.338,5.127-0.979,10.243-1.122,15.373c-0.144,5.192,0.163,10.397,0.307,15.596c0.039,1.366,0.198,2.729,0.319,4.092
				c0.354,3.971,0.687,7.943,1.084,11.909c0.344,3.431,0.722,6.859,1.168,10.278c0.233,1.792,1.343,2.745,3.193,2.69
				c2.209-0.066,4.42-0.14,6.627-0.253c6.619-0.339,13.241-0.635,19.854-1.065c8.651-0.564,17.291-1.282,25.94-1.857
				c6.811-0.453,13.627-0.819,20.444-1.169c6.927-0.356,14.249,0.828,21.178,0.836c7.593,0.008,9.248-0.402,16.835,0.015
				c3.433,0.189,12.414-0.231,15.815,0.291c4.896,0.752,9.777,1.619,14.637,2.578c2.445,0.482,5.06,0.856,7.184,2.029
				c2.804,1.549,3.886,4.521,3.977,7.71c0.101,3.568,0.063,7.139,0.147,10.707c0.154,6.575,0.342,13.149,0.535,19.724
				c0.332,11.345-2.618,22.091-5.968,32.762c-0.996,3.171-1.936,6.373-3.168,9.455c-1.286,3.216-2.797,6.357-4.413,9.424
				c-0.601,1.139,52.341-64.602,52.7-69.837c0.157-2.283-0.246-4.599-0.212-6.897C62.109,174.029,62.402,168.906,62.412,163.781z"/>
			<path display="none" fill-rule="evenodd" clip-rule="evenodd" fill="#40393C" d="M-153.073,257.21
				c-3.076-6.091-6.02-12.15-9.171-18.1c-3.422-6.46-5.369-13.388-6.556-20.512c-1.156-6.934-2.065-13.924-2.714-20.924
				c-0.581-6.28-0.729-12.605-0.92-18.915c-0.066-2.19,0.144-4.425,0.532-6.584c0.639-3.549,3.062-5.393,7.991-5.769
				c5.53-0.421,11.11-0.389,16.661-0.256c4.935,0.118,4.882,0.173,4.87-4.542c-0.015-5.566,0.011-11.138,0.233-16.698
				c0.19-4.765,0.629-9.524,1.057-14.276c0.32-3.55,0.717-7.097,1.225-10.625c0.711-4.934,1.514-9.855,2.412-14.756
				c0.091-0.497,1.108-0.824,1.696-1.229c0.257,0.581,0.768,1.177,0.73,1.739c-0.338,5.127-0.979,10.243-1.122,15.373
				c-0.144,5.192,0.163,10.397,0.307,15.596c0.039,1.366,0.198,2.729,0.319,4.092c0.354,3.971,0.687,7.943,1.084,11.909
				c0.344,3.431,0.722,6.859,1.168,10.278c0.233,1.792,1.343,2.745,3.193,2.69c2.209-0.066,4.42-0.14,6.627-0.253
				c6.619-0.339,13.241-0.635,19.854-1.065c8.651-0.564,17.291-1.282,25.94-1.857c6.811-0.453,13.627-0.819,20.444-1.169
				c6.927-0.356,14.249,0.828,21.178,0.836c7.593,0.008,13.993,0.499,20.848-0.338c9.004,0.675,8.401,0.122,11.803,0.645
				c4.896,0.752,9.777,1.619,14.637,2.578c2.445,0.482,5.06,0.856,7.184,2.029c2.804,1.549,3.886,4.521,3.977,7.71
				c0.101,3.568,0.063,7.139,0.147,10.707c0.154,6.575,0.342,13.149,0.535,19.724c0.332,11.345-2.618,22.091-5.968,32.762
				c-0.996,3.171-1.936,6.373-3.168,9.455c-1.286,3.216-2.797,6.357-4.413,9.424c-0.601,1.139-0.711,1.824,0.623,2.143
				c2.484,0.592,5.001,1.389,7.519,1.449c6.453,0.153,12.924,0.14,19.368-0.185c3.502-0.177,7.007-1.159,9.938-3.23
				c3.778-2.673,6.578-6.107,7.771-10.77c0.988-3.863,2.523-7.59,3.445-11.467c0.631-2.651,0.654-5.452,0.895-8.19
				c0.367-4.215,0.717-8.432,1.02-12.652c0.269-3.748,0.397-7.507,0.704-11.251c0.43-5.231,1.058-10.448,1.417-15.683
				c0.157-2.283-0.246-4.599-0.212-6.897c0.075-5.125,0.368-10.248,0.378-15.373c0.013-5.508-0.203-11.017-0.31-16.526
				c-0.091-4.667,0.025-9.348-0.309-13.997c-0.279-3.891-1.288-7.729-1.602-11.619c-0.602-7.449-2.402-14.637-5.011-21.548
				c-4.963-13.146-12.408-24.759-22.869-34.284C24.176,59.4,14.688,54.185,4.459,50.372c-7.078-2.638-14.312-4.875-21.542-7.086
				c-7.671-2.346-15.38-4.585-23.142-6.608c-5.574-1.454-11.258-2.494-16.9-3.68c-2.557-0.538-5.134-1.397-7.698-1.383
				c-5.374,0.03-10.748,0.493-16.115,0.871c-3.8,0.268-7.604,0.576-11.38,1.069c-4.95,0.645-9.89,1.402-14.806,2.271
				c-5.686,1.005-11.434,1.845-16.984,3.375c-6.52,1.798-12.839,4.217-18.827,7.547c-7.392,4.111-15.103,7.579-21.953,12.712
				c-8.611,6.454-16.248,13.654-21.161,23.366c-2.26,4.465-4.719,8.883-6.42,13.564c-3.008,8.278-5.576,16.72-8.188,25.136
				c-1.232,3.969-2.371,7.997-3.132,12.076c-0.788,4.221-1.104,8.532-1.561,12.811c-0.763,7.129-1.717,14.25-2.148,21.401
				c-0.626,10.382-0.671,20.785,0.996,31.108c1.396,8.64,2.351,17.39,4.406,25.873c1.938,8.002,5.176,15.681,7.612,23.573
				c1.407,4.56,4.648,6.554,8.929,7.471c2.391,0.512,4.793,0.972,7.192,1.451C-169.943,258.975-161.523,260.431-153.073,257.21z
				 M12.024,246.798c1.881-6.459,3.896-12.88,5.837-19.322c2-6.634,2.846-13.465,2.931-20.351
				c0.072-5.931-0.341-11.867-0.509-17.801c-0.13-4.539-0.108-9.084-0.362-13.615c-0.124-2.238-0.419-4.753-2.661-5.928
				c-2.073-1.086-4.378-1.898-6.675-2.356c-5.63-1.119-11.288-2.181-16.983-2.859c-20.719,1.172-39.538-0.349-46.398,0.065
				c-3.938,0.238-50.927,2.388-55.107,2.607c-7.582,0.398-15.174,0.597-22.762,0.876c-2.254,0.083-4.189-1.128-4.925-3.167
				c-0.363-1.006-0.748-2.047-0.845-3.098c-0.686-7.453-1.312-14.912-1.929-22.371c-0.168-2.029-0.243-4.065-0.361-6.099
				c-0.218-0.01-0.437-0.021-0.655-0.031c-0.122,0.944-0.327,1.888-0.35,2.834c-0.131,5.446-0.27,10.894-0.301,16.341
				c-0.02,3.472-0.12,6.976,0.289,10.409c0.445,3.758-1.095,5.682-4.959,5.607c-2.784-0.054-5.572,0.126-8.359,0.204
				c-1.673,0.047-3.347,0.144-5.02,0.133c-2.618-0.017-5.239-0.21-7.852-0.13c-1.916,0.058-2.923,1.109-3.229,3.015
				c-0.198,1.234-0.391,2.493-0.368,3.736c0.148,8.244,0.016,16.513,0.652,24.721c0.494,6.38,1.655,12.756,3.1,19
				c1.374,5.936,3.365,11.744,5.361,17.512c0.859,2.482,2.28,4.811,3.695,7.052c2.075,3.288,2.202,6.584,5.122,9.987l0.966,2.787
				c0.105,2.229-0.849,3.22-3.124,3.641c-8.089,1.495-16.103,1.219-24.092-0.779c-3.17-0.793-6.481-1.046-9.625-1.916
				c-3.62-1-7.189-2.441-9.161-5.94c-1.118-1.983-1.834-4.217-2.552-6.396c-1.544-4.687-3.17-9.362-4.397-14.135
				c-1.394-5.425-2.592-10.919-3.509-16.444c-1.31-7.882-2.632-15.792-3.297-23.744c-0.537-6.421-0.195-12.923-0.084-19.388
				c0.073-4.244,0.268-8.5,0.688-12.722c0.752-7.546,1.587-15.089,2.64-22.598c0.602-4.297,1.468-8.59,2.635-12.769
				c1.694-6.067,3.655-12.068,5.707-18.026c2.358-6.847,4.764-13.688,7.479-20.398c2.281-5.642,6.075-10.367,10.213-14.797
				c5.175-5.539,11.115-10.132,17.249-14.564c5.637-4.073,11.902-6.921,17.891-10.313c5.734-3.249,11.741-5.81,17.99-7.762
				c3.751-1.172,7.669-1.829,11.534-2.611c3.812-0.771,7.633-1.543,11.483-2.072c7.026-0.965,14.069-1.835,21.123-2.582
				c4.457-0.472,8.941-0.812,13.42-0.918c6.899-0.163,13.68,0.689,20.385,2.505c5.446,1.475,11.057,2.341,16.568,3.591
				c3.172,0.72,6.318,1.581,9.432,2.526c7.755,2.354,15.518,4.688,23.211,7.227c7.062,2.33,13.842,5.344,20.39,8.902
				c7.196,3.91,13.526,8.896,19.093,14.86c2.255,2.417,4.318,5.011,6.498,7.499c1.354,1.543,2.937,2.917,4.102,4.588
				c1.628,2.335,3.128,4.794,4.389,7.346c2.898,5.869,5.143,12.006,6.797,18.342c1.023,3.926,2.265,7.843,2.773,11.845
				c0.782,6.147,1.259,12.357,1.43,18.552c0.287,10.419,0.265,20.849,0.31,31.275c0.018,3.935-0.439,7.895-0.115,11.797
				c0.228,2.731,0.284,5.426,0.048,8.114c-0.469,5.325-1.251,10.624-1.687,15.951c-0.309,3.787-0.135,7.612-0.405,11.404
				c-0.334,4.687-0.996,9.35-1.344,14.036c-0.36,4.848-1.234,9.565-2.844,14.153c-1.518,4.322-2.976,8.615-6.332,12.029
				c-3.739,3.802-8.237,5.852-13.42,6.36c-4.625,0.452-9.28,0.668-13.927,0.814c-4.84,0.151-9.637-0.302-14.348-1.536
				c-3.312-0.867-4.134-2.776-2.461-5.888L12.024,246.798z"/>
		</g>
		<g display="inline">
			
				<ellipse opacity="0.4" fill-rule="evenodd" clip-rule="evenodd" fill="#F32842" cx="-7.833" cy="215.184" rx="11.833" ry="4.483"/>
		</g>
		<g display="inline">
			<path fill="#F4E00A" stroke="#F4E00A" stroke-miterlimit="10" d="M-73.804,278.313c40.804-3.979,61.932-17.666,64.651-20.131
				c5.424-4.917,12.355-9.616,17.486-14.848c6.607-6.736,11.369-14.125,16.525-22.065c5.775-8.893,10.18-18.44,10.309-29.309
				c0.055-4.492-0.203-9.125-1.279-13.455c-1.184-4.764-16.221-34.837-45.313-52.256c-9.506-5.624-19.48-10.176-29.795-14.056
				c-6.455-2.428-12.939-4.797-19.273-7.511c-4.686-2.009-9.502-3.288-14.506-4.015c-2.529-0.367-5.043-0.871-7.582,0.129
				c-14.475,3.205-42.128,15.871-57.172,27.914c-1.838,1.514-14.133,12.838-18.057,17.334c-4.471,5.117-8.627,10.51-13.146,15.58
				c-4.529,5.082-8.199,10.744-11.766,16.479c-3.27,5.255-6.25,10.688-8.189,16.614c-1.578,4.827-1.832,9.676,0.314,14.37
				c3.287,7.189,8.408,13.018,14.178,18.301c9.819,11.278,51.709,40.945,72.029,47.38c6.578,2.857,10.418,3.832,17.48,4.602
				c1.186,0.129,6.76-0.917,8.184-0.749c0.26,0.031,0.893,0.504,0.419,0.96L-73.804,278.313z M-74.693,485.469
				c-0.344,0.174-0.488,0.273-0.648,0.326c-4.971,1.59-10.094,1.6-15.242,1.619c-9.238,0.033-18.387-0.699-27.443-2.582
				c-4.91-1.02-9.854-1.873-14.779-2.82c-2.631-0.508-5.332-0.816-7.867-1.631c-6.848-2.201-16.775-5.545-23.566-7.918
				c-1.282-0.735-1.408-1.129-1.802-2.423c0.062-5.136,0.635-12.509,0.885-17.415c0.656-5.312,1.344-10.688,1.094-16
				c0.184-7.34,0.1-11.246-0.031-18.594l0.031-5.844c0,0-24.937-1.102-24.856-5.193c0.461-5.549,0.612-14.502,0.937-20.061
				c0.174-2.98,0.168-5.975,0.412-8.949c0.518-6.312,1.043-12.627,1.766-18.918c0.666-5.809,1.281-11.652,2.48-17.361
				c1.557-7.404,3.369-14.783,5.623-22.002c2.551-8.17,4.998-16.379,8.752-24.172c4.455-9.252,10.219-17.639,15.895-26.109
				c1.475-2.201,1.438-3.613-0.879-5.521c-1.133-0.934-8.021-4.343-9.941-5.635c-5.26-3.541-10.449-7.189-15.621-10.857
				c-6.197-4.395-12.422-8.755-18.492-13.319c-3.867-2.906-7.568-6.055-11.176-9.281c-3.699-3.306-6.086-5.981-9.329-9.713
				c-6.576-7.57-11-16.28-13.074-26.211c-1.811-8.67-0.938-17.07-0.293-25.942C-225.5,75.5-124.817,20.101-91,10.707
				c9.99-2.207,20.852-0.352,26,0.287c46.498,2.014,146.886,103.587,141.666,156.365c-0.508,5.017-1.923,16.527-3.78,21.135
				c-4.166,10.588-17.407,28.822-18.144,29.908c-2.012,2.961-30.295,30.559-39.956,35.95c-6.339,4.157-11.752,6.659-15.352,10.257
				c-1.43,1.428-0.391,4.779,0.701,6.416c10.532,11.81,15.572,26.056,19.244,35.635C26.5,321,36.667,393.667,35.154,399.619
				c0.117,1.686,0.82,5.65-0.654,6.381c-8.488,3.846-26.938,4.375-26.938,4.375c0.158,8.496-0.122,5.923,0.333,14.403
				c0.279,5.168,0.875,10.172,1.541,15.318c0.828,6.391,0.941,8.012,1.779,14.4c0.367,2.789,0.596,7.29,1.065,10.05
				c0.448,2.631,0.967,7.313,2.096,9.921c0.229,0.527-0.068,1.432-0.383,2.021c-1.559,2.916-4.455,3.943-7.361,4.557
				c-5.482,1.156-14.856,3.577-20.409,4.308c-4.434,0.582-8.932,0.809-13.408,0.908c-5.443,0.123-10.896-0.137-16.344-0.084
				c-7.059,0.068-14.117,0.236-21.175,0.461c-1.976,0.062-3.63-0.469-5.171-1.639c-0.855-0.648-1.889-1.082-2.67-1.801
				L-74.693,485.469z"/>
			<path opacity="0.3" fill-rule="evenodd" clip-rule="evenodd" fill="#F47527" d="M12.25,465.153
				c-0.608-2.733-0.752-5.569-1.118-8.357c-0.839-6.39-1.804-13.155-2.632-19.546c-0.667-5.146-1.002-10.439-1.28-15.608
				c-0.455-8.48-1.281-17.365-1.438-25.86c-0.206-11.082-1.394-22.08-1.302-33.16c0.093-11.159-0.599-22.247-2.01-33.295
				c-0.665-5.205-1.815-9.68-2.845-14.826c-0.294-1.467-1.179-2.215-1.905-3.594c-0.398-0.759-1.415-1.504-1.867-2.337
				c1.801-1.024,2.264-0.718,3.043,0.745c0.836,1.57,1.909,3.117,2.292,4.808c1.28,5.65,2.506,11.33,3.347,17.057
				c0.642,4.363,0.732,8.813,0.951,13.231c0.294,5.919,0.601,11.843,0.675,17.768c0.102,8.254,0.366,16.636,0.59,24.885
				c0.258,9.453,0.983,18.681,1.438,28.125c0.151,3.166-0.134,6.4,0.062,9.562c0.114,1.844,1.454,12.052,1.812,15.312
				c0.875,4.875,0.924,9.51,1.5,14.312c0.307,2.552,0.555,5.146,0.922,7.688c0.504,3.578,0.672,6.047,1.672,10.234
				c0.403,1.497,0.393,1.475,0.63,1.965C14.442,474.043,12.845,467.823,12.25,465.153z"/>
			<path fill-rule="evenodd" clip-rule="evenodd" fill="#F4E00A" stroke="#F4E00A" stroke-miterlimit="10" d="M-9.615,488.533
				c4.115,0,1.312,10.429,0.53,13.526c-2.295,9.097-3.892,18.312-4.538,27.669c-0.444,6.433,1.726,12.038,5.533,17.216
				c6.048,7.005,11.59,13.556,10.384,20.302c-1.511,5.884-5.465,11.886-11.279,13.233c-3.828,0.887-6.469,1.182-10.155,0.215
				c-6.219-1.628-12.573-2.92-18.586-5.099c-5.755-2.087-11.244-4.949-16.668-7.795c-4.3-2.258-6.918-6.492-7.099-10.979
				c-0.305-7.539-0.271-14.031-0.117-21.88c0.104-5.33-0.355-10.688-0.304-16.016c0.024-2.527-0.062-5.064-0.301-7.577
				c-0.32-3.393,0.073-6.458-0.284-9.849c-0.305-2.885-0.749-12.967,3.5-12.967C-60.5,495.25-12.373,497.996-9.615,488.533z"/>
		</g>
	</g>
</g>
<g id="Layer_5">
	<g>
		<path fill-rule="evenodd" clip-rule="evenodd" fill="#F9E7D9" d="M289.735,189.436c-0.169-2.513-0.646-3.539-2.821-5.397
			c-2.046-1.749-4.671-2.228-7.046-0.478c-1.003,0.58-2.64,1.243-3.533,1.874c-0.679,0.479-2.891,2.694-3.319,3.333
			c-0.431-0.596,0.491-2.716-0.154-3.105c-0.75-90.583-45.508-100.714-98.809-100.25c-75.438,0.657-118.941,39-112.441,97.912
			c-0.475-0.215-6.062-2.697-6.661-2.749c-0.577-0.148-1.325-0.196-1.921-0.202c-0.018,0-0.731,0.014-0.857,0.014
			c-0.479,0-0.903,0.048-1.311,0.15c-0.7,0.012-1.357,0.266-2.104,0.626c-3.948,1.906-5.005,6.291-4.696,9.962
			c0.086,0.797,0.4,1.801,0.529,2.228c0.115,0.381,0.785,2.062,1.341,2.619c0.374,0.488,1.027,1.403,1.899,2.263
			c0.646,0.643,1.743,1.518,2.719,2.219c0.629,0.476,2.982,1.829,3.629,2.307c0.223,0.165,2.324,1.756,2.946,2.335
			c0.565,0.389,1.795,1.58,2.66,2.58c0.447,0.5,1.307,2.172,1.952,3.485c0.168,0.438,2.961,5.393,3.33,6.315
			c0.238,0.596,1.796,4.07,2.219,5.65c0.515,1.451,0.756,2.446,1.418,4.159c0.004,0.023,2.95,8.736,3.503,9.596
			c0.126,0.296,3.437,7.018,5.092,9.66c2.296,3.663,8.485,11.08,10.709,12.646c4.122,2.903,8.541,6.477,13.023,8.864
			c-0.847,0.382-11.78,14.015-12.293,14.901c-6.312,10.903-3.829,7.779-9.649,19.062c-12.351,23.938-22.851,77.438-19.441,113.801
			c-0.549,5.795-3.159,14.137-3.268,18.104c-0.163,5.971-0.062,10.781,4.906,14.287c6.953,4.902,14.065-1.879,18.469-8.424
			c0.564,2.729,1.839,5.623,4.492,4.396c1.898-0.877,1.495-3.701,1.27-5.318c-0.086-0.615-0.199-1.271-0.361-1.92
			c-0.292-1.029-0.158-1.609-0.292-2.41c0,0-0.099-1.324-0.102-1.369c-0.29-4.738-0.661-9.473-1.089-14.201
			c-0.333-3.693-0.876-7.367-1.163-11.062c-0.683-8.799-1.413-17.6-1.841-26.412c-0.258-5.352-0.119-10.734,0.084-16.094
			c0.211-5.549,0.688-11.088,1.103-16.627c0.196-2.619,0.429-5.24,0.811-7.836c0.763-5.189,1.656-10.359,2.468-15.541
			c1.058-6.754,3.318-13.098,6.529-19.107c0.264-0.492,1.012-0.727,1.535-1.082c0.041,0.646-1.531,1.008-1.711,1.586
			c-1.061,3.396-3.17,6.428-4,9.875c-2.297,9.539-4.502,19.098-5.375,28.875c-0.547,6.137-1.042,12.279-1.404,18.428
			c-0.205,3.488-0.112,6.996-0.123,10.494c-0.006,1.887,0.036,3.773,0.089,5.66c0.132,4.717,0.212,9.436,0.446,14.146
			c0.172,3.43,0.559,6.846,0.842,10.27c0.119,1.447,0.099,3.363,0.654,4.611c0.982,2.209,0.408,5.193,0.814,7.41
			c0.465,2.549,0.315,4.809,0.67,7.387c0.672,4.889,0.402,9.408,1.311,14.258c1.34,7.158,3.615,15.703,4.995,22.854
			c0.144,0.742,0.62,1.562,0.796,2.289c0.673,2.785,1.533,5.525,2.16,8.318c0.765,3.406,1.346,6.854,2.04,10.275
			c0.823,4.057,1.671,8.109,2.532,12.158c0.691,3.254,4.023,14.955,4.812,17.604c1.066,3.57,2.035,7.172,2.928,10.789
			c0.383,1.549,0.959,3.301,0.582,4.732c-0.696,2.656-1.834,5.254-3.158,7.674c-0.755,1.377-1.836,2.574-2.887,3.787
			c-0.242,0.127-0.485,0.27-0.729,0.449c-10.78,7.926-16.937,20.045-17.214,33.777c-0.074,3.682,9.118,8.994,11.594,9.504
			c6.432,1.328,13.481-1.1,19.372-3.467c3.701-1.486,7.38-3.059,10.949-4.836c6.126-3.049,12.397-8.779,15.342-15.17
			c1.981-4.297,2.554-8.686,2.421-13.273c-0.041-1.414-0.486-2.846-0.346-4.23c0.43-4.234,0.974-8.461,1.623-12.668
			c0.734-4.756,1.55-9.502,2.48-14.223c0.908-4.613,2.027-9.186,3.016-13.783c1.313-6.113,2.561-12.24,3.893-18.35
			c0.938-4.301,2.072-8.562,2.93-12.879c1.111-5.584,1.971-11.217,3.064-16.805c0.67-3.424,1.393-6.859,2.438-10.182
			c0.885-2.812,0.789-3.094,2.068-5.719c1.666-3.416,4.826-4.799,7.5-1.104c2.33,3.221,2.625,5.555,3.625,9.25
			c1.146,4.238,2.387,7.963,3.406,12.236c1.164,4.875,2.747,9.67,3.596,14.594c1.816,10.557,2.37,21.25,2.873,31.941
			c0.354,7.508,0.637,15.043,1.554,22.492c0.806,6.555-0.884,14.418-3.104,20.508c-1.253,3.436-2.087,6.992-1.45,10.662
			c1.268,7.293,5.854,12.395,11.564,16.566c4.923,3.596,10.439,6.131,16.071,8.463c8.273,3.428,18.198,5.648,25.289,0.891
			c3.7-2.484,5.952-6.379,6.157-10.594c0.191-3.916-1.12-7.377-3.018-10.83c-2.803-5.1-4.988-10.535-7.631-15.73
			c-2.664-5.232-3.476-10.664-2.659-16.441c0.711-5.027,1.104-10.104,1.916-15.111c1-6.166,2.28-12.287,3.455-18.424
			c1.05-5.488,2.109-10.975,3.188-16.457c0.644-3.271,1.449-6.518,1.979-9.807c1.063-6.607,2.082-13.225,2.944-19.861
			c0.884-6.807,2.734-13.221,3.475-20.045c0.417-3.852,0.737-7.713,1.14-11.564c0.463-4.443,1.016-8.877,1.442-13.324
			c0.432-4.494,0.803-8.996,1.114-13.5c0.358-5.174,0.81-10.352,0.892-15.531c0.205-12.914,0.425-25.838-0.981-38.713
			c-0.384-3.521-0.813-7.043-1.408-10.531c-0.58-3.395-1.445-6.74-2.063-10.129c-0.099-0.539-2.612-1.762-2.251-1.842
			c0.578-0.129,1.345,0.291,1.931,0.645c0.283,0.172,0.406,0.709,0.484,1.105c0.942,4.719,1.974,9.424,2.76,14.168
			c1.092,6.582,1.624,13.215,1.585,19.902c-0.051,8.479,0.272,16.963,0.07,25.436c-0.162,6.779-0.756,13.555-1.362,20.314
			c-0.802,8.932-1.823,17.842-2.682,26.77c-0.017,0.172-0.001,0.35,0.03,0.527c-0.054,0.207-0.081,0.434-0.055,0.695
			c0.012,0.111,0.014,0.223,0.023,0.332c-0.011,0.096-0.025,0.189-0.023,0.293c0.067,3.9-1.404,7.76-1.115,11.676
			c0.155,2.113,1.751,3.23,3.159,2.678c0.485-0.025,0.97-0.223,1.37-0.564c-0.403,0.344-0.244,0.193-0.094,0.113
			c0.195-0.102,0.369-0.25,0.52-0.41c0.121-0.127,0.223-0.273,0.312-0.428c0.219-0.281,0.408-0.605,0.562-0.988
			c0.206-0.51,0.276-1.061,0.322-1.613c0.208-0.486,0.342-0.986,0.432-1.504c2.985,9.189,11.611,18.672,21.656,12.248
			c8.021-5.131,6.052-15.666,4.161-23.832c-0.604-3.645-3.208-11.309-3.333-11.586c-1.519-3.898-1-4.66-1.339-7.041
			c0.175-6.172,0.698-16.979,0.511-25.791c-0.143-6.686-1.12-23.715-1.125-24.25c-0.085-8.746-2.935-15.914-3.875-19.938
			c-1.125-4.812-2.725-9.008-3.849-13.078c-1.065-4.088-3.371-11.998-4.088-13.629c-2.559-6.771-5.345-13.078-9.309-19.167
			c-2.177-3.344-4.74-6.443-7.505-9.313c-0.492-0.51-1.03-0.985-1.584-1.449c-2.111-2.718-5.159-5.188-7.868-7.264
			c3.615-1.881,7.33-3.555,10.828-6.079c2.102-1.517,7.243-4.893,9.287-6.588c0.111-0.054,2.171-1.431,4.088-3.246
			c1.267-1.2,2.159-2.24,3.747-3.99c2.981-3.285,3.141-3.513,4.418-5.301c0.389-0.484,1.529-2.248,2.46-4.541
			c2.323-5.727,5.094-15.668,6.88-21.499c1.153-3.415,2.25-6.083,3.833-8.25c1.78-2.437,5.258-7.519,5.282-7.548
			c0.315-0.37,1.554-1.969,1.948-2.512c0.024-0.033,1.51-1.847,2.291-2.815c1.203-1.703,1.986-3.629,2.229-5.791
			C289.724,191.58,289.752,189.764,289.735,189.436z M101.03,268.054"/>
		<path fill-rule="evenodd" clip-rule="evenodd" fill="#F9E7D9" d="M164.965,272.435c-6.033-0.21-11.523-2.797-17.337-4.155
			c-7.033-1.643-14.235-2.372-21.333-3.667c-6.304-1.149-8.996,8.487-2.658,9.643c2.149,0.392,4.307,0.736,6.467,1.07
			c0.488,0.514,1.105,0.95,1.866,1.263c10.643,4.371,21.554,5.791,32.995,5.846C171.432,282.465,171.389,272.658,164.965,272.435z"
			/>
	</g>
	<g>
		<path opacity="0.4" fill-rule="evenodd" clip-rule="evenodd" fill="#F4782C" d="M173.781,214.218
			c-0.305-1.007-0.882-1.654-1.607-2.078c-0.69-0.526-1.506-0.819-2.342-0.667c-0.285-0.024-0.574-0.038-0.866-0.04
			c-0.589-0.003-2.474,1.809-1.276,1.31c1.384-0.577,3.438,0.257,4.359,1.908c0.019,0.032,0.645,1.462,0.1,2.163
			C171.951,217.071,173.943,214.751,173.781,214.218z"/>
		<path fill-rule="evenodd" clip-rule="evenodd" fill="#423B3E" d="M170.216,217.684c0.958-0.417,2.707-2.084,3.042-2.708
			c0.42-0.782,0.083-1.667-1.042-2.5c-0.808-0.915-2.458-1.082-3.646-0.27c-0.933,0.638-1.729,1.188-2.072,2.85
			c-0.219,0.171-0.15,0.141-0.344,0.025c0.18-0.612,0.237-1.48,0.672-1.986c2.021-2.353,4.653-2.735,6.584-0.206
			c0.953,1.248,0.409,2.458-0.578,3.488C172.069,217.172,169.969,219.184,170.216,217.684z"/>
	</g>
	<g>
		<g>
			<path fill-rule="evenodd" clip-rule="evenodd" fill="#423B3E" d="M148.408,247.875c0.52,0.173,1.513,1.608,1.977,1.877
				c7.748,5.265,14.57,6.097,26.414,5.599c4.681-0.475,9.292-1.896,13.12-4.714c0.604-0.407,1.047-0.578,1.578-1.375
				c0.531-0.531,0.663-1.567,0.973-2.075c0.621-0.294,0.914,0.438,0.777,0.787c-0.418,1.062-0.938,2.292-1.806,2.935
				c-3.507,2.6-7.462,4.255-11.812,4.911c-5.976,0.901-11.911,0.589-17.841-0.455c-4.453-0.784-8.389-2.81-12.011-5.43
				c-0.634-0.458-1.057-1.095-1.569-1.721C147.966,247.809,148.236,247.81,148.408,247.875z"/>
		</g>
		<path fill-rule="evenodd" clip-rule="evenodd" fill="#423B3E" d="M120.435,192.622c-0.125,1.657-1.503,2.981-3.165,2.981l0,0
			c-1.662,0-2.429-1.293-3.009-3.009c-0.279-0.826-0.327-1.513-0.379-3.12c-0.025-0.785,0.24-3.165,0.24-3.165
			c0.188-1.656,1.485-2.963,3.147-2.963l0,0c1.662,0,2.915,1.261,3.165,2.994c0,0,0.197,0.938,0.197,3.134
			C120.632,190.259,120.494,191.839,120.435,192.622z"/>
		<path fill-rule="evenodd" clip-rule="evenodd" fill="#423B3E" d="M227.011,192.622c-0.125,1.657-1.504,2.981-3.165,2.981l0,0
			c-1.661,0-2.429-1.293-3.009-3.009c-0.279-0.826-0.326-1.513-0.379-3.12c-0.025-0.785,0.24-3.165,0.24-3.165
			c0.188-1.656,1.486-2.963,3.147-2.963l0,0c1.661,0,2.915,1.261,3.165,2.994c0,0,0.197,0.938,0.197,3.134
			C227.208,190.259,227.069,191.839,227.011,192.622z"/>
	</g>
	
		<ellipse opacity="0.4" fill-rule="evenodd" clip-rule="evenodd" fill="#F32842" cx="234.132" cy="219.618" rx="11.833" ry="4.483"/>
	
		<ellipse opacity="0.4" fill-rule="evenodd" clip-rule="evenodd" fill="#F32842" cx="105.198" cy="219.618" rx="11.833" ry="4.483"/>
	<g>
		<path fill-rule="evenodd" clip-rule="evenodd" fill="#40393C" d="M304.378,168.215c0.013-5.508-0.203-11.017-0.31-16.526
			c-0.091-4.667,0.025-9.348-0.309-13.997c-0.279-3.891-71.647-88.762-78.877-90.972c-7.671-2.346-15.38-4.585-23.142-6.608
			c-5.574-1.454-11.258-2.494-16.9-3.68c-2.557-0.538-5.134-1.397-7.698-1.383c-5.373,0.03-10.748,0.493-16.115,0.871
			c-3.8,0.268-7.604,0.576-11.38,1.069c-4.95,0.645-9.89,1.402-14.806,2.271c-5.687,1.005-11.434,1.845-16.984,3.375
			c-6.52,1.798-12.839,4.217-18.826,7.547c-7.393,4.111-15.104,7.579-21.953,12.712C68.467,69.348,60.83,76.548,55.917,86.26
			c-2.26,4.465-4.719,8.883-6.42,13.564c-3.008,8.278-5.575,16.72-8.188,25.136c-1.231,3.969-2.37,7.997-3.132,12.076
			c-0.788,4.221-1.104,8.532-1.561,12.811c-0.764,7.129-1.717,14.25-2.148,21.401c-0.627,10.382-0.672,20.785,0.996,31.108
			c1.395,8.64,44.978,61.508,53.428,58.287c-3.076-6.091-6.02-12.15-9.171-18.1c-3.423-6.46-5.369-13.388-6.556-20.512
			c-1.156-6.934-2.065-13.924-2.714-20.924c-0.581-6.28-0.729-12.605-0.92-18.915c-0.065-2.19,0.144-4.425,0.532-6.584
			c0.639-3.549,3.062-5.393,7.99-5.769c5.529-0.421,11.109-0.389,16.66-0.256c4.936,0.118,4.883,0.173,4.871-4.542
			c-0.016-5.566,0.011-11.138,0.232-16.698c0.19-4.765,0.629-9.524,1.057-14.276c0.32-3.55,0.718-7.097,1.226-10.625
			c0.712-4.934,1.514-9.855,2.411-14.756c0.092-0.497,1.109-0.824,1.696-1.229c0.257,0.581,0.768,1.177,0.729,1.739
			c-0.338,5.127-0.979,10.243-1.121,15.373c-0.145,5.192,0.162,10.397,0.307,15.596c0.039,1.366,0.197,2.729,0.319,4.092
			c0.354,3.971,0.687,7.943,1.084,11.909c0.345,3.431,0.722,6.859,1.168,10.278c0.233,1.792,1.343,2.745,3.193,2.69
			c2.21-0.066,4.42-0.14,6.628-0.253c6.619-0.339,13.24-0.635,19.854-1.065c8.65-0.564,17.291-1.282,25.939-1.857
			c6.811-0.453,13.628-0.819,20.444-1.169c6.927-0.356,14.249,0.828,21.178,0.836c7.593,0.008,9.248-0.402,16.835,0.015
			c3.433,0.189,12.414-0.231,15.815,0.291c4.896,0.752,9.777,1.619,14.637,2.578c2.445,0.482,5.06,0.856,7.184,2.029
			c2.804,1.549,3.886,4.521,3.977,7.71c0.101,3.568,0.063,7.139,0.147,10.707c0.154,6.575,0.342,13.149,0.535,19.724
			c0.332,11.345-2.618,22.091-5.968,32.762c-0.996,3.171-1.936,6.373-3.168,9.455c-1.286,3.216-2.797,6.357-4.413,9.424
			c-0.601,1.139,52.341-64.602,52.7-69.837c0.157-2.283-0.246-4.599-0.212-6.897C304.075,178.463,304.368,173.34,304.378,168.215z"
			/>
		<path display="none" fill-rule="evenodd" clip-rule="evenodd" fill="#40393C" d="M88.893,261.644
			c-3.076-6.091-6.02-12.15-9.171-18.1c-3.423-6.46-5.369-13.388-6.556-20.512c-1.156-6.934-2.065-13.924-2.714-20.924
			c-0.581-6.28-0.729-12.605-0.92-18.915c-0.065-2.19,0.144-4.425,0.532-6.584c0.639-3.549,3.062-5.393,7.99-5.769
			c5.529-0.421,11.109-0.389,16.66-0.256c4.936,0.118,4.883,0.173,4.871-4.542c-0.016-5.566,0.011-11.138,0.232-16.698
			c0.19-4.765,0.629-9.524,1.057-14.276c0.32-3.55,0.718-7.097,1.226-10.625c0.712-4.934,1.514-9.855,2.411-14.756
			c0.092-0.497,1.109-0.824,1.696-1.229c0.257,0.581,0.768,1.177,0.729,1.739c-0.338,5.127-0.979,10.243-1.121,15.373
			c-0.145,5.192,0.162,10.397,0.307,15.596c0.039,1.366,0.197,2.729,0.319,4.092c0.354,3.971,0.687,7.943,1.084,11.909
			c0.345,3.431,0.722,6.859,1.168,10.278c0.233,1.792,1.343,2.745,3.193,2.69c2.21-0.066,4.42-0.14,6.628-0.253
			c6.619-0.339,13.24-0.635,19.854-1.065c8.65-0.564,17.291-1.282,25.939-1.857c6.811-0.453,13.628-0.819,20.444-1.169
			c6.927-0.356,14.249,0.828,21.178,0.836c7.593,0.008,13.993,0.499,20.848-0.338c9.004,0.675,8.401,0.122,11.803,0.645
			c4.896,0.752,9.777,1.619,14.637,2.578c2.445,0.482,5.06,0.856,7.184,2.029c2.804,1.549,3.886,4.521,3.977,7.71
			c0.101,3.568,0.063,7.139,0.147,10.707c0.154,6.575,0.342,13.149,0.535,19.724c0.332,11.345-2.618,22.091-5.968,32.762
			c-0.996,3.171-1.936,6.373-3.168,9.455c-1.286,3.216-2.797,6.357-4.413,9.424c-0.601,1.139-0.711,1.824,0.623,2.143
			c2.484,0.592,5.001,1.389,7.519,1.449c6.453,0.153,12.924,0.14,19.368-0.185c3.502-0.177,7.007-1.159,9.938-3.23
			c3.778-2.673,6.578-6.107,7.771-10.77c0.988-3.863,2.523-7.59,3.445-11.467c0.631-2.651,0.654-5.452,0.895-8.19
			c0.367-4.215,0.717-8.432,1.02-12.652c0.269-3.748,0.397-7.507,0.704-11.251c0.43-5.231,1.058-10.448,1.417-15.683
			c0.157-2.283-0.246-4.599-0.212-6.897c0.075-5.125,0.368-10.248,0.378-15.373c0.013-5.508-0.203-11.017-0.31-16.526
			c-0.091-4.667,0.025-9.348-0.309-13.997c-0.279-3.891-1.288-7.729-1.602-11.619c-0.602-7.449-2.402-14.637-5.011-21.548
			c-4.963-13.146-12.408-24.759-22.869-34.284c-8.137-7.408-17.625-12.623-27.854-16.436c-7.078-2.638-14.312-4.875-21.542-7.086
			c-7.671-2.346-15.38-4.585-23.142-6.608c-5.574-1.454-11.258-2.494-16.9-3.68c-2.557-0.538-5.134-1.397-7.698-1.383
			c-5.373,0.03-10.748,0.493-16.115,0.871c-3.8,0.268-7.604,0.576-11.38,1.069c-4.95,0.645-9.89,1.402-14.806,2.271
			c-5.687,1.005-11.434,1.845-16.984,3.375c-6.52,1.798-12.839,4.217-18.826,7.547c-7.393,4.111-15.104,7.579-21.953,12.712
			C68.467,70.348,60.83,77.548,55.917,87.26c-2.26,4.465-4.719,8.883-6.42,13.564c-3.008,8.278-5.575,16.72-8.188,25.136
			c-1.231,3.969-2.37,7.997-3.132,12.076c-0.788,4.221-1.104,8.532-1.561,12.811c-0.764,7.129-1.717,14.25-2.148,21.401
			c-0.627,10.382-0.672,20.785,0.996,31.108c1.395,8.64,2.351,17.39,4.405,25.873c1.938,8.002,5.177,15.681,7.612,23.573
			c1.406,4.56,4.648,6.554,8.93,7.471c2.391,0.512,4.793,0.972,7.191,1.451C72.023,263.409,80.442,264.865,88.893,261.644z
			 M253.99,251.232c1.881-6.459,3.896-12.88,5.837-19.322c2-6.634,2.846-13.465,2.931-20.351c0.072-5.931-0.341-11.867-0.509-17.801
			c-0.13-4.539-0.108-9.084-0.362-13.615c-0.124-2.238-0.419-4.753-2.661-5.928c-2.073-1.086-4.378-1.898-6.675-2.356
			c-5.63-1.119-11.288-2.181-16.983-2.859c-20.719,1.172-39.538-0.349-46.398,0.065c-3.938,0.238-50.927,2.388-55.106,2.607
			c-7.582,0.398-15.174,0.597-22.762,0.876c-2.254,0.083-4.189-1.128-4.926-3.167c-0.363-1.006-0.748-2.047-0.846-3.098
			c-0.686-7.453-1.311-14.912-1.929-22.371c-0.169-2.029-0.243-4.065-0.361-6.099c-0.218-0.01-0.437-0.021-0.655-0.031
			c-0.121,0.944-0.326,1.888-0.35,2.834c-0.131,5.446-0.27,10.894-0.301,16.341c-0.02,3.472-0.119,6.976,0.289,10.409
			c0.445,3.758-1.096,5.682-4.96,5.607c-2.784-0.054-5.572,0.126-8.358,0.204c-1.674,0.047-3.348,0.144-5.021,0.133
			c-2.618-0.017-5.239-0.21-7.853-0.13c-1.915,0.058-2.923,1.109-3.229,3.015c-0.198,1.234-0.391,2.493-0.368,3.736
			c0.148,8.244,0.016,16.513,0.651,24.721c0.494,6.38,1.655,12.756,3.101,19c1.374,5.936,3.364,11.744,5.361,17.512
			c0.859,2.482,2.28,4.811,3.694,7.052c2.076,3.288,2.202,6.584,5.122,9.987l0.966,2.787c0.105,2.229-0.85,3.22-3.124,3.641
			c-8.089,1.495-16.103,1.219-24.092-0.779c-3.17-0.793-6.481-1.046-9.624-1.916c-3.621-1-7.189-2.441-9.162-5.94
			c-1.117-1.983-1.834-4.217-2.552-6.396c-1.544-4.687-3.171-9.362-4.397-14.135c-1.395-5.425-2.592-10.919-3.51-16.444
			c-1.309-7.882-2.631-15.792-3.297-23.744c-0.537-6.421-0.195-12.923-0.084-19.388c0.072-4.244,0.268-8.5,0.688-12.722
			c0.752-7.546,1.587-15.089,2.641-22.598c0.602-4.297,1.468-8.59,2.635-12.769c1.693-6.067,3.654-12.068,5.706-18.026
			c2.358-6.847,4.765-13.688,7.479-20.398c2.281-5.642,6.075-10.367,10.213-14.797c5.175-5.539,11.115-10.132,17.249-14.564
			C83.734,55.943,90,53.096,95.988,49.704c5.734-3.249,11.741-5.81,17.99-7.762c3.751-1.172,7.669-1.829,11.534-2.611
			c3.812-0.771,7.633-1.543,11.483-2.072c7.026-0.965,14.068-1.835,21.123-2.582c4.457-0.472,8.941-0.812,13.42-0.918
			c6.899-0.163,13.68,0.689,20.385,2.505c5.446,1.475,11.057,2.341,16.568,3.591c3.172,0.72,6.318,1.581,9.432,2.526
			c7.755,2.354,15.518,4.688,23.211,7.227c7.062,2.33,13.842,5.344,20.39,8.902c7.196,3.91,13.526,8.896,19.093,14.86
			c2.255,2.417,4.318,5.011,6.498,7.499c1.354,1.543,2.937,2.917,4.102,4.588c1.628,2.335,3.128,4.794,4.389,7.346
			c2.898,5.869,5.143,12.006,6.797,18.342c1.023,3.926,2.265,7.843,2.773,11.845c0.782,6.147,1.259,12.357,1.43,18.552
			c0.287,10.419,0.265,20.849,0.31,31.275c0.018,3.935-0.439,7.895-0.115,11.797c0.228,2.731,0.284,5.426,0.048,8.114
			c-0.469,5.325-1.251,10.624-1.687,15.951c-0.309,3.787-0.135,7.612-0.405,11.404c-0.334,4.687-0.996,9.35-1.344,14.036
			c-0.36,4.848-1.234,9.565-2.844,14.153c-1.518,4.322-2.976,8.615-6.332,12.029c-3.739,3.802-8.237,5.852-13.42,6.36
			c-4.625,0.452-9.28,0.668-13.927,0.814c-4.84,0.151-9.637-0.302-14.348-1.536c-3.312-0.867-4.134-2.776-2.461-5.888
			L253.99,251.232z"/>
	</g>
	<g id="girl_1_">
		<path fill="#F4E00A" stroke="#F4E00A" stroke-miterlimit="10" d="M168.162,282.748c40.804-3.979,61.932-17.666,64.65-20.131
			c5.424-4.917,12.355-9.616,17.486-14.848c6.607-6.736,11.369-14.125,16.525-22.065c5.775-8.893,10.18-18.44,10.309-29.309
			c0.055-4.492-0.203-9.125-1.279-13.455c-1.184-4.764-16.221-34.837-45.313-52.256c-9.506-5.624-19.48-10.176-29.795-14.056
			c-6.455-2.428-12.939-4.797-19.272-7.511c-4.686-2.009-9.502-3.288-14.506-4.015c-2.529-0.367-5.043-0.871-7.582,0.129
			c-14.476,3.205-42.129,15.871-57.172,27.914c-1.838,1.514-14.133,12.838-18.057,17.334c-4.471,5.117-8.627,10.51-13.146,15.58
			c-4.529,5.082-8.199,10.744-11.766,16.479c-3.27,5.255-6.25,10.688-8.189,16.614c-1.578,4.827-1.832,9.676,0.314,14.37
			c3.287,7.189,8.408,13.018,14.178,18.301c9.818,11.278,51.709,40.945,72.029,47.38c6.578,2.857,10.418,3.832,17.48,4.602
			c1.186,0.129,6.76-0.917,8.184-0.749c0.26,0.031,0.893,0.504,0.419,0.96L168.162,282.748z M167.273,489.902
			c-0.344,0.174-0.488,0.273-0.648,0.326c-4.971,1.59-10.094,1.6-15.242,1.619c-9.238,0.033-18.387-0.699-27.443-2.582
			c-4.91-1.02-9.854-1.873-14.779-2.82c-2.631-0.508-5.332-0.816-7.867-1.631c-6.848-2.201-16.775-5.545-23.566-7.918
			c-1.281-0.734-1.408-1.129-1.803-2.422c0.062-5.137,0.636-12.51,0.886-17.416c0.656-5.312,1.344-10.688,1.094-16
			c0.184-7.34,0.1-11.246-0.031-18.594l0.031-5.844c0,0-24.937-1.102-24.856-5.193c0.461-5.549,0.612-14.502,0.937-20.061
			c0.174-2.98,0.168-5.975,0.412-8.949c0.518-6.312,1.043-12.627,1.766-18.918c0.666-5.809,1.281-11.652,2.48-17.361
			c1.557-7.404,3.369-14.783,5.623-22.002c2.551-8.17,4.998-16.379,8.752-24.171c4.455-9.252,10.219-17.639,15.895-26.109
			c1.475-2.201,1.438-3.613-0.879-5.521c-1.133-0.934-8.021-4.343-9.941-5.635c-5.26-3.541-10.449-7.189-15.621-10.857
			c-6.197-4.395-12.422-8.755-18.492-13.319c-3.867-2.906-7.568-6.055-11.176-9.281c-3.699-3.306-6.087-5.981-9.329-9.713
			c-6.576-7.57-11-16.28-13.074-26.211c-1.811-8.67-0.938-17.07-0.293-25.942c6.36-87.44,107.043-142.839,140.86-152.233
			c9.99-2.207,20.852-0.352,26,0.287c46.498,2.014,146.886,103.587,141.666,156.365c-0.508,5.017-1.923,16.527-3.78,21.135
			c-4.166,10.588-17.407,28.822-18.144,29.908c-2.012,2.961-30.295,30.559-39.956,35.95c-6.339,4.157-11.752,6.659-15.352,10.257
			c-1.43,1.428-0.391,4.779,0.701,6.416c10.532,11.81,15.572,26.056,19.244,35.634c7.12,14.342,17.287,87.01,15.774,92.961
			c0.117,1.686,0.82,5.65-0.654,6.381c-8.488,3.846-26.938,4.375-26.938,4.375c0.158,8.496-0.122,5.924,0.333,14.404
			c0.279,5.168,0.875,10.172,1.541,15.318c0.828,6.391,0.941,8.012,1.779,14.4c0.367,2.789,0.596,7.289,1.065,10.049
			c0.448,2.631,0.967,7.314,2.096,9.922c0.229,0.527-0.068,1.432-0.383,2.021c-1.559,2.916-4.455,3.943-7.361,4.557
			c-5.482,1.156-14.856,3.576-20.409,4.307c-4.434,0.582-8.932,0.809-13.408,0.908c-5.443,0.123-10.896-0.137-16.344-0.084
			c-7.059,0.068-14.117,0.236-21.175,0.461c-1.976,0.062-3.63-0.469-5.171-1.639c-0.855-0.648-1.889-1.082-2.67-1.801
			L167.273,489.902z"/>
		<path opacity="0.3" fill-rule="evenodd" clip-rule="evenodd" fill="#F47527" d="M86.841,480.559
			c-2.056-0.59-4.425-1.672-5.5-1.938c-6.719-1.656-6.047-3.656-5.87-7.396c0.223-4.725,0.488-10.01,0.87-14.729
			c0.294-3.637,1.071-7.092,1.112-10.73c0.107-9.693-0.092-19.393,0.009-29.086c0.085-8.281,0.344-16.562,0.664-24.838
			c0.303-7.82,0.706-15.639,1.217-23.447c0.37-5.662,0.892-11.318,1.519-16.959c0.846-7.594,1.668-15.199,2.865-22.742
			c0.781-4.924,2.169-9.758,3.371-14.611c0.526-2.123,1.333-4.176,1.889-6.293c0.314-1.201,1.133-1.596,2.113-1.412
			c1.236,0.232-0.367,0.926-0.629,1.867c-1.229,4.408-2.621,8.787-3.554,13.26c-0.97,4.648-1.525,9.387-2.178,14.098
			c-0.835,6.031-1.688,12.061-2.34,18.113c-0.511,4.742-0.708,9.52-1.081,14.277c-0.3,3.812-0.671,7.619-0.976,11.43
			c-0.124,1.549-0.157,3.105-0.229,4.658c-0.268,5.779-0.682,11.557-0.76,17.338c-0.078,5.738,0.189,11.484,0.293,17.227
			c0.133,7.348,0.484,14.701,0.299,22.039c-0.133,5.303-1.062,10.58-1.492,15.879c-0.43,5.303-1.225,9.627-1.515,14.939
			c0.103-0.211-0.223,2.619,0.874,4.268C78.445,476.723,83.841,479.059,86.841,480.559z"/>
		<path opacity="0.3" fill-rule="evenodd" clip-rule="evenodd" fill="#F47527" d="M169.445,488.352c0,0-2.354-3.793-2.715-6.168
			c-0.452-4.25-1.009-8.682-0.808-12.688c0.315-6.279,0.931-12.543,1.261-18.82c0.241-4.598,0.188-9.211,0.344-13.812
			c0.139-4.115,0.538-8.227,0.548-12.34c0.017-6.949-0.054-13.904-0.337-20.846c-0.215-5.252-0.834-10.486-1.242-15.73
			c-0.152-1.963-0.24-3.932-0.317-5.898c-0.244-6.277-0.54-12.555-0.671-18.834c-0.064-3.104,0.158-6.217,0.304-9.322
			c0.419-8.908,0.779-17.807-0.339-26.701c-0.312-2.486-0.197-5.021-0.352-7.529c-0.305-4.945-0.717-9.885-0.975-14.832
			c-0.179-3.408-0.23-6.825-0.227-10.237c0.001-1.805-0.285-3.335-1.607-4.756c-1.957-2.103-1.698-3.66,0.146-6.897
			c0.536-0.942,1.602-0.195,1.758,0.327c0.125,0.417-0.333,1-0.656,2.761c-0.251,1.366,0.587,2.351,1.404,3.26
			c1.374,1.529,1.909,3.322,1.966,5.418c0.154,5.82,0.407,11.64,0.789,17.451c0.873,13.303,2.115,26.613,1.133,39.939
			c-0.614,8.328-0.454,16.617-0.066,24.914c0.38,8.121,1.223,16.223,1.613,24.344c0.701,14.613,0.971,29.234-0.001,43.855
			c-0.262,3.936-0.12,7.896-0.396,11.83c-0.367,5.289-1.073,10.553-1.416,15.842c-0.227,3.49-0.131,7.008-0.029,10.508
			c0.021,0.693-0.076,0.658,0.098,1.984C168.772,486.479,168.862,486.645,169.445,488.352z"/>
		<path opacity="0.3" fill-rule="evenodd" clip-rule="evenodd" fill="#F47527" d="M254.216,469.588
			c-0.608-2.734-0.752-5.57-1.118-8.357c-0.839-6.391-1.804-13.156-2.632-19.547c-0.667-5.146-1.002-10.439-1.28-15.607
			c-0.455-8.48-1.281-17.365-1.438-25.861c-0.206-11.082-1.394-22.08-1.302-33.16c0.093-11.158-0.599-22.246-2.01-33.295
			c-0.665-5.205-1.815-9.68-2.845-14.826c-0.294-1.467-1.179-2.215-1.905-3.594c-0.398-0.758-1.415-1.504-1.867-2.336
			c1.801-1.025,2.264-0.719,3.043,0.744c0.836,1.57,1.909,3.117,2.292,4.809c1.28,5.65,2.506,11.33,3.347,17.057
			c0.642,4.363,0.732,8.812,0.951,13.23c0.294,5.92,0.601,11.844,0.675,17.768c0.102,8.254,0.366,16.637,0.59,24.885
			c0.258,9.453,0.983,18.682,1.438,28.125c0.151,3.166-0.134,6.4,0.062,9.562c0.114,1.844,1.454,12.053,1.812,15.312
			c0.875,4.875,0.924,9.51,1.5,14.312c0.307,2.553,0.555,5.146,0.922,7.688c0.504,3.578,0.672,6.047,1.672,10.234
			c0.403,1.498,0.393,1.475,0.63,1.965C256.408,478.477,254.811,472.258,254.216,469.588z"/>
		<path display="none" fill-rule="evenodd" clip-rule="evenodd" d="M76.145,414.027c0.566,1.752-0.086,2.711-1.539,2.729
			c-6.67,0.082-13.368-0.018-19.127-4.037c-0.851-0.594-1.277-2.271-1.307-3.461c-0.053-2.201,0.391-4.406,0.525-6.617
			c0.2-3.287,0.242-6.584,0.475-9.867c0.615-8.652,1.314-17.299,1.948-25.949c0.756-10.322,2.302-20.551,4.853-30.553
			c2.43-9.531,5.439-18.928,8.539-28.27c2.754-8.296,6.953-15.947,11.707-23.273c2.404-3.706,4.9-7.354,7.366-11.021
			c1.241-1.844,1.148-2.866-0.741-4.196c-1.349-0.95-2.918-1.581-4.318-2.465c-2.928-1.85-5.841-3.723-8.699-5.676
			c-7.449-5.087-14.956-10.096-22.26-15.384c-4.686-3.392-9.125-7.139-13.543-10.882c-4.419-3.745-8.789-7.562-12.972-11.568
			c-5.327-5.101-9.425-11.05-12.504-17.846c-3.142-6.931-4.581-14.148-5.491-21.591c-1.033-8.46,0.449-16.618,3.021-24.566
			c2.931-9.062,6.062-18.076,9.542-26.94c2.442-6.219,5.605-12.156,8.466-18.21c2.424-5.129,4.754-10.308,7.343-15.353
			c3.78-7.369,8.202-14.321,13.896-20.415c3.672-3.93,7.017-8.183,10.847-11.946c4.002-3.932,8.378-7.488,12.651-11.137
			c3.312-2.828,6.684-5.592,10.098-8.296c3.652-2.893,7.261-5.868,11.113-8.474c6.267-4.239,12.538-8.529,19.148-12.179
			c4.654-2.57,9.852-4.175,14.853-6.091c3.06-1.172,6.186-2.186,9.319-3.149c6.422-1.975,13.052-2.608,19.697-2.09
			c5.357,0.418,10.746,1.153,15.965,2.403c4.507,1.08,8.835,2.976,13.166,4.701c6.556,2.612,13.062,5.349,19.557,8.111
			c3.837,1.632,7.72,3.212,11.39,5.174c7.308,3.905,14.631,7.819,21.66,12.191c4.859,3.022,9.328,6.706,13.81,10.297
			c6.691,5.363,13.354,10.773,19.815,16.409c5.506,4.802,10.897,9.794,14.882,16.019c3.942,6.158,7.815,12.364,11.573,18.636
			c2.644,4.411,5.189,8.893,7.52,13.475c2.857,5.62,4.828,11.589,5.98,17.797c1.101,5.936,1.007,11.93,0.389,17.895
			c-0.423,4.082-1.087,8.154-1.923,12.173c-0.53,2.552-1.321,5.117-2.434,7.468c-3.882,8.205-7.812,16.394-12.017,24.436
			c-2.064,3.952-4.862,7.514-7.166,11.35c-4.493,7.48-10.402,13.815-16.164,20.269c-4.729,5.297-9.458,10.598-14.366,15.728
			c-4.29,4.484-8.85,8.708-13.246,13.092c-2.112,2.106-4.118,4.319-6.182,6.474c-0.931,0.972-0.99,1.922-0.182,3.039
			c2.65,3.662,5.313,7.316,7.854,11.054c4.232,6.226,7.51,12.926,9.69,20.151c2.348,7.777,4.794,15.527,7.078,23.326
			c1.568,5.357,2.764,10.828,4.429,16.152c2.515,8.041,3.749,16.322,5.146,24.582c0.915,5.414,0.672,10.844,0.414,16.295
			c-0.312,6.572-0.415,13.158,0.759,19.684c0.338,1.881-0.287,3.367-1.767,4.529c-0.329,0.258-0.635,0.584-1.008,0.746
			c-3.032,1.305-5.974,3.104-9.145,3.732c-4.146,0.822-8.475,0.746-12.729,0.951c-0.469,0.023-0.971-0.639-1.458-0.982
			c0.426-0.338,0.825-0.92,1.283-0.971c1.657-0.186,3.363-0.025,5-0.303c4.043-0.686,8.068-1.49,12.075-2.361
			c1.085-0.236,2.096-0.85,3.11-1.35c1.475-0.73,1.784-1.85,1.667-3.535c-0.431-6.199-1.192-12.457-0.763-18.619
			c0.786-11.287-0.713-22.273-3.478-33.068c-3.725-14.541-7.926-28.965-12.158-43.371c-1.528-5.199-3.468-10.323-5.729-15.247
			c-1.573-3.426-3.962-6.488-6.084-9.647c-2.428-3.613-5.013-7.122-7.431-10.741c-1.093-1.636-0.857-3.644,0.572-5.072
			c3.6-3.596,7.411-6.986,10.903-10.681c7.306-7.727,14.513-15.55,21.657-23.427c4.499-4.961,8.944-9.984,13.154-15.189
			c2.238-2.767,3.874-6.015,5.886-8.976c0.737-1.086,1.913-1.876,2.641-2.966c1.393-2.084,2.774-4.207,3.865-6.456
			c4.225-8.707,8.717-17.315,12.325-26.275c1.856-4.607,2.405-9.845,2.913-14.861c0.498-4.921,0.69-9.983,0.104-14.874
			c-0.597-4.973-1.934-9.946-3.61-14.683c-3.408-9.625-9.177-18.042-14.519-26.66c-2.394-3.86-4.69-7.779-7.111-11.622
			c-3.683-5.847-8.607-10.626-13.802-15.048c-8.044-6.846-16.514-13.191-24.513-20.086c-7.058-6.084-15.283-10.176-23.205-14.836
			c-7.491-4.408-15.358-7.882-23.49-10.912c-8.221-3.063-16.18-6.836-24.432-9.802c-4.28-1.539-8.909-2.312-13.45-2.875
			c-5.148-0.638-10.383-0.963-15.562-0.819c-2.962,0.083-5.981,1.125-8.817,2.166c-6.792,2.49-13.652,4.893-20.177,7.983
			c-5.416,2.565-10.432,5.999-15.548,9.171c-2.792,1.73-5.503,3.615-8.108,5.614c-4.21,3.232-8.346,6.564-12.436,9.948
			c-5.752,4.761-11.549,9.479-17.101,14.467c-3.061,2.75-5.735,5.947-8.448,9.061c-3.455,3.964-7.113,7.815-10.059,12.14
			c-3.352,4.919-6.164,10.228-8.938,15.512c-3.494,6.66-6.983,13.347-9.98,20.238c-3.545,8.154-6.723,16.48-9.756,24.842
			c-2.175,5.991-4.11,12.096-5.689,18.27c-2.203,8.619-1.519,17.272,0.293,25.943c2.074,9.93,6.498,18.641,13.074,26.211
			c3.242,3.731,7.021,7.02,10.72,10.326c3.608,3.227,7.31,6.374,11.176,9.281c6.071,4.564,12.296,8.925,18.493,13.319
			c5.172,3.668,10.361,7.316,15.621,10.857c1.92,1.292,4.072,2.238,6.105,3.367c1.3,0.722,2.702,1.334,3.835,2.268
			c2.317,1.908,2.354,3.321,0.88,5.521c-5.676,8.471-11.439,16.857-15.895,26.109c-3.754,7.793-6.201,16.002-8.753,24.172
			c-2.254,7.219-4.065,14.598-5.622,22.002c-1.2,5.709-1.815,11.553-2.481,17.361c-0.722,6.291-1.247,12.605-1.766,18.918
			c-0.244,2.975-0.237,5.969-0.411,8.949c-0.324,5.559-0.629,11.121-1.09,16.67c-0.164,1.975,0.736,3.027,2.299,3.812
			c3.846,1.938,8.069,2.275,12.232,2.764C73.178,414.699,74.613,414.229,76.145,414.027z"/>
		<path display="none" fill-rule="evenodd" clip-rule="evenodd" d="M183.185,493.529c-0.68,1.02-1.004,1.506-1.388,2.082
			c2.075,1.881,4.588,2.334,7.132,2.578c6.833,0.66,13.664,1.514,20.515,1.758c3.9,0.141,7.833-0.836,11.762-1.172
			c3.028-0.26,6.07-0.311,8.862-1.742c1.403-0.719,3.114-1.078,3.069-3.252c-0.006-0.279,1.03-0.871,1.526-0.814
			c1.317,0.15,1.538,1.17,1.222,2.285c-0.554,1.951-1.178,3.883-1.759,5.824c-3.308,11.037-5.607,22.248-6.042,33.805
			c-0.215,5.703,2.091,10.445,5.291,14.875c2.481,3.434,5.434,6.578,7.545,10.217c3.176,5.475,4.855,11.484,1.829,17.592
			c-1.943,3.92-5.712,5.9-9.769,7.35c-5.164,1.844-10.174,0.334-15.18-0.564c-4.216-0.756-8.446-1.67-12.503-3.016
			c-3.809-1.266-7.429-3.123-11.072-4.846c-2.529-1.197-5.008-2.523-7.422-3.939c-3.829-2.246-5.895-5.822-6.242-10.096
			c-0.41-5.053-0.41-10.152-0.36-15.229c0.087-8.682,0.539-17.363,0.464-26.041c-0.039-4.572-0.855-9.139-1.345-13.705
			c-0.362-3.379-1.001-6.752-1.023-10.129c-0.009-1.27,1.236-2.668,2.196-3.756C180.844,493.195,182.023,493.529,183.185,493.529z
			 M231.958,498.938c-16.842,4.414-33.393,3.904-50.158-0.115c0.217,2.938,0.357,5.672,0.637,8.391
			c0.327,3.197,0.852,6.373,1.146,9.572c0.219,2.369,0.298,4.76,0.275,7.141c-0.047,5.025-0.232,10.049-0.305,15.074
			c-0.103,7.119-0.409,14.252-0.13,21.357c0.166,4.23,2.02,8.133,5.964,10.262c4.976,2.684,10.011,5.381,15.29,7.348
			c5.516,2.055,11.345,3.271,17.05,4.809c3.381,0.91,6.746,1.197,10.259,0.361c5.334-1.27,10.9-6.879,9.402-13.041
			c-0.748-3.072-1.014-6.143-3.467-8.83c-3.021-3.314-5.031-7.529-7.671-11.217c-3.492-4.883-5.482-10.166-5.075-16.23
			c0.593-8.82,2.058-17.508,4.163-26.082C230.056,504.816,231.048,501.965,231.958,498.938z"/>
		<path display="none" fill-rule="evenodd" clip-rule="evenodd" d="M95.824,489.092c1.709,0.475,3.392,1.059,5.122,1.406
			c5.966,1.193,11.943,2.332,17.929,3.426c1.763,0.322,3.561,0.566,5.349,0.613c6.865,0.18,13.733,0.352,20.599,0.303
			c1.271-0.01,2.507-1.137,3.812-1.604c0.626-0.225,1.374-0.109,2.067-0.148c-0.062,0.533-0.047,1.09-0.205,1.592
			c-0.225,0.719-0.754,1.373-0.848,2.096c-0.838,6.518-1.546,13.053-2.418,19.566c-0.943,7.051-1.881,14.107-3.083,21.117
			c-1.189,6.932-2.637,13.82-4.104,20.701c-1.008,4.719-4.129,7.834-7.994,10.562c-4.673,3.299-9.636,6.021-14.949,7.943
			c-6.629,2.398-13.463,4.24-20.645,3.852c-3.207-0.174-6.438-0.336-9.589-0.893c-1.485-0.262-2.741-1.633-4.222-2.162
			c-2.939-1.053-3.598-3.404-3.943-6.07c-0.738-5.676-0.057-11.164,2.599-16.242c1.317-2.518,3.103-4.801,4.767-7.125
			c4.176-5.828,8.441-11.592,12.596-17.436c2.995-4.213,2.537-8.957,1.354-13.52c-2.176-8.385-4.726-16.674-7.094-25.01
			c-0.258-0.906-0.658-1.943-0.436-2.77c0.234-0.867,0.994-1.957,1.779-2.238C95.973,486.439,96.473,487.1,95.824,489.092z
			 M96.098,491.422c0.52,1.859,0.853,3.127,1.228,4.381c2.298,7.697,5.049,15.273,6.124,23.295c0.45,3.352,0.893,6.73-0.77,9.857
			c-3.779,7.113-8.313,13.762-13.738,19.689c-5.139,5.611-7.547,11.869-7.239,19.51c0.214,5.312,3.815,8.191,7.754,9.312
			c5.419,1.539,10.937,0.76,16.369-0.029c2.979-0.434,5.878-1.449,8.8-2.25c7.209-1.975,13.596-5.541,19.182-10.438
			c1.456-1.277,2.789-3.18,3.246-5.023c1.703-6.887,3.171-13.842,4.427-20.824c0.867-4.822,1.181-9.742,1.847-14.602
			c0.939-6.855,2.006-13.691,2.955-20.545c0.304-2.191,0.41-4.41,0.623-6.793c-1.419,0.113-2.311,0.172-3.197,0.26
			c-1.662,0.162-3.33,0.551-4.979,0.473c-4.83-0.227-9.654-0.611-14.478-0.982c-1.957-0.15-3.934-0.287-5.853-0.67
			C111.114,494.59,103.85,493.037,96.098,491.422z"/>
		<path opacity="0.3" fill-rule="evenodd" clip-rule="evenodd" fill="#F47527" d="M135.25,429.914 M138.846,437.67
			c-2.558,0.43-5.185,0.514-7.787,0.586c-2.906,0.08-5.829,0.133-8.729-0.059c-6.035-0.398-12.061-0.963-18.472-1.49
			c-0.177,3.652-0.52,7.586-0.51,11.518c0.009,3.152,0.257,6.336,0.774,9.443c0.258,1.549,1.277,3.006,2.114,4.408
			c0.41,0.686,1.198,1.303,0.246,1.91c-0.571,0.363-1.678,0.547-2.188,0.234c-2.418-1.484-3.465-3.916-3.761-6.621
			c-1.005-9.211-0.481-18.387,0.871-27.525c0.153-1.039,0.532-2.102,1.046-3.02c0.677-1.213,1.666-1.889,3.258-1.402
			c4.844,1.479,9.803,1.896,14.877,1.771c5.617-0.135,11.244,0.098,16.865,0.234l-2.201,2.256c-4.182-0.012-8.369,0.123-12.54-0.086
			c-5.871-0.293-11.729-0.844-17.88-1.307c-0.162,1.297-0.379,3.037-0.637,5.1c12.09,2.611,24.015,2.469,35.969,2.08L138.846,437.67
			z"/>
		<path opacity="0.3" fill-rule="evenodd" clip-rule="evenodd" fill="#F47527" d="M236.208,428.609 M237.554,436.143
			c-8.507,2.492-17.193,1.504-25.836,1.145c-1.581-0.064-3.145-0.527-5.066-0.871c0,2.492,0.002,4.578,0,6.664
			c-0.005,4.355-0.131,8.713,0.027,13.062c0.092,2.512,0.637,4.959,3.036,6.568c0.489,0.328,0.845,1.742,0.552,2.17
			c-0.649,0.947-1.531,0.443-2.452-0.141c-3.206-2.031-4.116-5.236-4.274-8.615c-0.259-5.502-0.112-11.021-0.235-16.531
			c-0.075-3.346-0.259-6.691-0.544-10.023c-0.182-2.127,0.427-2.783,2.799-2.715c4.432,0.129,8.866,0.314,13.296,0.254
			c3.881-0.051,7.758-0.398,11.636-0.633c1.471-0.09,2.946-0.174,4.409-0.355c2.231-0.273,4.31,0.18,6.111,1.451l-4.804,1.037
			c-4.223,0.016-8.445,0.098-12.668,0.193c-2.679,0.061-5.355,0.238-8.034,0.283c-3.028,0.053-6.058,0.014-9.188,0.014
			c-0.089,4.969,0.089,5.045,3.854,5.756c6.654,1.26,13.351,0.75,20.02,0.555c2.97-0.088,5.911-1.104,8.977-1.719L237.554,436.143z"
			/>
		<path fill-rule="evenodd" clip-rule="evenodd" fill="#F4E00A" stroke="#F4E00A" stroke-miterlimit="10" d="M232.351,492.967
			c4.115,0,1.312,10.43,0.53,13.527c-2.295,9.096-3.892,18.312-4.538,27.668c-0.444,6.434,1.726,12.039,5.533,17.217
			c6.048,7.004,11.59,13.555,10.384,20.301c-1.511,5.885-5.465,11.887-11.279,13.234c-3.828,0.887-6.469,1.182-10.155,0.215
			c-6.219-1.629-12.573-2.92-18.586-5.1c-5.755-2.086-11.244-4.949-16.668-7.795c-4.3-2.258-6.918-6.492-7.099-10.979
			c-0.305-7.539-0.271-14.031-0.117-21.881c0.104-5.33-0.355-10.688-0.305-16.016c0.024-2.527-0.062-5.064-0.301-7.576
			c-0.32-3.393,0.072-6.459-0.284-9.85c-0.305-2.885-0.749-12.967,3.5-12.967C181.466,499.684,229.593,502.43,232.351,492.967z"/>
		<path fill-rule="evenodd" clip-rule="evenodd" fill="#F4E00A" stroke="#F4E00A" stroke-miterlimit="10" d="M97.361,490.102
			c0.354,4.121,18.104,5.189,24.938,6.334c1.92,0.383,22.894,2.51,27.254-0.836c1.164,0.213-0.408,6.393-0.712,8.584
			c-0.95,6.854-2.017,13.691-2.956,20.545c-0.666,4.861-0.979,9.779-1.846,14.602c-1.256,6.982-2.645,13.248-4.348,20.135
			c-0.456,1.846-1.869,4.438-3.326,5.715c-5.585,4.895-15.146,11.002-22.355,12.977c-2.922,0.799-5.82,1.816-8.8,2.248
			c-5.433,0.789-10.95,1.57-16.369,0.029c-3.938-1.119-10.793-4-11.007-9.312c-0.309-7.641,2.716-16.865,7.854-22.477
			c5.426-5.928,9.959-12.576,13.739-19.689c1.662-3.127,1.22-6.506,0.77-9.857c-1.075-8.021-1.19-12.012-3.488-19.709
			C96.333,498.135,92.824,490.102,97.361,490.102z"/>
		<g>
			<path opacity="0.7" fill-rule="evenodd" clip-rule="evenodd" fill="#F47527" d="M170.966,287.268c-3.224,0-3.224,5,0,5
				S174.189,287.268,170.966,287.268z"/>
			<path opacity="0.7" fill-rule="evenodd" clip-rule="evenodd" fill="#F47527" d="M175.466,333.434c-3.224,0-3.224,5,0,5
				S178.689,333.434,175.466,333.434z"/>
			<path opacity="0.7" fill-rule="evenodd" clip-rule="evenodd" fill="#F47527" d="M175.299,376.934c-3.224,0-3.224,5,0,5
				C178.523,381.934,178.523,376.934,175.299,376.934z"/>
			<path opacity="0.7" fill-rule="evenodd" clip-rule="evenodd" fill="#F47527" d="M177.133,424.268c-3.225,0-3.225,5,0,5
				C180.356,429.268,180.356,424.268,177.133,424.268z"/>
			<path opacity="0.7" fill-rule="evenodd" clip-rule="evenodd" fill="#F47527" d="M176.299,468.102c-3.224,0-3.224,5,0,5
				C179.523,473.102,179.523,468.102,176.299,468.102z"/>
		</g>
	</g>
</g>
</svg>
