<?xml version="1.0" encoding="utf-8"?>
<!-- Generator: Adobe Illustrator 16.0.4, SVG Export Plug-In . SVG Version: 6.00 Build 0)  -->
<!DOCTYPE svg PUBLIC "-//W3C//DTD SVG 1.1//EN" "http://www.w3.org/Graphics/SVG/1.1/DTD/svg11.dtd" [
	<!ENTITY ns_flows "http://ns.adobe.com/Flows/1.0/">
	<!ENTITY ns_extend "http://ns.adobe.com/Extensibility/1.0/">
	<!ENTITY ns_ai "http://ns.adobe.com/AdobeIllustrator/10.0/">
	<!ENTITY ns_graphs "http://ns.adobe.com/Graphs/1.0/">
	<!ENTITY ns_vars "http://ns.adobe.com/Variables/1.0/">
	<!ENTITY ns_imrep "http://ns.adobe.com/ImageReplacement/1.0/">
	<!ENTITY ns_sfw "http://ns.adobe.com/SaveForWeb/1.0/">
	<!ENTITY ns_custom "http://ns.adobe.com/GenericCustomNamespace/1.0/">
	<!ENTITY ns_adobe_xpath "http://ns.adobe.com/XPath/1.0/">
]>
<svg version="1.1" id="Layer_1" xmlns:x="&ns_extend;" xmlns:i="&ns_ai;" xmlns:graph="&ns_graphs;"
	 xmlns="http://www.w3.org/2000/svg" xmlns:xlink="http://www.w3.org/1999/xlink" xmlns:a="http://ns.adobe.com/AdobeSVGViewerExtensions/3.0/"
	 x="0px" y="0px" width="1206.561px" height="210.021px" viewBox="0 0 1206.561 210.021"
	 enable-background="new 0 0 1206.561 210.021" xml:space="preserve">
<metadata>
	<sfw  xmlns="&ns_sfw;">
		<slices></slices>
		<sliceSourceBounds  width="9797.125" height="8985.89" y="-226.379" x="-7375.78" bottomLeftOrigin="true"></sliceSourceBounds>
	</sfw>
</metadata>
<g display="none">
	
		<rect x="-190.943" y="-437.645" transform="matrix(-1 0.0014 -0.0014 -1 1809.5696 659.4448)" display="inline" fill="#E9F8FF" width="2190.994" height="1536.001"/>
	<g display="inline">
		<g>
			<path fill="#FFFFFF" d="M329.319,215.015c-2.828,1.654-38.086-1.716-41.011,0c-29.366-2.939-47.986-31.466-45.886-64.218
				c2.124-33.088,22.161-50.73,60.422-55.329c0.601-4.394,0.611-9.087,1.952-13.431c3.99-12.968,12.953-23.148,23.548-31.954
				c18.182-15.12,39.489-25.37,64.208-24.988c26.582,0.408,51.784,6.581,70.334,26.354c2.612,2.784,4.935,5.795,7.393,8.702
				c22.669-21.043,48.616-32.831,78.109-34.562c31.241-1.833,44.652,5.679,69.576,26.519c3.851,3.216,94.951,119.618,21.964,137.256
				C626.746,192.55,326.725,211.885,329.319,215.015z"/>
			<path fill="#FFFFFF" d="M606.91,73.849c2.829-1.657,43.003,12.423,45.928,10.708c29.363,2.939,47.985,31.467,45.886,64.218
				c-2.124,33.086-22.161,50.729-60.422,55.329c-0.6,4.393-0.61,9.085-1.951,13.429c-3.991,12.97-12.952,23.149-23.548,31.953
				c-18.181,15.119-39.49,25.373-64.209,24.988c-26.583-0.406-51.783-6.581-70.333-26.354c-2.612-2.784-4.935-5.793-7.392-8.701
				c-22.671,21.043-48.617,32.831-78.112,34.561c-31.238,1.835-86.538-21.544-89.3-68.566c-3.849-3.214,54.781-71.85,41.435-108.116
				C340.208,84.574,594.486,49.163,606.91,73.849z"/>
		</g>
		<g>
			<path fill="#FFFFFF" d="M1113.11,195.701c-2.415,1.414-32.577-1.47-35.078,0c-25.114-2.518-41.04-26.915-39.248-54.928
				c1.818-28.303,18.957-43.393,51.683-47.325c0.514-3.758,0.521-7.77,1.668-11.486c3.413-11.092,11.077-19.801,20.143-27.331
				c15.556-12.932,33.779-21.698,54.916-21.373c22.74,0.351,44.293,5.628,60.16,22.54c2.237,2.383,4.222,4.958,6.32,7.443
				c19.396-17.998,41.587-28.081,66.814-29.562c26.716-1.567,53.271,1.243,74.587,19.068c3.293,2.75,5.493,1.738,7.296-0.722
				c16.068-21.981,41.504-27.79,67.213-32.799c17.286-3.366,34.829-5.396,52.57-3.454c29.272,3.2,53.83,14.987,73.875,34.812
				c2.296,2.271,52.466,100.936-9.965,116.022C1554.796,169.331,1110.893,193.022,1113.11,195.701z"/>
			<path fill="#FFFFFF" d="M1567.048,64.331c2.419-1.417,36.78,10.625,39.282,9.16c25.119,2.513,41.04,26.916,39.248,54.924
				c-1.814,28.303-18.957,43.396-51.682,47.326c-0.517,3.757-0.522,7.771-1.668,11.487c-3.414,11.095-11.078,19.8-20.14,27.329
				c-15.551,12.933-33.774,21.699-54.924,21.374c-22.733-0.348-44.286-5.627-60.153-22.539c-2.236-2.386-4.224-4.957-6.324-7.442
				c-19.392,17.999-41.582,28.08-66.81,29.561c-26.72,1.571-53.272-1.242-74.588-19.066c-3.296-2.751-5.495-1.738-7.295,0.721
				c-16.072,21.981-41.507,27.791-67.223,32.799c-17.281,3.367-64.098,2.197-81.835,0.258
				c-39.828-21.187-36.122-42.907-56.172-62.729c-2.296-2.272-4.496-4.617-6.827-7.026c-51.095-30.998-23.281-9.402-34.695-40.425
				C1051.238,129.155,1556.422,43.217,1567.048,64.331z"/>
		</g>
	</g>
</g>
<g>
	<path fill="#FCD21D" d="M204.214,147.832c-1.891,5.933,0.007,29.985-1.818,34.584c-1.908,4.816-16.8,7.376-22.149,6.919
		c-2.327-0.199-4.672-0.244-6.974-0.592c-17.943-0.611-18.439-6.639-17.943-25.694c0.273-12.255,0.201-7.756,0.273-12.255
		c-0.102-32.45-0.545-63.287-0.027-97.384c0.371-24.496,24.982-41.521,50.514-38.614c40.121-0.944,79.981,33.825,65.404,82.186
		c-2.168,7.194-9.185,12.309-14.459,17.861c-3.109,3.279-12.133,7.554-15.948,10.279c6.173,11.229,12.289,21.964,17.974,32.931
		c2.113,4.074,3.478,8.61,4.705,13.073c2.349,8.573,0.348,13.611-7.817,16.677c-4.483,1.483-3.289,0.964-10.552,1.664
		c-9.821,0.945-16.869,2.872-30.5-5.113C212.844,180.639,207.266,152.665,204.214,147.832z"/>
	<path fill="#FCD21D" d="M277.393,104.849c0.4-17.936,4.226-36.024,15.518-52.656c21.161-31.162,64.961-49.991,111.479-28.729
		c8.825,4.033,17.091,12.378,22.234,20.802c18.337,30.031,24.8,62.595,10.752,96.042c-11.955,34.696-56.031,58.555-102.537,47.337
		c-18.776-7.252-22.629-11.135-38.82-28.408C286.078,148.627,275.976,120.793,277.393,104.849z M375.568,108.479
		c-0.423-3.526,1.125-5.657-3.829-14.651c-8.29-10.514-20.512-12.64-28.735-0.267c-5.756,8.65-4.038,22.406,3.802,29.679
		c5.391,4.997,11.375,6.439,18.366,3.215C371.97,123.321,375.446,118.26,375.568,108.479z"/>
	<path fill="#FFFFFF" d="M197.51,93.177c0.181-7.507,0.414-14.475,0.479-21.438c0.033-3.681,2.147-5.27,5.361-5.87
		c5.829-1.095,14.946,1.678,17.962,6.552c3.583,5.793,2.796,10.875-2.944,18.039C213.26,96.835,207.13,96.776,197.51,93.177z"/>
	<path fill="#FCD21D" d="M91.574,15.211c28.851-1.971,42.643,15.86,46.842,38.146c2.537,13.466-4.943,25.374-15.656,33.82
		c-9.955,7.855-20.849,7.837-32.088,1.479c-11.018-6.237-17.491-2.84-19.997,9.682c-0.389,1.953-0.362,4.006-0.855,5.929
		c-1.943,7.583,0.147,13.996,6.117,18.762c6.523,5.2,14.016,4.915,21.227,1.674c4.956-2.229,10.072-4.73,14.1-8.271
		c11.104-9.755,19.812-1.279,28.37,3.672c9.505,5.508,13.221,16.049,10.778,25.79c-3.082,12.295-11.317,21.117-20.811,28.569
		C80.411,213.094,21.854,171.83,16.52,129.44c-4.812-38.23,7.169-69.939,31.72-97.724C59.768,18.68,75.545,13.886,91.574,15.211z"/>
	<path fill="#FCD21D" d="M491.403,139.895c8.476-6.232-2.274-19.323-4.886-21.611c-4.72-3.504-8.672-5.893-13.274-8.396
		c-25.142-13.662-36.782-43.91-21.782-68.299c5.458-8.877,7.628-15.256,19.069-21.931c17.48-9.537,40.801-5.486,54.567,3.853
		c7.683,5.215,11.278,12.802,10.204,22.01c-0.557,4.762-2.001,4.459-3.782,8.936c-3.104,7.796-5.758,8.731-14.199,6.142
		c-1.918-0.593-3.79-1.512-5.753-1.773c-7.866-1.058-12.783,1.28-15.138,6.946c-2.682,6.458-0.765,8.769,5.366,13.186
		c4.254,3.072,9.099,5.323,13.548,8.154c11.918,7.583,21.344,17.45,26.948,30.567c7.142,16.721,1.842,42.246-10.883,55.307
		c-15.897,16.311-39.74,20.941-59.224,15.457c-8.488-2.389-16.324-7.132-24.386-10.957c-5.289-2.516-8.201-6.646-7.13-12.73
		c1.041-5.965,6.887-17.139,8.715-22.877c2.87-9.021,10.235-9.379,17.048-4.929C479.714,145.963,487.799,143.196,491.403,139.895z"
		/>
	<path fill="#FCD21D" d="M596.273,138.264c8.475-6.232-2.274-19.323-4.888-21.611c-4.718-3.504-8.671-5.893-13.273-8.397
		c-25.142-13.661-36.783-43.909-21.783-68.297c5.459-8.877,7.628-15.258,19.069-21.934c17.481-9.537,40.801-5.485,54.568,3.853
		c7.684,5.215,11.277,12.803,10.204,22.009c-0.556,4.764-2.001,4.459-3.783,8.937c-3.104,7.796-5.756,8.732-14.198,6.141
		c-1.918-0.592-3.789-1.51-5.753-1.771c-7.866-1.06-12.784,1.279-15.138,6.946c-2.681,6.457-0.764,8.769,5.365,13.187
		c4.256,3.07,9.1,5.322,13.55,8.152c11.917,7.584,21.344,17.452,26.946,30.569c7.143,16.72,1.843,42.246-10.883,55.307
		c-15.897,16.312-39.739,20.94-59.224,15.456c-8.487-2.387-16.325-7.133-24.386-10.957c-5.288-2.516-8.201-6.645-7.13-12.73
		c1.042-5.964,6.886-17.138,8.716-22.876c2.869-9.021,10.234-9.379,17.048-4.929C584.584,144.333,592.669,141.565,596.273,138.264z"
		/>
	<path fill="#FCD21D" d="M752.332,144.895c8.476-6.232-2.274-19.323-4.887-21.611c-4.72-3.504-8.672-5.893-13.273-8.396
		c-25.141-13.662-36.784-43.91-21.783-68.299c5.458-8.877,7.628-15.256,19.068-21.931c17.482-9.537,40.802-5.486,54.568,3.853
		c7.684,5.215,11.277,12.802,10.204,22.01c-0.557,4.762-2,4.459-3.782,8.936c-3.104,7.796-5.758,8.731-14.198,6.142
		c-1.917-0.593-3.79-1.512-5.753-1.773c-7.866-1.058-12.784,1.28-15.139,6.946c-2.682,6.458-0.764,8.769,5.366,13.186
		c4.255,3.072,9.099,5.323,13.548,8.154c11.917,7.583,21.346,17.45,26.946,30.567c7.144,16.721,1.843,42.246-10.882,55.307
		c-15.898,16.311-39.74,20.941-59.223,15.457c-8.489-2.389-16.326-7.132-24.387-10.957c-5.29-2.516-8.203-6.646-7.132-12.73
		c1.042-5.965,6.887-17.139,8.717-22.877c2.869-9.021,10.234-9.379,17.047-4.929C740.643,150.963,748.729,148.196,752.332,144.895z"
		/>
	<g>
		<path fill="#FCD21D" d="M943.904,189.984c-13.213,1.976-14.188,2.875-25.287,3.433c-18.921,0.927-26.672-4.693-29.74-20.096
			c-1.435-7.182-2.004-14.477-3.214-23.506c-7.063,0.348-13.517,0.669-22.075,1.099c-0.883,9.546-1.3,18.26-2.581,26.879
			c-1.731,11.63-9.907,16.868-26.347,17.7c-16.322,0.828-26.031-3.677-29.907-14.28c-1.052-2.873-1.938-6.29-1.104-9.059
			c9.641-31.822,18.739-63.793,29.982-95.194c4.013-11.201,12.646-21.476,20.722-31.274c4.786-5.82,11.926-10.764,19.184-14.584
			c13.247-6.941,28.894-4.572,38.562,5.946c5.195,5.657,9.854,12.522,11.575,19.364c9.038,35.883,17.1,71.916,25.403,107.92
			C950.707,171.394,960.378,188.211,943.904,189.984z"/>
		<path fill="#FFFFFF" d="M873.38,116.374c-11.407-0.315-16.301-4.168-14.562-13.421c1.21-6.454,4.166-12.865,7.655-18.729
			c3.228-5.436,10.744-5.693,13.826-0.269c4.29,7.53,7.59,15.697,9.354,23.878C890.98,113.986,884.739,116.7,873.38,116.374z"/>
	</g>
	<path fill="#FCD21D" d="M960.695,177.229c-1.101-19.93-1.994-39.875-3.465-59.777c-1.632-22.113-3.804-44.186-5.75-66.271
		c-0.192-2.206-0.694-4.413-0.66-6.615c0.138-8.75,2.961-12.979,11.543-15.263c7.107-1.89,14.467-3.337,21.787-3.812
		c22.082-1.429,44.194-2.46,66.312-3.269c8.112-0.294,11.336,2.604,12.878,10.577c1.113,5.792,1.847,11.703,2.208,17.595
		c0.535,8.609-1.854,11.016-10.519,11.938c-14.311,1.532-28.607,3.093-42.893,4.788c-2.493,0.294-4.902,1.309-8.606,2.339
		c1.014,6.615,0.822,14.402,1.923,21.547c9.257,0.281,9.257,0.281,17.56-0.193c8.004-0.1,10.824-0.15,17.626-0.529
		c8.269-0.461,13.171-0.362,14.839,5.427c2.021,6.294,2.468,12.3,3.75,18.821c1.034,5.272-1.489,8.728-6.432,10.007
		c-4.984,1.293-10.14,1.944-15.222,2.866c-7.634,1.384-15.259,2.768-22.894,4.138c-6.139,1.104-8.652,0.146-8.42,6.332
		c0.397,10.708,0.295,21.436,0.762,32.139c0.52,11.861-2.397,16.542-14.056,18.504c-6.855,1.157-14.001,0.548-21.01,0.837
		c-5.331,0.217-9.315-2.055-10.592-5.282C961.368,184.072,960.881,180.566,960.695,177.229z"/>
	<path fill="#FCD21D" d="M1125.12,151.362c12.355,0.737,23.235,1.492,34.125,1.994c8.265,0.371,15.778,3.926,17.058,10.966
		c1.283,7.113-1.013,15.122-3.312,22.298c-0.732,2.303-6.394,4.324-9.949,4.56c-21.769,1.441-43.579,3.147-65.378,3.151
		c-17.43,0.004-26.521-8.375-27.788-25.035c-1.554-20.326-2.172-40.771-1.86-61.151c0.252-16.706,2.342-33.392,3.861-50.069
		c0.407-4.445,1.525-8.864,2.655-13.223c2.636-10.135,9.83-15.827,20.417-18.637c18.93-5.015,37.944-4.363,57.059-1.46
		c11.688,1.776,15,4.87,16.837,15.429c2.465,14.182-3.714,22.71-18.888,24.659c-8.548,1.091-17.283,0.842-26.689,1.229
		c0,8.153,0,15.542,0,24.148c9.008,0,16.781-0.167,24.545,0.041c10.787,0.284,14.02,3.003,15.759,12.647
		c0.074,0.402,0.121,0.811,0.179,1.216c3.159,22.118-4.854,23.257-27.259,25.763c-2.986-0.365-8.203,1.067-11.741,0.77
		C1124.171,139.631,1124.055,143.326,1125.12,151.362z"/>
</g>
</svg>
