<?xml version="1.0" encoding="utf-8"?>
<!-- Generator: Adobe Illustrator 16.0.4, SVG Export Plug-In . SVG Version: 6.00 Build 0)  -->
<!DOCTYPE svg PUBLIC "-//W3C//DTD SVG 1.0//EN" "http://www.w3.org/TR/2001/REC-SVG-20010904/DTD/svg10.dtd">
<svg version="1.0" id="Layer_1" xmlns="http://www.w3.org/2000/svg" xmlns:xlink="http://www.w3.org/1999/xlink" x="0px" y="0px"
	 width="1206.561px" height="210.021px" viewBox="0 0 1206.561 210.021" enable-background="new 0 0 1206.561 210.021"
	 xml:space="preserve">
<g display="none">
	
		<rect x="-190.944" y="-437.64" transform="matrix(1 -0.0014 0.0014 1 -0.4602 1.2626)" display="inline" fill-rule="evenodd" clip-rule="evenodd" fill="#E9F8FF" width="2190.991" height="1536"/>
	<g display="inline">
		<g>
			<path fill-rule="evenodd" clip-rule="evenodd" fill="#FFFFFF" d="M329.319,215.015c-2.828,1.655-38.086-1.715-41.011,0
				c-29.366-2.939-47.986-31.465-45.886-64.217c2.124-33.088,22.161-50.731,60.422-55.329c0.601-4.394,0.611-9.087,1.952-13.431
				c3.99-12.968,12.953-23.149,23.548-31.954c18.182-15.12,39.489-25.37,64.208-24.988c26.582,0.408,51.784,6.581,70.334,26.353
				c2.612,2.784,4.934,5.795,7.392,8.702c22.669-21.043,48.617-32.831,78.11-34.562c31.241-1.833,44.652,5.678,69.576,26.518
				c3.85,3.216,94.951,119.618,21.964,137.256C626.746,192.55,326.725,211.885,329.319,215.015z"/>
			<path fill-rule="evenodd" clip-rule="evenodd" fill="#FFFFFF" d="M606.91,73.849c2.829-1.657,43.003,12.423,45.928,10.708
				c29.363,2.94,47.985,31.467,45.886,64.218c-2.124,33.086-22.161,50.729-60.422,55.329c-0.6,4.393-0.611,9.085-1.951,13.429
				c-3.991,12.97-12.952,23.149-23.548,31.953c-18.181,15.119-39.49,25.373-64.209,24.988c-26.583-0.406-51.784-6.581-70.333-26.353
				c-2.613-2.784-4.935-5.793-7.392-8.701c-22.671,21.043-48.617,32.831-78.112,34.56c-31.238,1.835-86.538-21.544-89.3-68.566
				c-3.849-3.214,54.781-71.85,41.435-108.116C340.208,84.574,594.486,49.163,606.91,73.849z"/>
		</g>
		<g>
			<path fill-rule="evenodd" clip-rule="evenodd" fill="#FFFFFF" d="M1113.11,195.701c-2.415,1.414-32.577-1.47-35.078,0
				c-25.114-2.518-41.04-26.915-39.248-54.928c1.819-28.303,18.957-43.392,51.683-47.325c0.514-3.758,0.521-7.77,1.668-11.486
				c3.413-11.092,11.077-19.801,20.142-27.331c15.556-12.932,33.78-21.699,54.917-21.373c22.74,0.35,44.293,5.628,60.16,22.54
				c2.237,2.382,4.221,4.958,6.32,7.443c19.396-17.998,41.587-28.081,66.814-29.562c26.716-1.568,53.272,1.243,74.587,19.068
				c3.293,2.75,5.494,1.738,7.296-0.722c16.069-21.981,41.504-27.79,67.213-32.799c17.286-3.366,34.829-5.395,52.571-3.454
				c29.272,3.2,53.83,14.988,73.875,34.813c2.295,2.271,52.465,100.935-9.965,116.022
				C1554.796,169.331,1110.893,193.022,1113.11,195.701z"/>
			<path fill-rule="evenodd" clip-rule="evenodd" fill="#FFFFFF" d="M1567.048,64.331c2.419-1.417,36.78,10.625,39.282,9.16
				c25.119,2.513,41.04,26.916,39.248,54.924c-1.815,28.303-18.957,43.395-51.682,47.326c-0.516,3.757-0.522,7.771-1.668,11.487
				c-3.414,11.095-11.078,19.8-20.139,27.329c-15.551,12.933-33.775,21.7-54.924,21.374c-22.733-0.347-44.286-5.627-60.153-22.539
				c-2.237-2.385-4.224-4.957-6.325-7.442c-19.391,17.999-41.582,28.08-66.809,29.561c-26.72,1.571-53.273-1.243-74.588-19.067
				c-3.296-2.751-5.495-1.738-7.295,0.721c-16.072,21.981-41.507,27.791-67.223,32.799c-17.281,3.367-64.097,2.197-81.835,0.257
				c-39.828-21.186-36.122-42.907-56.172-62.729c-2.295-2.272-4.496-4.617-6.827-7.026c-51.094-30.998-23.281-9.403-34.695-40.425
				C1051.238,129.155,1556.422,43.217,1567.048,64.331z"/>
		</g>
	</g>
</g>
<image display="none" overflow="visible" opacity="0.4" width="442" height="418" xlink:href="3FA7B8878236EB36.png"  transform="matrix(4.6816 0 0 4.6816 -160.8677 -336.6602)">
</image>
<g>
	<path fill-rule="evenodd" clip-rule="evenodd" fill="#FCD21D" d="M204.214,147.832c-1.891,5.932,0.007,29.985-1.818,34.584
		c-1.908,4.816-16.8,7.376-22.149,6.919c-2.327-0.199-4.672-0.244-6.974-0.592c-17.943-0.611-18.439-6.639-17.943-25.694
		c0.273-12.255,0.201-7.756,0.273-12.255c-0.102-32.45-0.545-63.287-0.027-97.384c0.371-24.496,24.982-41.522,50.514-38.614
		c40.121-0.945,79.981,33.825,65.404,82.185c-2.168,7.195-9.185,12.309-14.459,17.862c-3.109,3.279-12.133,7.553-15.948,10.279
		c6.173,11.228,12.289,21.964,17.974,32.931c2.113,4.074,3.478,8.61,4.705,13.073c2.349,8.573,0.348,13.611-7.817,16.677
		c-4.483,1.483-3.289,0.963-10.552,1.664c-9.821,0.945-16.869,2.872-30.5-5.114C212.844,180.639,207.266,152.665,204.214,147.832z"
		/>
	<path fill-rule="evenodd" clip-rule="evenodd" fill="#FCD21D" d="M277.393,104.849c0.4-17.935,4.226-36.024,15.518-52.656
		c21.161-31.162,64.961-49.991,111.479-28.729c8.825,4.033,17.091,12.378,22.234,20.801c18.337,30.032,24.8,62.595,10.752,96.042
		c-11.955,34.697-56.031,58.555-102.537,47.337c-18.776-7.252-22.629-11.134-38.82-28.408
		C286.078,148.627,275.976,120.793,277.393,104.849z M375.568,108.479c-0.423-3.526,1.125-5.657-3.829-14.651
		c-8.29-10.514-20.512-12.64-28.735-0.267c-5.756,8.651-4.038,22.407,3.802,29.679c5.391,4.997,11.375,6.439,18.366,3.215
		C371.97,123.321,375.446,118.261,375.568,108.479z"/>
	<path fill-rule="evenodd" clip-rule="evenodd" fill="#DCEBF4" d="M197.51,93.177c0.181-7.507,0.414-14.475,0.479-21.439
		c0.033-3.681,2.148-5.269,5.361-5.87c5.829-1.095,14.946,1.678,17.962,6.552c3.583,5.793,2.796,10.875-2.944,18.039
		C213.26,96.835,207.13,96.776,197.51,93.177z"/>
	<path fill-rule="evenodd" clip-rule="evenodd" fill="#FCD21D" d="M91.574,15.211c28.851-1.971,42.643,15.86,46.842,38.145
		c2.537,13.466-4.943,25.374-15.656,33.821c-9.955,7.855-20.849,7.836-32.088,1.479c-11.018-6.237-17.491-2.84-19.997,9.682
		c-0.389,1.953-0.362,4.006-0.855,5.928c-1.943,7.583,0.147,13.996,6.117,18.762c6.523,5.2,14.016,4.915,21.227,1.674
		c4.956-2.23,10.072-4.731,14.1-8.272c11.104-9.754,19.812-1.279,28.37,3.672c9.505,5.508,13.221,16.049,10.778,25.79
		c-3.082,12.295-11.317,21.118-20.811,28.57C80.411,213.094,21.854,171.83,16.52,129.44c-4.812-38.23,7.169-69.939,31.72-97.723
		C59.768,18.68,75.545,13.887,91.574,15.211z"/>
	<path fill-rule="evenodd" clip-rule="evenodd" fill="#FCD21D" d="M491.403,139.895c8.476-6.232-2.274-19.323-4.886-21.611
		c-4.719-3.504-8.671-5.893-13.274-8.397c-25.141-13.662-36.782-43.91-21.782-68.298c5.458-8.877,7.628-15.256,19.069-21.931
		c17.481-9.537,40.801-5.486,54.568,3.853c7.682,5.214,11.278,12.801,10.204,22.009c-0.557,4.762-2.001,4.459-3.783,8.936
		c-3.104,7.796-5.757,8.731-14.199,6.141c-1.918-0.592-3.79-1.511-5.753-1.773c-7.866-1.058-12.783,1.28-15.137,6.946
		c-2.682,6.458-0.765,8.769,5.366,13.186c4.254,3.072,9.098,5.323,13.548,8.154c11.918,7.583,21.344,17.45,26.948,30.568
		c7.142,16.72,1.842,42.246-10.883,55.306c-15.897,16.311-39.74,20.942-59.224,15.457c-8.488-2.388-16.324-7.132-24.385-10.957
		c-5.289-2.515-8.201-6.645-7.13-12.73c1.041-5.965,6.887-17.139,8.715-22.877c2.87-9.021,10.235-9.379,17.048-4.929
		C479.714,145.963,487.799,143.196,491.403,139.895z"/>
	<path fill-rule="evenodd" clip-rule="evenodd" fill="#FCD21D" d="M596.273,138.264c8.475-6.232-2.274-19.323-4.887-21.611
		c-4.718-3.504-8.671-5.892-13.274-8.397c-25.141-13.661-36.783-43.91-21.783-68.297c5.459-8.877,7.628-15.258,19.069-21.934
		c17.482-9.537,40.801-5.485,54.569,3.853c7.683,5.215,11.277,12.802,10.204,22.009c-0.556,4.763-2.001,4.459-3.783,8.936
		c-3.104,7.796-5.756,8.732-14.198,6.141c-1.918-0.592-3.79-1.51-5.753-1.772c-7.866-1.059-12.784,1.279-15.138,6.946
		c-2.681,6.457-0.764,8.769,5.365,13.187c4.256,3.07,9.1,5.322,13.55,8.152c11.917,7.584,21.344,17.452,26.946,30.57
		c7.143,16.719,1.843,42.246-10.882,55.306c-15.898,16.312-39.74,20.941-59.224,15.456c-8.488-2.386-16.325-7.132-24.386-10.957
		c-5.288-2.515-8.201-6.644-7.13-12.73c1.042-5.964,6.886-17.138,8.716-22.876c2.869-9.022,10.235-9.379,17.048-4.929
		C584.584,144.333,592.669,141.565,596.273,138.264z"/>
	<path fill-rule="evenodd" clip-rule="evenodd" fill="#FCD21D" d="M752.332,144.895c8.476-6.232-2.274-19.323-4.887-21.611
		c-4.719-3.504-8.671-5.893-13.273-8.397c-25.141-13.662-36.784-43.91-21.783-68.298c5.458-8.877,7.628-15.256,19.068-21.931
		c17.483-9.537,40.802-5.486,54.569,3.853c7.683,5.214,11.277,12.801,10.204,22.009c-0.557,4.762-2,4.459-3.783,8.936
		c-3.104,7.796-5.757,8.731-14.198,6.141c-1.917-0.592-3.79-1.511-5.753-1.773c-7.866-1.058-12.784,1.28-15.139,6.946
		c-2.681,6.458-0.763,8.769,5.367,13.186c4.255,3.072,9.098,5.323,13.548,8.154c11.917,7.583,21.345,17.45,26.946,30.568
		c7.144,16.72,1.843,42.246-10.882,55.306c-15.898,16.311-39.74,20.942-59.223,15.457c-8.489-2.388-16.326-7.132-24.386-10.957
		c-5.29-2.515-8.203-6.645-7.132-12.73c1.042-5.965,6.887-17.139,8.717-22.877c2.869-9.021,10.234-9.379,17.047-4.929
		C740.643,150.963,748.728,148.196,752.332,144.895z"/>
	<g>
		<path fill-rule="evenodd" clip-rule="evenodd" fill="#FCD21D" d="M943.904,189.984c-13.213,1.976-14.188,2.875-25.287,3.433
			c-18.921,0.927-26.672-4.694-29.74-20.096c-1.435-7.182-2.004-14.476-3.214-23.506c-7.063,0.348-13.517,0.669-22.075,1.099
			c-0.883,9.546-1.3,18.26-2.581,26.879c-1.732,11.63-9.907,16.868-26.347,17.7c-16.322,0.828-26.031-3.677-29.907-14.28
			c-1.052-2.873-1.939-6.29-1.104-9.059c9.641-31.822,18.74-63.793,29.983-95.194c4.012-11.201,12.646-21.476,20.721-31.275
			c4.787-5.82,11.926-10.763,19.184-14.584c13.247-6.941,28.894-4.572,38.562,5.947c5.196,5.657,9.854,12.522,11.576,19.364
			c9.038,35.883,17.099,71.916,25.403,107.92C950.707,171.394,960.378,188.211,943.904,189.984z"/>
		<path fill-rule="evenodd" clip-rule="evenodd" fill="#DCEBF4" d="M873.38,116.374c-11.407-0.316-16.301-4.168-14.562-13.421
			c1.21-6.454,4.166-12.865,7.656-18.73c3.227-5.435,10.744-5.693,13.826-0.268c4.29,7.53,7.59,15.697,9.353,23.878
			C890.98,113.986,884.739,116.7,873.38,116.374z"/>
	</g>
	<path fill-rule="evenodd" clip-rule="evenodd" fill="#FCD21D" d="M960.695,177.229c-1.1-19.929-1.994-39.875-3.464-59.777
		c-1.632-22.113-3.804-44.186-5.75-66.272c-0.193-2.206-0.695-4.413-0.661-6.615c0.138-8.75,2.961-12.979,11.543-15.262
		c7.108-1.89,14.467-3.337,21.787-3.812c22.082-1.429,44.195-2.46,66.313-3.269c8.112-0.293,11.336,2.604,12.878,10.578
		c1.113,5.792,1.846,11.703,2.208,17.594c0.535,8.61-1.854,11.016-10.519,11.939c-14.31,1.532-28.607,3.093-42.892,4.788
		c-2.493,0.294-4.903,1.308-8.607,2.339c1.014,6.615,0.823,14.402,1.923,21.547c9.257,0.281,9.257,0.281,17.56-0.194
		c8.003-0.099,10.824-0.15,17.626-0.529c8.268-0.461,13.171-0.362,14.838,5.427c2.021,6.294,2.468,12.3,3.75,18.821
		c1.035,5.272-1.489,8.728-6.431,10.007c-4.984,1.293-10.14,1.944-15.222,2.866c-7.634,1.384-15.259,2.768-22.893,4.138
		c-6.139,1.104-8.653,0.145-8.42,6.332c0.397,10.708,0.295,21.435,0.762,32.138c0.519,11.862-2.398,16.542-14.056,18.504
		c-6.856,1.158-14.001,0.548-21.01,0.837c-5.331,0.217-9.316-2.054-10.592-5.282C961.368,184.072,960.881,180.566,960.695,177.229z"
		/>
	<path fill-rule="evenodd" clip-rule="evenodd" fill="#FCD21D" d="M1125.12,151.362c12.356,0.737,23.236,1.492,34.125,1.994
		c8.265,0.371,15.778,3.926,17.058,10.966c1.283,7.113-1.013,15.122-3.312,22.298c-0.732,2.303-6.393,4.324-9.949,4.559
		c-21.769,1.442-43.579,3.148-65.378,3.152c-17.43,0.004-26.52-8.375-27.788-25.035c-1.554-20.326-2.172-40.771-1.86-61.152
		c0.252-16.706,2.341-33.391,3.861-50.069c0.407-4.445,1.525-8.864,2.655-13.223c2.636-10.134,9.83-15.827,20.417-18.636
		c18.93-5.015,37.945-4.364,57.059-1.46c11.687,1.776,15,4.87,16.837,15.428c2.465,14.182-3.714,22.71-18.888,24.66
		c-8.548,1.09-17.283,0.841-26.69,1.229c0,8.153,0,15.542,0,24.148c9.008,0,16.782-0.167,24.545,0.041
		c10.787,0.285,14.02,3.003,15.759,12.648c0.074,0.402,0.121,0.81,0.179,1.216c3.159,22.118-4.855,23.257-27.259,25.762
		c-2.986-0.365-8.203,1.068-11.741,0.77C1124.171,139.631,1124.055,143.326,1125.12,151.362z"/>
</g>
</svg>
