<?xml version="1.0" encoding="utf-8"?>
<!-- Generator: Adobe Illustrator 16.0.4, SVG Export Plug-In . SVG Version: 6.00 Build 0)  -->
<!DOCTYPE svg PUBLIC "-//W3C//DTD SVG 1.0//EN" "http://www.w3.org/TR/2001/REC-SVG-20010904/DTD/svg10.dtd">
<svg version="1.0" id="Layer_1" xmlns="http://www.w3.org/2000/svg" xmlns:xlink="http://www.w3.org/1999/xlink" x="0px" y="0px"
	 width="408px" height="207px" viewBox="0 0 408 207" enable-background="new 0 0 408 207" xml:space="preserve">
<g display="none">
	
		<rect x="-1491.212" y="-751.885" transform="matrix(1 -0.0014 0.0014 1 -0.0229 -0.5522)" display="inline" fill-rule="evenodd" clip-rule="evenodd" fill="#E9F8FF" width="2190.991" height="1536"/>
</g>
<image display="none" overflow="visible" opacity="0.4" width="442" height="418" xlink:href="3FB88EA0F65393C8.png"  transform="matrix(4.6816 0 0 4.6816 -1461.1353 -650.9058)">
</image>
<g>
	<g>
		<path fill-rule="evenodd" clip-rule="evenodd" fill="#F47527" d="M87.708,202.789c-19.325,0-22.97-1.693-42.305-1.758
			c-4.099-0.013-8.205-0.338-12.301-0.625c-12.201-0.854-22.204-8.706-24.936-19.988C5.256,168.379,2.899,43.297,9.213,29.436
			C10.481,17.58,13.3,15.93,21.208,10.409c12.592-3.96,21.02-1.943,31.62-2.586c61.854-0.866,96.828,1.026,166.64-0.656
			c34.787,1.337,41.168-0.477,66.9,0c30.881-0.21,81.52-0.408,85.548,0.29c26.577,2.016,30.848,8.875,30.793,40.414
			c0.165,13.185,0.798,20.633,0.022,33.808c0.378,31.115-0.584,49.48,0.378,79.125c-0.394,5.569,0.426,12.002-0.539,17.535
			c0.193,16.958-6.988,24.449-29.144,22.878c-7.647,1.5-29.451,0.812-43.173,0.239c-43.74,0.573-51.609,0.725-94.065,0.146
			C198.681,202.679,87.714,202.61,87.708,202.789z"/>
		<g>
			<path fill-rule="evenodd" clip-rule="evenodd" fill="#FFFFFF" d="M124.625,118.502c-0.083,1.506-0.116,5.997-0.116,10.649
				c0.043,1.403-0.013,2.763,0.007,4.045c0.103,5.592-0.866,7.303-6.353,7.344c-2.951,0.021-5.905-0.224-8.854-0.165
				c-2.429,0.049-4.676-1.166-5.423-3.335c-0.951-2.764-0.104-5.659-0.292-8.548c0-10.196,0-17.62,0-26.366
				c0-6.793,0-14.071,0.15-20.917c-0.142-1.409,0.142-3.065-0.15-4.44c0-4.44,1.469-7.004,5.817-7.715
				c2.88-0.471,5.89-0.635,8.806-0.423c3.757,0.272,5.278,2.104,5.74,5.972c0.455,3.796,0.444,8.012,0.551,11.676
				c1.022,6.529-0.883,7.059,6.263,7.289c3.248-0.247,6.482,0.137,6.036-3.98c-0.264-3.977,0.117-7.681-0.116-11.718
				c0.343-6.375,1.332-6.652,4.354-7.372c2.954-0.686,4.984-0.667,8.009-0.464c4.362,0.294,6.168,2.365,6.625,6.781
				c0.628,6.057-0.076,12.121-0.076,18.107c0,11.521,0,23.374-0.06,35.004c0.06,2.02,0.06,4.314,0.06,6.782
				c0,2.519-1.549,4.373-4.173,4.556c-3.056,0.213-7.213,0.324-10.259,0.057c-2.686-0.235-4.687-2.143-4.687-4.785
				c0-5.169,0-8.604,0-13.035c-0.034-1.273,0.178-4.045,0-4.873c0-3.766-0.479-4.449-6.373-3.987
				C127.496,114.845,124.673,114.695,124.625,118.502z"/>
			<path fill-rule="evenodd" clip-rule="evenodd" fill="#FFFFFF" d="M164.152,107.2c0.152-6.864,1.605-13.787,5.892-20.153
				c8.034-11.927,24.664-19.135,42.323-10.996c3.352,1.544,6.489,4.736,8.442,7.962c6.961,11.495,9.414,23.958,4.081,36.76
				c-4.538,13.28-21.272,22.411-38.929,18.117c-7.127-2.776-8.59-4.262-14.736-10.873C167.45,123.956,163.615,113.302,164.152,107.2
				z M201.425,108.59c-0.16-1.351,0.429-2.165-1.453-5.609c-3.146-4.023-7.787-4.837-10.909-0.102
				c-2.187,3.312-1.534,8.577,1.442,11.359c2.048,1.913,4.319,2.466,6.974,1.23C200.06,114.27,201.38,112.333,201.425,108.59z"/>
			<path fill-rule="evenodd" clip-rule="evenodd" fill="#FFFFFF" d="M275.387,123.084c-4.152,14.489-10.397,17.883-20.823,16.573
				c-4.986-0.624-8.966-6.578-10.849-11.678c-1.448-3.923-2.558-7.992-3.743-12.019c-2.155-7.341-5.938-16.619-8.181-23.929
				c-1.054-3.431-2.515-6.715-3.76-10.077c-1.465-3.965-0.781-5.771,2.758-7.591c4.62-2.374,9.508-3.618,14.6-4.066
				c3.142-0.275,5.685,0.932,6.973,3.992c2.017,4.8,3.732,9.739,5.522,14.64c0.453,1.244,2.491,8.228,3.028,10.189
				c0.834-1.283,4.449-5.773,7.672-7.474c4.376-2.306,11.776-1.653,16.508,0.578c2.496,1.181,3.727,2.943,5.615,5.732
				c0.648-3.325,1.404-10.405,1.912-13.76c0.539-3.559,0.789-7.173,1.26-10.752c0.393-2.976,1.69-4.495,4.504-5.033
				c4.521-0.182,9.288-0.519,13.654,1.828c2.447,1.315,3.275,2.369,2.67,5.714c-0.961,5.307-1.798,9.677-2.495,14.536
				c-1.455,10.118-2.618,20.291-4.164,30.393c-0.8,5.235-2.591,10.146-5.973,14.228c-2.924,3.53-6.63,5.027-10.917,4.549
				C283.323,139.724,279.126,132.169,275.387,123.084z"/>
		</g>
	</g>
</g>
</svg>
