<?xml version="1.0" encoding="utf-8"?>
<!-- Generator: Adobe Illustrator 16.0.4, SVG Export Plug-In . SVG Version: 6.00 Build 0)  -->
<!DOCTYPE svg PUBLIC "-//W3C//DTD SVG 1.0//EN" "http://www.w3.org/TR/2001/REC-SVG-20010904/DTD/svg10.dtd">
<svg version="1.0" id="Layer_1" xmlns="http://www.w3.org/2000/svg" xmlns:xlink="http://www.w3.org/1999/xlink" x="0px" y="0px"
	 width="408px" height="207px" viewBox="0 0 408 207" enable-background="new 0 0 408 207" xml:space="preserve">
<g display="none">
	
		<rect x="-1491.212" y="-1061.885" transform="matrix(1 -0.0014 0.0014 1 0.4098 -0.5525)" display="inline" fill-rule="evenodd" clip-rule="evenodd" fill="#E9F8FF" width="2190.991" height="1536"/>
	<g display="inline">
		<g>
			<path fill-rule="evenodd" clip-rule="evenodd" fill="#53891F" d="M-202.638,137.762c15.116,26.928-26.675-170.627-19.179-172.23
				c14.951-3.197,71.774-20.105,86.721-16.166c12.617,3.325,24.825,8.524,36.806,13.842c3.582,1.592,5.675,1.838,8.844-0.031
				C-68.839-48.973-46.743-56.47-22.8-57.98c14.248-0.9,28.207,1.328,41.445,6.21c16.075,5.929,31.643,13.253,47.542,19.693
				c2.41,0.979,5.452,0.784,8.152,0.545c7.818-0.688,15.914-0.626,23.344-2.782c12.603-3.653,24.684-9.059,37.146-13.236
				c22.092-7.408,44.55-8.791,67.704-5.209c18.382,2.844,36.602,5.818,52.947,15c10.448,5.871,20.004,13.352,29.749,19.969
				c8.68-6.648,17.988-14.762,28.232-21.402c17.873-11.585,37.764-16.744,59.044-18.674c23.89-2.165,45.812,3.369,67.106,12.92
				c13.508,6.052,26.2,13.671,36.771,24.316c2.6,2.615,4.437,1.924,7.402,0.438c18.666-9.354,36.914-20.021,56.43-27.08
				c26.784-9.685,54.868-8.939,82.854-4.22c19.714,3.323,38.603,8.673,55.509,19.817c1.472,0.971,3.293,1.793,4.204,3.182
				c5.114,7.791,10.415,4.733,16.55,1.179c31.491-18.259,65.317-24.479,101.083-18.006c17.011,3.079,33.228,8.643,46.446,20.849
				c1.4,1.291,4.802,1.331,6.914,0.709c8.825-2.596,17.383-6.184,26.286-8.436c12.958-3.277,25.706-0.251,38.394,2.678
				c15.308,3.531,27.132,13.289,38.969,22.6c9.4,7.398,15.261,18.275,17.704,29.782c3.701,17.476,5.74,35.33,7.952,53.089
				c0.518,4.184-0.551,8.824-1.894,12.922c-1.475,4.51,0.076,7.377,2.619,10.828c11.027,14.955,11.431,38.51-2.595,51.035
				c-2.662,2.375-6.292,3.939-9.741,4.986c-1.509,0.461-4.641-0.855-5.31-2.223C965.459,152.064-207.131,139.17-202.638,137.762z"/>
			<path fill-rule="evenodd" clip-rule="evenodd" fill="#88A80D" d="M-778.654,135.049c15.117,26.928-26.675-170.626-19.179-172.229
				c14.95-3.198,71.774-20.106,86.721-16.167c12.616,3.326,24.825,8.525,36.806,13.842c3.582,1.592,5.675,1.838,8.844-0.031
				c20.607-12.148,42.703-19.646,66.646-21.156c14.248-0.899,28.207,1.329,41.445,6.211c16.074,5.928,31.643,13.253,47.543,19.693
				c2.41,0.979,5.451,0.783,8.15,0.545c7.82-0.689,15.914-0.627,23.346-2.783c12.602-3.652,24.682-9.058,37.146-13.236
				c22.092-7.408,44.549-8.79,67.703-5.209c18.381,2.845,36.602,5.818,52.947,15c10.448,5.872,20.004,13.352,29.75,19.969
				c8.678-6.648,17.987-14.762,28.231-21.402c17.874-11.584,37.764-16.743,59.044-18.673c23.891-2.165,45.812,3.368,67.105,12.919
				c13.509,6.053,26.201,13.672,36.772,24.316c2.6,2.615,4.437,1.925,7.402,0.438c18.666-9.354,36.914-20.021,56.43-27.08
				c26.784-9.684,54.868-8.938,82.854-4.219c19.714,3.322,38.603,8.672,55.509,19.817c1.472,0.97,3.293,1.792,4.204,3.181
				c5.114,7.791,10.415,4.734,16.55,1.18c31.491-18.26,65.317-24.479,101.083-18.006c17.011,3.078,33.228,8.643,46.446,20.848
				c1.4,1.291,4.802,1.332,6.914,0.71c8.825-2.596,17.384-6.185,26.286-8.437c12.958-3.277,25.706-0.25,38.395,2.678
				c15.307,3.531,27.131,13.289,38.969,22.601c9.399,7.398,15.26,18.275,17.703,29.782c3.701,17.476,5.74,35.33,7.952,53.088
				c0.518,4.184-0.551,8.824-1.894,12.922c-1.475,4.51,0.076,7.377,2.619,10.828c11.027,14.955,11.431,38.51-2.595,51.037
				c-2.662,2.373-6.292,3.939-9.741,4.986c-1.509,0.459-4.641-0.855-5.31-2.225C389.442,149.352-783.148,136.457-778.654,135.049z"
				/>
			<path fill-rule="evenodd" clip-rule="evenodd" fill="#437419" d="M-692.364,162.584c-0.669,1.369-3.801,2.684-5.31,2.225
				c-3.449-1.047-7.079-2.613-9.741-4.986c-14.025-12.527-13.622-36.082-2.595-51.037c2.543-3.451,4.094-6.318,2.619-10.828
				c-1.343-4.098-2.411-8.738-1.894-12.922c2.212-17.76,4.251-35.613,7.952-53.089c2.443-11.506,8.304-22.383,17.703-29.782
				c11.838-9.311,23.662-19.068,38.969-22.6c12.688-2.929,25.437-5.955,38.395-2.678c8.902,2.252,17.461,5.84,26.286,8.436
				c2.112,0.622,5.514,0.582,6.914-0.709c13.219-12.206,29.436-17.77,46.446-20.849c35.766-6.474,69.592-0.253,101.083,18.006
				c6.135,3.555,11.436,6.612,16.55-1.179c0.911-1.389,2.732-2.211,4.204-3.182c16.906-11.145,35.795-16.494,55.509-19.817
				c27.985-4.72,56.069-5.465,82.854,4.22c19.516,7.059,37.765,17.726,56.43,27.08c2.966,1.486,4.802,2.178,7.402-0.438
				c10.571-10.646,23.264-18.265,36.772-24.316c21.294-9.551,43.215-15.085,67.105-12.92c21.28,1.93,41.171,7.089,59.044,18.674
				c10.244,6.641,19.553,14.754,28.232,21.402c9.745-6.617,19.301-14.098,29.749-19.969c16.346-9.182,34.565-12.156,52.947-15
				c23.154-3.582,45.612-2.199,67.704,5.209c12.463,4.178,24.544,9.583,37.146,13.236c7.43,2.156,15.525,2.094,23.344,2.782
				c2.7,0.239,5.742,0.435,8.152-0.545c15.899-6.44,31.467-13.765,47.542-19.693c13.238-4.882,27.197-7.11,41.446-6.21
				c23.941,1.51,46.039,9.007,66.645,21.156c3.17,1.869,5.262,1.623,8.846,0.031c11.98-5.317,24.188-10.517,36.805-13.842
				c14.946-3.939,30.22-1.346,45.17,1.852c7.496,1.603,7.256,213.472,22.372,186.544
				C480.928,148.256-691.662,161.15-692.364,162.584z"/>
			<path fill-rule="evenodd" clip-rule="evenodd" fill="#88A80D" d="M432.325-1.041c16.424-7.852,22.482,148.267-41.013,133.898
				c-45.661-10.34-243.619-33.205-238.353-37.678c-3.149-2.58-6.041-5.082-9.107-7.418c-21.538-16.422-25.686-36.546-10.833-53.977
				c12.547-14.718,30.879-23.9,52.208-29.032c21.213-5.108,40.756,3.917,59.15,13.677c11.754,6.233,11.709,6.281,14.471-3.337
				c12.065-42.206,48.022-69.127,111.701-59.892C399.021-40.675,417.117-28.113,432.325-1.041z"/>
			<path fill-rule="evenodd" clip-rule="evenodd" fill="#437419" d="M330.743,134.348c-2.73,1.6-4.702,2.754-7.527,4.41
				c-28.362-2.84-46.346-30.393-44.318-62.025c2.051-31.958,21.404-48.998,58.358-53.44c0.579-4.242,0.591-8.776,1.884-12.971
				c3.854-12.525,12.512-22.359,22.744-30.862c17.562-14.604,38.143-24.505,62.018-24.136c25.675,0.396,50.016,6.355,67.932,25.453
				c2.524,2.689,4.767,5.599,7.141,8.406C520.87-31.144,545.93-42.529,574.418-44.2c30.171-1.771,60.157,1.401,84.228,21.53
				c3.719,3.107,6.203,1.964,8.237-0.814c18.147-24.822,46.87-31.383,75.904-37.037c19.519-3.803,39.329-6.094,59.36-3.902
				c33.055,3.615,60.785,16.927,83.423,39.313c2.591,2.563,5.075,5.214,7.711,7.929c13.31-19.459,34.619-27.234,56.792-33.369
				c41.148-11.384-43.754,174.16-47.447,174.003C889.542,122.895,328.236,131.326,330.743,134.348z"/>
		</g>
	</g>
	<path display="inline" fill-rule="evenodd" clip-rule="evenodd" fill="#88A80D" d="M-1492.532,57
		c21.262,1.407,98.839,2.913,118.153,4.305c10.656,0.772,1087.662,5.158,1104.884,4.029c9.279-0.619,245.212,2.812,285.66,3.324
		c35.07,0.45,70.128-3.337,105.205-3.914c17.188-0.269,488.3,9.802,521.222,7.33c15.479-1.173,38.056,0.185,53.36,1.589
		c7.607,0.7,24.217,662.677,4.014,641.695c-53.127,4.4-2158.601-12.481-2190.215-17.653
		C-1491.396,616.104-1493.765,224.622-1492.532,57z"/>
	<path display="inline" fill-rule="evenodd" clip-rule="evenodd" fill="#C6C6C6" d="M-1492.405,145.885
		c21.262,1.407,98.839,1.913,118.153,3.304c10.656,0.773,1087.662,8.159,1104.884,7.03c9.279-0.619,245.212,2.812,285.66,3.324
		c35.07,0.45,70.127-3.337,105.205-3.914c17.188-0.269,488.3,9.802,521.222,7.33c15.479-1.173,38.056,0.185,53.36,1.589
		c7.607,0.7,24.217,662.677,4.014,641.694c-53.127,4.4-2158.601-12.48-2190.215-17.652
		C-1491.269,706.988-1493.638,313.507-1492.405,145.885z"/>
	<path display="inline" fill-rule="evenodd" clip-rule="evenodd" fill="#515151" d="M-1492.334,196.585
		c21.262,1.407,98.838,1.913,118.153,3.304c10.656,0.773,1087.661,8.159,1104.885,7.03c9.279-0.619,245.212,2.812,285.659,3.324
		c35.07,0.45,70.128-3.337,105.205-3.914c17.188-0.269,488.3,9.802,521.222,7.33c15.48-1.173,38.056,0.185,53.361,1.589
		c7.607,0.7,24.216,662.677,4.014,641.695c-53.127,4.4-2158.601-12.481-2190.215-17.652
		C-1491.198,757.688-1493.567,364.207-1492.334,196.585z"/>
</g>
<image display="none" overflow="visible" opacity="0.4" width="442" height="418" xlink:href="3FC0F9ADB061E813.png"  transform="matrix(4.6816 0 0 4.6816 -1461.1353 -960.9058)">
</image>
<g display="none">
	<g display="inline">
		<g>
			<path fill-rule="evenodd" clip-rule="evenodd" fill="#0164C0" d="M543.058,363.652c-1.241-2.568-2.57-5.09-3.954-7.55
				c-4.045-7.197-8.712-14.527-14.76-19.955c-6.956-11.325-41.691-12.432-53.793-7.063c-51.769,11.403-51.406,75.561-51.406,75.561
				s-341.819,11.15-342.428,8.404c-5.355-24.147-20.007-59.564-31.211-67.615c-8.347-5.998-17.456-11.242-27.957-11.439
				c-16.252-0.308-31.117,4.52-44.42,14.229c-13.434,9.805-22.062,22.193-27.427,36.346l-115.076-0.49
				c-17.553-23.501-14.239-50.348-10.638-76.73c0.589-4.299,0.974-7.906,3.855-19.28c5.077-20.038,22.463-45.306,39.316-57.478
				c29.121-19.183,61.803-26.263,95.71-29.831c5.001-0.526,10.211-1.169,14.798-3.045c7.975-3.264,14.906-7.704,18.171-16.853
				c9.605-26.925,18.706-54.118,30.122-80.284c12.395-28.401,25.076-56.018,42.648-81.58C75.532,3.112,80.828-0.86,100.192-6.492
				c14.792-3.032,29.92-5.375,44.979-5.951c36.115-1.385,72.274-1.732,108.421-2.095c9.395-0.094,18.868,0.829,28.19,2.117
				c13.616,1.88,20.249,7.809,24.843,18.721c4.012,9.388,3.241,36.804,4.894,60.029c0.597,24.357,1.992,44.415,1.654,62.554
				c-0.359,19.369-0.182,36.502-0.33,55.871c-0.099,12.947,2.142,15.145,15.089,14.653c18.269-0.694,31.247,0.062,55.243-0.909
				c34.768-1.212,69.545-2.328,104.326-2.823c47.624-0.679,95.562-0.432,143.191-0.485c9.691,0.169,15.973-0.037,25.596,0.883
				c5.498,0.525,10.591,4.743,11.377,10.319c0.979,14.725,0.72,29.447,1.344,44.158c0.902,21.302,3.041,42.605,2.772,63.885
				c-0.198,15.66,1.553,33.825-8.103,46.355L543.058,363.652z"/>
		</g>
		<path fill-rule="evenodd" clip-rule="evenodd" d="M96.644,195.607c0.011,0.306,27.294-0.217,40.889-1.25
			c23.231-1.766,46.428-3.998,69.654-5.822c5.035-0.395,6.446-2.273,6.371-7.424c-0.448-30.396-0.574-60.799-0.579-91.199
			c-0.003-21.16,0.372-42.322,0.562-63.483c0.042-4.647-0.84-9.179-5.931-10.536c-4.172-1.11-8.649-1.425-12.996-1.459
			c-12.785-0.105-25.687-0.938-38.33,0.451c-16.53,1.815-33.913,2.868-49.03,8.962C83.727,33.333,69.118,53.59,58.745,76.34
			c-5.554,12.183-10.606,24.682-14.724,37.414c-7.956,24.607-14.977,49.514-22.63,74.221c-2.1,6.778,1.597,7.615,6.627,7.621
			C50.894,195.622,73.769,195.607,96.644,195.607z"/>
		<path fill-rule="evenodd" clip-rule="evenodd" d="M294.689,89.9c0.138-0.012,0.273-0.023,0.41-0.036
			c-1.129-19.327-2.286-38.652-3.373-57.981c-0.536-9.542-2.623-12.465-12.395-13.381c-11.314-1.06-22.722-1.255-34.096-1.492
			c-9.543-0.199-10.199,0.578-10.119,10.012c0.301,35.176,0.574,70.354,1.031,105.527c0.221,17.163,0.843,34.321,1.242,51.481
			c0.135,5.824,3.312,8.034,8.833,8.281c10.115,0.452,20.213,1.322,30.326,1.81c19.546,0.94,20.621,0.019,20.246-19.733
			C296.258,146.224,295.407,118.062,294.689,89.9z"/>
		<g>
			<path fill-rule="evenodd" clip-rule="evenodd" fill="#DCEBF4" d="M28.019,195.596c-5.03-0.006-8.727-0.843-6.627-7.621
				c7.653-24.707,14.674-49.613,22.63-74.221c4.117-12.732,9.17-25.231,14.724-37.414c10.373-22.75,24.999-51.118,48.527-60.604
				c15.116-6.095,32.499-7.147,49.03-8.962c12.643-1.388,25.544-0.556,38.33-0.451c4.346,0.035,8.823,0.349,12.996,1.46
				c5.091,1.356,5.973,5.888,5.93,10.536c-0.189,21.161-0.583,50.435-0.58,71.595c0.005,30.4,0.131,67.43,0.579,97.827
				c0.075,5.149-1.336,7.028-6.371,7.424c-30.044,1.964-51.062,1.177-75.72,1.177c-17.707,0.184-37.4-0.617-52.294-0.434
				C79.162,195.602,50.894,195.622,28.019,195.596z"/>
			<path fill-rule="evenodd" clip-rule="evenodd" fill="#DCEBF4" d="M296.851,88.504c0.716,28.163-0.593,57.72-0.055,85.885
				c0.375,19.752,0.179,23.117-19.367,22.178c-12.908,0.141-18.204,0.207-31.547-0.043c-5.524-0.104-8.698-2.457-8.833-8.281
				c-0.397-17.16-0.68-38.529-0.9-55.692c-0.457-35.174-0.527-80.94-0.826-116.116C235.242,7,235.896,6.222,245.438,6.421
				c11.374,0.237,30.605-1.084,41.919-0.024c9.772,0.916,7.225,4.842,7.762,14.383C296.206,40.11,296.851,88.504,296.851,88.504z"/>
		</g>
	</g>
</g>
<g>
	<g>
		<path fill-rule="evenodd" clip-rule="evenodd" fill="#F47527" d="M87.708,201.93c-19.327,0-22.971-1.693-42.305-1.758
			c-4.101-0.013-8.206-0.338-12.303-0.624c-12.201-0.854-22.204-8.706-24.935-19.988C5.256,167.52,2.898,42.438,9.213,28.576
			C10.481,16.721,13.3,15.07,21.206,9.55C33.8,5.59,42.228,7.606,52.826,6.964c61.855-0.865,96.83,1.026,166.641-0.655
			c34.788,1.337,41.169-0.477,66.899,0c30.881-0.21,81.52-0.408,85.55,0.29c26.576,2.017,30.847,8.875,30.793,40.414
			c0.163,13.185,0.796,20.633,0.021,33.808c0.377,31.115-0.583,49.48,0.377,79.125c-0.394,5.569,0.428,12.003-0.537,17.535
			c0.192,16.958-6.988,24.449-29.146,22.878c-7.646,1.5-29.451,0.812-43.171,0.239c-43.74,0.573-51.611,0.725-94.065,0.146
			C198.681,201.819,87.713,201.751,87.708,201.93z"/>
		<g>
			<g>
				
					<path fill-rule="evenodd" clip-rule="evenodd" fill="#FFFFFF" stroke="#FFFFFF" stroke-width="1.5301" stroke-miterlimit="10" d="
					M109.278,120.208c-0.159,2.731-0.302,5.181-0.445,7.635c-0.146,2.463-0.137,4.95-0.476,7.389
					c-0.561,4.07-2.248,7.713-6.632,8.815c-7.793,0.752-9.127,1.152-15.739-2.604c-1.375-2.863-1.675-7.401-1.861-9.607
					c-1.275-14.94-2.586-29.883-4.269-44.78c-0.664-5.888,1.375-10.28,5.266-14.317c11.489-11.924,37.911-12.817,48.521,4.441
					c4.37,7.111,5.926,14.852,4.017,22.982c-1.877,7.997-7.271,13.27-14.751,16.187
					C118.702,117.986,114.191,118.844,109.278,120.208z M105.928,116.529c2.267-0.413,3.953-0.594,5.568-1.036
					c3.83-1.049,7.812-1.806,11.397-3.424c8.418-3.793,12.354-10.522,11.83-18.973c-0.745-12.124-7.409-19.713-17.306-23.041
					c-12.204-4.105-25.131-0.258-31.945,8.784c-1.809,2.402-2.445,4.854-2.028,7.949c0.837,6.2,1.132,12.473,1.727,18.701
					c1.027,10.743,2.109,21.474,3.164,32.148c0.951,0.496,1.752,1.02,2.624,1.352c8.483,3.255,13.99-0.432,14.229-9.378
					C105.305,125.286,105.67,120.967,105.928,116.529z"/>
				
					<path fill-rule="evenodd" clip-rule="evenodd" fill="#FFFFFF" stroke="#FFFFFF" stroke-width="1.3727" stroke-miterlimit="10" d="
					M105.928,116.529c-0.258,4.438-0.623,8.757-0.739,13.083c-0.239,8.946-5.746,12.633-14.229,9.378
					c-0.872-0.332-1.673-0.855-2.624-1.352c-1.055-10.675-2.137-21.405-3.164-32.148c-0.595-6.229-0.89-12.501-1.727-18.701
					c-0.417-3.096,0.22-5.547,2.028-7.949c6.814-9.042,19.741-12.89,31.945-8.784c9.896,3.328,16.561,10.917,17.306,23.041
					c0.523,8.45-3.412,15.18-11.83,18.973c-3.585,1.618-7.567,2.375-11.397,3.424C109.881,115.936,108.194,116.116,105.928,116.529z
					 M102.37,94.558c0.563,4.88,2.318,6.365,6.961,5.284c4.239-0.992,8.592-5.777,7.779-9.907c-0.524-2.687-2.679-5.478-4.868-7.302
					c-2.137-1.783-5.066-0.991-7.215,1.013C101.623,86.341,101.672,88.505,102.37,94.558z"/>
				<path fill-rule="evenodd" clip-rule="evenodd" fill="none" d="M97.601,87.644c0.916-1.009,1.866-2.207,2.975-3.242
					c1.96-1.827,4.632-2.55,6.581-0.923c1.997,1.664,3.961,4.211,4.441,6.661c0.74,3.769-3.23,8.132-7.098,9.037
					c-4.233,0.986-5.993-0.355-6.35-4.821C97.979,92.194,97.799,90.031,97.601,87.644z"/>
			</g>
			<g>
				<path fill-rule="evenodd" clip-rule="evenodd" fill="#FFFFFF" d="M271.12,144.582c-6.255,0.821-6.721,1.237-11.966,1.405
					c-8.939,0.272-12.551-2.447-13.867-9.743c-0.614-3.404-0.822-6.853-1.316-11.125c-3.337,0.103-6.384,0.199-10.426,0.328
					c-0.499,4.499-0.774,8.606-1.453,12.665c-0.918,5.477-4.82,7.879-12.591,8.127c-7.71,0.252-12.254-1.956-13.994-6.997
					c-0.472-1.364-0.86-2.986-0.441-4.286c4.824-14.938,9.396-29.953,14.974-44.677c1.99-5.256,6.154-10.032,10.052-14.588
					c2.309-2.704,5.723-4.976,9.18-6.719c6.313-3.163,13.68-1.908,18.154,3.141c2.403,2.713,4.544,5.997,5.297,9.24
					c3.958,17.018,7.45,34.096,11.062,51.163C274.492,135.865,278.914,143.888,271.12,144.582z"/>
				
					<path fill-rule="evenodd" clip-rule="evenodd" fill="#F47527" stroke="#F47527" stroke-width="1.0755" stroke-miterlimit="10" d="
					M239.777,106.646c-4.552-0.209-6.477-1.782-5.716-5.464c0.53-2.57,1.757-5.108,3.193-7.425c1.328-2.146,4.332-2.194,5.523-0.004
					c1.656,3.036,2.917,6.32,3.561,9.599C246.822,105.821,244.312,106.859,239.777,106.646z"/>
			</g>
			<g>
				<path fill-rule="evenodd" clip-rule="evenodd" fill="#FFFFFF" d="M169.152,66.646c1.539,12.789,0.047,44.492,1.792,56.327
					c1.941-0.055,11.843-0.632,13.892-0.761c1.738-0.109,3.455-0.427,5.195-0.538c7.881-0.512,8.757,0.031,9.586,6.248
					c0.365,2.77,0.72,7.725,0.565,10.492c-0.275,5.008-1.295,5.945-7.449,6.548c-5.777,0.564-19.441,0.517-25.269,0.719
					c-4.064,0.142-8.176,0.204-12.221-0.105c-5.806-0.444-8.345-2.454-8.926-7.106c-0.905-7.253-0.396-14.506-1.129-21.771
					c-0.777-7.716-0.919-36.377-1.818-44.087c-0.457-3.924,0.569-5.147,5.297-5.382C153.685,66.984,163.525,66.884,169.152,66.646z"
					/>
			</g>
			<path fill-rule="evenodd" clip-rule="evenodd" fill="#FFFFFF" d="M312.571,143.535c-1.211-4.527,0.21-16.315,0.255-20.958
				c0.023-2.34-0.098-4.684-0.163-7.438c-2.254,1.251-3.72,1.52-5.566,2.512c-6.991,1.62-10.303,2.192-15.58,0.751
				c-4.628-1.266-8.292-2.117-12.007-5.463c-4.989-4.5-5.612-8.521-5.91-14.898c-0.316-6.902-0.848-14.689-0.936-21.599
				c-0.008-0.596-0.008-1.193,0.067-1.778c0.497-3.891,0.857-5.595,4.653-5.887c2.47-0.193,6.387-0.035,8.853-0.074
				c3.484-0.057,5.27,1.358,6.144,4.811c0.635,2.526,0.764,5.174,1.179,7.76c0.413,2.579,0.806,9.742,1.278,12.308
				c0.087,0.466,0.271,0.917,0.457,1.357c0.734,1.756,4.133,3.171,5.554,3.04c1.188-0.108,4.635-2.16,4.777-3.856
				c0.149-1.77,0.045-8.16,0.052-9.943c0.008-3.093,0.01-6.189,0.095-9.278c0.075-2.662,1.352-4.255,3.98-5.235
				c4.903-1.824,8.711-2.018,13.661-0.624c3.248,0.914,4.467,4.538,4.829,7.932c0.274,2.599,0.266,5.346,0.524,7.946
				c0.563,5.685,0.309,11.523,0.361,17.233c0.079,8.89,0.217,15.829,0.346,23.812c0.15,9.376,0.42,16.076-1.455,18.619
				C326.059,147.234,313.492,146.964,312.571,143.535z"/>
		</g>
	</g>
</g>
</svg>
