<?xml version="1.0" encoding="utf-8"?>
<!-- Generator: Adobe Illustrator 16.0.4, SVG Export Plug-In . SVG Version: 6.00 Build 0)  -->
<!DOCTYPE svg PUBLIC "-//W3C//DTD SVG 1.0//EN" "http://www.w3.org/TR/2001/REC-SVG-20010904/DTD/svg10.dtd">
<svg version="1.0" id="Layer_1" xmlns="http://www.w3.org/2000/svg" xmlns:xlink="http://www.w3.org/1999/xlink" x="0px" y="0px"
	 width="408px" height="207px" viewBox="0 0 408 207" enable-background="new 0 0 408 207" xml:space="preserve">
<g display="none">
	
		<rect x="-1491.212" y="-1349.885" transform="matrix(1 -0.0014 0.0014 1 0.8117 -0.5528)" display="inline" fill-rule="evenodd" clip-rule="evenodd" fill="#E9F8FF" width="2190.991" height="1536"/>
	<path display="inline" fill-rule="evenodd" clip-rule="evenodd" fill="#88A80D" d="M-1492.532-231
		c21.262,1.407,98.839,2.913,118.153,4.305c10.656,0.772,1087.662,5.158,1104.884,4.029c9.279-0.619,245.212,2.812,285.66,3.324
		c35.07,0.45,70.128-3.337,105.205-3.914c17.188-0.269,488.3,9.802,521.222,7.33c15.479-1.173,38.056,0.185,53.36,1.589
		c7.607,0.7,24.217,662.677,4.014,641.695c-53.127,4.4-2158.601-12.481-2190.215-17.653
		C-1491.396,328.104-1493.765-63.378-1492.532-231z"/>
	<path display="inline" fill-rule="evenodd" clip-rule="evenodd" fill="#C6C6C6" d="M-1492.405-142.115
		c21.262,1.407,98.839,1.913,118.153,3.304c10.656,0.773,1087.662,8.159,1104.884,7.03c9.279-0.619,245.212,2.812,285.66,3.324
		c35.07,0.45,70.127-3.337,105.205-3.914c17.188-0.269,488.3,9.802,521.222,7.33c15.479-1.173,38.056,0.185,53.36,1.589
		c7.607,0.7,24.217,662.677,4.014,641.694c-53.127,4.4-2158.601-12.48-2190.215-17.652
		C-1491.269,418.988-1493.638,25.507-1492.405-142.115z"/>
	<path display="inline" fill-rule="evenodd" clip-rule="evenodd" fill="#515151" d="M-1492.334-91.415
		c21.262,1.407,98.838,1.913,118.153,3.304c10.656,0.773,1087.661,8.159,1104.885,7.03c9.279-0.619,245.212,2.812,285.659,3.324
		c35.07,0.45,70.128-3.337,105.205-3.914c17.188-0.269,488.3,9.802,521.222,7.33c15.48-1.173,38.056,0.185,53.361,1.589
		c7.607,0.7,24.216,662.677,4.014,641.695c-53.127,4.4-2158.601-12.481-2190.215-17.652
		C-1491.198,469.688-1493.567,76.207-1492.334-91.415z"/>
</g>
<image display="none" overflow="visible" opacity="0.4" width="442" height="418" xlink:href="3FC964BA6A703C5A.png"  transform="matrix(4.6816 0 0 4.6816 -1461.1353 -1248.9058)">
</image>
<g display="none">
	<g display="inline">
		<g>
			<path fill-rule="evenodd" clip-rule="evenodd" fill="#0164C0" d="M543.058,75.652c-1.241-2.568-2.57-5.09-3.954-7.55
				c-4.045-7.197-8.712-14.527-14.76-19.955c-6.956-11.325-41.691-12.432-53.793-7.063c-51.769,11.403-51.406,75.561-51.406,75.561
				s-341.819,11.15-342.428,8.404c-5.355-24.147-20.007-59.564-31.211-67.615c-8.347-5.998-17.456-11.242-27.957-11.439
				c-16.252-0.308-31.117,4.52-44.42,14.229c-13.434,9.805-22.062,22.193-27.427,36.346l-115.076-0.49
				c-17.553-23.501-14.239-50.348-10.638-76.73c0.589-4.299,0.974-7.906,3.855-19.28c5.077-20.038,22.463-45.306,39.316-57.478
				c29.121-19.183,61.803-26.263,95.71-29.831c5.001-0.526,10.211-1.169,14.798-3.045c7.975-3.264,14.906-7.704,18.171-16.853
				c9.605-26.925,18.706-54.118,30.122-80.284c12.395-28.401,25.076-56.018,42.648-81.58c10.923-15.887,16.219-19.858,35.583-25.49
				c14.792-3.032,29.92-5.375,44.979-5.951c36.115-1.385,72.274-1.732,108.421-2.095c9.395-0.094,18.868,0.829,28.19,2.117
				c13.616,1.88,20.249,7.809,24.843,18.721c4.012,9.388,3.241,36.804,4.894,60.029c0.597,24.357,1.992,44.415,1.654,62.554
				c-0.359,19.369-0.182,36.502-0.33,55.871c-0.099,12.947,2.142,15.145,15.089,14.653c18.269-0.694,31.247,0.062,55.243-0.909
				c34.768-1.212,69.545-2.328,104.326-2.823c47.624-0.679,95.562-0.432,143.191-0.485c9.691,0.169,15.973-0.037,25.596,0.883
				c5.498,0.525,10.591,4.743,11.377,10.319c0.979,14.725,0.72,29.447,1.344,44.158c0.902,21.302,3.041,42.605,2.772,63.885
				c-0.198,15.66,1.553,33.825-8.103,46.355L543.058,75.652z"/>
		</g>
		<polygon fill-rule="evenodd" clip-rule="evenodd" fill="#F4F4F2" points="429.568,123.32 81.601,130.159 81.601,123.98 
			428.023,116.48 		"/>
		<path fill-rule="evenodd" clip-rule="evenodd" fill="#0A0042" d="M211.603-68.635c4.265-27.266,7.229,196.097,3.163,164.737
			C213.711,41.19,212.658-13.722,211.603-68.635z"/>
		<g>
			<path fill-rule="evenodd" clip-rule="evenodd" d="M-66.132,116.645c1.652-25.873,18.209-49.041,32.994-58.703
				c13.303-9.71,51.56-25.034,85.832-2.915c27.62,17.268,40.943,54.304,31.011,87.912c-10.487,32.238-35.262,48.62-60.692,54.009
				c-35.521,5.033-62.917-10.35-74.245-26.41C-65.485,149.197-66.132,136.777-66.132,116.645z"/>
		</g>
		<g>
		</g>
		<g>
		</g>
	</g>
	<path display="inline" fill-rule="evenodd" clip-rule="evenodd" fill="#F4F4F2" d="M-29.853,119.812
		c0.87-13.611,9.581-25.801,17.358-30.883c7-5.108,27.126-13.171,45.156-1.535c14.531,9.085,21.541,28.57,16.315,46.252
		c-5.519,16.96-18.552,25.578-31.931,28.413c-18.688,2.648-33.1-5.444-39.061-13.895C-29.512,136.939-29.853,130.405-29.853,119.812
		z"/>
</g>
<g>
	<g>
		<path fill-rule="evenodd" clip-rule="evenodd" fill="#F47527" d="M88.435,201.768c-19.327,0-22.971-1.693-42.305-1.758
			c-4.101-0.013-8.206-0.339-12.303-0.625c-12.201-0.854-22.204-8.705-24.935-19.987c-2.91-12.04-5.268-137.122,1.047-150.983
			c1.269-11.855,4.087-13.506,11.993-19.026c12.594-3.96,21.021-1.943,31.62-2.586c61.855-0.866,96.83,1.026,166.641-0.656
			c34.788,1.337,41.169-0.477,66.899,0c30.881-0.21,81.52-0.407,85.55,0.29c26.576,2.017,30.847,8.876,30.793,40.414
			c0.163,13.185,0.796,20.634,0.021,33.809c0.377,31.114-0.583,49.479,0.377,79.125c-0.394,5.569,0.428,12.002-0.537,17.535
			c0.192,16.958-6.988,24.449-29.146,22.878c-7.646,1.5-29.451,0.812-43.171,0.238c-43.74,0.573-51.611,0.726-94.065,0.146
			C199.407,201.657,88.439,201.588,88.435,201.768z"/>
		<g>
			<path fill-rule="evenodd" clip-rule="evenodd" fill="#FFFFFF" d="M226.127,120.09c0.051,3.051,0.143,5.199,0.111,7.348
				c-0.068,4.457-0.176,8.917-0.328,13.376c-0.071,2.16-1.202,3.397-3.132,3.841c-1.345,0.313-2.666,0.917-4.013,0.995
				c-8.146,0.454-16.895-2.227-16.555-12.021c0.236-6.859,0.575-13.745,0.311-20.583c-0.3-7.804-1.354-15.558-1.827-23.356
				c-0.389-6.433-1.566-12.794,4.354-16.104c10.957-1.473,14.173,3.824,17,6.079c6.313,5.037,8.674,8.495,14.54,14.138
				c1.362,1.304,2.712,2.623,4.985,4.819c-0.117-3.571-0.155-5.882-0.278-8.188c-0.227-4.279-0.475-8.55-0.771-12.817
				c-0.189-2.741,1.226-4.185,3.36-4.953c4.748-1.709,13.068-1.388,17.564,0.714c1.663,0.775,3.186,2.814,3.951,4.677
				c0.939,2.312,1.397,5.036,1.418,7.592c0.119,14.557,0.047,29.114,0.036,43.673c-0.005,9.295-5.229,12.545-12.434,13.1
				c-5.729,0.446-6.31-0.636-10.454-5.491c-4.271-5.005-9.146-9.404-13.816-13.995C229.207,122,227.993,121.391,226.127,120.09z"/>
			<path fill-rule="evenodd" clip-rule="evenodd" fill="#FFFFFF" d="M298.357,127.3c0.572,3.198,1.074,5.43,1.351,7.68
				c0.222,1.808,0.35,3.655,0.205,5.464c-0.181,2.227-1.642,3.896-4.243,4.069c-3.971,0.27-8.009,0.494-11.942,0.129
				c-3.21-0.302-5.504-2.005-5.644-5.326c-0.41-9.645-1.032-19.283-1.449-28.93c-0.411-9.495-0.611-18.998-1.012-28.492
				c-0.23-5.491,1.132-7.053,7.534-8.009c1.693-0.251,3.393-0.535,5.101-0.643c5.408-0.336,8.743,1.966,9.427,6.667
				c0.522,3.617,1.298,14.028,1.677,17.898c2.283-6.434,5.299-11.518,6.226-12.739c2.114-2.771,3.795-5.795,5.917-8.565
				c2.777-3.626,4.848-4.126,9.144-2.145c3.025,1.394,5.797,3.195,8.715,4.767c2.638,1.422,2.981,3.551,1.75,5.644
				c-1.903,3.247-4.111,6.38-6.431,9.419c-3.586,4.702-10.204,11.682-14.365,16.89c4.755,4.18,15.36,12.294,20.166,16.233
				c6.602,5.415,6.697,5.331,0.792,11.104c-1.015,0.992-1.983,2.05-3.138,2.91c-4.15,3.096-7.235,3.013-10.475,0.008
				c-2.872-2.667-6.131-5.022-9.258-7.478C307.463,133.116,300.312,128.597,298.357,127.3z"/>
			<path fill-rule="evenodd" clip-rule="evenodd" fill="#FFFFFF" d="M96.787,126.777c-0.813,2.555,0.003,12.907-0.783,14.887
				c-0.821,2.074-7.231,3.175-9.533,2.979c-1.002-0.086-2.011-0.104-3.002-0.255c-7.723-0.263-7.938-2.858-7.723-11.06
				c0.116-5.275,0.084-3.339,0.116-5.275c-0.043-13.968-0.233-27.241-0.012-41.918c0.159-10.543,10.755-17.872,21.744-16.619
				c17.269-0.408,34.427,14.559,28.151,35.374c-0.935,3.097-3.953,5.298-6.225,7.688c-1.337,1.411-5.221,3.25-6.863,4.425
				c2.657,4.833,5.291,9.453,7.735,14.174c0.911,1.754,1.499,3.706,2.026,5.628c1.011,3.689,0.149,5.858-3.365,7.178
				c-1.93,0.639-1.416,0.415-4.541,0.716c-4.229,0.407-7.262,1.237-13.129-2.2C100.501,140.899,98.101,128.859,96.787,126.777z"/>
			<path fill-rule="evenodd" clip-rule="evenodd" fill="#F47527" d="M94.902,103.253c0.078-3.231,0.176-6.231,0.205-9.228
				c0.014-1.586,0.924-2.269,2.307-2.527c2.51-0.471,6.435,0.723,7.732,2.821c1.544,2.493,1.204,4.68-1.268,7.764
				C101.68,104.828,99.043,104.802,94.902,103.253z"/>
			<g>
				<path fill-rule="evenodd" clip-rule="evenodd" fill="#FFFFFF" d="M192.451,142.75c-5.687,0.852-6.107,1.238-10.884,1.478
					c-8.145,0.399-11.48-2.021-12.802-8.649c-0.618-3.091-0.862-6.23-1.385-10.117c-3.04,0.149-5.817,0.287-9.504,0.473
					c-0.376,4.108-0.558,7.859-1.108,11.57c-0.747,5.006-4.265,7.259-11.34,7.617c-7.026,0.357-11.206-1.582-12.874-6.146
					c-0.452-1.236-0.836-2.708-0.476-3.899c4.15-13.696,8.066-27.459,12.906-40.975c1.729-4.821,5.443-9.244,8.918-13.461
					c2.062-2.506,5.135-4.633,8.257-6.278c5.703-2.987,12.438-1.968,16.599,2.56c2.238,2.436,4.243,5.391,4.983,8.335
					c3.89,15.445,7.359,30.955,10.936,46.453C195.379,134.749,199.54,141.988,192.451,142.75z"/>
				<path fill-rule="evenodd" clip-rule="evenodd" fill="#F47527" d="M166.094,111.065c-4.908-0.136-7.016-1.794-6.268-5.776
					c0.518-2.75,0.571-3.484,3.296-8.062c1.388-2.34,4.625-2.45,5.95-0.114c1.847,3.24,3.268,6.756,4.025,10.276
					C173.67,110.039,170.983,111.206,166.094,111.065z"/>
			</g>
		</g>
	</g>
</g>
</svg>
