<?xml version="1.0" encoding="utf-8"?>
<!-- Generator: Adobe Illustrator 16.0.4, SVG Export Plug-In . SVG Version: 6.00 Build 0)  -->
<!DOCTYPE svg PUBLIC "-//W3C//DTD SVG 1.0//EN" "http://www.w3.org/TR/2001/REC-SVG-20010904/DTD/svg10.dtd">
<svg version="1.0" id="Layer_1" xmlns="http://www.w3.org/2000/svg" xmlns:xlink="http://www.w3.org/1999/xlink" x="0px" y="0px"
	 width="215.162px" height="216.89px" viewBox="0 0 215.162 216.89" enable-background="new 0 0 215.162 216.89"
	 xml:space="preserve">
<g>
	<path fill-rule="evenodd" clip-rule="evenodd" fill="#0164C0" d="M108.254,3.389c7.405-0.001,17.614,1.673,28.206,4.187
		c18.244,4.329,34.469,12.933,47.244,27.003c3.331,3.67,15.52,21.388,19.372,29.745c4.915,10.658,8.414,29.525,9.111,41.265
		c1.847,29.666-8.986,54.271-28.911,75.62c-14.341,15.363-32.288,24.374-52.375,28.217c-17.421,3.332-38.355,4.58-55.555-2.107
		c-8.963-3.486-15.05-7.135-23.717-11.256c-13.131-6.242-21.675-17.481-29.654-29.155c-8.435-12.338-13.108-26.245-16.48-40.573
		c-2.632-11.183-2.172-22.632-1.057-34.013c1.405-14.364,5.484-27.863,13.359-40.085C37.968,20.918,65.838,3.248,108.254,3.389z"/>
	<path fill-rule="evenodd" clip-rule="evenodd" fill="#402F3C" d="M210.439,91.021c-2.773-1.946-4.817-3.379-8.652-6.07
		c0.628,4.585,1.049,8.089,1.6,11.575c0.632,4,1.758,7.59,5.047,10.569c1.82,1.951,2.747,3.923,3.93,6.361
		c0.286,0.59,0.012,3.382-0.127,3.634c-0.211-0.189-2.884-7.324-7.521-8.643c-0.616,5.404-1.404,10.639-1.681,15.901
		c-0.07,1.35,1.382,2.847,2.295,4.167c1.244,1.803,3.457,4.747,3.999,7.396c0.173,0.845-0.66,3.7-0.957,3.545
		c-1.917-3.121-4.089-6.761-6.144-10.102c-2.11,6.311-3.904,11.665-5.556,16.599c1.137,3.768,2.966,8.307,3.888,11.822
		c-0.025,0.666-1.432,2.838-1.622,2.823c-1.559-3.919-2.784-7.096-4.107-10.423c-2.709,4.274-5.076,7.773-7.151,11.441
		c-0.555,0.982-0.352,2.48-0.27,3.726c0.158,2.399,0.519,4.8,0.654,7.179c0.111,1.951,0.064,1.561,0.131,3.145
		c-0.129,0.525-2.304,3.212-2.75,3.166c-0.292-3.574-0.653-8.12-1.012-12.477c-4.031,4.27-7.457,7.62-10.501,11.29
		c-0.899,1.085-0.934,3.056-0.994,4.637c-0.098,2.468-0.013,6.941-0.142,8.557c-0.043,0.54-2.949,2.509-3.264,2.443
		c0-3.437,0.077-7.819,0.077-11.118c-5.069,3.461-9.507,6.356-13.759,9.505c-0.862,0.641-1.221,2.192-1.47,3.396
		c-0.499,2.408-1.004,5.272-1.499,7.637c-0.129,0.615-2.535,1.365-3.135,1.303c0.443-1,1.619-6.016,1.15-9.728
		c-2.949,1.15-5.692,2.441-8.564,3.289c-4.058,1.195-6.587,3.494-9.233,7.121c-1.44,1.974-2.347,3.192-3.76,5.029
		c-0.368,0.319-3.368,0.913-3.52,0.602c1.459-2.227,4.479-7.124,6.058-9.532c-6.688,1.469-15.514,1.992-22.83,2.939
		c-1.751,0.224-3.535,1.777-4.883,3.137c-1.412,1.421-3.815,3.567-5.35,5.136c-0.312,0.319-4.062-0.024-4.099-0.3
		c3.226-3.08,5.303-5.066,8.079-7.722c-6.254-1.234-11.792-2.469-17.387-3.316c-1.207-0.184-2.648,0.995-3.948,1.61
		c-2.655,1.261-6.61,2.539-9.641,3.609c-0.442,0.156-2.33-0.803-2.587-1.124c2.707-1.345,7.957-3.001,11.029-5.484
		c-4.326-1.739-8.397-3.624-12.643-4.94c-1.315-0.405-3.123,0.689-4.684,1.172c-2.68,0.829-4.586,1.332-8.639,1.851
		c-1.048,0.134-2.857-1.067-3.195-1.546c3.213-0.334,7.682-1.209,12.318-2.871c-1.569-1.366-2.385-2.2-3.318-2.861
		c-1.969-1.391-4.109-2.555-5.982-4.057c-3.445-2.762-4.938-3.198-11.623-3.201c-4.149-0.15-8.379-0.308-8.681-0.433
		c-0.313-0.13-2.438-2.505-2.276-2.604c4.936,0,8.67,0.022,13.352,0.022c-4.883-5.511-9.176-10.494-13.67-15.29
		c-0.716-0.766-2.319-0.759-3.533-0.985c-2.404-0.179-5.656-0.583-8.545-1.051c-0.162-0.026-1.438-2.3-1.297-2.315
		c3.855-0.18,7.018,1.236,10.742,0.281c-2.299-4.705-5.49-9.96-7.973-14.43c-0.589-1.058-2.439-1.404-3.699-2.097
		c-2.734-1.509-5.027-2.821-7.884-4.559c-0.374-0.228-1.312-3.353-0.999-3.384c3.32,1.871,7.818,3.965,11.141,5.836
		c0,0-3.049-9.863-4.464-13.994c-0.388-1.133-2.089-1.811-3.174-2.71c-2.541-2.106-4.882-4.02-7.356-6.195
		c-0.628-0.552-0.628-3.404-0.348-3.448c3.018,2.367,7.236,5.573,10.254,7.94c-0.458-1.125,0.207-10.999-4.334-18.394
		c-1.834-3.567-3.693-7.306-5.422-11.558c-0.4-0.982-0.162-4.051,0.453-4.222c1.987,4.354,5.921,9.041,7.907,13.395
		c0.021-1.472,2.271-13.369,2.969-19.709c0.215-1.971-1.269-4.204-2.206-6.209c-1.787-3.819-2.367-7.972-2.921-10.437
		c-0.28-1.119,0.804-3.369,1.47-3.285c2.627,5.455,3.084,10.834,4.93,14.365c2.949-6.334,5.523-11.426,7.656-16.697
		c0.625-1.552,0.062-3.612-0.062-5.432c-0.218-3.126-1.259-10.105-1.148-10.903c0.168-1.218,1.562-3.188,2.485-3.337
		c0.853,5.086,0.43,3.954,0.724,6.321c0.29,2.333,0.449,4.683,0.793,8.404c3.645-4.784,6.655-8.389,9.205-12.289
		c0.791-1.209,0.358-3.232,0.453-4.884c0.177-3.136-0.016-7.84,0.881-10.42c0.346-0.993,1.896-1.858,2.838-2.466
		c0.059,5.232-0.103,9.485,0.397,13.282c2.886-2.56,5.701-4.868,8.257-7.437c0.807-0.809,1.008-2.29,1.313-3.509
		c0.721-2.87,1.14-5.83,2.063-8.628c0.594-1.794,0.172-0.63,0.916-2.782c0.541-0.507,2.578-1.764,2.556-1.424
		c-0.094,1.382-0.801,5.039-1.113,6.123c-0.352,2.028-0.929,4.476-1.554,7.669c3.887-2.059,7.214-3.52,10.17-5.529
		c1.353-0.917,2.147-2.833,2.882-4.439c1.31-2.852,2.809-7.318,4.249-10.103c0.073-0.142,2.649-1.338,3.695-1.136
		c-1.728,3.871-4.602,12.215-4.318,12.519c3.727-1.354,7.572-2.47,11.12-4.198c1.219-0.593,1.725-2.525,2.636-3.887
		c1.726-2.587,3.133-5.023,5.003-7.503c0.312-0.413,3.166-0.56,3.419-0.439c-0.983,2.191-1.9,2.712-5.384,10.538
		c3.656-0.556,6.827-0.761,10.159-1.671c1.577-0.431,3.029-1.933,4.159-3.267c3.581-4.227,4.362-4.582,8.597-6.438
		c0.903,0.064,4.586,0,4.184,0.289c-3.627,2.605-8.172,4.156-8.91,9.015c5.371,0.386,10.924,0.36,16.22,0.48
		c1.157,0.027,2.407-1.318,3.507-2.17c2.038-1.581,3.758-3.341,5.896-4.761c0.779,0.006,3.122,0.422,3.98,0.959
		c-3.45,2.43-4.329,4.116-8.416,6.991c6.082,1.832,10.25,2.807,15.194,3.945c1.303,0.299,3.009-0.946,4.472-1.604
		c2.629-1.182,5.264-3.022,7.771-3.201c0.438-0.031,3.234,1.297,3.135,1.432c-0.911,1.232-7.552,2.972-9.765,5.603
		c4.791,2.639,9.557,5.269,14.542,8.014c3.121-0.815,7.414-4.019,10.953-3.938c1.248,0.028,2.308,1.85,2.308,1.85
		c-4.177,1.54-5.766,2.992-9.734,4.453c2.889,2.637,4.511,4.056,6.749,6.178c3.418,3.248,6.779,6.156,12.168,4.322
		c0.949-0.322,2.807-0.961,3.87-0.938c0.505,0.011,2.588,3.365,2.317,3.386c-3.689,0-5.234,1.787-9.353,1.787
		c3.821,5.234,5.913,8.273,9.254,12.364c0.908,1.112,2.294,1.819,3.764,2.496c3.15,1.452,6.024,2.508,9.068,4.154
		c0.723,0.39,1.496,3.074,1.497,3.644c-4.508-2.048-6.482-2.923-11.081-4.445c0.99,2.151,0.963,1.943,1.316,2.846
		c0.677,1.721,1.706,3.327,2.215,5.09c1.688,5.849,4.729,9.158,9.792,12.877c0.163,0.12,1.547,1.156,2.797,2.219
		C209.91,87.161,210.898,90.551,210.439,91.021z M104.052,197.106c17.043-0.084,29.729-2.949,41.88-8.506
		c12.812-5.86,24.405-13.598,33.23-24.488c21.156-26.104,24.718-55.669,13.876-86.77c-8.786-25.205-27.166-41.896-51.535-52.045
		c-16.92-7.047-34.502-8.379-52.327-4.222c-25.648,5.981-45.4,20.361-58.824,43.02c-10.81,18.239-13.888,38.109-10.8,58.946
		c1.837,12.399,5.267,24.514,12.744,34.646C50.943,182.964,76.247,196.123,104.052,197.106z"/>
	<path fill-rule="evenodd" clip-rule="evenodd" fill="#FFFFFF" d="M104.052,197.111c-27.806-0.983-53.109-14.142-71.756-39.419
		c-7.478-10.132-10.907-22.246-12.744-34.646c-3.088-20.837-0.01-40.707,10.8-58.946c13.424-22.658,33.176-37.038,58.824-43.02
		c17.825-4.157,35.407-2.825,52.327,4.222c24.369,10.148,42.749,26.84,51.535,52.045c10.842,31.101,7.28,60.665-13.876,86.77
		c-8.825,10.891-20.419,18.628-33.23,24.488C133.782,194.162,121.095,197.027,104.052,197.111z"/>
	<g>
		<path fill-rule="evenodd" clip-rule="evenodd" fill="#DCEBF4" d="M21.088,122.13c-3.022-20.393,0.363-39.244,10.94-57.092
			c13.137-22.174,32.466-36.245,57.564-42.099c17.444-4.068,34.651-2.765,51.209,4.131c23.847,9.932,41.832,26.266,50.431,50.931
			c5.264,15.097,7.059,29.826,5.004,43.954c-2.089,14.353-39.616,54.968-52.153,60.702
			C132.193,188.094,22.885,134.263,21.088,122.13z"/>
		<path fill-rule="evenodd" clip-rule="evenodd" fill="#C6C6C6" d="M104.974,194.889c-27.647-0.979-52.808-14.062-71.349-39.195
			c-7.435-10.074-10.845-22.121-12.671-34.449l175.46,0.738c0,0-6.415,27.933-17.75,39.104c-8.775,10.83-19.31,19.518-32.048,25.344
			C134.536,191.956,121.92,194.805,104.974,194.889z"/>
	</g>
	<g>
		<path fill-rule="evenodd" clip-rule="evenodd" fill="#0164C0" d="M65.468,43.369c-5.215,2.365-6.439,3.03-11.482,8.018
			c-2.107,0.853-0.86-2.673,2.932-6.188C61.214,41.573,67.238,40.395,65.468,43.369z"/>
		<path fill-rule="evenodd" clip-rule="evenodd" fill="#0164C0" d="M120.576,31.377c0.209-1.279,2.027-1.117,3.026-1.088
			c4.925,0.144,12.54,3.342,14.989,6.277c0.381,1.531-1.525,1.688-3.312,0.823c-1.658-0.802-3.957-1.841-5.805-2.391
			c-3.439-1.37-5.236-1.486-8.17-2.365C120.66,32.442,120.605,31.731,120.576,31.377z"/>
		<path fill-rule="evenodd" clip-rule="evenodd" fill="#0164C0" d="M185.291,93.683c0.9-0.028,1.109,1.105,1.162,1.701
			c0.718,4.475,1.218,9.559,0.922,14.218c-0.038,0.604-0.48,1.795-1.529,1.795c-1.17,0-1.603-0.896-1.599-1.236
			c0.341-5.51,0.133-8.51-0.506-14.736C183.878,94.989,183.41,93.786,185.291,93.683z"/>
		<path fill-rule="evenodd" clip-rule="evenodd" fill="#0164C0" d="M163.382,55.965c-2.191-2.898,0.839-4.426,3.346-0.929
			c4.293,4.87,7.525,10.78,5.775,12.189C170.816,67.226,168.628,61.567,163.382,55.965z"/>
		<path fill-rule="evenodd" clip-rule="evenodd" fill="#0164C0" d="M87.459,33.326c0.544,1.179-15.644,7.554-15.983,5.636
			C70.941,37.317,86.128,30.382,87.459,33.326z"/>
		<path fill-rule="evenodd" clip-rule="evenodd" fill="#0164C0" d="M46.73,58.919c1.836-0.587,1.445,1.507,0.041,2.632
			c-1.784,1.431-2.744,3.409-3.951,5.129c-1.733,2.471-1.014,1.852-2.482,4.638c-1.088,2.018-3.547,0.934-1.91-2.743
			C40.382,63.125,42.906,60.217,46.73,58.919z"/>
		<path fill-rule="evenodd" clip-rule="evenodd" fill="#0164C0" d="M137.579,180.096c-0.821-1.612,15.011-9.612,16.142-8.014
			C155.381,173.734,138.882,182.836,137.579,180.096z"/>
		<path fill-rule="evenodd" clip-rule="evenodd" fill="#0164C0" d="M179.151,72.821c2.228,3.434,3.915,7.809,4.662,11.745
			c0.095,0.499-0.246,2.003-1.305,1.978c-0.733-0.06-1.478-0.465-1.661-0.954c-1.094-4.085-2.344-7.397-4.532-11.835
			C175.67,71.817,178.15,71.713,179.151,72.821z"/>
		<path fill-rule="evenodd" clip-rule="evenodd" fill="#0164C0" d="M144.58,40.422c1.257-2.452,10.9,2.443,14.751,8.695
			c1.017,1.668-1.077,2.043-2.374,0.65C151.963,44.692,143.785,41.973,144.58,40.422z"/>
		<path fill-rule="evenodd" clip-rule="evenodd" fill="#0164C0" d="M94.955,32.291c-0.576-2.002,15.753-4.411,16.853-2.56
			c-0.491,1.711-5.103,1.818-7.653,2.047C101.503,32.018,95.316,33.504,94.955,32.291z"/>
		<path fill-rule="evenodd" clip-rule="evenodd" fill="#0164C0" d="M177.116,141.577c0.725-1.004,2.229-0.508,2.2,0.615
			c-0.312,5.188-2.341,9.185-5.603,12.735c-0.616,0.671-1.481,0.571-1.957,0.308c-0.462-0.253,0.015-1.064,0.226-1.479
			C173.576,150.787,175.778,148.613,177.116,141.577z"/>
		<path fill-rule="evenodd" clip-rule="evenodd" fill="#0164C0" d="M131.524,184.858c-5.778,2.057-9.683,2.848-15.977,2.202
			c-1.04-0.073-1.748-1.364-0.249-1.454c5.96-0.486,9.918-1.371,14.678-2.769C132.591,182.112,133.257,183.737,131.524,184.858z"/>
		<path fill-rule="evenodd" clip-rule="evenodd" fill="#0164C0" d="M183.629,118.374c0.585-1.386,2.46,0.572,2.106,2.39
			c-0.514,4.412-0.48,7.266-4.271,14.162c-1.012,0.793-1.917-1.979-1.306-2.837C181.547,128.946,182.547,124.613,183.629,118.374z"
			/>
		<path fill-rule="evenodd" clip-rule="evenodd" fill="#0164C0" d="M44.258,155.259c-2.724,1.62-9.88-11.692-6.841-12.425
			C38.816,142.834,45.128,154.786,44.258,155.259z"/>
		<path fill-rule="evenodd" clip-rule="evenodd" fill="#0164C0" d="M104.334,187.033c-0.914,1.617-14.748-0.133-14.005-2.272
			C90.573,183.264,104.868,185.386,104.334,187.033z"/>
		<path fill-rule="evenodd" clip-rule="evenodd" fill="#0164C0" d="M159.018,169.154c-2.18-1.419,6.985-8.712,7.729-10.825
			c2.882-1.512,3.194,2.113,1.622,3.66C166.151,164.909,160.672,170.36,159.018,169.154z"/>
		<path fill-rule="evenodd" clip-rule="evenodd" fill="#0164C0" d="M81.788,183.184c-5.484,0.428-18.034-7.961-12.757-7.549
			c4.959,2.381,8.797,4.224,13.193,6.332C82.785,182.411,82.785,183.205,81.788,183.184z"/>
		<path fill-rule="evenodd" clip-rule="evenodd" fill="#0164C0" d="M32.145,133.506c-1.794-3.876-3.485-12.111-2.277-12.716
			c2.56-1.208,3.343,7.346,4.687,10.429c1.277,2.879-0.332,3.02-0.827,3.109C32.769,134.411,32.314,133.887,32.145,133.506z"/>
		<path fill-rule="evenodd" clip-rule="evenodd" fill="#0164C0" d="M33.849,80.223c1.436-1.531,3.045,0.109,1.857,2.328
			c-1.737,3.078-3.891,11.266-5.846,10.545C27.697,92.118,32.771,82.204,33.849,80.223z"/>
		<path fill-rule="evenodd" clip-rule="evenodd" fill="#0164C0" d="M60.137,172.157c-1.415,1.098-11.29-9.59-10.954-10.225
			C49.183,159.942,61.722,171.879,60.137,172.157z"/>
		<path fill-rule="evenodd" clip-rule="evenodd" fill="#0164C0" d="M29.433,97.885c1.842,0.118,0.461,14.791-2.064,14.247
			C26.207,111.645,28.025,98.149,29.433,97.885z"/>
	</g>
</g>
<g id="boy_1_">
	<g>
		<path fill-rule="evenodd" clip-rule="evenodd" fill="#F9E7D9" d="M91.883,122.642c-0.091,0.291-0.206,0.577-0.271,0.873
			c-0.357,1.661-0.713,3.324-1.051,4.99c-0.185,0.904-0.311,1.821-0.507,2.724c-0.189,0.87-0.437,1.728-0.657,2.591
			c-0.15,0.591-0.262,1.189-0.56,1.736c-0.446,0.817-0.904,0.915-1.569,0.685c-0.42-0.146-0.73-0.643-0.75-1.182
			c-0.007-0.193-0.024-0.387-0.04-0.623c-0.479,0.018-0.841,0.249-1.191,0.476c-0.618,0.399-1.274,0.682-1.997,0.835
			c-0.93,0.198-1.843,0.068-2.748-0.116c-1.068-0.218-1.946-1.79-1.418-2.936c0.428-0.927,1.013-1.658,1.902-2.138
			c0.93-0.502,1.869-0.985,2.809-1.467c0.313-0.16,0.539-0.377,0.61-0.731c0.036-0.177,0.079-0.354,0.11-0.533
			c0.294-1.673,0.527-3.36,0.899-5.018c0.284-1.268,0.686-2.519,1.143-3.736c0.62-1.653,1.342-3.268,2.025-4.896
			c0.513-1.218,1.037-2.43,1.552-3.646c0.627-1.479,1.365-2.905,2.274-4.226c0.794-1.153,1.528-2.356,2.503-3.379
			c0.263-0.274,0.343-0.302,0.681-0.144c0.164,0.077,0.317,0.177,0.47,0.274c1.299,0.414,1.346,0.705,2.095,0.865
			c2.358,0.504,4.742,0.843,7.138,1.117c2.562,0.292,5.109,0.189,7.666-0.028c1.392-0.118,2.746-0.39,4.049-0.888
			c0.599-0.229,1.174-0.528,1.743-0.83c0.889-0.47,1.763-0.969,2.643-1.453c0.317-0.175,0.375-0.135,0.665,0.137
			c0.432,0.407,0.899,0.776,1.344,1.17c2.322,2.051,4.141,4.455,5.351,7.332c0.979,2.332,1.781,4.727,2.658,7.094
			c0.502,1.358,0.86,2.77,1.29,4.155c0.234,0.754,0.493,1.5,0.723,2.255c0.238,0.778,0.702,1.411,1.25,1.99
			c1.01,1.069,1.77,2.307,2.368,3.636c0.372,0.824,0.675,1.684,0.95,2.545c0.294,0.918,0.093,1.807-0.365,2.624
			c-0.381,0.678-1.039,0.969-1.777,1.015c-0.715,0.045-1.388-0.129-2.038-0.484c-0.99-0.541-1.601-1.396-2.148-2.325
			c-0.159-0.269-0.299-0.551-0.452-0.824c-0.078-0.139-0.167-0.273-0.256-0.42c-0.269,0.151-0.489,0.294-0.725,0.407
			c-0.831,0.396-1.673,0.033-1.984-0.837c-0.131-0.367-0.162-0.733-0.116-1.119c0.08-0.673,0.192-1.349,0.179-2.021
			c-0.013-0.552-0.165-1.106-0.303-1.647c-0.137-0.537-0.347-1.049-0.39-1.619c-0.028-0.383-0.226-0.756-0.36-1.128
			c-0.225-0.62-0.456-1.238-0.69-1.855c-0.048-0.126-0.123-0.241-0.186-0.36c-0.039,0.011-0.569-0.844-0.607-0.834
			c0.006,0.174-0.991,0.344-0.98,0.517c0.099,1.599-0.448,3.979-0.375,5.579c0.077,1.685,0.141,3.278,0.008,4.96
			c-0.077,0.97,0.769,1.605,0.695,2.576c-0.065,0.872,1.022,2.253,0.93,3.122c-0.214,2.02-0.413,4.039-0.663,6.054
			c-0.226,1.834-0.505,3.662-0.77,5.49c-0.279,1.947-0.677,3.884-0.721,5.849c-0.012,0.494-0.002,0.993,0.057,1.483
			c0.1,0.849-7.785,3.192-7.896,1.991c-0.081-0.869-1.163-4.977-1.297-5.841c-0.161-1.044-0.315-2.089-0.504-3.128
			c-0.396-2.179-0.844-4.344-1.455-6.474c-0.41-1.428-0.755-2.874-1.17-4.301c-0.295-1.017-0.852-1.893-1.641-2.608
			c-0.081-0.075-0.193-0.117-0.293-0.171c-0.188-0.103-0.431-0.16-0.551-0.313c-0.162-0.208-0.329-0.299-0.576-0.287
			c-0.275,0.015-0.527,0.097-0.695,0.322c-0.245,0.329-0.528,0.649-0.691,1.019c-0.409,0.918-0.765,1.861-1.132,2.798
			c-0.21,0.536-0.407,1.077-0.597,1.621c-0.178,0.512-0.331,1.032-0.506,1.546c-0.203,0.591-0.421,1.179-0.626,1.77
			c-0.465,1.338-0.99,2.61-1.466,3.945c-0.193,0.543-0.522,1.376-0.703,1.922c-0.409,1.236-0.938,1.925-1.311,3.173
			c-0.25,0.837-0.49,1.362-0.717,2.207c-0.094,0.351,0.132,1.338,0.035,1.688c-0.113,0.41,0.012,0.741,0.291,1.042
			c0.473,0.506-8.321-7.618-8.137-9.042c-0.206-3.283-0.415-5.742-0.211-7.873c-0.248-2.071-0.131-7.268-0.188-8.405
			c-0.041-0.823-0.017-1.649-0.02-2.474c-0.003-0.611-0.013-1.222-0.003-1.833c0.013-0.809,0.045-1.616,0.063-2.424
			c0.019-0.792,0.032-1.583,0.043-2.375c0.006-0.391,0.001-0.781,0.001-1.173C91.991,122.666,91.937,122.654,91.883,122.642z"/>
		<path fill-rule="evenodd" clip-rule="evenodd" fill="#F9E7D9" d="M116.149,158.293c0.313,1.328,1.069,3.567,1.447,4.853
			c0.213,0.725,0.509,1.419,1.065,1.951c1.104,1.058,2.493,1.344,3.955,1.338c1.259-0.005,2.487-0.26,3.71-0.562
			c1.797-0.444,3.72-1.291,4.316-2.952c0.311-0.867,0.208-1.791-0.274-2.517c-0.449-0.675-1.091-1.09-1.83-1.432
			c-1.091-0.505-2.121-1.142-3.197-1.682c-1.085-0.543-1.288-0.615-1.402-2.419"/>
		<path fill-rule="evenodd" clip-rule="evenodd" fill="#F9E7D9" d="M92.262,144.792c0.128,1.285,0,4.095,0.311,6.316
			c0.138,0.985,0.134,1.985,0.171,2.979c0.033,0.879,0.045,1.76,0.032,2.639c-0.004,0.288-0.13,0.571-0.171,0.86
			c-0.137,0.938,0.134,1.956,0.438,2.885c0.452,1.383,1.604,2.708,2.788,3.479c0.691,0.45,1.408,0.86,2.133,1.253
			c1.152,0.626,2.542,1.292,3.895,1.173c0.52-0.047,2.533-0.918,2.604-1.676c0.271-2.824-0.705-5.459-2.729-7.342
			c-0.047-0.043-0.093-0.078-0.14-0.109c-0.187-0.274-0.38-0.546-0.503-0.846c-0.214-0.529-0.386-1.09-0.465-1.651
			c-0.044-0.302,0.116-0.648,0.231-0.957c0.27-0.722,0.554-1.438,0.857-2.145c0.225-0.525,0.567-2.222,0.786-2.873
			c0.273-0.811,0.544-1.622,0.809-2.435"/>
	</g>
	<path fill-rule="evenodd" clip-rule="evenodd" fill="#F9E7D9" d="M133.166,84.602c-0.058-0.518-0.166-0.725-0.632-1.089
		c-0.438-0.342-0.985-0.417-1.459-0.034c-0.202,0.13-0.534,0.281-0.712,0.419c-0.136,0.105-0.572,0.583-0.655,0.72
		c-0.095-0.12,0.076-0.565-0.061-0.641c-0.982-18.692-10.315-20.374-21.314-19.79c-15.566,0.825-24.196,9.139-22.315,21.24
		c-0.1-0.04-1.276-0.501-1.4-0.506c-0.12-0.025-0.275-0.028-0.398-0.024c-0.004,0-0.15,0.01-0.177,0.011
		c-0.099,0.004-0.187,0.019-0.269,0.043c-0.145,0.009-0.278,0.067-0.429,0.148c-0.798,0.43-0.976,1.344-0.879,2.1
		c0.025,0.163,0.1,0.368,0.13,0.455c0.027,0.078,0.181,0.419,0.301,0.528c0.082,0.098,0.225,0.28,0.412,0.45
		c0.14,0.126,0.374,0.297,0.582,0.433c0.134,0.093,0.633,0.351,0.771,0.443c0.048,0.031,0.496,0.341,0.63,0.455
		c0.119,0.074,0.384,0.31,0.572,0.508c0.097,0.1,0.289,0.437,0.435,0.702c0.038,0.088,0.661,1.086,0.745,1.272
		c0.055,0.121,0.408,0.824,0.51,1.146c0.12,0.295,0.179,0.498,0.331,0.846c0.001,0.005,0.688,1.776,0.812,1.949
		c0.028,0.06,0.772,1.417,1.139,1.947c0.508,0.735,1.854,2.21,2.326,2.512c0.878,0.562,1.823,1.26,2.77,1.712
		c10.278,5.2,22.517,2.773,27.139-0.812c0.729-0.42,1.48-0.801,2.18-1.354c0.42-0.332,1.45-1.076,1.857-1.445
		c0.022-0.012,0.435-0.314,0.813-0.707c0.251-0.26,0.425-0.482,0.737-0.858c0.585-0.705,0.616-0.753,0.863-1.134
		c0.075-0.104,0.295-0.479,0.467-0.96c0.427-1.204,0.908-3.281,1.223-4.502c0.207-0.715,0.409-1.276,0.717-1.737
		c0.345-0.52,1.017-1.601,1.021-1.606c0.062-0.079,0.304-0.421,0.38-0.537c0.005-0.007,0.294-0.396,0.446-0.603
		c0.233-0.362,0.378-0.767,0.407-1.216C133.182,85.045,133.171,84.669,133.166,84.602z M94.929,102.558"/>
	<g>
		<path opacity="0.4" fill-rule="evenodd" clip-rule="evenodd" fill="#F4782C" d="M110.511,91.431
			c-0.062-0.208-0.182-0.342-0.331-0.43c-0.144-0.108-0.312-0.169-0.484-0.137c-0.06-0.005-0.119-0.008-0.179-0.009
			c-0.122-0.001-0.511,0.374-0.264,0.271c0.286-0.12,0.71,0.053,0.9,0.394c0.004,0.007,0.134,0.302,0.021,0.446
			C110.133,92.02,110.545,91.542,110.511,91.431z"/>
		<path fill-rule="evenodd" clip-rule="evenodd" fill="#423B3E" d="M109.775,92.147c0.197-0.086,0.56-0.431,0.629-0.56
			c0.086-0.161,0.018-0.345-0.215-0.517c-0.168-0.188-0.508-0.224-0.754-0.056c-0.192,0.132-0.357,0.246-0.428,0.589
			c-0.045,0.035-0.031,0.029-0.072,0.006c0.038-0.127,0.05-0.307,0.14-0.411c0.417-0.486,0.962-0.565,1.36-0.042
			c0.197,0.258,0.084,0.508-0.119,0.721C110.158,92.042,109.724,92.458,109.775,92.147z"/>
	</g>
	<g>
		<g>
			<path fill-rule="evenodd" clip-rule="evenodd" fill="#423B3E" d="M105.269,98.385c0.107,0.037,0.312,0.333,0.408,0.389
				c1.602,1.088,3.011,1.26,5.458,1.157c0.968-0.099,1.921-0.393,2.711-0.975c0.125-0.084,0.217-0.119,0.326-0.284
				c0.11-0.109,0.137-0.323,0.201-0.429c0.129-0.061,0.189,0.091,0.161,0.163c-0.087,0.219-0.194,0.473-0.373,0.606
				c-0.725,0.537-1.542,0.879-2.441,1.015c-1.235,0.186-2.461,0.122-3.687-0.094c-0.92-0.162-1.733-0.581-2.481-1.123
				c-0.131-0.095-0.219-0.226-0.324-0.354C105.177,98.373,105.233,98.373,105.269,98.385z"/>
		</g>
		<path fill-rule="evenodd" clip-rule="evenodd" fill="#423B3E" d="M99.489,86.968c-0.025,0.343-0.312,0.616-0.654,0.616l0,0
			c-0.343,0-0.502-0.268-0.621-0.622c-0.059-0.171-0.067-0.312-0.079-0.644c-0.005-0.162,0.05-0.654,0.05-0.654
			c0.039-0.343,0.308-0.612,0.65-0.612l0,0c0.343,0,0.603,0.261,0.654,0.618c0,0,0.04,0.194,0.04,0.648
			C99.529,86.48,99.5,86.807,99.489,86.968z"/>
		<path fill-rule="evenodd" clip-rule="evenodd" fill="#423B3E" d="M121.511,86.968c-0.025,0.343-0.312,0.616-0.654,0.616l0,0
			c-0.344,0-0.502-0.268-0.621-0.622c-0.059-0.171-0.068-0.312-0.079-0.644c-0.005-0.162,0.05-0.654,0.05-0.654
			c0.039-0.343,0.307-0.612,0.65-0.612l0,0c0.343,0,0.602,0.261,0.654,0.618c0,0,0.04,0.194,0.04,0.648
			C121.551,86.48,121.523,86.807,121.511,86.968z"/>
	</g>
	<g>
		<path display="none" fill-rule="evenodd" clip-rule="evenodd" d="M117.32,159.167c0.364,0.044,0.727,0.106,1.102,0.163
			c-0.142-0.727,0.008-1.028,0.665-1.349c0.802-0.391,1.622-0.57,2.473-0.141c0.22,0.11,0.371,0.24,0.34,0.536
			c-0.021,0.197,0.052,0.411,0.114,0.607c0.024,0.077,0.137,0.128,0.211,0.188c0.18,0.149,0.424,0.269,0.514,0.46
			c0.045,0.097-0.193,0.32-0.29,0.495c-0.05,0.091-0.114,0.211-0.093,0.3c0.184,0.757,0.518,1.448,0.973,2.081
			c0.408,0.565,0.827,1.124,1.219,1.701c0.409,0.604,0.479,1.302,0.363,1.993c-0.165,0.997-0.556,1.9-1.474,2.444
			c-0.343,0.203-0.735,0.364-1.126,0.439c-1.464,0.284-2.789-0.141-4.036-0.884c-1.368-0.814-2.736-1.63-4.1-2.453
			c-0.575-0.347-1.205-0.642-1.691-1.089c-0.961-0.883-1.124-2.06-0.985-3.306c0.107-0.971,0.188-1.944,0.271-2.917
			c0.052-0.6,0.555-1.141,1.095-1.112c0.069,0.555,0.39,0.857,0.884,1.046 M112.47,158.272c-0.089,0.842-0.191,1.684-0.261,2.528
			c-0.048,0.574-0.146,1.169-0.05,1.724c0.169,0.984,0.689,1.758,1.623,2.255c1.385,0.737,2.734,1.54,4.098,2.319
			c0.274,0.157,0.54,0.33,0.874,0.535c0.21-2.681,1.788-3.926,4.276-4.218c-0.392-0.881-0.961-0.187-1.411-0.31
			c-0.067,0.381-0.266,0.511-0.555,0.403c-0.304-0.111-0.806,0.114-0.885,0.448c-0.089,0.371-0.312,0.478-0.638,0.406
			c-0.145-0.032-0.349-0.135-0.381-0.246c-0.032-0.115,0.102-0.286,0.184-0.423c0.039-0.065,0.121-0.107,0.184-0.159
			c-0.016-0.027-0.032-0.054-0.048-0.081c-0.088,0.024-0.175,0.05-0.264,0.072c-0.283,0.072-0.567-0.082-0.626-0.366
			c-0.058-0.278,0.104-0.433,0.356-0.502c0.106-0.029,0.23-0.018,0.319-0.069c0.097-0.059,0.202-0.16,0.23-0.262
			c0.039-0.145,0.01-0.307,0.01-0.461c-0.152,0.05-0.216,0.143-0.297,0.217c-0.157,0.146-0.305,0.325-0.492,0.407
			c-0.253,0.111-0.576-0.104-0.631-0.364c-0.059-0.275,0.127-0.482,0.416-0.544c0.37-0.078,0.73-0.201,1.08-0.301
			c-0.055-0.404-0.184-0.518-0.535-0.445c-0.257,0.054-0.565,0.01-0.814-0.087c-0.399-0.153-0.367-0.528-0.274-0.888
			C116.074,159.4,114.059,159.535,112.47,158.272z M122.703,163.986c-0.734,0.005-1.533,0.366-2.225,0.959
			c-0.87,0.746-1.033,1.811-1.193,2.862c-0.012,0.082,0.093,0.231,0.179,0.268c0.384,0.166,0.771,0.35,1.176,0.439
			c0.76,0.168,1.513-0.007,2.253-0.18c0.185-0.042,0.385-0.129,0.517-0.259c0.82-0.807,1.033-1.806,0.818-2.9
			C124.087,164.467,123.522,163.992,122.703,163.986z M120.438,158.09c-0.412,0.103-0.81,0.271-1.203,0.434
			c-0.081,0.034-0.183,0.203-0.158,0.267c0.044,0.117,0.163,0.273,0.269,0.288c0.315,0.042,0.641,0.004,0.886,0.28
			c0.041,0.045,0.167,0.041,0.244,0.021c0.294-0.075,0.584-0.167,0.903-0.261 M120.91,162.224c0.108,0.357,0.234,0.508,0.539,0.426
			c0.307-0.083,0.619-0.137,1.015-0.222c-0.155-0.16-0.258-0.35-0.353-0.346C121.718,162.097,121.328,162.169,120.91,162.224z
			 M121.716,161.549c-0.294-0.451-0.498-0.459-1.172-0.039c0.105,0.095,0.21,0.26,0.293,0.249
			C121.124,161.725,121.403,161.629,121.716,161.549z M118.948,159.836c-0.075-0.007-0.149-0.015-0.224-0.021
			c-0.031,0.149-0.086,0.301-0.077,0.449c0.003,0.034,0.219,0.056,0.337,0.083C118.972,160.176,118.959,160.007,118.948,159.836z
			 M120.505,162.991c-0.098-0.148-0.178-0.271-0.259-0.392c-0.038,0.009-0.075,0.017-0.114,0.025
			c-0.013,0.215-0.026,0.43-0.046,0.731C120.262,163.204,120.367,163.112,120.505,162.991z"/>
		<path fill-rule="evenodd" clip-rule="evenodd" fill="#FFFFFF" stroke="#4C4B4B" stroke-width="0.0586" stroke-miterlimit="10" d="
			M128.961,158.903c-0.208,0.259-1.638,1.792-1.921,1.938c-0.759,0.21-4.696-2.145-4.799-2.216c-0.18-0.253-0.158-0.401-0.169-0.54
			c-0.021-0.502,0.629-1.236,1.03-1.589c0.342-0.388,1.25-0.731,1.588-0.354C125.645,157.508,128.857,158.801,128.961,158.903z"/>
		<path fill-rule="evenodd" clip-rule="evenodd" fill="#FFFFFF" stroke="#4C4B4B" stroke-width="0.0586" stroke-miterlimit="10" d="
			M116.603,160.176c0.707,1.216,4.077,0.37,5.309-1.215c0.644-0.859,3.969,2.458,5.459,1.515c-1.247,2.188-0.956,3.166,0.406,5.484
			c-0.392,0.022-0.709,0.033-1.023,0.062c-1.562,0.141-3.334,0.078-4.893,0.268c-1.259,0.161-2.384,0.047-3.086-0.663
			c-0.397-0.4-1.188-1.752-1.478-2.25C116.872,162.644,115.771,160.441,116.603,160.176z"/>
		<path fill-rule="evenodd" clip-rule="evenodd" fill="#FFFFFF" stroke="#4C4B4B" stroke-width="0.0586" stroke-miterlimit="10" d="
			M104.763,160.875c0.005,0.059-3.368-4.66-3.375-4.691c-0.207-0.923-0.214-0.941-1.258-0.623c-0.572,0.175-1.252,0.343-1.816,0.541
			c-1.932,0.679,2.829,5.217,3.039,5.942C102.557,161.969,103.718,161.624,104.763,160.875z"/>
		<path fill-rule="evenodd" clip-rule="evenodd" fill="#FFFFFF" stroke="#4C4B4B" stroke-width="0.0586" stroke-miterlimit="10" d="
			M99.703,166.551c0.004-0.205-0.01-0.412,0.016-0.615c0.117-0.98,0.353-1.931,0.802-2.816c0.125-0.246,0.802-0.614,0.941-0.827
			c-0.386-0.762-2.914-4.506-3.515-4.731c-0.469-0.381-0.723,0.321-1.634,0.103c-1.427-0.203-2.563-0.653-3.166-1.538
			c-0.131-0.192-0.601,0.253-0.633,1.753c0.022,0.713,0.026,1.427,0.083,2.137c0.046,0.558,0.125,1.117,0.253,1.662
			c0.17,0.726,0.739,1.177,1.29,1.602c0.795,0.614,1.593,1.237,2.455,1.746c0.99,0.582,2.052,1.042,3.081,1.556L99.703,166.551z"/>
		<path fill-rule="evenodd" clip-rule="evenodd" fill="#4C4B4B" d="M99.729,166.091l0.268,0.673
			c-1.201-0.506-2.416-0.984-3.497-1.726c-0.789-0.54-1.562-1.103-2.332-1.669c-0.83-0.612-1.357-1.073-1.406-2.151
			c0,0,1.383,1.452,1.887,1.843c0.729,0.563,1.463,1.136,2.254,1.603C97.81,165.198,98.784,165.62,99.729,166.091"/>
		<path fill-rule="evenodd" clip-rule="evenodd" fill="#FFFFFF" d="M101.17,161.185c0.514-0.273,2.292-0.946,2.731-1.181
			c-0.012-0.036-0.751-0.771-0.883-0.745c-0.402,0.081-1.903,0.662-2.266,0.872c-0.066,0.039-0.056,0.308,0,0.436
			C100.828,160.741,101.081,161.067,101.17,161.185z"/>
		<path fill-rule="evenodd" clip-rule="evenodd" fill="#FFFFFF" d="M101.347,161.807c0.943-0.325,2.195-0.902,3.071-1.204
			c0.149-0.216-0.419-0.315-0.818-0.238c-0.665,0.13-2.286,1.177-2.384,1.359"/>
		<path fill-rule="evenodd" clip-rule="evenodd" fill="#FFFFFF" d="M100.085,159.661c0.468-0.201,2.034-0.754,2.482-0.947
			c-0.075-0.347-0.37-0.714-0.62-0.647c-0.271,0.071-1.706,0.593-1.85,0.812C99.966,159.08,99.755,159.427,100.085,159.661z"/>
		<path fill-rule="evenodd" clip-rule="evenodd" fill="#4C4B4B" d="M127.411,165.315c-0.391,0.023-0.708,0.034-1.022,0.062
			c-1.563,0.142-3.131,0.256-4.688,0.444c-1.051,0.126-3.112-0.361-3.112-0.361c0.134,0.247,0.237,0.425,0.331,0.558
			c0.007,0.02,0.02,0.035,0.035,0.048c0.311,0.408,0.559,0.31,1.611,0.401c0.982-0.036,1.342-0.029,2.012-0.074
			c1.589-0.105,3.178-0.221,4.766-0.336c1.447-0.104,2.553-0.684,3.59-1.755L127.411,165.315z"/>
		<path fill-rule="evenodd" clip-rule="evenodd" fill="#0466C0" d="M99.68,166.631c0.831,0.442,1.958,0.674,2.824,0.8
			c1.103,0.037,1.993-0.348,2.67-0.868c0.872-0.673,1.39-2.181,0.947-3.246c-0.055-0.644-0.899-1.835-1.254-2.374
			c-0.093-0.179-0.687,0.032-0.921,0.104c-0.922,0.28-0.835,0.212-2.103,0.724c-0.37,0.128-1.167,0.747-1.247,0.98
			c-0.355,0.755-0.562,1.196-0.719,2.037C99.789,165.265,99.68,166.631,99.68,166.631z"/>
		<path fill-rule="evenodd" clip-rule="evenodd" fill="#0466C0" d="M129.13,158.784c0.879,0.056,1.494,0.587,2.013,1.088
			c0.63,0.979,1.069,1.978,0.76,3.122c-0.034,0.182-0.338,0.852-0.499,1c-0.146,0.402-1.025,1.139-1.745,1.437
			c-0.384,0.158-0.824,0.32-1.234,0.404c-0.092,0.02-0.696,0.195-0.732,0.122c-0.471-0.954-1.161-2.14-1.1-3.34
			C126.715,161.104,127.583,159.865,129.13,158.784z"/>
		<g>
			<g>
				
					<circle fill-rule="evenodd" clip-rule="evenodd" fill="#FFFFFF" stroke="#4C4B4B" stroke-width="0.2929" stroke-miterlimit="10" cx="100.457" cy="161.893" r="0.403"/>
				
					<circle fill-rule="evenodd" clip-rule="evenodd" fill="#FFFFFF" stroke="#4C4B4B" stroke-width="0.2929" stroke-miterlimit="10" cx="97.95" cy="158.471" r="0.404"/>
				
					<circle fill-rule="evenodd" clip-rule="evenodd" fill="#FFFFFF" stroke="#4C4B4B" stroke-width="0.2929" stroke-miterlimit="10" cx="99.205" cy="160.131" r="0.403"/>
			</g>
			<g>
				
					<circle fill-rule="evenodd" clip-rule="evenodd" fill="#FFFFFF" stroke="#4C4B4B" stroke-width="0.2929" stroke-miterlimit="10" cx="122.34" cy="159.47" r="0.402"/>
				
					<circle fill-rule="evenodd" clip-rule="evenodd" fill="#FFFFFF" stroke="#4C4B4B" stroke-width="0.2929" stroke-miterlimit="10" cx="126.12" cy="161.234" r="0.403"/>
				
					<circle fill-rule="evenodd" clip-rule="evenodd" fill="#FFFFFF" stroke="#4C4B4B" stroke-width="0.2929" stroke-miterlimit="10" cx="124.144" cy="160.44" r="0.403"/>
			</g>
			<g>
				<path fill-rule="evenodd" clip-rule="evenodd" fill="#F7143A" d="M97.922,158.338c0.872-0.237,1.685-0.654,2.536-0.953
					c0.504-0.177,1.265-0.497,1.795-0.254c0.119,0.054,0.061,0.253-0.061,0.197c-0.517-0.236-1.294,0.12-1.791,0.295
					c-0.817,0.286-1.592,0.688-2.431,0.916C97.843,158.575,97.794,158.374,97.922,158.338z"/>
				<path fill-rule="evenodd" clip-rule="evenodd" fill="#F7143A" d="M99.179,160.032c0.891-0.15,1.627-0.842,2.473-1.146
					c0.438-0.158,1.308-0.627,1.737-0.245c0.1,0.089-0.052,0.229-0.15,0.142c-0.349-0.311-1.502,0.278-1.872,0.425
					c-0.737,0.292-1.338,0.891-2.139,1.027C99.097,160.255,99.048,160.054,99.179,160.032z"/>
				<path fill-rule="evenodd" clip-rule="evenodd" fill="#F7143A" d="M100.477,161.806c1.132-0.819,2.514-1.754,3.966-1.75
					c0.037,0,0.07,0.022,0.088,0.054c0.053,0.095,0.036,0.119,0.004,0.218c-0.043,0.126-0.24,0.066-0.197-0.062
					c0.005-0.017,0.009-0.028,0.014-0.037c-0.011,0.016-0.025,0.033-0.043,0.033c-0.22-0.001-0.437,0.047-0.648,0.096
					c-0.436,0.102-0.849,0.289-1.248,0.485c-0.646,0.319-1.253,0.722-1.836,1.145C100.467,162.066,100.371,161.883,100.477,161.806z
					"/>
			</g>
			<g>
				<path fill-rule="evenodd" clip-rule="evenodd" fill="#F7143A" d="M128.26,158.439c-0.536-0.209-0.942,0.412-1.188,0.792
					c-0.386,0.601-0.592,1.339-1.018,1.908c-0.079,0.105,0.079,0.238,0.159,0.132c0.279-0.374,0.446-0.851,0.657-1.264
					c0.187-0.364,0.733-1.603,1.302-1.381C128.297,158.674,128.384,158.487,128.26,158.439z"/>
				<path fill-rule="evenodd" clip-rule="evenodd" fill="#F7143A" d="M126.676,157.461c-0.436-0.057-0.72,0.479-0.913,0.789
					c-0.482,0.775-0.981,1.444-1.732,1.987c-0.108,0.077,0.011,0.248,0.119,0.169c0.572-0.414,1.041-0.908,1.447-1.486
					c0.218-0.309,0.589-1.315,1.043-1.255C126.771,157.682,126.808,157.479,126.676,157.461z"/>
				<path fill-rule="evenodd" clip-rule="evenodd" fill="#F7143A" d="M125.162,156.528c-0.58-0.227-1.127,0.531-1.429,0.911
					c-0.292,0.368-0.552,0.76-0.819,1.146c-0.171,0.247-0.35,0.578-0.603,0.754c-0.109,0.076,0.009,0.245,0.118,0.17
					c0.456-0.316,0.758-0.962,1.069-1.404c0.259-0.369,0.999-1.614,1.577-1.389C125.199,156.764,125.287,156.577,125.162,156.528z"
					/>
			</g>
		</g>
		<path display="none" fill-rule="evenodd" clip-rule="evenodd" d="M107.554,157.241c0.008-0.967,0.653-1.118,1.284-0.958
			c0.648,0.165,1.267,0.466,1.881,0.744c0.524,0.237,0.484,0.718,0.402,1.222c1.475,0.915,2.804,0.361,4.114-0.381
			c0.062-0.036,0.139-0.097,0.152-0.157c0.086-0.41,0.384-0.366,0.689-0.357c0.303,0.008,0.435,0.161,0.426,0.439
			c-0.015,0.507-0.035,1.014-0.076,1.519c-0.074,0.923-0.177,1.843-0.249,2.766c-0.082,1.075-0.665,1.833-1.513,2.419
			c-0.787,0.542-1.578,1.079-2.384,1.595c-1.104,0.706-2.333,1.146-3.549,1.614c-0.947,0.365-1.922,0.633-2.935,0.586
			c-1.787-0.082-3.764-1.768-3.154-3.978c0.366-1.324,1.181-2.344,2.108-3.288c0.812-0.826,1.396-1.812,2.046-2.753
			c0.037-0.052,0.053-0.139,0.039-0.201c-0.14-0.605-0.011-0.773,0.623-0.797C107.483,157.273,107.504,157.258,107.554,157.241z
			 M109.021,167.042c0.959-0.442,1.946-0.833,2.87-1.339c0.806-0.441,1.556-0.991,2.303-1.53c0.518-0.375,1.053-0.771,1.23-1.433
			c0.133-0.495,0.221-1.007,0.278-1.518c0.074-0.649,0.098-1.305,0.139-1.957c0.023-0.373,0.04-0.746,0.064-1.19
			c-0.316,0.149-0.558,0.239-0.775,0.371c-0.928,0.56-1.93,0.789-3.007,0.724c-0.465-0.028-0.967-0.35-1.366,0.169
			c-0.005,0.008-0.023,0.007-0.036,0.006c-0.393-0.023-0.512,0.276-0.669,0.542c0.097,0.118,0.188,0.218,0.267,0.326
			c0.276,0.385,0.292,0.57-0.14,0.738c-0.479,0.187-0.436,0.539-0.5,0.89c-0.012,0.06-0.024,0.117-0.038,0.176
			c-0.416,0.076-0.833,0.27-1.155-0.221c-0.17,0.128-0.312,0.234-0.452,0.34c0.353,0.185,0.576,0.347,0.428,0.63
			c-0.101,0.192-0.342,0.31-0.499,0.442c0.122,0.198,0.277,0.406,0.385,0.635c0.386,0.824,0.574,1.704,0.654,2.606
			c0.016,0.187-0.001,0.376-0.003,0.565c-0.467,0.114-0.461,0.113-0.59-0.385c-0.214-0.829-0.414-1.664-0.668-2.48
			c-0.073-0.235-0.278-0.465-0.481-0.618c-0.776-0.589-1.689-0.895-2.603-1.203c-0.232-0.078-0.356-0.027-0.453,0.148
			c-0.272,0.494-0.561,0.982-0.793,1.494c-0.476,1.052-0.224,2.31,0.627,3.008c0.659,0.543,1.353,0.979,2.313,0.826
			C107.281,167.658,108.177,167.458,109.021,167.042z M108.154,157.305c0.7,0.586,1.482,0.762,2.308,0.847
			c0.104-0.353,0.071-0.616-0.295-0.771c-0.384-0.162-0.747-0.372-1.136-0.518c-0.71-0.264-0.715-0.25-0.876,0.438
			C108.149,157.325,108.149,157.348,108.154,157.305z M107.841,161.911c0.094-0.115,0.249-0.251,0.33-0.424
			c0.059-0.126,0.078-0.394,0.013-0.434c-0.355-0.223-0.729-0.454-1.127-0.547c-0.132-0.031-0.358,0.34-0.538,0.528
			c-0.021,0.022-0.025,0.061-0.039,0.097C106.914,161.378,107.336,161.622,107.841,161.911z M104.765,161.792
			c0.867,0.329,1.71,0.649,2.644,1.003c-0.093-0.185-0.131-0.323-0.216-0.422c-0.453-0.534-1.066-0.775-1.729-0.926
			C105.068,161.357,104.915,161.442,104.765,161.792z M108.867,160.603c0.337-0.223,0.137-0.577,0.012-0.782
			c-0.137-0.225-0.445-0.395-0.713-0.475c-0.248-0.074-0.556,0.284-0.641,0.629C107.966,160.181,108.406,160.387,108.867,160.603z
			 M107.044,158.824c-0.188,0.331-0.354,0.626-0.529,0.933c0.405,0.094,0.771-0.236,0.902-0.771
			C107.31,158.939,107.201,158.892,107.044,158.824z M105.65,160.914c0.423,0.182,0.476,0.143,0.749-0.554
			C106.098,160.275,105.813,160.485,105.65,160.914z M108.408,158.091c-0.365-0.355-0.533-0.359-0.75,0
			C107.916,158.091,108.142,158.091,108.408,158.091z"/>
	</g>
	<path fill="#0466C0" d="M112.888,137.038c-2.686-0.158-5.229-0.43-7.88-0.662c-0.192-0.041-6.253-0.533-7.764-0.782
		c-0.181-0.03-2.414-0.346-2.576-0.382c-0.505-0.115-1.599-0.349-1.786-0.396c-0.397-0.116-0.682-0.237-0.918-0.302
		c-0.256-0.068-0.233-0.102-0.263,0.185c0,0-0.044,1.096,0.034,2.151c0.104,1.412-0.034,2.427-0.141,3.231
		c-0.036,0.244-0.189,0.922-0.207,1.006c-0.041,0.186-0.093,0.813-0.066,0.969c0.041,0.237,0.189,0.436,0.369,0.597
		c0.297,0.263,1.098,0.534,1.457,0.691c0.348,0.152,0.721,0.32,1.437,0.509c0.754,0.197,1.511,0.396,2.274,0.56
		c0.892,0.189,1.797,0.312,2.689,0.502c1.7,0.362,2.967,0.569,4.919,0.688c0.75,0.046,1.414,0.014,2.095-0.001
		c0.521-0.012,0.457-0.585,0.639-1.353c0.348-1.466,0.321-2.696,0.962-4.095c0.06-0.13,0.732-1.145,0.862-1.193"/>
	<g>
		<path fill="#0466C0" d="M109.025,138.754c0.524-0.146,0.895,0.15,0.895,0.15c0.548,0.341,0.79,1.096,0.971,1.753
			c0.154,0.436,0.209,1.016,0.236,1.438c0.016,0.263,0.033,0.382,0.03,0.49c0.014,0.264,0.069,0.922,0.108,1.185
			c0.071,0.467,0.168,1.301,0.798,1.138c0.176-0.047,2.026-0.265,2.444-0.316c1.916-0.235,3.779-0.432,5.627-0.767
			c0.938-0.17,1.748-0.272,2.802-0.459c0.281-0.05,1.719-0.317,2.023-0.363c0.464-0.104,0.571-0.097,0.794-0.176
			c0.298-0.106,0.645-0.181,0.893-0.378c0.414-0.292,0.273-0.863,0.187-1.512c-0.002-0.021-0.256-0.864-0.374-1.324
			c-0.083-0.322-0.191-0.998-0.196-1.056c-0.021-0.252-0.056-0.502-0.093-0.752c-0.045-0.556-0.084-1.112-0.153-1.665
			c-0.009-0.072-0.083-0.458-0.104-0.703c-0.1-0.56-0.065-0.551-0.278-1.178c-0.15-0.339-0.181-0.423-0.37-0.842
			c-0.108-0.239-0.04-0.075-0.378,0.021c-0.049,0.014-0.951,0.216-0.985,0.248c-0.404,0.091-0.797,0.204-1.205,0.268
			c-0.721,0.173-1.932,0.394-1.969,0.407c-0.285,0.057-2.301,0.466-2.92,0.522c-1.156,0.238-3.812,0.688-4.266,0.722
			c-2.647,0.473-5.186,0.804-7.816,1.194"/>
		<path fill-rule="evenodd" clip-rule="evenodd" fill="#FFFFFF" d="M95.842,102.939c0.401,0.611,3.866,1.87,4.414,2.169
			c1.787,0.977,3.708,1.51,5.741,1.586c1.246,0.045,2.508,0.117,3.744-0.007c2.257-0.224,4.47-0.735,6.576-1.588
			c0.729-0.295,0.911-0.605,1.65-1.067c0.465-0.231,1.24-0.729,1.992-0.753c1.151-0.036,2.151,1.991,2.251,2.299
			c0.831,1.573,1.396,3.004,1.837,4.633c0.436,1.605,0.924,3.364,1.234,4.999c0.299,1.572,0.054,3.236,0.236,4.828
			c0.117,1.023,0.119,2.061,0.17,3.092c0.003,0.044,0.544,6.932,0.744,7.918c0.173,0.789,0.179,1.119,0.077,1.808
			c-0.028,0.187-0.163,0.509-0.264,0.785c-0.049,0.19-0.355,0.709-0.465,0.758c-0.467,0.302-6.492,1.205-7.096,1.257
			c-1.735,0.148-3.613,0.462-6.662,0.646c-2.025,0.122-4.09,0.307-6.118,0.392c-1.057,0.138-2.16-0.051-3.222,0.07
			c-1.296,0.146-2.991-0.298-4.299-0.252c-0.961,0.034-2.797-0.226-3.757-0.243c-0.669-0.013-1.302-0.003-1.963-0.131
			c-0.273-0.053-0.953,0.02-1.192-0.154c-0.024-0.189,0.162-0.733,0.143-1.055c-0.341-1.475,0.039-8.282,0.034-8.426
			c-0.026-0.748-0.057-0.978-0.01-1.631c0.021-0.305,0.257-1.132,0.287-1.233c-0.071-1.341,0.01-2.104,0.07-3.091
			c0.084-1.4,0.176-2.404,0.297-3.803c0.085-0.979,0.207-1.978,0.338-2.951c0.224-1.655,0.644-3.27,1.114-4.872
			c0.351-1.189,0.883-2.372,1.166-3.578C94.986,105.025,95.816,103.294,95.842,102.939z"/>
		<path fill="#FFFFFF" stroke="#4C4B4B" stroke-width="0.0645" stroke-miterlimit="10" d="M122.063,101.754
			c0,0,0.865,0.664,1.244,1.047c1.096,1.107,2.206,2.215,3.15,3.418c1.212,1.541,2.256,3.688,3.11,5.406
			c1.174,2.362,1.652,4.74,2.232,7.282c0.451,1.98,1.001,3.473,2.172,5.392c0.203,0.266,0.165,0.685-0.242,1.035
			c-1.134,0.854-3.033,2.203-4.609,2.549c-0.243,0.057-0.718,0.248-0.864,0.199c-0.245-0.082-0.14-0.547-0.283-0.854
			c-0.468-0.999-1.335-2.353-1.711-3.354c-0.396-1.057-0.373-1.192-0.423-1.926c-0.3-0.191-1.579-7.941-2.437-10.195
			c-0.536-1.411-1.407-2.661-2.301-3.911c-0.954-1.334-3.151-3.743-2.856-3.915C118.492,103.784,122.063,101.754,122.063,101.754z
			 M86.055,107.21"/>
		<path fill="#FFFFFF" stroke="#4C4B4B" stroke-width="0.0661" stroke-miterlimit="10" d="M98.028,103.822
			c-0.535,0.885-1.06,1.775-1.558,2.678c-0.564,1.02-1.032,2.09-1.467,3.165c-0.432,1.067-0.796,2.161-1.14,3.258
			c-0.445,1.419-0.829,2.854-1.263,4.276c-0.416,1.368-0.293,2.765-0.184,4.2c0.008,0.096-0.89,3.425-0.906,3.517
			c-0.025,0.14-0.1,0.271-0.122,0.412c-0.161,0.979-0.29,1.965-0.476,2.939c-0.138,0.714-0.303,2.285-0.501,2.987
			c-0.033,0.117-0.615,0.208-0.739,0.22c-1.168,0.108-2.907-0.396-3.981-0.923c-1.272-0.625-1.919-1.705-1.443-2.759
			c0.511-1.128,0.734-2.325,0.788-3.527c0.079-1.743,0.484-3.419,0.874-5.1c0.212-0.915,1.607-4.776,2.08-5.774
			c0.376-0.791,2.519-4.648,3.777-6.638c1.084-1.383,2.373-2.873,3.458-4.049L98.028,103.822z"/>
		<g>
			<path fill-rule="evenodd" clip-rule="evenodd" fill="#0466C0" d="M129.121,110.821c-1.324,1.05-4.025,2.515-5.188,2.734
				c-0.158,0.029-0.089,0.4,0.069,0.37c1.739-0.328,4.066-1.82,5.25-2.756C129.375,111.074,129.243,110.725,129.121,110.821z"/>
			<path fill-rule="evenodd" clip-rule="evenodd" fill="#0466C0" d="M132.602,121.642c-1.694,1.31-3.84,2.438-5.923,2.939
				c-0.157,0.038-0.091,0.353,0.066,0.315c2.131-0.514,4.273-1.635,6.006-2.974C132.875,121.829,132.725,121.547,132.602,121.642z"
				/>
			<path fill-rule="evenodd" clip-rule="evenodd" fill="#F7143A" d="M125.664,105.587c-1.135,0.928-2.489,1.858-4.25,2.274
				c-0.155,0.036-0.1,0.298,0.058,0.262c2.033-0.475,3.394-1.396,4.432-2.341C126.016,105.679,125.783,105.489,125.664,105.587z"/>
			<path fill-rule="evenodd" clip-rule="evenodd" fill="#F7143A" d="M131.009,116.423c-1.703,1.047-3.653,2.14-5.68,2.59
				c-0.157,0.034-0.092,0.366,0.066,0.331c2.047-0.454,4.02-1.554,5.741-2.612C131.27,116.65,131.144,116.34,131.009,116.423z"/>
		</g>
		<g>
			<path fill-rule="evenodd" clip-rule="evenodd" fill="#0466C0" d="M91.042,126.676c-2.138-0.236-4.204-1.396-5.807-2.289
				c-0.137-0.075-0.378,0.19-0.028,0.384c2.12,1.172,3.481,1.843,5.87,2.307C91.233,127.106,91.2,126.693,91.042,126.676z"/>
			<path fill-rule="evenodd" clip-rule="evenodd" fill="#0466C0" d="M93.792,113.94c-1.743-0.305-3.457-0.877-5.064-1.713
				c-0.139-0.071-0.322,0.158-0.182,0.227c1.477,0.71,2.42,1.215,5.127,1.73C93.83,114.213,93.948,113.967,93.792,113.94z"/>
			<path fill-rule="evenodd" clip-rule="evenodd" fill="#F7143A" d="M96.16,107.433c-1.688-0.344-2.271-0.568-3.674-1.499
				c-0.128-0.085-0.144,0.111-0.035,0.219c0.909,0.906,2.484,1.219,3.609,1.481C96.213,107.669,96.314,107.465,96.16,107.433z"/>
			<path fill-rule="evenodd" clip-rule="evenodd" fill="#F7143A" d="M92.003,120.387c-1.94-0.426-3.719-1.199-5.688-2.261
				c-0.135-0.073-0.224,0.217-0.098,0.305c1.52,1.065,3.787,1.849,5.75,2.28C92.122,120.745,92.156,120.42,92.003,120.387z"/>
		</g>
	</g>
	<g>
		<g>
			<path fill-rule="evenodd" clip-rule="evenodd" fill="#F7143A" d="M119.558,108.048c-8.635,3.907-17.004,1.959-22.02,0.86
				c-0.13-0.028-0.105,0.26,0.025,0.282c3.771,0.654,12.827,3.386,22.104-0.968C119.789,108.166,119.679,107.994,119.558,108.048z"
				/>
			<path fill-rule="evenodd" clip-rule="evenodd" fill="#F7143A" d="M122.509,118.507c-11.846,4.12-18.721,3.186-26.814,1.687
				c-0.131-0.024-0.047,0.521,0.084,0.543c8.581,1.461,14.919,2.286,26.663-1.779C122.568,118.914,122.635,118.463,122.509,118.507z
				"/>
			<path fill-rule="evenodd" clip-rule="evenodd" fill="#F7143A" d="M124.826,130.289c-14.117,3.994-23.562,1.548-30.797,1.601
				c-0.148,0.002-0.137,0.193,0.012,0.207c5.337,0.45,20.702,2.172,30.797-1.602C124.976,130.443,124.968,130.248,124.826,130.289z"
				/>
			<path fill-rule="evenodd" clip-rule="evenodd" fill="#0466C0" d="M121.5,113.447c-9.621,3.298-19.948,1.709-25.898,1.008
				c0,0-0.129,0.187,0.007,0.206c6.819,0.943,16.286,2.549,25.955-1.017C121.693,113.596,121.63,113.402,121.5,113.447z"/>
			<path fill-rule="evenodd" clip-rule="evenodd" fill="#0466C0" d="M123.507,123.926c-12.321,4.779-21.903,2.741-27.857,1.729
				c-0.131-0.021-0.116,0.181,0.014,0.207c5.589,1.113,14.503,3.701,27.985-1.594C123.773,124.218,123.63,123.878,123.507,123.926z"
				/>
		</g>
		<path fill-rule="evenodd" clip-rule="evenodd" d="M125.707,127.075c0.162,0.382-0.519,0.186-0.951,0.163
			c-0.434-0.021-0.849,0.098-1.281,0.063c-0.049,0.171-0.57-0.041-0.582-0.136c-0.08-0.657-0.078-1.981-0.121-2.644
			c-0.006-0.082,0.179-0.319,0.261-0.338c0.198-0.043,0.634-0.043,0.841-0.033c0.22,0.011,0.507,0.114,0.727,0.12
			c0.539,0.016,0.764-0.528,0.802-0.002C125.433,124.722,125.69,126.621,125.707,127.075z"/>
		<path fill-rule="evenodd" clip-rule="evenodd" d="M95.045,126.096c-0.038-0.505,0.351-1.277-0.222-1.183
			c-0.475,0.078-1.542-0.019-2.02-0.057c-0.623-0.049-0.322,0.999-0.368,1.632c-0.014,0.185-0.006,0.724,0.053,0.846
			c0.026,0.096-0.224-0.289-0.17-0.203c0.057,0.067,0.112,0.135,0.17,0.203c0.133,0.124,0.288,0.207,0.465,0.25
			c0.106,0.039,0.226,0.042,0.339,0.042c0.16,0.09,0.341,0.144,0.533,0.137c0.403-0.015,0.522,0.212,0.89-0.021
			C95.247,127.406,95.087,126.655,95.045,126.096z"/>
		<path fill="#F7143A" d="M95.842,102.939c0.631,0.204,2.828,1.155,2.817,1.272c-0.057,0.589-0.106,1.081-0.24,1.65
			c-0.382,1.62-0.857,3.218-1.246,4.837c-0.317,1.319-0.622,2.647-0.822,3.987c-0.206,1.367-0.297,2.754-0.404,4.134
			c-0.101,1.274-0.135,2.554-0.239,3.828c-0.048,0.572-0.183,1.37-0.298,1.936c-0.016,0.075-0.113,0.188-0.175,0.19
			c-0.554,0.021-1.822-0.088-2.376-0.069c-0.493-0.007-0.685-0.323-0.735-0.663c-0.176-1.357-0.309-2.73-0.179-4.099
			c0.07-0.746,0.174-1.489,0.237-2.236c0.081-0.945,0.09-1.898,0.215-2.837c0.155-1.166,0.352-2.332,0.615-3.478
			c0.271-1.171,0.61-2.329,0.981-3.473c0.479-1.482,0.935-2.873,1.511-4.342L95.842,102.939z M120.077,102.847
			c0.664,0.577,1.531,1.491,1.897,2.275c0.271,0.548,0.564,1.075,0.771,1.786c0.6,1.556,1.212,3.077,1.759,4.651
			c0.411,1.186,0.738,2.526,0.86,3.779c0.118,1.229,0.209,2.382,0.316,3.612c0.096,1.109,0.037,2.244,0.095,3.357
			c0.024,0.467,0.309,1.64-0.016,1.714c-0.769,0.177-2.503,0.662-2.999,0.228c-0.411-0.358-0.312-1.941-0.387-2.66
			c-0.175-1.679-0.32-3.365-0.611-5.024c-0.312-1.786-0.74-3.553-1.187-5.31c-0.333-1.316-2.062-6.307-2.608-7.225
			C118.324,103.593,120.077,102.847,120.077,102.847z"/>
		<path d="M126.099,130.175c0.133,0.652,0.283,1.574,0.363,2.235c0.06,0.494-0.389,1.039-0.865,1.146
			c-0.403,0.091-1.11,0.075-1.522,0.05c-0.712-0.045-1.233-0.381-1.028-1.077c0.153-0.521,0.261-1.213,0.078-1.706
			c-0.396-1.071-0.469-2.083-0.268-3.196c0.023-0.132,0.06-0.492,0.207-0.397c0.834-0.029,1.777-0.096,2.334-0.123
			c0.113-0.007,0.152-0.014,0.224,0.114C125.716,127.288,125.928,129.331,126.099,130.175z"/>
		<path fill-rule="evenodd" clip-rule="evenodd" d="M95.151,128.459c0.208,0.717,0.386,1.449,0.677,2.132
			c0.521,1.223,0.378,2.794,0.05,4.059c-0.087,0.336-0.305,0.519-0.712,0.687c-0.293,0.012-1.758,0.128-2.047,0.078
			c-0.616-0.105-0.854-0.258-0.711-0.863c0.25-1.062,0.114-2.409-0.102-3.463c-0.146-0.717-0.02-1.523-0.063-2.261
			c-0.012-0.207,0.194-1.089,0.188-1.235c0.76,0.172,1.753,0.384,2.494,0.238C95.015,127.864,95.097,127.952,95.151,128.459z"/>
		<path fill-rule="evenodd" clip-rule="evenodd" fill="none" stroke="#423B3E" stroke-width="0.5857" stroke-miterlimit="10" d="
			M95.457,126.287c-0.017,0.782-0.344,1.461-1.086,1.444l-1.249,0.008c-0.741-0.016-1.078-0.796-1.062-1.579l0.003-0.118
			c0.017-0.783,0.247-1.354,0.99-1.338l1.536-0.058c0.742,0.018,0.914,0.726,0.897,1.509L95.457,126.287z"/>
		<path fill-rule="evenodd" clip-rule="evenodd" fill="none" stroke="#423B3E" stroke-width="0.5857" stroke-miterlimit="10" d="
			M126.053,125.924c-0.022,0.762,0.086,1.139-0.721,1.185l-1.916,0.192c-0.808,0.047-0.889-0.681-0.933-1.438l-0.006-0.115
			c-0.045-0.759-0.018-1.411,0.79-1.458l2.284-0.138c0.184-0.011,0.256,0.238,0.426,1.244L126.053,125.924z"/>
	</g>
	<g>
		<g>
			<path opacity="0.4" fill-rule="evenodd" clip-rule="evenodd" fill="#E25A3B" d="M120.03,90.486
				c-0.438,0.014-0.415,0.69,0.021,0.676C120.488,91.149,120.465,90.471,120.03,90.486z"/>
			<path opacity="0.4" fill-rule="evenodd" clip-rule="evenodd" fill="#E25A3B" d="M118.068,92.73
				c-0.437,0.015-0.415,0.69,0.021,0.677S118.503,92.716,118.068,92.73z"/>
			<path opacity="0.4" fill-rule="evenodd" clip-rule="evenodd" fill="#E25A3B" d="M123.366,91.98
				c-0.437,0.014-0.414,0.69,0.022,0.676C123.825,92.643,123.802,91.965,123.366,91.98z"/>
			<path opacity="0.4" fill-rule="evenodd" clip-rule="evenodd" fill="#E25A3B" d="M125.693,91.153
				c-0.437,0.014-0.416,0.689,0.021,0.676S126.128,91.138,125.693,91.153z"/>
			<path opacity="0.4" fill-rule="evenodd" clip-rule="evenodd" fill="#E25A3B" d="M127.455,93.336
				c-0.437,0.014-0.415,0.69,0.021,0.677C127.912,93.999,127.89,93.323,127.455,93.336z"/>
			<path opacity="0.4" fill-rule="evenodd" clip-rule="evenodd" fill="#E25A3B" d="M121.878,93.665
				c-0.437,0.014-0.415,0.69,0.021,0.677C122.335,94.327,122.315,93.651,121.878,93.665z"/>
		</g>
		<g>
			<path opacity="0.4" fill-rule="evenodd" clip-rule="evenodd" fill="#E25A3B" d="M97.388,90.573c-0.42,0-0.42,0.649,0,0.649
				C97.807,91.222,97.807,90.573,97.388,90.573z"/>
			<path opacity="0.4" fill-rule="evenodd" clip-rule="evenodd" fill="#E25A3B" d="M94.892,92.419c-0.419,0-0.419,0.649,0,0.649
				S95.311,92.419,94.892,92.419z"/>
			<path opacity="0.4" fill-rule="evenodd" clip-rule="evenodd" fill="#E25A3B" d="M99.809,92.256c-0.419,0-0.419,0.65,0,0.65
				S100.228,92.256,99.809,92.256z"/>
			<path opacity="0.4" fill-rule="evenodd" clip-rule="evenodd" fill="#E25A3B" d="M101.405,90.971c-0.419,0-0.419,0.65,0,0.65
				S101.824,90.971,101.405,90.971z"/>
			<path opacity="0.4" fill-rule="evenodd" clip-rule="evenodd" fill="#E25A3B" d="M103.442,92.847c-0.418,0-0.418,0.65,0,0.65
				C103.862,93.498,103.862,92.847,103.442,92.847z"/>
			<path opacity="0.4" fill-rule="evenodd" clip-rule="evenodd" fill="#E25A3B" d="M98.289,93.778c-0.419,0-0.419,0.65,0,0.65
				S98.708,93.778,98.289,93.778z"/>
		</g>
	</g>
	<g>
		<path fill-rule="evenodd" clip-rule="evenodd" fill="#D08836" d="M134.39,76.325c-0.088-0.129-2.131-3.038-2.574-3.43
			c-0.773-0.683-2.471-1.681-2.528-1.712c-0.668-0.374-6.254-1.811-8.396-2.043c-2.695-0.799-12.623-0.398-14.169-0.232
			c-0.35,0.019-4.982,0.505-8.501,1.186c-1.399,0.271-3.083,0.832-4.854,1.539c-0.57,0.125-5.724,3.141-6.814,3.865
			c-0.632,0.321-4.106,2.493-5.163,3.283c-0.12,0.09-0.737,0.358-0.806,0.468c-0.237,0.23,0.175,0.407,0.329,0.822
			c0.576,1.551,1.153,3.118,1.987,4.563c0.333,0.579,0.333,0.579,0.77,0.296c0.387-0.164,1.462,0.096,1.818,0.272
			c0.195,0.146,0.854,0.509,1.025,0.854c0.045,0.105,0.095,0.21,0.143,0.315c0.028,0.063,0.097,0.075,0.147,0.055
			c0.062,0.034,2.002-0.722,2.02-0.735c0.525-0.167,4.876-2.44,5.206-2.64c0.661-0.399,1.748-1.492,2.225-2.096
			c0.788-1.033,1.022-1.642,1.378-2.821c0.191-0.638,0.296-1.316,0.298-1.991c0.042,0.089,0.087,0.176,0.138,0.262
			c0.499,0.852,1.026,1.547,1.604,2.429c0.551,0.694,1.2,1.248,1.928,1.621c0.961,0.653,2.097,1.023,3.33,1.328
			c2.309,0.406,4.583,0.629,6.927,0.636c1.29,0.146,7.765,0.155,7.114,0.138c2.552,0.066,5.628,0.685,6.053,0.776
			c1.051,0.283,2.169,0.817,2.835,1.342c0.214,0.157,1.03,1.098,1.306,1.333c0.037,0.032,0.638-0.06,0.637-0.149
			c-0.003-0.08,0.038-1.005,0.213-1.268c0.057-0.126,0.262-0.328,0.538-0.515c0.22-0.147,0.604-0.449,0.743-0.551
			c0.223-0.119,0.398-0.188,0.646-0.223c0.236,0.008,0.424,0.115,0.591,0.21c0.127,0.072,0.487,0.521,0.487,0.521
			c0.08-0.037,0.239-0.633,0.297-0.811c0.062-0.188,0.112-0.477,0.145-0.645c0.21-1.09,0.555-2.114,0.674-3.177
			c0.038-0.113,0.343-2.047,0.351-2.088C134.53,77.083,134.436,76.389,134.39,76.325z"/>
		<path display="none" fill-rule="evenodd" clip-rule="evenodd" d="M99.219,76.078c-0.072,0.48-0.158,0.898-0.194,1.321
			c-0.139,1.639-0.895,2.955-2.021,4.121c-1.209,1.251-2.715,2.022-4.263,2.701c-1.613,0.706-3.279,1.288-4.924,1.925
			c-0.098-0.207-0.152-0.322-0.213-0.45c0.706-0.255,1.423-0.513,2.14-0.773c0.521-0.189,1.038-0.382,1.557-0.575
			c1.36-0.509,2.628-1.208,3.859-1.964c0.901-0.554,1.621-1.316,2.25-2.176c0.798-1.092,0.916-2.362,1.084-3.631
			c0.128-0.977,0.136-1.943-0.12-2.905c-0.031-0.114,0.069-0.265,0.109-0.397c0.102,0.045,0.215,0.074,0.303,0.139
			c0.338,0.246,0.488,0.602,0.577,1c0.294,1.312,1.014,2.424,1.713,3.54c0.688,1.097,1.588,1.997,2.751,2.579
			c1.166,0.584,2.408,1.008,3.693,1.203c1.893,0.288,3.799,0.523,5.708,0.675c2.27,0.181,4.552,0.207,6.823,0.375
			c2.729,0.202,5.403,0.712,7.922,1.819c0.75,0.329,1.439,0.818,2.109,1.301c0.285,0.206,0.465,0.571,0.663,0.882
			c0.127,0.2,0.034,0.375-0.163,0.497c-0.213,0.133-0.285-0.032-0.368-0.169c-0.677-1.126-1.822-1.636-2.929-2.16
			c-1.446-0.684-3.015-0.98-4.58-1.269c-1.891-0.348-3.797-0.471-5.715-0.531c-1.854-0.061-3.711-0.137-5.559-0.303
			c-2.256-0.203-4.507-0.484-6.665-1.249c-1.628-0.577-3-1.489-3.946-2.961c-0.504-0.784-0.969-1.595-1.453-2.392
			C99.34,76.204,99.296,76.167,99.219,76.078z"/>
		<path display="none" fill-rule="evenodd" clip-rule="evenodd" d="M82.521,78.615c0.773,2.009,1.522,3.958,2.272,5.907
			c0.081,0.211-0.077-0.414-0.331-0.316c-0.254,0.097-0.211-0.337,0.051,0.219c-0.622-1.543-1.458-2.761-2.072-4.308
			c-0.176-0.445-0.331-0.898-0.512-1.392c-0.04-0.007-0.146-0.032-0.255-0.043c-0.265-0.028-0.336-0.189-0.193-0.379
			c0.187-0.245,0.098-0.441,0.008-0.682c-0.631-1.691-0.886-3.443-0.755-5.243c0.128-1.763,0.499-3.476,1.062-5.155
			c1.004-3.001,2.616-5.604,4.954-7.744c1.178-1.078,2.488-1.984,3.867-2.781c1.191-0.689,2.411-1.344,3.661-1.922
			c1.428-0.66,2.881-1.277,4.362-1.801c1.049-0.371,2.16-0.576,3.252-0.815c0.808-0.177,1.626-0.31,2.445-0.427
			c0.927-0.133,1.858-0.232,2.789-0.328c0.244-0.025,0.377-0.062,0.392-0.354c0.02-0.371,0.571-0.858,1.031-0.889
			c0.464-0.031,0.94-0.014,1.399,0.058c0.493,0.076,0.788,0.606,0.663,1.103c0.538,0.054,1.073,0.11,1.608,0.16
			c1.464,0.135,2.894,0.429,4.284,0.911c0.831,0.287,1.665,0.567,2.5,0.842c0.101,0.033,0.225,0.042,0.327,0.019
			c1.666-0.388,3.363-0.564,5.065-0.608c1.264-0.033,2.532,0.066,3.796,0.155c0.921,0.065,1.859,0.117,2.748,0.342
			c1.561,0.393,3.111,0.853,4.623,1.402c0.986,0.359,1.95,0.824,2.753,1.56c0.663,0.607,1.154,1.329,1.503,2.133
			c0.469,1.082,0.883,2.188,1.271,3.301c0.131,0.376,0.155,0.806,0.147,1.21c-0.029,1.469-0.07,2.939-0.154,4.407
			c-0.039,0.659-0.102,1.344-0.312,1.962c-0.298,0.882-0.651,1.772-1.144,2.557c-1.135,1.808-2.362,3.559-3.567,5.322
			c-0.192,0.281-0.495,0.489-0.253,0.895c0.037,0.064-0.079,0.22-0.133,0.356c0.354,0.339,0.143,0.77,0.063,1.137
			c-0.314,1.443-0.689,2.873-1.042,4.309c-0.098,0.394-0.194,0.788-0.301,1.179c-0.096,0.348-0.159-0.182-0.285,0.238
			c-0.176-0.326-0.295,0.119-0.186-0.305c0.488-1.893,0.721-3.493,1.146-5.4c0.112-0.506,0.146-1.021,0.109-1.564
			c-0.047-0.719-0.397-1.236-0.718-1.804c-0.527-0.935-1.16-1.783-2.029-2.432c-0.998-0.742-2.103-1.272-3.307-1.591
			c-1.625-0.43-3.246-0.875-4.88-1.273c-1.008-0.246-2.029-0.443-3.053-0.615c-1.061-0.179-2.126-0.385-3.195-0.427
			c-1.645-0.065-3.294-0.01-4.94,0.011c-1.312,0.016-2.627,0.03-3.939,0.088c-1.247,0.055-2.493,0.164-3.74,0.249
			c-1.182,0.082-2.37,0.111-3.545,0.254c-2.99,0.362-5.851,1.206-8.573,2.497c-1.716,0.812-3.448,1.596-5.118,2.495
			c-1.708,0.918-3.348,1.962-5.018,2.952C82.915,78.368,82.709,78.499,82.521,78.615z M135.387,76.802
			c0.229-0.339,0.401-0.614,0.594-0.874c1.222-1.651,2.397-3.333,3.371-5.145c0.338-0.628,0.718-1.272,0.864-1.956
			c0.342-1.581,0.559-3.18,0.494-4.82c-0.052-1.28-0.078-2.54-0.58-3.741c-0.134-0.32-0.214-0.664-0.369-0.971
			c-0.398-0.791-0.768-1.607-1.256-2.342c-0.682-1.022-1.845-1.413-2.908-1.839c-2.012-0.804-4.089-1.432-6.263-1.643
			c-1.882-0.183-3.768-0.285-5.662-0.165c-1.611,0.104-3.21,0.286-4.758,0.735c-1.458,0.424-2.884,0.959-4.331,1.423
			c-1.923,0.616-3.791,1.382-5.574,2.314c-2.209,1.152-4.374,2.393-6.51,3.676c-1.246,0.749-2.422,1.626-3.589,2.498
			c-1.533,1.146-3.025,2.348-4.539,3.521c-0.857,0.666-1.751,1.289-2.575,1.994c-1.592,1.362-3.16,2.756-4.714,4.163
			c-1.329,1.203-2.624,2.444-3.932,3.672c-0.104,0.097-0.189,0.215-0.284,0.323c0.178-0.053,0.301-0.157,0.438-0.239
			c1.039-0.62,2.053-1.287,3.125-1.844c2.342-1.215,4.695-2.409,7.077-3.544c2.609-1.244,5.378-1.991,8.251-2.307
			c1.291-0.142,2.593-0.177,3.889-0.266c1.147-0.078,2.295-0.201,3.443-0.238c2.252-0.071,4.508-0.066,6.759-0.152
			c1.871-0.071,3.711,0.152,5.532,0.508c1.721,0.336,3.424,0.765,5.122,1.202c1.479,0.381,2.98,0.69,4.376,1.356
			c1.618,0.772,2.92,1.882,3.811,3.451C134.906,75.938,135.119,76.323,135.387,76.802z M82.109,77.485
			c0.353-0.371,0.681-0.758,1.052-1.098c1.904-1.745,3.805-3.495,5.736-5.21c1.312-1.166,2.659-2.293,4.017-3.405
			c1.369-1.122,2.759-2.218,4.159-3.299c1.987-1.532,3.982-3.06,6.173-4.296c2.099-1.185,4.219-2.332,6.359-3.438
			c2.038-1.054,4.223-1.752,6.387-2.492c0.683-0.233,1.373-0.444,2.1-0.679c-0.349-0.188-0.623-0.386-0.931-0.495
			c-1.444-0.514-2.931-0.903-4.454-1.056c-1.349-0.135-2.714-0.182-4.069-0.15c-1.281,0.029-2.562,0.182-3.837,0.334
			c-0.906,0.109-1.807,0.284-2.7,0.472c-1.037,0.217-2.091,0.404-3.089,0.745c-1.307,0.446-2.557,1.056-3.848,1.55
			c-1.812,0.693-3.496,1.621-5.102,2.696c-1.211,0.812-2.45,1.594-3.404,2.731c-0.603,0.718-1.276,1.382-1.82,2.141
			c-1.223,1.708-2.115,3.587-2.706,5.61c-0.534,1.828-0.778,3.687-0.738,5.594C81.419,75.026,81.62,76.265,82.109,77.485z
			 M109.961,51.283c-0.044-0.546-0.418-0.73-1.214-0.659c-0.518,0.047-0.668,0.202-0.617,0.659
			C108.73,51.283,109.332,51.283,109.961,51.283z"/>
		<g>
			
				<path fill-rule="evenodd" clip-rule="evenodd" fill="#FFFFFF" stroke="#4C4B4B" stroke-width="0.0586" stroke-miterlimit="10" d="
				M80.308,79.035c-0.571-1.292-1.159-2.612-1.241-3.994c-0.122-2.049,0.039-3.89,0.53-5.88c0.543-2.2,1.232-4.272,2.461-6.159
				c0.547-0.839,1.321-1.829,1.933-2.626c1.104-1.106,2.378-2.285,3.632-3.208c1.926-1.229,2.766-1.609,4.519-2.554
				c1.304-0.702,2.628-1.241,3.998-1.775c1.048-0.408,2.277-0.784,3.371-1.062c0.942-0.239,1.847-0.402,2.805-0.558
				c1.349-0.216,2.931-0.359,4.292-0.443c1.439-0.09,2.962,0.017,4.401,0.106c1.626,0.101,3.18,0.475,4.738,0.968
				c0.329,0.104,0.614,0.317,0.993,0.506c-0.763,0.281-1.296,0.18-2.012,0.458c-2.27,0.888-4.201,1.632-6.324,2.849
				c-2.229,1.277-4.437,2.6-6.619,3.96c-2.276,1.419-4.334,3.146-6.383,4.875c-1.443,1.221-2.875,2.457-4.283,3.72
				c-1.397,1.252-2.782,2.521-4.129,3.828c-1.982,1.924-3.931,3.885-5.883,5.842C80.727,78.268,80.668,78.621,80.308,79.035z"/>
			<g>
				<path fill-rule="evenodd" clip-rule="evenodd" fill="#0466C0" d="M126.868,70.606c0.003,0.001,0.007,0.002,0.016,0.005
					C126.878,70.609,126.874,70.608,126.868,70.606z"/>
				<g>
					<path fill-rule="evenodd" clip-rule="evenodd" fill="#F7143A" d="M106.41,50.758l0.229,5.919
						c0.006,0.134,0.349,0.165,0.327-0.382l-0.219-5.64C106.759,50.936,106.405,50.625,106.41,50.758z"/>
					<path fill-rule="evenodd" clip-rule="evenodd" fill="#0466C0" d="M113.049,53.629c-1.202-1.12-2.676-2.707-4.428-2.843
						c-0.132-0.01-0.734-0.054-0.603-0.044c1.681,0.13,3.304,1.893,4.457,2.967C112.573,53.801,113.147,53.72,113.049,53.629z"/>
					<path fill-rule="evenodd" clip-rule="evenodd" fill="#F7143A" d="M102.943,51.125c-9.389,4.36-10.649,6.964-12.481,8.999
						c-1.198,1.331-4.923,6.903-7.414,15.97c-0.036,0.128,0.611-0.468,0.651-0.594c2.736-8.74,6.308-14.171,7.111-15.218
						c3.412-4.44,7.146-6.374,13.217-9.311C104.148,50.914,103.064,51.07,102.943,51.125z"/>
				</g>
				<path fill-rule="evenodd" clip-rule="evenodd" fill="#0466C0" d="M140.011,60.958c-0.084-0.807-0.312-1.9-0.897-2.989
					c-0.54-1.005-0.784-1.524-1.032-1.847c-0.258-0.336-0.279-0.37-0.476-0.616c-0.241-0.304-0.427-0.521-0.741-0.771
					c-0.346-0.276-0.639-0.538-0.973-0.751c-0.234-0.148-0.603-0.392-0.77-0.5c-0.492-0.321-1.282-0.63-2.482-1.027
					c-1.501-0.497-2.909-0.665-3.241-0.721c-0.979-0.166-2.075-0.261-3.068-0.269c-0.835-0.008-5.315,0.147-6.718,0.378
					c-0.701,0.116-1.84,0.222-2.97,0.495c-1.495,0.362-2.957,0.905-3.181,1.028c-1.814,0.596-5.29,2.377-5.325,2.399
					c-0.523,0.239-5.641,3.323-5.812,3.463c-0.209,0.097-2.909,2.108-5.062,3.728c0.442-1.156,0.927-2.295,1.481-3.4
					c0.619-1.231,1.416-2.371,2.233-3.477c0.709-0.961,1.45-1.9,2.208-2.823c0.725-0.883,1.739-1.925,2.766-2.461
					c0.118-0.062-0.519-0.016-0.637,0.045c-0.995,0.521-1.769,1.374-2.481,2.222c-0.803,0.956-1.567,1.948-2.312,2.948
					c-0.797,1.071-1.565,2.178-2.184,3.364c-0.621,1.19-1.14,2.438-1.614,3.693c-0.018,0.047-0.002,0.09,0.026,0.118
					c-0.723,0.548-1.331,1.031-1.671,1.349c-0.002,0.001-0.004,0.003-0.006,0.004c-1.271,0.902-3.971,3.248-4.964,4.318
					c-1.113,1.2-4.531,4.469-5.517,5.447c-0.546,0.541-4.29,4.354-4.29,4.354s-0.258,0.613,0.283,0.589
					c0.268,0.104,4.937-3.031,5.689-3.597c0.149-0.052,4.512-2.646,4.715-2.774c4.853-2.812,10.315-3.302,14.533-3.825
					c1.955-0.186,2.722-0.037,4.714-0.191c2.458,0.123,6.937,0.071,7.987,0.231c-0.987-0.15,4.27,0.3,6.045,0.748
					c0.717,0.154,1.252,0.392,1.961,0.576c0.216,0.056,0.427,0.121,0.638,0.189c-0.06-0.021,1.701,0.431,2.64,0.867l0.006,0.006
					c0.002,0.002,0.002,0.003,0.004,0.004c2.125,1.001,2.535,1.756,3.304,2.657c0.388,0.488,1.466,2.394,1.569,2.185
					c0.317-0.645,0.722-1.288,2.475-4.299c0.56-0.961,1.945-3.22,2.291-4.242c0.08-0.235,0.443-1.31,0.499-1.746
					c0.081-0.629,0.24-1.36,0.313-2.11c0.051-0.52,0.097-0.667,0.109-1.008C140.105,62.174,140.053,61.348,140.011,60.958z"/>
			</g>
			<path fill-rule="evenodd" clip-rule="evenodd" fill="#0466C0" d="M108.316,50.987c-1.162,0.045-2.272,0.088-3.38,0.131
				c-0.132-0.965,0.133-1.306,1.085-1.442C107.484,49.465,108.191,49.832,108.316,50.987z"/>
		</g>
	</g>
</g>
</svg>
