<?xml version="1.0" encoding="utf-8"?>
<!-- Generator: Adobe Illustrator 16.0.4, SVG Export Plug-In . SVG Version: 6.00 Build 0)  -->
<!DOCTYPE svg PUBLIC "-//W3C//DTD SVG 1.0//EN" "http://www.w3.org/TR/2001/REC-SVG-20010904/DTD/svg10.dtd">
<svg version="1.0" id="Layer_1" xmlns="http://www.w3.org/2000/svg" xmlns:xlink="http://www.w3.org/1999/xlink" x="0px" y="0px"
	 width="215.161px" height="216.891px" viewBox="0 0 215.161 216.891" enable-background="new 0 0 215.161 216.891"
	 xml:space="preserve">
<g>
	<path fill-rule="evenodd" clip-rule="evenodd" fill="#F32842" d="M108.067,4.755c7.405-0.001,17.614,1.673,28.206,4.187
		c18.244,4.329,34.469,12.933,47.244,27.003c3.331,3.67,15.52,21.388,19.372,29.745c4.915,10.658,8.414,29.525,9.111,41.265
		c1.847,29.666-8.986,54.271-28.911,75.62c-14.341,15.363-32.288,24.374-52.375,28.217c-17.421,3.332-38.355,4.58-55.555-2.107
		c-8.963-3.486-15.05-7.135-23.717-11.256c-13.131-6.242-21.675-17.481-29.654-29.155c-8.435-12.338-13.108-26.245-16.48-40.573
		c-2.632-11.183-2.172-22.632-1.057-34.013c1.405-14.364,5.484-27.863,13.359-40.085C37.781,22.284,65.651,4.613,108.067,4.755z"/>
	<path fill-rule="evenodd" clip-rule="evenodd" fill="#402F3C" d="M210.252,92.387c-2.773-1.946-4.817-3.379-8.652-6.07
		c0.628,4.585,1.049,8.089,1.6,11.575c0.632,4,1.758,7.59,5.047,10.569c1.82,1.951,2.747,3.923,3.93,6.361
		c0.286,0.59,0.012,3.382-0.127,3.634c-0.211-0.189-2.884-7.324-7.521-8.643c-0.616,5.404-1.404,10.639-1.681,15.901
		c-0.07,1.35,1.382,2.847,2.295,4.167c1.244,1.803,3.457,4.747,3.999,7.396c0.173,0.845-0.66,3.7-0.957,3.545
		c-1.917-3.121-4.089-6.761-6.144-10.102c-2.11,6.311-3.904,11.665-5.556,16.599c1.137,3.768,2.966,8.307,3.888,11.822
		c-0.025,0.666-1.432,2.838-1.622,2.823c-1.559-3.919-2.784-7.096-4.107-10.423c-2.709,4.274-5.076,7.773-7.151,11.441
		c-0.555,0.982-0.352,2.48-0.27,3.726c0.158,2.399,0.519,4.8,0.654,7.179c0.111,1.951,0.064,1.561,0.131,3.145
		c-0.129,0.525-2.304,3.212-2.75,3.166c-0.292-3.574-0.653-8.12-1.012-12.477c-4.031,4.27-7.457,7.62-10.501,11.29
		c-0.899,1.085-0.934,3.056-0.994,4.637c-0.098,2.468-0.013,6.941-0.142,8.557c-0.043,0.54-2.949,2.509-3.264,2.443
		c0-3.437,0.077-7.819,0.077-11.118c-5.069,3.461-9.507,6.356-13.759,9.505c-0.862,0.641-1.221,2.192-1.47,3.396
		c-0.499,2.408-1.004,5.272-1.499,7.637c-0.129,0.615-2.535,1.365-3.135,1.303c0.443-1,1.619-6.016,1.15-9.728
		c-2.949,1.15-5.692,2.441-8.564,3.289c-4.058,1.195-6.587,3.494-9.233,7.121c-1.44,1.974-2.347,3.192-3.76,5.029
		c-0.368,0.319-3.368,0.913-3.52,0.602c1.459-2.227,4.479-7.124,6.058-9.532c-6.688,1.469-15.514,1.992-22.83,2.939
		c-1.751,0.224-3.535,1.777-4.883,3.137c-1.412,1.421-3.815,3.567-5.35,5.136c-0.312,0.319-4.062-0.024-4.099-0.3
		c3.226-3.08,5.303-5.066,8.079-7.722c-6.254-1.234-11.792-2.469-17.387-3.316c-1.207-0.184-2.648,0.995-3.948,1.61
		c-2.655,1.261-6.61,2.539-9.641,3.609c-0.442,0.156-2.33-0.803-2.587-1.124c2.707-1.345,7.957-3.001,11.029-5.484
		c-4.326-1.739-8.397-3.624-12.643-4.94c-1.315-0.405-3.123,0.689-4.684,1.172c-2.68,0.829-4.586,1.332-8.639,1.851
		c-1.048,0.134-2.857-1.067-3.195-1.546c3.213-0.334,7.682-1.209,12.318-2.871c-1.569-1.366-2.385-2.2-3.318-2.861
		c-1.969-1.391-4.109-2.555-5.982-4.057c-3.445-2.762-4.938-3.198-11.623-3.201c-4.149-0.15-8.379-0.308-8.681-0.433
		c-0.313-0.13-2.438-2.505-2.276-2.604c4.936,0,8.67,0.022,13.352,0.022c-4.883-5.511-9.176-10.494-13.67-15.29
		c-0.716-0.766-2.319-0.759-3.533-0.985c-2.404-0.179-5.656-0.583-8.545-1.051c-0.162-0.026-1.438-2.3-1.297-2.315
		c3.855-0.18,7.018,1.236,10.742,0.281c-2.299-4.705-5.49-9.96-7.973-14.43c-0.589-1.058-2.439-1.404-3.699-2.097
		c-2.734-1.509-5.027-2.821-7.884-4.559c-0.374-0.228-1.312-3.353-0.999-3.384c3.32,1.871,7.818,3.965,11.141,5.836
		c0,0-3.049-9.863-4.464-13.994c-0.388-1.133-2.089-1.811-3.174-2.71c-2.541-2.106-4.882-4.02-7.356-6.195
		c-0.628-0.552-0.628-3.404-0.348-3.448c3.018,2.367,7.236,5.573,10.254,7.94c-0.458-1.125,0.207-10.999-4.334-18.394
		c-1.834-3.567-3.693-7.306-5.422-11.558c-0.4-0.982-0.162-4.051,0.453-4.222c1.987,4.354,5.921,9.041,7.907,13.395
		c0.021-1.472,2.271-13.369,2.969-19.709c0.215-1.971-1.269-4.204-2.206-6.209C11.48,74.252,10.9,70.1,10.347,67.635
		c-0.28-1.119,0.804-3.369,1.47-3.285c2.627,5.455,3.084,10.834,4.93,14.365c2.949-6.334,5.523-11.426,7.656-16.697
		c0.625-1.552,0.062-3.612-0.062-5.432c-0.218-3.126-1.259-10.105-1.148-10.903c0.168-1.218,1.562-3.188,2.485-3.337
		c0.853,5.086,0.43,3.954,0.724,6.321c0.29,2.333,0.449,4.683,0.793,8.404c3.645-4.784,6.655-8.389,9.205-12.289
		c0.791-1.209,0.358-3.232,0.453-4.884c0.177-3.136-0.016-7.84,0.881-10.42c0.346-0.993,1.896-1.858,2.838-2.466
		c0.059,5.232-0.103,9.485,0.397,13.282c2.886-2.56,5.701-4.868,8.257-7.437c0.807-0.809,1.008-2.29,1.313-3.509
		c0.721-2.87,1.14-5.83,2.063-8.628c0.594-1.794,0.172-0.63,0.916-2.782c0.541-0.507,2.578-1.764,2.556-1.424
		c-0.094,1.382-0.801,5.039-1.113,6.123c-0.352,2.028-0.929,4.476-1.554,7.669c3.887-2.059,7.214-3.52,10.17-5.529
		c1.353-0.917,2.147-2.833,2.882-4.439c1.31-2.852,2.809-7.318,4.249-10.103c0.073-0.142,2.649-1.338,3.695-1.136
		c-1.728,3.871-4.602,12.215-4.318,12.519c3.727-1.354,7.572-2.47,11.12-4.198c1.219-0.593,1.725-2.525,2.636-3.887
		c1.726-2.587,3.133-5.023,5.003-7.503c0.312-0.413,3.166-0.56,3.419-0.439c-0.983,2.191-1.9,2.712-5.384,10.538
		c3.656-0.556,6.827-0.761,10.159-1.671c1.577-0.431,3.029-1.933,4.159-3.267c3.581-4.227,4.362-4.582,8.597-6.438
		c0.903,0.064,4.586,0,4.184,0.289c-3.627,2.605-8.172,4.156-8.91,9.015c5.371,0.386,10.924,0.36,16.22,0.48
		c1.157,0.027,2.407-1.318,3.507-2.17c2.038-1.581,3.758-3.341,5.896-4.761c0.779,0.006,3.122,0.422,3.98,0.959
		c-3.45,2.43-4.329,4.116-8.416,6.991c6.082,1.832,10.25,2.807,15.194,3.945c1.303,0.299,3.009-0.946,4.472-1.604
		c2.629-1.182,5.264-3.022,7.771-3.201c0.438-0.031,3.234,1.297,3.135,1.432c-0.911,1.232-7.552,2.972-9.765,5.603
		c4.791,2.639,9.557,5.269,14.542,8.014c3.121-0.815,7.414-4.019,10.953-3.938c1.248,0.028,2.308,1.85,2.308,1.85
		c-4.177,1.54-5.766,2.992-9.734,4.453c2.889,2.637,4.511,4.056,6.749,6.178c3.418,3.248,6.779,6.156,12.168,4.322
		c0.949-0.322,2.807-0.961,3.87-0.938c0.505,0.011,2.588,3.365,2.317,3.386c-3.689,0-5.234,1.787-9.353,1.787
		c3.821,5.234,5.913,8.273,9.254,12.364c0.908,1.112,2.294,1.819,3.764,2.496c3.15,1.452,6.024,2.508,9.068,4.154
		c0.723,0.39,1.496,3.074,1.497,3.644c-4.508-2.048-6.482-2.923-11.081-4.445c0.99,2.151,0.963,1.943,1.316,2.846
		c0.677,1.721,1.706,3.327,2.215,5.09c1.688,5.849,4.729,9.158,9.792,12.877c0.163,0.12,1.547,1.156,2.797,2.219
		C209.723,88.526,210.711,91.917,210.252,92.387z M103.865,198.472c17.043-0.084,29.729-2.949,41.88-8.506
		c12.812-5.86,24.405-13.598,33.23-24.488c21.156-26.104,24.718-55.669,13.876-86.77c-8.786-25.205-27.166-41.896-51.535-52.045
		c-16.92-7.047-34.502-8.379-52.327-4.222c-25.648,5.981-45.4,20.361-58.824,43.02c-10.81,18.239-13.888,38.109-10.8,58.946
		c1.837,12.399,5.267,24.514,12.744,34.646C50.756,184.33,76.06,197.488,103.865,198.472z"/>
	<path fill-rule="evenodd" clip-rule="evenodd" fill="#FFFFFF" d="M103.865,198.477c-27.806-0.983-53.109-14.142-71.756-39.419
		c-7.478-10.132-10.907-22.246-12.744-34.646c-3.088-20.837-0.01-40.707,10.8-58.946c13.424-22.658,33.176-37.038,58.824-43.02
		c17.825-4.157,35.407-2.825,52.327,4.222c24.369,10.148,42.749,26.84,51.535,52.045c10.842,31.101,7.28,60.665-13.876,86.77
		c-8.825,10.891-20.419,18.628-33.23,24.488C133.595,195.527,120.908,198.393,103.865,198.477z"/>
	<g>
		<path fill-rule="evenodd" clip-rule="evenodd" fill="#DCEBF4" d="M21.604,123.608c-3.023-20.393,0.303-39.634,10.88-57.483
			C45.62,43.952,64.949,29.88,90.048,24.027c17.444-4.068,34.651-2.765,51.209,4.131c23.847,9.932,41.832,26.266,50.431,50.931
			c5.267,15.108,7.243,29.845,5.182,43.982C194.778,137.413,23.4,135.741,21.604,123.608z"/>
		<path fill-rule="evenodd" clip-rule="evenodd" fill="#C6C6C6" d="M105.429,195.977c-27.647-0.979-52.808-14.062-71.349-39.195
			c-7.435-10.074-10.845-22.121-12.672-34.449l175.461,0.738c0,0-7.127,25.998-17.75,39.104
			c-8.775,10.83-19.31,19.518-32.048,25.344C134.99,193.043,122.375,195.893,105.429,195.977z"/>
	</g>
	<g>
		<path fill-rule="evenodd" clip-rule="evenodd" fill="#F32842" d="M65.281,44.734c-5.215,2.365-6.439,3.03-11.482,8.018
			c-2.107,0.853-0.86-2.673,2.932-6.188C61.027,42.938,67.051,41.761,65.281,44.734z"/>
		<path fill-rule="evenodd" clip-rule="evenodd" fill="#F32842" d="M120.389,32.743c0.209-1.279,2.027-1.117,3.026-1.088
			c4.925,0.144,12.54,3.342,14.989,6.277c0.381,1.531-1.525,1.688-3.312,0.823c-1.658-0.802-3.957-1.841-5.805-2.391
			c-3.439-1.37-5.236-1.486-8.17-2.365C120.473,33.808,120.418,33.097,120.389,32.743z"/>
		<path fill-rule="evenodd" clip-rule="evenodd" fill="#F32842" d="M185.104,95.049c0.9-0.028,1.109,1.105,1.162,1.701
			c0.718,4.475,1.218,9.559,0.922,14.218c-0.038,0.604-0.48,1.795-1.529,1.795c-1.17,0-1.603-0.896-1.599-1.236
			c0.341-5.51,0.133-8.51-0.506-14.736C183.691,96.354,183.223,95.151,185.104,95.049z"/>
		<path fill-rule="evenodd" clip-rule="evenodd" fill="#F32842" d="M163.195,57.331c-2.191-2.898,0.839-4.426,3.346-0.929
			c4.293,4.87,7.525,10.78,5.775,12.189C170.629,68.592,168.441,62.933,163.195,57.331z"/>
		<path fill-rule="evenodd" clip-rule="evenodd" fill="#F32842" d="M87.272,34.691c0.544,1.179-15.644,7.554-15.983,5.636
			C70.754,38.683,85.941,31.748,87.272,34.691z"/>
		<path fill-rule="evenodd" clip-rule="evenodd" fill="#F32842" d="M46.543,60.285c1.836-0.587,1.445,1.507,0.041,2.632
			c-1.784,1.431-2.744,3.409-3.951,5.129c-1.733,2.471-1.014,1.852-2.482,4.638c-1.088,2.018-3.547,0.934-1.91-2.743
			C40.195,64.49,42.719,61.583,46.543,60.285z"/>
		<path fill-rule="evenodd" clip-rule="evenodd" fill="#F32842" d="M137.392,181.462c-0.821-1.612,15.011-9.612,16.142-8.014
			C155.194,175.1,138.695,184.202,137.392,181.462z"/>
		<path fill-rule="evenodd" clip-rule="evenodd" fill="#F32842" d="M178.964,74.187c2.228,3.434,3.915,7.809,4.662,11.745
			c0.095,0.499-0.246,2.003-1.305,1.978c-0.733-0.06-1.478-0.465-1.661-0.954c-1.094-4.085-2.344-7.397-4.532-11.835
			C175.483,73.183,177.963,73.079,178.964,74.187z"/>
		<path fill-rule="evenodd" clip-rule="evenodd" fill="#F32842" d="M144.393,41.788c1.257-2.452,10.9,2.443,14.751,8.695
			c1.017,1.668-1.077,2.043-2.374,0.65C151.776,46.058,143.598,43.339,144.393,41.788z"/>
		<path fill-rule="evenodd" clip-rule="evenodd" fill="#F32842" d="M94.768,33.656c-0.576-2.002,15.753-4.411,16.853-2.56
			c-0.491,1.711-5.103,1.818-7.653,2.047C101.316,33.384,95.129,34.87,94.768,33.656z"/>
		<path fill-rule="evenodd" clip-rule="evenodd" fill="#F32842" d="M176.929,142.942c0.725-1.004,2.229-0.508,2.2,0.615
			c-0.312,5.188-2.341,9.185-5.603,12.735c-0.616,0.671-1.481,0.571-1.957,0.308c-0.462-0.253,0.015-1.064,0.226-1.479
			C173.389,152.152,175.591,149.979,176.929,142.942z"/>
		<path fill-rule="evenodd" clip-rule="evenodd" fill="#F32842" d="M131.337,186.224c-5.778,2.057-9.683,2.848-15.977,2.202
			c-1.04-0.073-1.748-1.364-0.249-1.454c5.96-0.486,9.918-1.371,14.678-2.769C132.404,183.478,133.07,185.103,131.337,186.224z"/>
		<path fill-rule="evenodd" clip-rule="evenodd" fill="#F32842" d="M183.442,119.739c0.585-1.386,2.46,0.572,2.106,2.39
			c-0.514,4.412-0.48,7.266-4.271,14.162c-1.012,0.793-1.917-1.979-1.306-2.837C181.36,130.312,182.36,125.979,183.442,119.739z"/>
		<path fill-rule="evenodd" clip-rule="evenodd" fill="#F32842" d="M44.071,156.625c-2.724,1.62-9.88-11.692-6.841-12.425
			C38.629,144.2,44.941,156.151,44.071,156.625z"/>
		<path fill-rule="evenodd" clip-rule="evenodd" fill="#F32842" d="M104.147,188.398c-0.914,1.617-14.748-0.133-14.005-2.272
			C90.386,184.63,104.681,186.752,104.147,188.398z"/>
		<path fill-rule="evenodd" clip-rule="evenodd" fill="#F32842" d="M158.831,170.52c-2.18-1.419,6.985-8.712,7.729-10.825
			c2.882-1.512,3.194,2.113,1.622,3.66C165.964,166.274,160.485,171.726,158.831,170.52z"/>
		<path fill-rule="evenodd" clip-rule="evenodd" fill="#F32842" d="M81.601,184.55c-5.484,0.428-18.034-7.961-12.757-7.549
			c4.959,2.381,8.797,4.224,13.193,6.332C82.598,183.776,82.598,184.57,81.601,184.55z"/>
		<path fill-rule="evenodd" clip-rule="evenodd" fill="#F32842" d="M31.958,134.872c-1.794-3.876-3.485-12.111-2.277-12.716
			c2.56-1.208,3.343,7.346,4.687,10.429c1.277,2.879-0.332,3.02-0.827,3.109C32.582,135.776,32.127,135.253,31.958,134.872z"/>
		<path fill-rule="evenodd" clip-rule="evenodd" fill="#F32842" d="M33.662,81.589c1.436-1.531,3.045,0.109,1.857,2.328
			c-1.737,3.078-3.891,11.266-5.846,10.545C27.51,93.483,32.584,83.569,33.662,81.589z"/>
		<path fill-rule="evenodd" clip-rule="evenodd" fill="#F32842" d="M59.95,173.522c-1.415,1.098-11.29-9.59-10.954-10.225
			C48.996,161.308,61.535,173.245,59.95,173.522z"/>
		<path fill-rule="evenodd" clip-rule="evenodd" fill="#F32842" d="M29.246,99.251c1.842,0.118,0.461,14.791-2.064,14.247
			C26.02,113.011,27.838,99.515,29.246,99.251z"/>
	</g>
	<g>
		<path fill-rule="evenodd" clip-rule="evenodd" fill="#F32842" d="M96,160.934c-1.014,0-1.951,0.11-2.849-0.026
			c-1.376-0.211-2.631-0.735-2.968-2.311c-0.092-0.435-0.064-0.914-0.003-1.362c0.235-1.693,0.512-3.381,0.766-5.071
			c0.455-3.023,0.972-6.038,1.341-9.069c0.54-4.459,0.404-8.889-1.023-13.201c-0.261-0.789-0.656-1.533-0.975-2.306
			c-0.407-0.992-0.728-1.998-0.551-3.107c0.045-0.29-0.073-0.619-0.162-0.915c-0.852-2.837-1.772-5.655-2.548-8.515
			c-0.527-1.938-1.141-3.806-2.268-5.492c-1.289-1.925-2.497-3.908-3.787-5.833c-0.815-1.22-1.909-2.119-3.334-2.597
			c-0.828-0.276-1.656-0.339-2.446-0.001c-2.084,0.896-4.179,1.777-6.204,2.795c-2.646,1.331-5.219,2.813-7.847,4.182
			c-0.979,0.513-2.013,0.924-3.044,1.324c-1.112,0.431-2.161,0.388-3.092-0.512c-0.263-0.254-0.709-0.485-1.05-0.459
			c-1.112,0.088-1.998-0.352-2.805-1.01c-1.985-1.622-3.247-3.62-3.348-6.278c-0.041-1.124,0.143-2.126,0.874-2.984
			c1.922-2.257,3.826-4.532,5.801-6.744c1.84-2.059,3.312-4.332,4.513-6.815c1.308-2.712,2.659-5.409,4.121-8.04
			c0.688-1.243,1.678-2.32,2.585-3.542c-0.461-1.35-1.748-2.012-2.799-2.929c0.255-1.302,1.198-1.977,2.242-2.473
			c0.689-0.328,1.281-0.677,1.735-1.314c0.411-0.575,1.001-0.988,1.761-0.977c0.518,0.008,0.788-0.336,1.173-0.59
			c1.593-1.054,2.392-2.763,3.656-4.235c1.471,0.601,1.745,1.995,2.234,3.42c0.37-0.131,0.734-0.28,1.11-0.388
			c1.154-0.332,2.296-0.74,3.474-0.943c1.035-0.179,1.317,0.118,1.529,1.137c0.075,0.363,0.108,0.734,0.166,1.101
			c0.049,0.319,0.104,0.637,0.177,1.076c1.363,0.016,2.273,0.817,3.103,1.812c0.265,0.316,0.748,0.542,1.167,0.617
			c1.132,0.205,1.851,0.774,2.117,1.913c0.083,0.357,0.294,0.682,0.406,1.035c0.281,0.875,0.848,1.403,1.76,1.582
			c1.237,0.242,1.955,1.064,2.191,2.245c0.258,1.289,0.932,2.041,2.231,2.33c1.344,0.297,1.964,1.419,2.296,2.577
			c0.357,1.24,1,1.902,2.279,2.047c0.768,0.087,1.399,0.493,1.747,1.231c0.448,0.956,1.177,1.494,2.234,1.662
			c1.56,0.25,2.619,1.305,3.652,2.39c0.669,0.703,1.342,1.403,2.058,2.057c0.207,0.189,0.562,0.28,0.855,0.3
			c2.962,0.198,5.923,0.446,8.889,0.529c1.801,0.049,3.646,0.036,5.402-0.305c4.412-0.855,8.852-0.798,13.304-0.823
			c3.68-0.021,7.022,1.185,10.273,2.668c2.115,0.965,4.061,2.265,5.268,4.375c1.156,2.021,2.091,4.136,2.453,6.458
			c0.081,0.514,0.146,0.907,0.683,1.229c0.385,0.229,0.597,0.804,0.802,1.262c2.043,4.57,2.918,9.363,2.653,14.354
			c-0.046,0.877,0.089,1.612,0.583,2.357c0.403,0.605,0.697,1.322,0.872,2.029c0.588,2.38,1.127,4.77,1.621,7.171
			c0.125,0.601,0.02,1.251,0.02,2.065c-0.698-0.316-1.181-0.715-1.639-0.689c-0.418,0.023-0.81,0.506-1.192,0.772
			c-0.473-0.411-0.899-1.061-1.423-1.152c-0.45-0.08-1.013,0.473-1.722,0.848c-0.027-0.472-0.067-0.801-0.062-1.131
			c0.015-1.198,0.033-2.396,0.072-3.594c0.058-1.76,0.114-3.521,0.21-5.278c0.022-0.407,0.114-0.865,0.331-1.196
			c0.885-1.347,0.823-2.851,0.648-4.305c-0.29-2.435-0.721-4.855-1.167-7.268c-0.163-0.885-0.538-1.729-1.062-2.572
			c-0.232,1.381-0.446,2.766-0.706,4.141c-0.565,3.005-1.077,6.024-1.761,9.001c-0.456,1.981-1.175,3.9-1.778,5.847
			c-0.872,2.814-1.665,5.631-1.534,8.639c0.06,1.337-0.117,2.689-0.273,4.025c-0.304,2.607,0.023,5.185,0.371,7.749
			c0.475,3.487,1.062,6.958,1.61,10.436c0.087,0.548,0.283,1.08,0.351,1.627c0.139,1.119-0.155,1.648-1.206,2.065
			c-0.507,0.201-1.07,0.277-1.615,0.351c-0.542,0.073-1.095,0.072-1.609,0.101c-0.64,1.828-1.447,2.374-3.331,2.321
			c-0.557-0.016-1.114-0.009-1.67-0.025c-1.608-0.048-2.806-1.335-2.388-2.866c0.753-2.763,0.873-5.598,1.041-8.406
			c0.232-3.833,0.443-7.7-0.442-11.5c-0.459-1.97-1.254-3.767-2.698-5.253c-1.724-1.772-3.112-3.796-4.13-6.023
			c-2.767,0.262-5.465,0.511-8.163,0.775c-2.701,0.265-5.384,0.027-8.034-0.435c-2.688-0.47-5.343-1.109-8.14-1.701
			c-0.326,0.626-0.805,1.318-1.062,2.086c-0.83,2.448-2.063,4.661-3.683,6.658c-1.935,2.386-2.729,5.12-3.088,8.152
			c-0.373,3.144-0.31,6.269-0.366,9.405c-0.017,1.033,0.315,1.965,0.762,2.901c0.415,0.868,0.744,1.815,0.883,2.763
			c0.076,0.512-0.175,1.237-0.54,1.615c-1.4,1.457-4.511,1.492-5.978,0.135C96.531,161.776,96.282,161.312,96,160.934z
			 M133.56,128.914c0.07-0.229,0.125-0.32,0.115-0.401c-0.029-0.23-0.056-0.466-0.137-0.679c-1.058-2.729-1.134-5.612-1.301-8.477
			c-0.195-3.354-0.847-6.625-1.995-9.764c-1.571-4.298-3.883-8.192-7.065-11.512c-1.594-1.664-2.505-3.646-3.123-5.806
			c-0.389-1.369-0.379-1.372-2.042-1.2c0.618,2.388,1.216,4.781,2.692,6.775c2.396,3.236,3.544,6.868,3.952,10.822
			c0.116,1.129,0.475,2.262,0.893,3.327c0.642,1.635,1.484,3.193,2.146,4.822c1.263,3.112,1.783,6.411,2.332,9.7
			c0.164,0.985,0.401,1.959,0.626,3.043C131.769,129.316,132.698,129.107,133.56,128.914z M116.774,129.229
			c-0.166-0.966-0.297-1.719-0.427-2.473c-0.677-3.979-2.005-7.685-4.353-11.025c-0.784-1.116-1.447-2.434-1.743-3.752
			c-1.211-5.379-2.275-10.789-3.354-16.195c-0.325-1.635-0.524-3.294-0.773-4.943c-0.097-0.641-0.402-0.883-1.084-0.617
			c-0.056,0.431-0.136,0.839-0.157,1.25c-0.149,2.824-0.309,5.648-0.421,8.476c-0.105,2.654,0.337,5.262,0.7,7.884
			c0.536,3.884,1.788,7.432,4.12,10.617c1.063,1.454,2,3.019,2.853,4.61c0.881,1.647,1.304,3.446,0.958,5.462
			C114.314,128.757,115.427,128.97,116.774,129.229z M110.657,90.402c0.087,0.506,0.121,0.864,0.207,1.21
			c0.336,1.347,0.76,2.678,1.019,4.039c0.69,3.637,1.324,7.285,1.959,10.935c0.394,2.259,0.997,4.379,2.609,6.161
			c1.602,1.771,2.558,3.95,3.305,6.215c1.161,3.52,1.984,7.105,2.2,10.868c1.201,0,2.336,0,3.597,0
			c-0.046-0.688-0.031-1.285-0.131-1.86c-0.794-4.597-2.166-8.995-4.499-13.064c-1.21-2.113-2.015-4.374-2.261-6.808
			c-0.161-1.609-0.687-3.106-1.619-4.388c-1.693-2.324-2.303-5.027-2.932-7.729c-0.405-1.745-0.693-3.518-1.057-5.394
			C112.294,90.529,111.536,90.471,110.657,90.402z M83.262,99.941c0.195-0.774,0.467-1.469,0.523-2.18
			c0.085-1.054,0.004-2.118,0.02-3.176c0.016-1.247-0.106-2.525,0.132-3.73c0.305-1.532,0.816-3.045,1.408-4.495
			c0.996-2.439,1.039-5.026,1.393-7.568c0.003-0.021-0.06-0.052-0.149-0.124c-0.491,0.36-0.486,0.957-0.594,1.458
			c-0.508,2.372-1.404,4.596-2.427,6.784c-0.59,1.258-1.225,2.513-1.626,3.832c-0.329,1.082-0.546,2.278-0.452,3.396
			c0.227,2.766,0.683,5.514,0.99,8.274c0.053,0.477-0.175,0.988-0.308,1.669c0.559,0.882,1.251,1.972,1.981,3.118
			c0.348-0.264,0.674-0.446,0.917-0.705c2.098-2.234,3.698-4.74,4.239-7.824c0.49-2.791,1.179-5.519,2.604-8.01
			c0.722-1.256,0.759-2.655,0.779-4.048c0.022-1.593-0.148-1.863-1.709-2.767c-0.101,0.466-0.167,0.924-0.301,1.362
			c-0.268,0.881-0.543,1.761-0.866,2.625c-0.434,1.162-0.988,2.286-1.352,3.469c-0.365,1.192-0.519,2.447-0.84,3.655
			c-0.457,1.716-1.162,3.272-2.532,4.53C84.463,100.064,83.951,100.062,83.262,99.941z M150.84,94.748
			c-0.407,1.264-0.688,2.495-1.196,3.625c-0.757,1.683-1.649,3.309-2.53,4.934c-0.903,1.668-1.978,3.249-2.765,4.968
			c-1.188,2.595-1.594,5.4-1.828,8.233c-0.316,3.839-0.777,7.662-2.018,11.334c-0.725,2.142-1.557,4.249-2.374,6.467
			c0.442,0.511,0.949,1.095,1.548,1.786c0.335-0.585,0.658-1.039,0.87-1.539c0.952-2.261,1.95-4.508,2.783-6.812
			c1.152-3.188,2.031-6.444,2.097-9.879c0.085-4.623,1.269-8.961,3.444-13.046c1.108-2.082,2.021-4.273,3.185-6.32
			C152.949,96.926,152.546,95.732,150.84,94.748z M145.013,91.398c-0.896,2.443-2.225,4.517-3.746,6.419
			c-1.605,2.008-2.906,4.175-4.107,6.419c-1.386,2.588-2.187,5.304-1.746,8.278c0.129,0.869,0.29,1.735,0.371,2.608
			c0.115,1.242,0.318,2.502,0.212,3.729c-0.151,1.746-0.587,3.464-0.835,5.203c-0.201,1.413-0.339,2.837-0.438,4.262
			c-0.04,0.572,0.091,1.164,0.673,1.583c0.128-0.222,0.247-0.371,0.308-0.539c1.136-3.144,2.087-6.35,2.476-9.668
			c0.308-2.615,0.319-5.266,0.483-7.9c0.174-2.812,0.866-5.479,2.327-7.91c0.882-1.467,1.886-2.865,2.705-4.364
			c1.018-1.863,1.927-3.786,2.822-5.71c0.243-0.52,0.27-1.138,0.406-1.761C146.205,91.804,145.606,91.601,145.013,91.398z
			 M102.345,89.591c-0.109-0.029-0.219-0.058-0.327-0.085c-0.333,0.59-0.683,1.174-0.995,1.774c-0.942,1.811-1.85,3.638-1.987,5.728
			c-0.084,1.246-0.233,2.499-0.186,3.743c0.144,3.724-0.936,7.018-3.167,9.988c-1.528,2.036-3.1,4.053-3.941,6.518
			c-0.448,1.313-0.973,2.606-1.567,3.86c-0.362,0.76-0.396,1.38,0.201,2.055c1.826-0.808,3.214-2.048,3.949-3.905
			c0.95-2.397,2.193-4.589,4.005-6.453c0.918-0.944,1.539-2.113,1.78-3.413c0.479-2.593,0.952-5.19,1.307-7.803
			c0.25-1.834,0.299-3.693,0.439-5.541C102.019,93.901,102.182,91.746,102.345,89.591z M70.476,101.876
			c1.5-0.338,1.525-0.336,1.65-1.564c0.284-2.823,0.728-5.603,2.104-8.142c1.193-2.201,2.569-4.276,4.207-6.175
			c1.615-1.871,3.084-3.818,3.621-6.307c0.33-1.531,0.694-3.055,1.062-4.671c-0.316-0.157-0.608-0.302-0.929-0.46
			c-0.551,1.833-1.488,3.305-2.652,4.642c-0.942,1.082-1.953,2.108-2.847,3.23c-1.035,1.299-2.116,2.593-2.922,4.035
			c-0.943,1.688-1.623,3.523-2.388,5.309c-1.112,2.594-1.649,5.294-1.304,8.123C70.159,100.562,70.341,101.216,70.476,101.876z
			 M155.263,105.586c-0.351,0.523-0.547,0.776-0.699,1.053c-1.561,2.811-2.719,5.768-3.426,8.915
			c-0.577,2.572-1.125,5.174-1.998,7.653c-1.027,2.916-2.11,5.84-3.775,8.492c-0.563,0.898-1.058,1.845-1.551,2.785
			c-0.771,1.467-1.509,2.95-2.273,4.419c-0.25,0.483-0.165,0.86,0.27,1.241c0.277-0.236,0.551-0.417,0.762-0.655
			c1.872-2.124,3.71-4.278,4.814-6.93c0.872-2.096,1.631-4.239,2.562-6.308c0.912-2.026,1.889-4.014,2.448-6.182
			c0.83-3.218,1.77-6.409,2.558-9.637C155.312,108.966,155.546,107.445,155.263,105.586z M94.208,129.017
			c2.907-0.474,4.906-1.951,6.067-4.611c0.439-1.008,1.11-1.926,1.76-2.823c0.862-1.193,1.735-1.083,2.404,0.243
			c0.103,0.207,0.153,0.438,0.263,0.643c0.385,0.729,0.725,1.498,1.197,2.17c0.639,0.908,1.372,1.747,2.088,2.6
			c0.219,0.259,0.509,0.455,0.823,0.73c0.261-1.898-0.157-3.427-1.445-4.695c-0.427-0.418-0.794-0.906-1.144-1.395
			c-0.94-1.315-1.886-2.626-2.774-3.977c-0.498-0.758-0.889-1.587-1.412-2.535c-0.323,0.484-0.6,0.801-0.763,1.166
			c-0.34,0.761-0.646,1.539-0.918,2.325c-1.083,3.122-2.839,5.707-5.769,7.386c-0.546,0.312-1.068,0.666-1.652,1.032
			C93.399,127.911,93.779,128.43,94.208,129.017z M87.788,114.711c0.422-0.825,0.688-1.512,1.092-2.104
			c1.045-1.527,2.081-3.068,3.249-4.499c1.872-2.296,2.714-4.902,2.764-7.824c0.057-3.522,0.884-6.868,2.346-10.067
			c0.282-0.616,0.468-1.275,0.726-1.992c-0.584-0.202-1.047-0.361-1.579-0.547c-0.06,0.452-0.112,0.768-0.143,1.086
			c-0.203,2.1-0.804,4.052-1.799,5.933c-0.593,1.121-0.959,2.402-1.203,3.657c-0.647,3.331-1.864,6.386-3.972,9.064
			c-0.716,0.908-1.467,1.791-2.138,2.731c-0.246,0.344-0.497,0.864-0.412,1.225C86.964,112.443,87.378,113.475,87.788,114.711z
			 M62.062,79.976c-0.711,1.374-1.322,2.555-1.981,3.829c3.634,1.483,4.958,4.821,6.664,8.078c0.619-1.21,1.136-2.186,1.624-3.176
			c2.063-4.196,4.149-8.368,7.362-11.863c0.898-0.977,1.685-2.112,2.23-3.559c-1.591,0.348-2.588,1.22-3.403,2.301
			c-0.974,1.294-1.912,2.621-2.806,3.973c-1.25,1.895-2.436,3.828-2.87,6.113c-0.059,0.307-0.22,0.612-0.392,0.881
			c-0.627,0.98-1.293,0.99-1.901,0.017c-0.318-0.51-0.54-1.081-0.864-1.586C64.657,83.313,63.717,81.545,62.062,79.976z
			 M61.785,98.147c-0.49-0.469-0.755-0.693-0.987-0.946c-0.699-0.764-1.477-1.434-2.491-1.707c-1.198-0.327-1.724-1.122-1.899-2.29
			c-0.092-0.616-0.14-1.307-0.9-1.739c-0.414,0.473-0.829,0.944-1.287,1.466c1.481,1.352,2.062,3.07,2.558,4.816
			c0.229,0.809,0.696,1.238,1.485,1.458c1.429,0.395,2.841,0.847,4.26,1.273c1.65,0.493,2.851,1.491,3.529,3.097
			c0.108,0.254,0.31,0.468,0.469,0.7c0.2-0.294,0.22-0.519,0.128-0.681c-0.382-0.689-0.791-1.364-1.197-2.039
			c-0.986-1.634-1.787-3.312-2.114-5.246c-0.477-2.837-1.735-5.37-3.586-7.587c-0.335-0.399-0.768-0.712-1.311-1.209
			c-0.075,0.567-0.16,0.878-0.149,1.183c0.068,1.987,0.878,3.687,2.171,5.146c0.771,0.87,1.177,1.876,1.393,2.978
			C61.917,97.139,61.826,97.491,61.785,98.147z M124.813,90.775c-0.182,0.972,0.018,1.664,0.494,2.274
			c0.541,0.693,1.121,1.354,1.662,2.048c1.193,1.527,2.418,3.035,3.542,4.612c0.69,0.969,1.223,2.052,1.871,3.16
			c0.222-0.344,0.391-0.615,0.568-0.88c0.746-1.109,1.455-2.244,2.247-3.318c1.73-2.349,3.51-4.662,5.256-7.001
			c0.458-0.616,0.434-0.635,0.122-1.514c-1.383,2.479-3.412,4.2-5.648,5.73c-0.96,0.656-1.738,1.522-2.161,2.656
			c-0.063,0.169-0.286,0.279-0.543,0.519c-0.136-0.395-0.224-0.638-0.303-0.885c-0.408-1.286-0.819-2.585-1.805-3.558
			c-1.277-1.261-2.609-2.466-3.281-4.227C126.12,90.528,125.495,90.648,124.813,90.775z M80.906,63.639
			c-4.459-0.061-6.745,2.189-7.287,6.502c0.508,0.11,1.019,0.221,1.599,0.348c0.087-0.644,0.112-1.157,0.23-1.647
			c0.39-1.625,1.237-2.889,2.891-3.465c0.565-0.196,0.882-0.045,0.84,0.594c-2.541,1.101-3.372,2.342-3.188,4.773
			c1.044,0.409,2.104,0.825,3.194,1.253C81.26,69.475,81.734,66.741,80.906,63.639z M103.06,129.105
			c-1.784,2.196-3.373,4.285-6.291,4.589c0.254,1.159,0.479,2.187,0.716,3.271c0.823-0.16,1.499-0.54,2.017-1.151
			c0.835-0.986,1.621-2.013,2.454-3.002c0.159-0.188,0.524-0.436,0.645-0.374c0.242,0.128,0.481,0.432,0.535,0.7
			c0.066,0.345-0.085,0.729-0.078,1.096c0.022,1.127,0.028,2.27,0.887,3.301c1.546-1.755,2.711-3.563,3.696-5.657
			C105.796,131.497,104.23,130.747,103.06,129.105z M97.418,150.775c-1.096,0.206-1.946,0.455-2.808,0.5
			c-0.863,0.043-1.736-0.119-2.762-0.202c-0.107,1.228-0.212,2.44-0.315,3.657c1.964,0.894,3.783,0.475,5.694,0.399
			C97.293,153.635,97.354,152.261,97.418,150.775z M71.254,70.916c-3.334,0.388-5.092,2.803-6.944,5.141
			c0.775,0.56,1.47,1.061,2.252,1.625C67.6,75.054,69.411,72.992,71.254,70.916z M146.932,140.101
			c-1.612,1.604-3.038,3.019-4.612,4.585c0.023,0.277,0.066,0.811,0.131,1.593c1.445-0.664,2.725-1.256,4.001-1.844
			C146.61,143.007,146.757,141.676,146.932,140.101z M141.911,157.795c1.199,0,2.156,0.043,3.104-0.027
			c0.295-0.021,0.79-0.334,0.809-0.548c0.082-0.913,0.161-1.854-0.046-2.735c-1.285,0.271-2.396,0.508-3.639,0.77
			C142.073,155.996,142.005,156.755,141.911,157.795z M97.825,156.678c1.123,0.646,2.158,0.695,3.215,0.291c0-1.165,0-2.259,0-3.397
			c-1.037,0.093-1.977,0.177-2.973,0.265C97.99,154.762,97.911,155.672,97.825,156.678z M101.059,149.506
			c0.065-1.21,0.115-2.148,0.171-3.161c-1.179,0-2.175,0-3.325,0c0.056,1.115,0.108,2.188,0.169,3.394
			C99.126,149.655,100.028,149.587,101.059,149.506z M97.07,145.354c-1.503-0.252-2.802-0.472-4.184-0.705
			c-0.118,0.864-0.222,1.623-0.332,2.444c1.6,0.29,3.066,0.551,4.603-0.002C97.124,146.446,97.098,145.905,97.07,145.354z
			 M102.085,141.447c-0.64-0.607-1.123-1.067-1.618-1.535c-0.889,0.337-1.785,0.678-2.625,0.996c0,0.739,0,1.45,0,2.247
			c0.706-0.243,1.3-0.582,1.909-0.619c0.6-0.036,1.223,0.233,1.916,0.387C101.81,142.417,101.957,141.899,102.085,141.447z
			 M142.503,149.33c0,0.722,0,1.441,0,2.268c1.34-0.056,2.317-0.8,3.406-1.169c0-0.736,0-1.399,0-2.097
			C144.743,148.674,143.699,148.98,142.503,149.33z M156.174,105.053c1.144,2.371,1.748,4.896,2.129,7.46
			c0.382,2.576,0.593,5.179,0.854,7.546C160.081,116.663,158.526,108.131,156.174,105.053z M92.875,133.218
			c0.126,0.729,0.241,1.389,0.358,2.06c1.092,0,2.049,0,3.232,0c-0.368-1.018-0.699-1.933-1.027-2.842
			C94.514,132.718,93.775,132.943,92.875,133.218z M93.354,139.036c0,0.707,0,1.279,0,1.924c1.096-0.032,2.094,0.525,3.206,0.136
			c-0.033-0.718-0.063-1.389-0.093-2.06C95.377,139.036,94.461,139.036,93.354,139.036z M149.238,139.578
			c0.136-1.695,0.268-3.249,0.381-4.806c0.028-0.39,0.003-0.785,0.003-1.179c-0.086-0.009-0.172-0.018-0.259-0.026
			c-0.527,1.909-1.054,3.818-1.599,5.788C148.314,139.439,148.673,139.493,149.238,139.578z M149.329,143.773
			c-0.822,0.11-1.438,0.195-2.066,0.279c-0.085,0.794-0.156,1.46-0.253,2.361c0.93-0.156,1.67-0.282,2.509-0.424
			C149.453,145.221,149.399,144.592,149.329,143.773z M150.856,154.86c-1.422,0.291-2.758,0.566-4.107,0.843
			c-0.291,0.71,0.146,0.909,0.716,0.952c1.218,0.094,2.365-0.167,3.52-0.774C150.942,155.537,150.898,155.194,150.856,154.86z
			 M48.763,101.36c-0.062,1.003,0.302,1.897,0.694,2.764c0.098,0.212,0.522,0.274,0.778,0.396
			C51.267,103.123,50.524,101.569,48.763,101.36z M146.718,152.239c1.223-0.214,2.347-0.408,3.575-0.622
			c-0.221-0.48-0.348-0.757-0.45-0.983c-1.087,0.087-2.073,0.167-3.125,0.253C146.718,151.311,146.718,151.694,146.718,152.239z
			 M73.714,61.406c-0.709,0.902-1.283,1.632-2.03,2.581c1.303,0.229,2.079-0.679,3.262-0.434
			C74.479,62.741,74.146,62.162,73.714,61.406z M90.944,126.042c-0.051,1.404,0.56,2.527,1.144,3.752
			c0.49-0.195,0.89-0.354,1.408-0.561C92.579,128.088,91.763,127.065,90.944,126.042z M77.874,100.242
			c-0.298-1.19-0.549-2.192-0.799-3.193C77,97.05,76.927,97.05,76.854,97.05c-0.21,0.946-0.421,1.891-0.656,2.946
			C76.768,100.079,77.207,100.144,77.874,100.242z M135.333,89.803c-1.073,0.088-1.798,0.147-2.742,0.225
			c0.49,0.629,0.817,1.048,1.268,1.622C134.332,91.055,134.73,90.558,135.333,89.803z"/>
		<path fill-rule="evenodd" clip-rule="evenodd" fill="#FFFFFF" d="M133.56,128.914c-0.861,0.193-1.791,0.402-2.906,0.652
			c-0.225-1.084-0.462-2.058-0.626-3.043c-0.549-3.289-1.069-6.588-2.332-9.7c-0.662-1.629-1.505-3.188-2.146-4.822
			c-0.418-1.065-0.776-2.198-0.893-3.327c-0.408-3.954-1.556-7.586-3.952-10.822c-1.477-1.994-2.074-4.388-2.692-6.775
			c1.663-0.172,1.653-0.169,2.042,1.2c0.618,2.16,1.529,4.142,3.123,5.806c3.183,3.319,5.494,7.214,7.065,11.512
			c1.148,3.139,1.8,6.41,1.995,9.764c0.167,2.864,0.243,5.747,1.301,8.477c0.081,0.213,0.107,0.448,0.137,0.679
			C133.685,128.594,133.63,128.685,133.56,128.914z"/>
		<path fill-rule="evenodd" clip-rule="evenodd" fill="#FFFFFF" d="M116.774,129.229c-1.348-0.26-2.46-0.473-3.681-0.707
			c0.346-2.016-0.077-3.814-0.958-5.462c-0.853-1.592-1.789-3.156-2.853-4.61c-2.332-3.186-3.584-6.733-4.12-10.617
			c-0.363-2.622-0.806-5.229-0.7-7.884c0.112-2.827,0.271-5.651,0.421-8.476c0.021-0.411,0.102-0.819,0.157-1.25
			c0.682-0.266,0.987-0.023,1.084,0.617c0.249,1.649,0.448,3.309,0.773,4.943c1.078,5.406,2.143,10.816,3.354,16.195
			c0.296,1.318,0.959,2.636,1.743,3.752c2.348,3.341,3.676,7.046,4.353,11.025C116.478,127.511,116.608,128.264,116.774,129.229z"/>
		<path fill-rule="evenodd" clip-rule="evenodd" fill="#FFFFFF" d="M110.657,90.402c0.879,0.068,1.637,0.127,2.397,0.186
			c0.363,1.876,0.651,3.648,1.057,5.394c0.629,2.701,1.238,5.404,2.932,7.729c0.933,1.281,1.458,2.778,1.619,4.388
			c0.246,2.434,1.051,4.694,2.261,6.808c2.333,4.069,3.705,8.468,4.499,13.064c0.1,0.575,0.085,1.172,0.131,1.86
			c-1.261,0-2.396,0-3.597,0c-0.216-3.763-1.039-7.349-2.2-10.868c-0.747-2.265-1.703-4.443-3.305-6.215
			c-1.612-1.782-2.216-3.902-2.609-6.161c-0.635-3.649-1.269-7.298-1.959-10.935c-0.259-1.361-0.683-2.692-1.019-4.039
			C110.778,91.267,110.744,90.908,110.657,90.402z"/>
		<path fill-rule="evenodd" clip-rule="evenodd" fill="#FFFFFF" d="M83.262,99.941c0.689,0.12,1.201,0.123,1.832-0.456
			c1.37-1.258,2.075-2.814,2.532-4.53c0.321-1.208,0.475-2.463,0.84-3.655c0.363-1.183,0.918-2.307,1.352-3.469
			c0.323-0.864,0.599-1.744,0.866-2.625c0.134-0.438,0.2-0.896,0.301-1.362c1.561,0.904,1.731,1.174,1.709,2.767
			c-0.021,1.393-0.058,2.792-0.779,4.048c-1.426,2.491-2.114,5.219-2.604,8.01c-0.541,3.084-2.142,5.59-4.239,7.824
			c-0.243,0.259-0.569,0.441-0.917,0.705c-0.73-1.146-1.423-2.236-1.981-3.118c0.133-0.681,0.36-1.192,0.308-1.669
			c-0.308-2.761-0.764-5.509-0.99-8.274c-0.094-1.117,0.123-2.313,0.452-3.396c0.401-1.319,1.036-2.574,1.626-3.832
			c1.022-2.188,1.919-4.412,2.427-6.784c0.107-0.501,0.103-1.098,0.594-1.458c0.09,0.072,0.152,0.103,0.149,0.124
			c-0.354,2.542-0.396,5.129-1.393,7.568c-0.592,1.45-1.104,2.963-1.408,4.495c-0.238,1.205-0.116,2.483-0.132,3.73
			c-0.016,1.058,0.065,2.122-0.02,3.176C83.729,98.473,83.457,99.167,83.262,99.941z"/>
		<path fill-rule="evenodd" clip-rule="evenodd" fill="#FFFFFF" d="M150.84,94.748c1.706,0.984,2.109,2.178,1.216,3.75
			c-1.164,2.047-2.076,4.238-3.185,6.32c-2.176,4.085-3.359,8.423-3.444,13.046c-0.065,3.435-0.944,6.691-2.097,9.879
			c-0.833,2.305-1.831,4.552-2.783,6.812c-0.212,0.5-0.535,0.954-0.87,1.539c-0.599-0.691-1.105-1.275-1.548-1.786
			c0.817-2.218,1.649-4.325,2.374-6.467c1.24-3.672,1.701-7.495,2.018-11.334c0.234-2.833,0.641-5.639,1.828-8.233
			c0.787-1.719,1.861-3.3,2.765-4.968c0.881-1.625,1.773-3.251,2.53-4.934C150.151,97.243,150.433,96.012,150.84,94.748z"/>
		<path fill-rule="evenodd" clip-rule="evenodd" fill="#FFFFFF" d="M145.013,91.398c0.594,0.202,1.192,0.405,1.91,0.649
			c-0.137,0.623-0.163,1.241-0.406,1.761c-0.896,1.924-1.805,3.847-2.822,5.71c-0.819,1.499-1.823,2.897-2.705,4.364
			c-1.461,2.431-2.153,5.099-2.327,7.91c-0.164,2.635-0.176,5.285-0.483,7.9c-0.389,3.318-1.34,6.524-2.476,9.668
			c-0.061,0.168-0.18,0.317-0.308,0.539c-0.582-0.419-0.713-1.011-0.673-1.583c0.1-1.425,0.237-2.849,0.438-4.262
			c0.248-1.739,0.684-3.457,0.835-5.203c0.106-1.228-0.097-2.487-0.212-3.729c-0.081-0.873-0.242-1.739-0.371-2.608
			c-0.44-2.975,0.36-5.69,1.746-8.278c1.201-2.244,2.502-4.411,4.107-6.419C142.788,95.915,144.117,93.842,145.013,91.398z"/>
		<path fill-rule="evenodd" clip-rule="evenodd" fill="#FFFFFF" d="M102.345,89.591c-0.163,2.155-0.326,4.311-0.489,6.466
			c-0.141,1.848-0.189,3.707-0.439,5.541c-0.354,2.612-0.827,5.21-1.307,7.803c-0.241,1.3-0.862,2.469-1.78,3.413
			c-1.812,1.864-3.055,4.056-4.005,6.453c-0.735,1.857-2.123,3.098-3.949,3.905c-0.597-0.675-0.563-1.295-0.201-2.055
			c0.595-1.254,1.119-2.547,1.567-3.86c0.842-2.465,2.413-4.481,3.941-6.518c2.231-2.971,3.311-6.265,3.167-9.988
			c-0.048-1.244,0.102-2.497,0.186-3.743c0.138-2.09,1.045-3.917,1.987-5.728c0.312-0.601,0.662-1.185,0.995-1.774
			C102.126,89.533,102.235,89.562,102.345,89.591z"/>
		<path fill-rule="evenodd" clip-rule="evenodd" fill="#FFFFFF" d="M70.476,101.876c-0.135-0.66-0.316-1.314-0.396-1.981
			c-0.346-2.829,0.191-5.529,1.304-8.123c0.765-1.785,1.444-3.62,2.388-5.309c0.806-1.442,1.887-2.736,2.922-4.035
			c0.894-1.122,1.904-2.148,2.847-3.23c1.164-1.336,2.102-2.809,2.652-4.642c0.32,0.158,0.612,0.303,0.929,0.46
			c-0.368,1.616-0.732,3.14-1.062,4.671c-0.537,2.489-2.006,4.437-3.621,6.307c-1.638,1.899-3.014,3.974-4.207,6.175
			c-1.376,2.539-1.819,5.318-2.104,8.142C72.001,101.54,71.976,101.538,70.476,101.876z"/>
		<path fill-rule="evenodd" clip-rule="evenodd" fill="#FFFFFF" d="M155.263,105.586c0.283,1.859,0.049,3.38-0.31,4.848
			c-0.788,3.228-1.728,6.419-2.558,9.637c-0.56,2.168-1.536,4.155-2.448,6.182c-0.931,2.068-1.689,4.212-2.562,6.308
			c-1.104,2.651-2.942,4.806-4.814,6.93c-0.211,0.238-0.484,0.419-0.762,0.655c-0.435-0.381-0.52-0.758-0.27-1.241
			c0.765-1.469,1.503-2.952,2.273-4.419c0.493-0.94,0.987-1.887,1.551-2.785c1.665-2.652,2.748-5.576,3.775-8.492
			c0.873-2.479,1.421-5.081,1.998-7.653c0.707-3.147,1.865-6.104,3.426-8.915C154.716,106.362,154.912,106.109,155.263,105.586z"/>
		<path fill-rule="evenodd" clip-rule="evenodd" fill="#FFFFFF" d="M94.208,129.017c-0.429-0.587-0.809-1.105-1.274-1.741
			c0.584-0.366,1.106-0.721,1.652-1.032c2.93-1.679,4.686-4.264,5.769-7.386c0.272-0.786,0.578-1.564,0.918-2.325
			c0.163-0.365,0.439-0.682,0.763-1.166c0.523,0.948,0.914,1.777,1.412,2.535c0.889,1.351,1.834,2.661,2.774,3.977
			c0.35,0.488,0.717,0.977,1.144,1.395c1.288,1.269,1.706,2.797,1.445,4.695c-0.314-0.275-0.604-0.472-0.823-0.73
			c-0.716-0.853-1.449-1.691-2.088-2.6c-0.473-0.672-0.812-1.44-1.197-2.17c-0.109-0.204-0.16-0.436-0.263-0.643
			c-0.669-1.326-1.542-1.437-2.404-0.243c-0.649,0.897-1.32,1.815-1.76,2.823C99.114,127.065,97.115,128.543,94.208,129.017z"/>
		<path fill-rule="evenodd" clip-rule="evenodd" fill="#FFFFFF" d="M87.788,114.711c-0.41-1.236-0.824-2.268-1.069-3.337
			c-0.085-0.36,0.166-0.881,0.412-1.225c0.671-0.94,1.422-1.823,2.138-2.731c2.107-2.679,3.324-5.733,3.972-9.064
			c0.244-1.255,0.61-2.536,1.203-3.657c0.995-1.881,1.596-3.833,1.799-5.933c0.03-0.318,0.083-0.634,0.143-1.086
			c0.532,0.186,0.995,0.345,1.579,0.547c-0.258,0.717-0.443,1.376-0.726,1.992c-1.462,3.199-2.289,6.545-2.346,10.067
			c-0.05,2.922-0.892,5.528-2.764,7.824c-1.168,1.431-2.204,2.972-3.249,4.499C88.476,113.199,88.21,113.886,87.788,114.711z"/>
		<path fill-rule="evenodd" clip-rule="evenodd" fill="#FFFFFF" d="M62.062,79.976c1.654,1.57,2.595,3.338,3.663,5.008
			c0.324,0.505,0.546,1.076,0.864,1.586c0.608,0.973,1.274,0.963,1.901-0.017c0.172-0.269,0.333-0.574,0.392-0.881
			c0.435-2.285,1.62-4.218,2.87-6.113c0.894-1.352,1.832-2.678,2.806-3.973c0.815-1.082,1.812-1.953,3.403-2.301
			c-0.546,1.447-1.332,2.583-2.23,3.559c-3.213,3.495-5.299,7.667-7.362,11.863c-0.488,0.99-1.005,1.966-1.624,3.176
			c-1.706-3.257-3.03-6.594-6.664-8.078C60.74,82.531,61.352,81.35,62.062,79.976z"/>
		<path fill-rule="evenodd" clip-rule="evenodd" fill="#FFFFFF" d="M61.785,98.147c0.041-0.656,0.132-1.009,0.069-1.328
			c-0.216-1.102-0.621-2.107-1.393-2.978c-1.293-1.459-2.103-3.158-2.171-5.146c-0.011-0.305,0.074-0.615,0.149-1.183
			c0.543,0.497,0.976,0.81,1.311,1.209c1.851,2.217,3.109,4.75,3.586,7.587c0.327,1.935,1.128,3.612,2.114,5.246
			c0.406,0.675,0.815,1.35,1.197,2.039c0.092,0.162,0.072,0.387-0.128,0.681c-0.159-0.232-0.36-0.446-0.469-0.7
			c-0.679-1.605-1.879-2.604-3.529-3.097c-1.419-0.427-2.831-0.879-4.26-1.273c-0.789-0.22-1.256-0.649-1.485-1.458
			c-0.495-1.746-1.076-3.465-2.558-4.816c0.458-0.521,0.873-0.993,1.287-1.466c0.761,0.433,0.809,1.123,0.9,1.739
			c0.176,1.168,0.701,1.963,1.899,2.29c1.015,0.273,1.792,0.943,2.491,1.707C61.03,97.454,61.295,97.679,61.785,98.147z"/>
		<path fill-rule="evenodd" clip-rule="evenodd" fill="#FFFFFF" d="M124.813,90.775c0.682-0.127,1.307-0.247,2.021-0.382
			c0.672,1.761,2.004,2.966,3.281,4.227c0.985,0.973,1.396,2.271,1.805,3.558c0.079,0.247,0.167,0.49,0.303,0.885
			c0.257-0.239,0.479-0.35,0.543-0.519c0.423-1.134,1.201-2,2.161-2.656c2.236-1.53,4.266-3.251,5.648-5.73
			c0.312,0.879,0.336,0.897-0.122,1.514c-1.746,2.339-3.525,4.652-5.256,7.001c-0.792,1.074-1.501,2.209-2.247,3.318
			c-0.178,0.265-0.347,0.536-0.568,0.88c-0.648-1.108-1.181-2.191-1.871-3.16c-1.124-1.577-2.349-3.085-3.542-4.612
			c-0.541-0.693-1.121-1.354-1.662-2.048C124.831,92.439,124.632,91.747,124.813,90.775z"/>
		<path fill-rule="evenodd" clip-rule="evenodd" fill="#FFFFFF" d="M80.906,63.639c0.828,3.102,0.354,5.836-1.722,8.358
			c-1.09-0.428-2.15-0.844-3.194-1.253c-0.184-2.432,0.647-3.673,3.188-4.773c0.042-0.64-0.274-0.791-0.84-0.594
			c-1.653,0.577-2.501,1.84-2.891,3.465c-0.118,0.49-0.144,1.003-0.23,1.647c-0.58-0.126-1.091-0.237-1.599-0.348
			C74.161,65.828,76.447,63.578,80.906,63.639z"/>
		<path fill-rule="evenodd" clip-rule="evenodd" fill="#FFFFFF" d="M103.06,129.105c1.171,1.642,2.736,2.392,4.58,2.771
			c-0.985,2.094-2.15,3.902-3.696,5.657c-0.858-1.031-0.864-2.174-0.887-3.301c-0.007-0.367,0.145-0.751,0.078-1.096
			c-0.054-0.269-0.293-0.572-0.535-0.7c-0.12-0.062-0.485,0.187-0.645,0.374c-0.833,0.989-1.619,2.016-2.454,3.002
			c-0.518,0.611-1.193,0.991-2.017,1.151c-0.237-1.084-0.462-2.111-0.716-3.271C99.687,133.391,101.275,131.302,103.06,129.105z"/>
		<path fill-rule="evenodd" clip-rule="evenodd" fill="#FFFFFF" d="M97.418,150.775c-0.063,1.485-0.125,2.859-0.19,4.354
			c-1.911,0.075-3.73,0.494-5.694-0.399c0.104-1.217,0.208-2.43,0.315-3.657c1.025,0.083,1.898,0.245,2.762,0.202
			C95.472,151.23,96.322,150.981,97.418,150.775z"/>
		<path fill-rule="evenodd" clip-rule="evenodd" fill="#FFFFFF" d="M71.254,70.916c-1.843,2.076-3.654,4.138-4.692,6.766
			c-0.782-0.563-1.477-1.065-2.252-1.625C66.162,73.719,67.92,71.304,71.254,70.916z"/>
		<path fill-rule="evenodd" clip-rule="evenodd" fill="#FFFFFF" d="M146.932,140.101c-0.175,1.575-0.321,2.906-0.48,4.334
			c-1.276,0.588-2.556,1.18-4.001,1.844c-0.064-0.782-0.107-1.315-0.131-1.593C143.894,143.119,145.319,141.704,146.932,140.101z"/>
		<path fill-rule="evenodd" clip-rule="evenodd" fill="#FFFFFF" d="M141.911,157.795c0.094-1.04,0.162-1.799,0.229-2.541
			c1.242-0.262,2.354-0.498,3.639-0.77c0.207,0.882,0.128,1.822,0.046,2.735c-0.019,0.214-0.514,0.527-0.809,0.548
			C144.067,157.838,143.11,157.795,141.911,157.795z"/>
		<path fill-rule="evenodd" clip-rule="evenodd" fill="#FFFFFF" d="M97.825,156.678c0.086-1.006,0.165-1.916,0.242-2.842
			c0.996-0.088,1.936-0.172,2.973-0.265c0,1.139,0,2.232,0,3.397C99.983,157.373,98.948,157.323,97.825,156.678z"/>
		<path fill-rule="evenodd" clip-rule="evenodd" fill="#FFFFFF" d="M101.059,149.506c-1.03,0.081-1.933,0.149-2.985,0.232
			c-0.061-1.205-0.113-2.278-0.169-3.394c1.15,0,2.146,0,3.325,0C101.174,147.357,101.124,148.296,101.059,149.506z"/>
		<path fill-rule="evenodd" clip-rule="evenodd" fill="#FFFFFF" d="M97.07,145.354c0.027,0.552,0.054,1.093,0.087,1.737
			c-1.536,0.553-3.003,0.292-4.603,0.002c0.11-0.821,0.214-1.58,0.332-2.444C94.269,144.882,95.567,145.102,97.07,145.354z"/>
		<path fill-rule="evenodd" clip-rule="evenodd" fill="#FFFFFF" d="M102.085,141.447c-0.128,0.452-0.275,0.97-0.418,1.476
			c-0.693-0.153-1.316-0.423-1.916-0.387c-0.609,0.037-1.203,0.376-1.909,0.619c0-0.797,0-1.508,0-2.247
			c0.84-0.318,1.736-0.659,2.625-0.996C100.962,140.38,101.445,140.84,102.085,141.447z"/>
		<path fill-rule="evenodd" clip-rule="evenodd" fill="#FFFFFF" d="M142.503,149.33c1.196-0.35,2.24-0.656,3.406-0.998
			c0,0.697,0,1.36,0,2.097c-1.089,0.369-2.066,1.113-3.406,1.169C142.503,150.771,142.503,150.052,142.503,149.33z"/>
		<path fill-rule="evenodd" clip-rule="evenodd" fill="#FFFFFF" d="M156.174,105.053c2.353,3.078,3.907,11.61,2.982,15.006
			c-0.261-2.367-0.472-4.97-0.854-7.546C157.922,109.948,157.317,107.424,156.174,105.053z"/>
		<path fill-rule="evenodd" clip-rule="evenodd" fill="#FFFFFF" d="M92.875,133.218c0.9-0.274,1.639-0.5,2.563-0.782
			c0.328,0.909,0.659,1.824,1.027,2.842c-1.184,0-2.141,0-3.232,0C93.116,134.606,93.001,133.946,92.875,133.218z"/>
		<path fill-rule="evenodd" clip-rule="evenodd" fill="#FFFFFF" d="M93.354,139.036c1.106,0,2.022,0,3.113,0
			c0.029,0.671,0.06,1.342,0.093,2.06c-1.112,0.39-2.11-0.168-3.206-0.136C93.354,140.315,93.354,139.743,93.354,139.036z"/>
		<path fill-rule="evenodd" clip-rule="evenodd" fill="#FFFFFF" d="M149.238,139.578c-0.565-0.085-0.924-0.139-1.474-0.223
			c0.545-1.97,1.071-3.879,1.599-5.788c0.087,0.009,0.173,0.018,0.259,0.026c0,0.394,0.025,0.789-0.003,1.179
			C149.506,136.329,149.374,137.883,149.238,139.578z"/>
		<path fill-rule="evenodd" clip-rule="evenodd" fill="#FFFFFF" d="M149.329,143.773c0.07,0.818,0.124,1.447,0.189,2.217
			c-0.839,0.142-1.579,0.268-2.509,0.424c0.097-0.901,0.168-1.567,0.253-2.361C147.891,143.969,148.507,143.884,149.329,143.773z"/>
		<path fill-rule="evenodd" clip-rule="evenodd" fill="#FFFFFF" d="M150.856,154.86c0.042,0.334,0.086,0.677,0.128,1.021
			c-1.154,0.607-2.302,0.868-3.52,0.774c-0.569-0.043-1.007-0.242-0.716-0.952C148.099,155.427,149.435,155.151,150.856,154.86z"/>
		<path fill-rule="evenodd" clip-rule="evenodd" fill="#FFFFFF" d="M48.763,101.36c1.762,0.209,2.504,1.763,1.473,3.16
			c-0.256-0.122-0.681-0.185-0.778-0.396C49.064,103.258,48.7,102.363,48.763,101.36z"/>
		<path fill-rule="evenodd" clip-rule="evenodd" fill="#FFFFFF" d="M146.718,152.239c0-0.545,0-0.929,0-1.353
			c1.052-0.086,2.038-0.166,3.125-0.253c0.103,0.227,0.229,0.503,0.45,0.983C149.064,151.831,147.94,152.025,146.718,152.239z"/>
		<path fill-rule="evenodd" clip-rule="evenodd" fill="#FFFFFF" d="M73.714,61.406c0.433,0.755,0.765,1.335,1.231,2.147
			c-1.183-0.245-1.959,0.663-3.262,0.434C72.431,63.039,73.005,62.308,73.714,61.406z"/>
		<path fill-rule="evenodd" clip-rule="evenodd" fill="#FFFFFF" d="M90.944,126.042c0.818,1.023,1.635,2.046,2.552,3.191
			c-0.519,0.206-0.918,0.365-1.408,0.561C91.504,128.569,90.894,127.446,90.944,126.042z"/>
		<path fill-rule="evenodd" clip-rule="evenodd" fill="#FFFFFF" d="M77.874,100.242c-0.667-0.099-1.106-0.163-1.676-0.246
			c0.235-1.056,0.446-2,0.656-2.946c0.072,0,0.146,0,0.221-0.001C77.325,98.05,77.576,99.052,77.874,100.242z"/>
		<path fill-rule="evenodd" clip-rule="evenodd" fill="#FFFFFF" d="M135.333,89.803c-0.603,0.755-1.001,1.252-1.475,1.847
			c-0.45-0.574-0.777-0.993-1.268-1.622C133.535,89.95,134.26,89.891,135.333,89.803z"/>
	</g>
</g>
</svg>
