<?xml version="1.0" encoding="utf-8"?>
<!-- Generator: Adobe Illustrator 16.0.4, SVG Export Plug-In . SVG Version: 6.00 Build 0)  -->
<!DOCTYPE svg PUBLIC "-//W3C//DTD SVG 1.0//EN" "http://www.w3.org/TR/2001/REC-SVG-20010904/DTD/svg10.dtd">
<svg version="1.0" id="Layer_1" xmlns="http://www.w3.org/2000/svg" xmlns:xlink="http://www.w3.org/1999/xlink" x="0px" y="0px"
	 width="215.161px" height="216.891px" viewBox="0 0 215.161 216.891" enable-background="new 0 0 215.161 216.891"
	 xml:space="preserve">
<g>
	<path fill-rule="evenodd" clip-rule="evenodd" fill="#FFFFFF" d="M107.788,119.126c-1.611-0.383-3.34-0.512-4.809-1.198
		c-3.545-1.653-5.476-4.577-5.57-8.524c-0.097-4.016,0.9-7.604,4.555-9.928c3.938-2.505,10.499-1.795,13.389,1.871
		c3.725,4.725,4.023,11.973-1.389,16.002C112.29,118.595,110.892,118.954,107.788,119.126z"/>
	<path fill-rule="evenodd" clip-rule="evenodd" fill="#F4CE18" d="M109.248,2.761c7.405-0.001,17.614,1.673,28.206,4.187
		c18.244,4.329,34.469,12.933,47.244,27.003c3.331,3.67,15.52,21.388,19.372,29.745c4.915,10.658,8.414,29.525,9.111,41.265
		c1.847,29.666-8.986,54.271-28.911,75.62c-14.341,15.363-32.288,24.374-52.375,28.217c-17.421,3.332-38.355,4.58-55.555-2.107
		c-8.963-3.486-15.05-7.135-23.717-11.256c-13.131-6.242-21.675-17.481-29.654-29.155c-8.435-12.338-13.108-26.245-16.48-40.573
		c-2.632-11.183-2.172-22.632-1.057-34.013c1.405-14.364,5.484-27.863,13.359-40.085C38.962,20.29,66.832,2.619,109.248,2.761z"/>
	<path fill-rule="evenodd" clip-rule="evenodd" fill="#402F3C" d="M211.433,90.393c-2.773-1.946-4.817-3.379-8.652-6.07
		c0.628,4.585,1.049,8.089,1.6,11.575c0.632,4,1.758,7.59,5.047,10.569c1.82,1.951,2.747,3.923,3.93,6.361
		c0.286,0.59,0.012,3.382-0.127,3.634c-0.211-0.189-2.884-7.324-7.521-8.643c-0.616,5.404-1.404,10.639-1.681,15.901
		c-0.07,1.35,1.382,2.847,2.295,4.167c1.244,1.803,3.457,4.747,3.999,7.396c0.173,0.845-0.66,3.7-0.957,3.545
		c-1.917-3.121-4.089-6.761-6.144-10.102c-2.11,6.311-3.904,11.665-5.556,16.599c1.137,3.768,2.966,8.307,3.888,11.822
		c-0.025,0.666-1.432,2.838-1.622,2.823c-1.559-3.919-2.784-7.096-4.107-10.423c-2.709,4.274-5.076,7.773-7.151,11.441
		c-0.555,0.982-0.352,2.48-0.27,3.726c0.158,2.399,0.519,4.8,0.654,7.179c0.111,1.951,0.064,1.561,0.131,3.145
		c-0.129,0.525-2.304,3.212-2.75,3.166c-0.292-3.574-0.653-8.12-1.012-12.477c-4.031,4.27-7.457,7.62-10.501,11.29
		c-0.899,1.085-0.934,3.056-0.994,4.637c-0.098,2.468-0.013,6.941-0.142,8.557c-0.043,0.54-2.949,2.509-3.264,2.443
		c0-3.437,0.077-7.819,0.077-11.118c-5.069,3.461-9.507,6.356-13.759,9.505c-0.862,0.641-1.221,2.192-1.47,3.396
		c-0.499,2.408-1.004,5.272-1.499,7.637c-0.129,0.615-2.535,1.365-3.135,1.303c0.443-1,1.619-6.016,1.15-9.728
		c-2.949,1.15-5.692,2.441-8.564,3.289c-4.058,1.195-6.587,3.494-9.233,7.121c-1.44,1.974-2.347,3.192-3.76,5.029
		c-0.368,0.319-3.368,0.913-3.52,0.602c1.459-2.227,4.479-7.124,6.058-9.532c-6.688,1.469-15.514,1.992-22.83,2.939
		c-1.751,0.224-3.535,1.777-4.883,3.137c-1.412,1.421-3.815,3.567-5.35,5.136c-0.312,0.319-4.062-0.024-4.099-0.3
		c3.226-3.08,5.303-5.066,8.079-7.722c-6.254-1.234-11.792-2.469-17.387-3.316c-1.207-0.184-2.648,0.995-3.948,1.61
		c-2.655,1.261-6.61,2.539-9.641,3.609c-0.442,0.156-2.33-0.803-2.587-1.124c2.707-1.345,7.957-3.001,11.029-5.484
		c-4.326-1.739-8.397-3.624-12.643-4.94c-1.315-0.405-3.123,0.689-4.684,1.172c-2.68,0.829-4.586,1.332-8.639,1.851
		c-1.048,0.134-2.857-1.067-3.195-1.546c3.213-0.334,7.682-1.209,12.318-2.871c-1.569-1.366-2.385-2.2-3.318-2.861
		c-1.969-1.391-4.109-2.555-5.982-4.057c-3.445-2.762-4.938-3.198-11.623-3.201c-4.149-0.15-8.379-0.308-8.681-0.433
		c-0.313-0.13-2.438-2.505-2.276-2.604c4.936,0,8.67,0.022,13.352,0.022c-4.883-5.511-9.176-10.494-13.67-15.29
		c-0.716-0.766-2.319-0.759-3.533-0.985c-2.404-0.179-5.656-0.583-8.545-1.051c-0.162-0.026-1.438-2.3-1.297-2.315
		c3.855-0.18,7.018,1.236,10.742,0.281c-2.299-4.705-5.49-9.96-7.973-14.43c-0.589-1.058-2.439-1.404-3.699-2.097
		c-2.734-1.509-5.027-2.821-7.884-4.559c-0.374-0.228-1.312-3.353-0.999-3.384c3.32,1.871,7.818,3.965,11.141,5.836
		c0,0-3.049-9.863-4.464-13.994c-0.388-1.133-2.089-1.811-3.174-2.71c-2.541-2.106-4.882-4.02-7.356-6.195
		c-0.628-0.552-0.628-3.404-0.348-3.448c3.018,2.367,7.236,5.573,10.254,7.94c-0.458-1.125,0.207-10.999-4.334-18.394
		c-1.834-3.567-3.693-7.306-5.422-11.558c-0.4-0.982-0.162-4.051,0.453-4.222c1.987,4.354,5.921,9.041,7.907,13.395
		c0.021-1.472,2.271-13.369,2.969-19.709c0.215-1.971-1.269-4.204-2.206-6.209c-1.787-3.819-2.367-7.972-2.921-10.437
		c-0.28-1.119,0.804-3.369,1.47-3.285c2.627,5.455,3.084,10.834,4.93,14.365c2.949-6.334,5.523-11.426,7.656-16.697
		c0.625-1.552,0.062-3.612-0.062-5.432c-0.218-3.126-1.259-10.105-1.148-10.903c0.168-1.218,1.562-3.188,2.485-3.337
		c0.853,5.086,0.43,3.954,0.724,6.321c0.29,2.333,0.449,4.683,0.793,8.404c3.645-4.784,6.655-8.389,9.205-12.289
		c0.791-1.209,0.358-3.232,0.453-4.884c0.177-3.136-0.016-7.84,0.881-10.42c0.346-0.993,1.896-1.858,2.838-2.466
		c0.059,5.232-0.103,9.485,0.397,13.282c2.886-2.56,5.701-4.868,8.257-7.437c0.807-0.809,1.008-2.29,1.313-3.509
		c0.721-2.87,1.14-5.83,2.063-8.628c0.594-1.794,0.172-0.63,0.916-2.782c0.541-0.507,2.578-1.764,2.556-1.424
		c-0.094,1.382-0.801,5.039-1.113,6.123c-0.352,2.028-0.929,4.476-1.554,7.669c3.887-2.059,7.214-3.52,10.17-5.529
		c1.353-0.917,2.147-2.833,2.882-4.439c1.31-2.852,2.809-7.318,4.249-10.103c0.073-0.142,2.649-1.338,3.695-1.136
		c-1.728,3.871-4.602,12.215-4.318,12.519c3.727-1.354,7.572-2.47,11.12-4.198c1.219-0.593,1.725-2.525,2.636-3.887
		c1.726-2.587,3.133-5.023,5.003-7.503c0.312-0.413,3.166-0.56,3.419-0.439c-0.983,2.191-1.9,2.712-5.384,10.538
		c3.656-0.556,6.827-0.761,10.159-1.671c1.577-0.431,3.029-1.933,4.159-3.267c3.581-4.227,4.362-4.582,8.597-6.438
		c0.903,0.064,4.586,0,4.184,0.289c-3.627,2.605-8.172,4.156-8.91,9.015c5.371,0.386,10.924,0.36,16.22,0.48
		c1.157,0.027,2.407-1.318,3.507-2.17c2.038-1.581,3.758-3.341,5.896-4.761c0.779,0.006,3.122,0.422,3.98,0.959
		c-3.45,2.43-4.329,4.116-8.416,6.991c6.082,1.832,10.25,2.807,15.194,3.945c1.303,0.299,3.009-0.946,4.472-1.604
		c2.629-1.182,5.264-3.022,7.771-3.201c0.438-0.031,3.234,1.297,3.135,1.432c-0.911,1.232-7.552,2.972-9.765,5.603
		c4.791,2.639,9.557,5.269,14.542,8.014c3.121-0.815,7.414-4.019,10.953-3.938c1.248,0.028,2.308,1.85,2.308,1.85
		c-4.177,1.54-5.766,2.992-9.734,4.453c2.889,2.637,4.511,4.056,6.749,6.178c3.418,3.248,6.779,6.156,12.168,4.322
		c0.949-0.322,2.807-0.961,3.87-0.938c0.505,0.011,2.588,3.365,2.317,3.386c-3.689,0-5.234,1.787-9.353,1.787
		c3.821,5.234,5.913,8.273,9.254,12.364c0.908,1.112,2.294,1.819,3.764,2.496c3.15,1.452,6.024,2.508,9.068,4.154
		c0.723,0.39,1.496,3.074,1.497,3.644c-4.508-2.048-6.482-2.923-11.081-4.445c0.99,2.151,0.963,1.943,1.316,2.846
		c0.677,1.721,1.706,3.327,2.215,5.09c1.688,5.849,4.729,9.158,9.792,12.877c0.163,0.12,1.547,1.156,2.797,2.219
		C210.903,86.532,211.892,89.923,211.433,90.393z M105.046,196.478c17.043-0.084,29.729-2.949,41.88-8.506
		c12.812-5.86,24.405-13.598,33.23-24.488c21.156-26.104,24.718-55.669,13.876-86.77c-8.786-25.205-27.166-41.896-51.535-52.045
		c-16.92-7.047-34.502-8.379-52.327-4.222c-25.648,5.981-45.4,20.361-58.824,43.02c-10.81,18.239-13.888,38.109-10.8,58.946
		c1.837,12.399,5.267,24.514,12.744,34.646C51.937,182.336,77.24,195.494,105.046,196.478z"/>
	<path fill-rule="evenodd" clip-rule="evenodd" fill="#FFFFFF" d="M105.046,196.482c-27.806-0.983-53.109-14.142-71.756-39.419
		c-7.478-10.132-10.907-22.246-12.744-34.646c-3.088-20.837-0.01-40.707,10.8-58.946C44.77,40.813,64.521,26.434,90.17,20.452
		c17.825-4.157,35.407-2.825,52.327,4.222c24.369,10.148,42.749,26.84,51.535,52.045c10.842,31.101,7.28,60.665-13.876,86.77
		c-8.825,10.891-20.419,18.628-33.23,24.488C134.775,193.533,122.089,196.398,105.046,196.482z"/>
	<path fill-rule="evenodd" clip-rule="evenodd" fill="#C6C6C6" d="M105.499,166.537c-18.145-0.642-34.656-9.228-46.824-25.722
		c-4.879-6.611-7.118-14.518-8.315-22.608c-2.016-13.598-0.007-26.563,7.046-38.465c8.761-14.786,21.649-24.17,38.387-28.072
		c11.632-2.713,23.105-1.845,34.146,2.754c15.901,6.623,27.896,17.516,33.63,33.962c7.074,20.295,4.751,39.587-9.056,56.622
		c-5.759,7.105-13.323,12.155-21.684,15.979C124.899,164.612,116.62,166.483,105.499,166.537z"/>
	<path fill-rule="evenodd" clip-rule="evenodd" fill="#C6C6C6" d="M104.945,191.645c-26.42-0.934-50.464-13.438-68.184-37.456
		c-7.104-9.628-10.364-21.139-12.108-32.92c-2.934-19.8-0.01-38.681,10.262-56.011c12.757-21.531,31.523-35.196,55.896-40.88
		c16.938-3.95,33.645-2.685,49.722,4.013c23.156,9.643,40.622,25.502,48.97,49.453c10.302,29.553,6.919,57.646-13.186,82.449
		c-8.385,10.349-19.401,17.7-31.575,23.271C133.195,188.843,121.141,191.565,104.945,191.645z"/>
	<g>
		<path fill-rule="evenodd" clip-rule="evenodd" fill="#F4CE18" d="M66.462,42.74c-5.215,2.365-6.439,3.03-11.482,8.018
			c-2.107,0.853-0.86-2.673,2.932-6.188C62.208,40.944,68.231,39.767,66.462,42.74z"/>
		<path fill-rule="evenodd" clip-rule="evenodd" fill="#F4CE18" d="M121.569,30.749c0.209-1.279,2.027-1.117,3.026-1.088
			c4.925,0.144,12.54,3.342,14.989,6.277c0.381,1.531-1.525,1.688-3.312,0.823c-1.658-0.802-3.957-1.841-5.805-2.391
			c-3.439-1.37-5.236-1.486-8.17-2.365C121.653,31.813,121.599,31.103,121.569,30.749z"/>
		<path fill-rule="evenodd" clip-rule="evenodd" fill="#F4CE18" d="M186.284,93.055c0.9-0.028,1.109,1.105,1.162,1.701
			c0.718,4.475,1.218,9.559,0.922,14.218c-0.038,0.604-0.48,1.795-1.529,1.795c-1.17,0-1.603-0.896-1.599-1.236
			c0.341-5.51,0.133-8.51-0.506-14.736C184.872,94.36,184.403,93.157,186.284,93.055z"/>
		<path fill-rule="evenodd" clip-rule="evenodd" fill="#F4CE18" d="M164.376,55.337c-2.191-2.898,0.839-4.426,3.346-0.929
			c4.293,4.87,7.525,10.78,5.775,12.189C171.81,66.598,169.622,60.938,164.376,55.337z"/>
		<path fill-rule="evenodd" clip-rule="evenodd" fill="#F4CE18" d="M88.453,32.697c0.544,1.179-15.644,7.554-15.983,5.636
			C71.935,36.688,87.122,29.754,88.453,32.697z"/>
		<path fill-rule="evenodd" clip-rule="evenodd" fill="#F4CE18" d="M47.724,58.291c1.836-0.587,1.445,1.507,0.041,2.632
			c-1.784,1.431-2.744,3.409-3.951,5.129c-1.733,2.471-1.014,1.852-2.482,4.638c-1.088,2.018-3.547,0.934-1.91-2.743
			C41.376,62.496,43.899,59.589,47.724,58.291z"/>
		<path fill-rule="evenodd" clip-rule="evenodd" fill="#F4CE18" d="M138.572,179.468c-0.821-1.612,15.011-9.612,16.142-8.014
			C156.375,173.105,139.876,182.208,138.572,179.468z"/>
		<path fill-rule="evenodd" clip-rule="evenodd" fill="#F4CE18" d="M180.145,72.192c2.228,3.434,3.915,7.809,4.662,11.745
			c0.095,0.499-0.246,2.003-1.305,1.978c-0.733-0.06-1.478-0.465-1.661-0.954c-1.094-4.085-2.344-7.397-4.532-11.835
			C176.664,71.188,179.144,71.085,180.145,72.192z"/>
		<path fill-rule="evenodd" clip-rule="evenodd" fill="#F4CE18" d="M145.573,39.794c1.257-2.452,10.9,2.443,14.751,8.695
			c1.017,1.668-1.077,2.043-2.374,0.65C152.957,44.063,144.778,41.345,145.573,39.794z"/>
		<path fill-rule="evenodd" clip-rule="evenodd" fill="#F4CE18" d="M95.948,31.662c-0.576-2.002,15.753-4.411,16.853-2.56
			c-0.491,1.711-5.103,1.818-7.653,2.047C102.497,31.39,96.31,32.876,95.948,31.662z"/>
		<path fill-rule="evenodd" clip-rule="evenodd" fill="#F4CE18" d="M178.109,140.948c0.725-1.004,2.229-0.508,2.2,0.615
			c-0.312,5.188-2.341,9.185-5.603,12.735c-0.616,0.671-1.481,0.571-1.957,0.308c-0.462-0.253,0.015-1.064,0.226-1.479
			C174.569,150.158,176.771,147.984,178.109,140.948z"/>
		<path fill-rule="evenodd" clip-rule="evenodd" fill="#F4CE18" d="M132.518,184.229c-5.778,2.057-9.683,2.848-15.977,2.202
			c-1.04-0.073-1.748-1.364-0.249-1.454c5.96-0.486,9.918-1.371,14.678-2.769C133.585,181.483,134.251,183.108,132.518,184.229z"/>
		<path fill-rule="evenodd" clip-rule="evenodd" fill="#F4CE18" d="M184.623,117.745c0.585-1.386,2.46,0.572,2.106,2.39
			c-0.514,4.412-0.48,7.266-4.271,14.162c-1.012,0.793-1.917-1.979-1.306-2.837C182.541,128.317,183.541,123.984,184.623,117.745z"
			/>
		<path fill-rule="evenodd" clip-rule="evenodd" fill="#F4CE18" d="M45.252,154.631c-2.724,1.62-9.88-11.692-6.841-12.425
			C39.81,142.206,46.122,154.157,45.252,154.631z"/>
		<path fill-rule="evenodd" clip-rule="evenodd" fill="#F4CE18" d="M105.328,186.404c-0.914,1.617-14.748-0.133-14.005-2.272
			C91.566,182.636,105.861,184.758,105.328,186.404z"/>
		<path fill-rule="evenodd" clip-rule="evenodd" fill="#F4CE18" d="M160.012,168.525c-2.18-1.419,6.985-8.712,7.729-10.825
			c2.882-1.512,3.194,2.113,1.622,3.66C167.145,164.28,161.666,169.731,160.012,168.525z"/>
		<path fill-rule="evenodd" clip-rule="evenodd" fill="#F4CE18" d="M82.781,182.556c-5.484,0.428-18.034-7.961-12.757-7.549
			c4.959,2.381,8.797,4.224,13.193,6.332C83.778,181.782,83.778,182.576,82.781,182.556z"/>
		<path fill-rule="evenodd" clip-rule="evenodd" fill="#F4CE18" d="M33.139,132.878c-1.794-3.876-3.485-12.111-2.277-12.716
			c2.56-1.208,3.343,7.346,4.687,10.429c1.277,2.879-0.332,3.02-0.827,3.109C33.763,133.782,33.308,133.259,33.139,132.878z"/>
		<path fill-rule="evenodd" clip-rule="evenodd" fill="#F4CE18" d="M34.843,79.595c1.436-1.531,3.045,0.109,1.857,2.328
			c-1.737,3.078-3.891,11.266-5.846,10.545C28.69,91.489,33.765,81.575,34.843,79.595z"/>
		<path fill-rule="evenodd" clip-rule="evenodd" fill="#F4CE18" d="M61.131,171.528c-1.415,1.098-11.29-9.59-10.954-10.225
			C50.177,159.313,62.716,171.251,61.131,171.528z"/>
		<path fill-rule="evenodd" clip-rule="evenodd" fill="#F4CE18" d="M30.427,97.257c1.842,0.118,0.461,14.791-2.064,14.247
			C27.2,111.017,29.019,97.521,30.427,97.257z"/>
	</g>
	<g>
		<path fill-rule="evenodd" clip-rule="evenodd" fill="#F4CE18" d="M117.08,81.976c-0.269-0.172-0.333-0.245-0.401-0.252
			c-8-0.743-16.011-1.168-23.42,2.708c-2.876,1.505-5.49,3.55-8.101,5.512c-2.164,1.627-3.33,1.894-5.632,0.467
			c-2.449-1.519-4.799-3.153-6.257-5.793c-0.49-0.888-1.376-1.548-1.983-2.382c-0.618-0.848-0.721-1.688,0.159-2.559
			c0.729-0.723,1.297-1.616,1.892-2.465c4.175-5.971,10.125-9.47,16.837-11.695c9.454-3.134,19.187-4.068,29.095-2.883
			c1.256,0.149,2.49,0.475,3.865,0.744c0.388-0.908,0.699-1.804,1.135-2.634c1.791-3.408,5.617-3.599,7.587-0.295
			c1.548,2.595,2.833,5.344,4.289,7.994c2.192,3.988,4.433,7.95,6.654,11.923c0.077,0.139,0.189,0.258,0.273,0.393
			c1.761,2.832,1.006,4.689-2.332,4.825c-6.049,0.245-11.801,1.899-17.644,3.165c-1.156,0.25-2.38,0.332-3.562,0.274
			c-1.562-0.075-2.315-0.827-2.431-2.411C116.99,85.03,117.08,83.435,117.08,81.976z"/>
		<path fill-rule="evenodd" clip-rule="evenodd" fill="#F4CE18" d="M129.524,129.573c1.823-1.09,2.921-2.293,3.778-3.775
			c3.302-5.707,4.25-11.981,4.443-18.426c0.102-3.428,0.162-6.849-1.501-10.059c-0.707-1.366-0.226-2.141,1.13-2.51
			c4.311-1.171,8.617-2.35,12.935-3.492c2.196-0.58,2.263-0.584,3.432,1.38c0.603,1.011,1.2,2.137,1.367,3.274
			c0.482,3.303,0.98,6.635,1.043,9.963c0.11,5.842-0.483,11.623-2.317,17.242c-1.548,4.738-3.481,9.281-6.481,13.27
			c-1.477,1.963-3.31,3.663-5.029,5.436c-0.662,0.682-1.46,1.232-2.306,1.936c0.745,1.146,1.325,1.985,1.848,2.859
			c0.405,0.68,0.853,1.366,1.08,2.111c0.633,2.07-0.063,3.086-2.233,3.111c-4.95,0.056-9.9,0.008-14.851,0.014
			c-2.468,0.003-4.948,0.199-7.398,0.007c-2.774-0.218-3.459-1.351-2.651-4.035c0.643-2.138,1.461-4.225,2.221-6.327
			c1.491-4.126,3.051-8.229,4.479-12.376c1.288-3.737,2.671-4.128,5.515-1.372C128.537,128.298,128.952,128.89,129.524,129.573z"/>
		<path fill-rule="evenodd" clip-rule="evenodd" fill="#F4CE18" d="M79.788,118.565c5.243,6.654,9.648,13.566,17.721,16.773
			c2.469,0.98,4.898,1.855,7.523,2.229c2.359,0.337,2.607,0.524,2.506,2.85c-0.135,3.11-0.56,6.198-1.983,9.042
			c-1.323,2.645-1.995,3.037-4.899,2.65c-9.456-1.261-18.135-4.444-25.471-10.701c-1.742-1.486-3.356-3.238-4.631-5.135
			c-2.439-3.631-5.012-7.23-5.984-11.65c-0.254-1.153-0.851-2.23-1.352-3.502c-0.653,0.055-1.338,0.105-2.021,0.173
			c-0.556,0.054-1.113,0.204-1.662,0.178c-3.279-0.158-4.685-2.073-3.5-5.144c0.998-2.588,2.37-5.031,3.584-7.535
			c1.982-4.085,4.004-8.15,5.941-12.257c1.168-2.473,3.037-3.03,5.141-1.334c0.8,0.645,1.549,1.39,2.178,2.2
			c3.771,4.855,7.488,9.752,11.248,14.616c2.191,2.834,1.867,4.115-1.504,5.527C81.819,117.884,80.983,118.138,79.788,118.565z"/>
		<path fill-rule="evenodd" clip-rule="evenodd" fill="#F4CE18" d="M120.864,108.628c-0.291,7.537-5.075,13.039-13.023,12.918
			c-3.859-0.059-7.242-1.205-9.938-3.998c-2.422-2.51-3.854-5.822-3.74-9.062c0.268-7.7,4.573-13.151,13.836-13.153
			C116.138,95.331,120.509,100.595,120.864,108.628z M107.788,119.126c3.104-0.172,4.502-0.531,6.176-1.777
			c5.412-4.029,5.113-11.277,1.389-16.002c-2.89-3.666-9.451-4.376-13.389-1.871c-3.654,2.324-4.651,5.912-4.555,9.928
			c0.095,3.947,2.025,6.871,5.57,8.524C104.448,118.614,106.177,118.743,107.788,119.126z"/>
	</g>
</g>
</svg>
