<?xml version="1.0" encoding="utf-8"?>
<!-- Generator: Adobe Illustrator 16.0.4, SVG Export Plug-In . SVG Version: 6.00 Build 0)  -->
<!DOCTYPE svg PUBLIC "-//W3C//DTD SVG 1.0//EN" "http://www.w3.org/TR/2001/REC-SVG-20010904/DTD/svg10.dtd">
<svg version="1.0" id="Layer_1" xmlns="http://www.w3.org/2000/svg" xmlns:xlink="http://www.w3.org/1999/xlink" x="0px" y="0px"
	 width="215.161px" height="216.891px" viewBox="0 0 215.161 216.891" enable-background="new 0 0 215.161 216.891"
	 xml:space="preserve">
<g>
	<path fill-rule="evenodd" clip-rule="evenodd" fill="#19A526" d="M109.085,4.219c7.405-0.001,17.614,1.673,28.206,4.187
		c18.244,4.329,34.469,12.933,47.244,27.003c3.331,3.67,15.52,21.388,19.372,29.745c4.915,10.658,8.414,29.525,9.111,41.265
		c1.847,29.666-8.986,54.271-28.911,75.62c-14.341,15.363-32.288,24.374-52.375,28.217c-17.421,3.332-38.355,4.58-55.555-2.107
		c-8.963-3.486-15.05-7.135-23.717-11.256c-13.13-6.242-21.675-17.481-29.654-29.155c-8.435-12.338-13.108-26.245-16.481-40.573
		C3.695,115.98,4.155,104.531,5.271,93.15c1.405-14.364,5.484-27.863,13.358-40.085C38.799,21.748,66.669,4.077,109.085,4.219z"/>
	<path fill-rule="evenodd" clip-rule="evenodd" fill="#402F3C" d="M211.27,91.851c-2.773-1.946-4.817-3.379-8.652-6.07
		c0.628,4.585,1.049,8.089,1.6,11.575c0.632,4,1.758,7.59,5.047,10.569c1.82,1.951,2.747,3.923,3.93,6.361
		c0.286,0.59,0.012,3.382-0.127,3.634c-0.211-0.189-2.884-7.324-7.521-8.643c-0.616,5.404-1.404,10.639-1.681,15.901
		c-0.07,1.35,1.382,2.847,2.295,4.167c1.244,1.803,3.457,4.747,3.999,7.396c0.173,0.845-0.66,3.7-0.957,3.545
		c-1.917-3.121-4.089-6.761-6.144-10.102c-2.11,6.311-3.904,11.665-5.556,16.599c1.137,3.768,2.966,8.307,3.888,11.822
		c-0.025,0.666-1.432,2.838-1.622,2.823c-1.559-3.919-2.784-7.096-4.107-10.423c-2.709,4.274-5.076,7.773-7.151,11.441
		c-0.555,0.982-0.352,2.48-0.27,3.726c0.158,2.399,0.519,4.8,0.654,7.179c0.111,1.951,0.064,1.561,0.131,3.145
		c-0.129,0.525-2.304,3.212-2.75,3.166c-0.292-3.574-0.653-8.12-1.012-12.477c-4.031,4.27-7.457,7.62-10.501,11.29
		c-0.899,1.085-0.934,3.056-0.994,4.637c-0.098,2.468-0.013,6.941-0.142,8.557c-0.043,0.54-2.949,2.509-3.264,2.443
		c0-3.437,0.077-7.819,0.077-11.118c-5.069,3.461-9.507,6.356-13.759,9.505c-0.862,0.641-1.221,2.192-1.47,3.396
		c-0.499,2.408-1.004,5.272-1.499,7.637c-0.129,0.615-2.535,1.365-3.135,1.303c0.443-1,1.619-6.016,1.15-9.728
		c-2.949,1.15-5.692,2.441-8.564,3.289c-4.058,1.195-6.587,3.494-9.233,7.121c-1.44,1.974-2.347,3.192-3.76,5.029
		c-0.368,0.319-3.368,0.913-3.52,0.602c1.459-2.227,4.479-7.124,6.058-9.532c-6.688,1.469-15.514,1.992-22.83,2.939
		c-1.751,0.224-3.535,1.777-4.883,3.137c-1.412,1.421-3.815,3.567-5.35,5.136c-0.312,0.319-4.062-0.024-4.099-0.3
		c3.226-3.08,5.303-5.066,8.079-7.722c-6.254-1.234-11.792-2.469-17.387-3.316c-1.207-0.184-2.648,0.995-3.948,1.61
		c-2.655,1.261-6.61,2.539-9.641,3.609c-0.442,0.156-2.33-0.803-2.587-1.124c2.707-1.345,7.957-3.001,11.029-5.484
		c-4.326-1.739-8.397-3.624-12.643-4.94c-1.315-0.405-3.123,0.689-4.684,1.172c-2.68,0.829-4.586,1.332-8.639,1.851
		c-1.048,0.134-2.857-1.067-3.196-1.546c3.213-0.334,7.682-1.209,12.319-2.871c-1.569-1.366-2.385-2.2-3.318-2.861
		c-1.969-1.391-4.109-2.555-5.982-4.057c-3.445-2.762-4.938-3.198-11.623-3.201c-4.15-0.15-8.38-0.308-8.681-0.433
		c-0.313-0.13-2.438-2.505-2.276-2.604c4.936,0,8.669,0.022,13.351,0.022c-4.883-5.511-9.176-10.494-13.67-15.29
		c-0.716-0.766-2.319-0.759-3.534-0.985c-2.404-0.179-5.656-0.583-8.544-1.051c-0.162-0.026-1.438-2.3-1.297-2.315
		c3.855-0.18,7.017,1.236,10.742,0.281c-2.299-4.705-5.49-9.96-7.972-14.43c-0.589-1.058-2.439-1.404-3.699-2.097
		c-2.734-1.509-5.027-2.821-7.884-4.559c-0.374-0.228-1.312-3.353-0.999-3.384c3.321,1.871,7.818,3.965,11.141,5.836
		c0,0-3.048-9.863-4.464-13.994c-0.388-1.133-2.089-1.811-3.174-2.71c-2.541-2.106-4.882-4.02-7.357-6.195
		c-0.627-0.552-0.627-3.404-0.347-3.448c3.017,2.367,7.236,5.573,10.253,7.94c-0.458-1.125,0.207-10.999-4.334-18.394
		c-1.833-3.567-3.694-7.306-5.422-11.558c-0.399-0.982-0.161-4.051,0.454-4.222c1.987,4.354,5.92,9.041,7.907,13.395
		c0.021-1.472,2.271-13.369,2.969-19.709c0.215-1.971-1.269-4.204-2.207-6.209c-1.787-3.819-2.367-7.972-2.92-10.437
		c-0.28-1.119,0.804-3.369,1.47-3.285c2.626,5.455,3.083,10.834,4.93,14.365c2.949-6.334,5.522-11.426,7.656-16.697
		c0.625-1.552,0.061-3.612-0.063-5.432c-0.217-3.126-1.258-10.105-1.148-10.903c0.168-1.218,1.562-3.188,2.485-3.337
		c0.853,5.086,0.43,3.954,0.724,6.321c0.29,2.333,0.449,4.683,0.793,8.404c3.645-4.784,6.655-8.389,9.206-12.289
		c0.791-1.209,0.358-3.232,0.453-4.884c0.176-3.136-0.016-7.84,0.881-10.42c0.345-0.993,1.896-1.858,2.838-2.466
		c0.058,5.232-0.103,9.485,0.397,13.282c2.886-2.56,5.701-4.868,8.257-7.437c0.806-0.809,1.008-2.29,1.313-3.509
		c0.721-2.87,1.14-5.83,2.063-8.628c0.594-1.794,0.172-0.63,0.917-2.782c0.54-0.507,2.578-1.764,2.555-1.424
		c-0.094,1.382-0.801,5.039-1.113,6.123c-0.352,2.028-0.929,4.476-1.554,7.669c3.887-2.059,7.214-3.52,10.17-5.529
		c1.353-0.917,2.147-2.833,2.882-4.439c1.31-2.852,2.809-7.318,4.249-10.103c0.073-0.142,2.649-1.338,3.695-1.136
		c-1.728,3.871-4.602,12.215-4.318,12.519c3.727-1.354,7.572-2.47,11.12-4.198c1.219-0.593,1.725-2.525,2.636-3.887
		c1.726-2.587,3.133-5.023,5.003-7.503c0.312-0.413,3.166-0.56,3.419-0.439c-0.983,2.191-1.9,2.712-5.384,10.538
		c3.656-0.556,6.827-0.761,10.159-1.671c1.577-0.431,3.029-1.933,4.159-3.267c3.581-4.227,4.362-4.582,8.597-6.438
		c0.903,0.064,4.586,0,4.184,0.289c-3.627,2.605-8.172,4.156-8.91,9.015c5.371,0.386,10.924,0.36,16.22,0.48
		c1.157,0.027,2.407-1.318,3.507-2.17c2.038-1.581,3.758-3.341,5.896-4.761c0.779,0.006,3.122,0.422,3.98,0.959
		c-3.45,2.43-4.329,4.116-8.416,6.991c6.082,1.832,10.25,2.807,15.194,3.945c1.303,0.299,3.009-0.946,4.472-1.604
		c2.629-1.182,5.264-3.022,7.771-3.201c0.438-0.031,3.234,1.297,3.135,1.432c-0.911,1.232-7.552,2.972-9.765,5.603
		c4.791,2.639,9.557,5.269,14.542,8.014c3.121-0.815,7.414-4.019,10.953-3.938c1.248,0.028,2.308,1.85,2.308,1.85
		c-4.177,1.54-5.766,2.992-9.734,4.453c2.889,2.637,4.511,4.056,6.749,6.178c3.418,3.248,6.779,6.156,12.168,4.322
		c0.949-0.322,2.807-0.961,3.87-0.938c0.505,0.011,2.588,3.365,2.317,3.386c-3.689,0-5.234,1.787-9.353,1.787
		c3.821,5.234,5.913,8.273,9.254,12.364c0.908,1.112,2.294,1.819,3.764,2.496c3.15,1.452,6.024,2.508,9.068,4.154
		c0.723,0.39,1.496,3.074,1.497,3.644c-4.508-2.048-6.482-2.923-11.081-4.445c0.99,2.151,0.963,1.943,1.316,2.846
		c0.677,1.721,1.706,3.327,2.215,5.09c1.688,5.849,4.729,9.158,9.792,12.877c0.163,0.12,1.547,1.156,2.797,2.219
		C210.741,87.99,211.729,91.381,211.27,91.851z M104.883,197.936c17.043-0.084,29.729-2.949,41.88-8.506
		c12.812-5.86,24.405-13.598,33.23-24.488c21.156-26.104,24.718-55.669,13.876-86.77c-8.786-25.205-27.166-41.896-51.535-52.045
		c-16.92-7.047-34.502-8.379-52.327-4.222c-25.648,5.981-45.4,20.361-58.824,43.02c-10.809,18.239-13.888,38.109-10.8,58.946
		c1.837,12.399,5.267,24.514,12.744,34.646C51.774,183.794,77.078,196.952,104.883,197.936z"/>
	<path fill-rule="evenodd" clip-rule="evenodd" fill="#FFFFFF" d="M104.883,197.94c-27.806-0.983-53.109-14.142-71.756-39.419
		c-7.477-10.132-10.907-22.246-12.744-34.646c-3.088-20.837-0.009-40.707,10.8-58.946c13.424-22.658,33.176-37.038,58.824-43.02
		c17.825-4.157,35.407-2.825,52.327,4.222c24.369,10.148,42.749,26.84,51.535,52.045c10.842,31.101,7.28,60.665-13.876,86.77
		c-8.825,10.891-20.419,18.628-33.23,24.488C134.613,194.991,121.926,197.856,104.883,197.94z"/>
	<path fill-rule="evenodd" clip-rule="evenodd" fill="#DCEBF4" d="M105.012,195.491c-27.211-0.962-51.972-13.839-70.22-38.575
		c-7.317-9.915-11.786-24.678-13.583-36.812c-3.022-20.392,1.103-36.928,11.68-54.776c13.137-22.174,32.466-36.245,57.564-42.099
		c17.444-4.068,34.651-2.765,51.209,4.131c23.847,9.932,41.832,26.266,50.431,50.931c10.61,30.435,7.124,59.367-13.578,84.913
		c-8.637,10.657-19.982,18.229-32.52,23.964C134.105,192.605,121.691,195.409,105.012,195.491z"/>
	<path fill-rule="evenodd" clip-rule="evenodd" fill="#C6C6C6" d="M105.71,196.24c-27.647-0.978-52.808-14.062-71.349-39.195
		c-7.435-10.074-10.926-22.12-12.752-34.449l175.542,0.738c0,0-5.4,25.731-17.75,39.104c-8.775,10.829-19.31,19.517-32.048,25.344
		C135.272,193.308,122.657,196.156,105.71,196.24z"/>
	<g>
		<path fill-rule="evenodd" clip-rule="evenodd" fill="#19A526" d="M66.299,44.198c-5.215,2.365-6.44,3.03-11.483,8.018
			c-2.106,0.853-0.86-2.673,2.932-6.188C62.045,42.402,68.069,41.225,66.299,44.198z"/>
		<path fill-rule="evenodd" clip-rule="evenodd" fill="#19A526" d="M121.407,32.207c0.209-1.279,2.027-1.117,3.026-1.088
			c4.925,0.144,12.54,3.342,14.989,6.277c0.381,1.531-1.525,1.688-3.312,0.823c-1.658-0.802-3.957-1.841-5.805-2.391
			c-3.439-1.37-5.236-1.486-8.17-2.365C121.491,33.271,121.436,32.561,121.407,32.207z"/>
		<path fill-rule="evenodd" clip-rule="evenodd" fill="#19A526" d="M186.122,94.513c0.9-0.028,1.109,1.105,1.162,1.701
			c0.718,4.475,1.218,9.559,0.922,14.218c-0.038,0.604-0.48,1.795-1.529,1.795c-1.17,0-1.603-0.896-1.599-1.236
			c0.341-5.51,0.133-8.51-0.506-14.736C184.709,95.818,184.241,94.615,186.122,94.513z"/>
		<path fill-rule="evenodd" clip-rule="evenodd" fill="#19A526" d="M164.213,56.795c-2.191-2.898,0.839-4.426,3.346-0.929
			c4.293,4.87,7.525,10.78,5.775,12.189C171.647,68.056,169.459,62.396,164.213,56.795z"/>
		<path fill-rule="evenodd" clip-rule="evenodd" fill="#19A526" d="M88.291,34.155c0.544,1.179-15.644,7.554-15.983,5.636
			C71.772,38.146,86.959,31.212,88.291,34.155z"/>
		<path fill-rule="evenodd" clip-rule="evenodd" fill="#19A526" d="M47.561,59.749c1.836-0.587,1.446,1.507,0.042,2.632
			c-1.785,1.431-2.745,3.409-3.952,5.129c-1.733,2.471-1.013,1.852-2.483,4.638c-1.087,2.018-3.546,0.934-1.909-2.743
			C41.213,63.954,43.737,61.047,47.561,59.749z"/>
		<path fill-rule="evenodd" clip-rule="evenodd" fill="#19A526" d="M138.41,180.926c-0.821-1.612,15.011-9.612,16.142-8.014
			C156.212,174.563,139.713,183.666,138.41,180.926z"/>
		<path fill-rule="evenodd" clip-rule="evenodd" fill="#19A526" d="M179.982,73.65c2.228,3.434,3.915,7.809,4.662,11.745
			c0.095,0.499-0.246,2.003-1.305,1.978c-0.733-0.06-1.478-0.465-1.661-0.954c-1.094-4.085-2.344-7.397-4.532-11.835
			C176.501,72.646,178.981,72.543,179.982,73.65z"/>
		<path fill-rule="evenodd" clip-rule="evenodd" fill="#19A526" d="M145.411,41.252c1.257-2.452,10.9,2.443,14.751,8.695
			c1.017,1.668-1.077,2.043-2.374,0.65C152.794,45.521,144.616,42.803,145.411,41.252z"/>
		<path fill-rule="evenodd" clip-rule="evenodd" fill="#19A526" d="M95.786,33.12c-0.576-2.002,15.753-4.411,16.853-2.56
			c-0.491,1.711-5.103,1.818-7.653,2.047C102.334,32.848,96.147,34.334,95.786,33.12z"/>
		<path fill-rule="evenodd" clip-rule="evenodd" fill="#19A526" d="M177.947,142.406c0.725-1.004,2.229-0.508,2.2,0.615
			c-0.312,5.188-2.341,9.185-5.603,12.735c-0.616,0.671-1.481,0.571-1.957,0.308c-0.462-0.253,0.015-1.064,0.226-1.479
			C174.407,151.616,176.609,149.442,177.947,142.406z"/>
		<path fill-rule="evenodd" clip-rule="evenodd" fill="#19A526" d="M132.355,185.688c-5.778,2.057-9.683,2.848-15.977,2.202
			c-1.04-0.073-1.748-1.364-0.249-1.454c5.96-0.486,9.918-1.371,14.678-2.769C133.422,182.941,134.088,184.566,132.355,185.688z"/>
		<path fill-rule="evenodd" clip-rule="evenodd" fill="#19A526" d="M184.46,119.203c0.585-1.386,2.46,0.572,2.106,2.39
			c-0.514,4.412-0.48,7.266-4.271,14.162c-1.012,0.793-1.917-1.979-1.306-2.837C182.378,129.775,183.378,125.442,184.46,119.203z"/>
		<path fill-rule="evenodd" clip-rule="evenodd" fill="#19A526" d="M45.089,156.089c-2.724,1.62-9.88-11.692-6.841-12.425
			C39.647,143.664,45.959,155.615,45.089,156.089z"/>
		<path fill-rule="evenodd" clip-rule="evenodd" fill="#19A526" d="M105.166,187.862c-0.914,1.617-14.748-0.133-14.005-2.272
			C91.404,184.094,105.699,186.216,105.166,187.862z"/>
		<path fill-rule="evenodd" clip-rule="evenodd" fill="#19A526" d="M159.849,169.983c-2.18-1.419,6.985-8.712,7.729-10.825
			c2.882-1.512,3.194,2.113,1.622,3.66C166.982,165.738,161.503,171.189,159.849,169.983z"/>
		<path fill-rule="evenodd" clip-rule="evenodd" fill="#19A526" d="M82.619,184.014c-5.484,0.428-18.034-7.961-12.757-7.549
			c4.959,2.381,8.797,4.224,13.193,6.332C83.616,183.24,83.616,184.034,82.619,184.014z"/>
		<path fill-rule="evenodd" clip-rule="evenodd" fill="#19A526" d="M32.976,134.336c-1.794-3.876-3.485-12.111-2.277-12.716
			c2.56-1.208,3.343,7.346,4.687,10.429c1.277,2.879-0.332,3.02-0.827,3.109C33.6,135.24,33.145,134.717,32.976,134.336z"/>
		<path fill-rule="evenodd" clip-rule="evenodd" fill="#19A526" d="M34.681,81.053c1.435-1.531,3.044,0.109,1.857,2.328
			c-1.737,3.078-3.891,11.266-5.846,10.545C28.528,92.947,33.602,83.033,34.681,81.053z"/>
		<path fill-rule="evenodd" clip-rule="evenodd" fill="#19A526" d="M60.968,172.986c-1.415,1.098-11.29-9.59-10.955-10.225
			C50.014,160.771,62.553,172.709,60.968,172.986z"/>
		<path fill-rule="evenodd" clip-rule="evenodd" fill="#19A526" d="M30.264,98.715c1.843,0.118,0.461,14.791-2.063,14.247
			C27.038,112.475,28.856,98.979,30.264,98.715z"/>
	</g>
	<g>
		<g>
			<path fill-rule="evenodd" clip-rule="evenodd" d="M103.404,51.64c1.842-2.89,6.361-3.637,8.634,0
				c0,1.586,0.33,26.071,0.265,36.841c-0.048,7.223,0.27,45.744,0.098,59.958c-0.09,7.213,0.282,26.648-0.091,27.301
				c-0.769,1.339-2.885,2.125-5.139,1.801c-2.71-0.391-3.486-0.804-3.585-2.391c-0.209-3.396-0.11-19.308,0.129-23.862
				c-0.311-18.054,0.045-34.156-0.243-51.491c-0.176-10.524,0.059-21.613,0-32.14C103.446,62.852,103.404,52.35,103.404,51.64z"/>
		</g>
		<g>
			<g>
				<g>
					<path fill-rule="evenodd" clip-rule="evenodd" d="M87.25,82.751c0.14-3.196,0.304-6.394,0.414-9.591
						c0.131-3.937,0.207-7.875,0.33-11.812c0.035-1.104,0.098-2.213,0.242-3.307c0.301-2.26,1.547-3.444,3.688-4.109
						c4.803-0.525,8.044-0.843,12.076-0.744c5.935,0.144,13.598-0.017,19.529,0.219c4.444,0.476,4.767,2.881,4.873,3.976
						c0.336,3.489-0.238,6.519,0,10.012c0.31,4.538-0.228,9.261-0.024,13.81c0.331,7.375-0.268,15.009,0.024,22.39
						c0.227,5.718-0.139,11.221,0,16.942c0.142,5.845,0.002,11.826,0,17.673c-0.001,4.28-1.253,7.116-5.38,7.18
						c-5.464,0.082-10.931,0.252-16.392,0.176c-3.87-0.054-11.238,0.244-15.106-0.006c-1.567-0.104-2.577-0.979-3.236-2.456
						c-1.014-2.276-0.488-5.239-0.718-7.677c-0.535-5.689,0.337-11.236,0-16.942c-0.551-9.329,0.323-19.005-0.105-28.341
						c-0.111-2.456-0.018-4.922-0.018-7.386C87.383,82.755,87.317,82.754,87.25,82.751z"/>
					<path fill-rule="evenodd" clip-rule="evenodd" fill="#FFA233" d="M108.589,88.84c4.389,0.457,6.977,3.724,7.711,5.347
						c0.831,1.84,1.512,4.051,0.188,8.08c-1.698,3.476-3.75,4.759-6.191,5.245c-4.539,0.152-7.274-0.506-9.312-2.674
						c-2.124-2.77-3.118-6.148-1.814-10.532C100.879,90.586,104.425,88.851,108.589,88.84z"/>
					<path fill-rule="evenodd" clip-rule="evenodd" fill="#F32842" d="M117.022,71c0.237,4.069-4.726,9.019-8.836,8.821
						c-5.425-0.257-9.312-4.479-9.396-9.552c-0.092-5.721,5.269-9.874,9.648-9.347C113.799,61.567,117,63.534,117.022,71z"/>
					<path fill-rule="evenodd" clip-rule="evenodd" fill="#19A526" d="M98.81,125.878c0.24-2.167,1.776-6.436,6.112-7.811
						c3.667-1.163,7.209-0.338,9.989,2.211c2.102,1.93,2.47,4.684,2.354,7.484c-0.58,3.923-2.571,7.694-6.6,8.513
						c-4.444,0.771-10.243-0.949-11.374-6.063C99.044,129.094,98.568,127.563,98.81,125.878z"/>
				</g>
			</g>
		</g>
	</g>
</g>
</svg>
