<?xml version="1.0" encoding="utf-8"?>
<!-- Generator: Adobe Illustrator 16.0.4, SVG Export Plug-In . SVG Version: 6.00 Build 0)  -->
<!DOCTYPE svg PUBLIC "-//W3C//DTD SVG 1.1//EN" "http://www.w3.org/Graphics/SVG/1.1/DTD/svg11.dtd" [
	<!ENTITY ns_flows "http://ns.adobe.com/Flows/1.0/">
	<!ENTITY ns_extend "http://ns.adobe.com/Extensibility/1.0/">
	<!ENTITY ns_ai "http://ns.adobe.com/AdobeIllustrator/10.0/">
	<!ENTITY ns_graphs "http://ns.adobe.com/Graphs/1.0/">
	<!ENTITY ns_vars "http://ns.adobe.com/Variables/1.0/">
	<!ENTITY ns_imrep "http://ns.adobe.com/ImageReplacement/1.0/">
	<!ENTITY ns_sfw "http://ns.adobe.com/SaveForWeb/1.0/">
	<!ENTITY ns_custom "http://ns.adobe.com/GenericCustomNamespace/1.0/">
	<!ENTITY ns_adobe_xpath "http://ns.adobe.com/XPath/1.0/">
]>
<svg version="1.1" id="Layer_1" xmlns:x="&ns_extend;" xmlns:i="&ns_ai;" xmlns:graph="&ns_graphs;"
	 xmlns="http://www.w3.org/2000/svg" xmlns:xlink="http://www.w3.org/1999/xlink" xmlns:a="http://ns.adobe.com/AdobeSVGViewerExtensions/3.0/"
	 x="0px" y="0px" width="139.914px" height="226.241px" viewBox="0 0 139.914 226.241" enable-background="new 0 0 139.914 226.241"
	 xml:space="preserve">
<metadata>
	<sfw  xmlns="&ns_sfw;">
		<slices></slices>
		<sliceSourceBounds  width="1919.144" height="1419.304" x="52" y="-1479.474" bottomLeftOrigin="true"></sliceSourceBounds>
	</sfw>
</metadata>
<g display="none">
	<g display="inline">
		<g>
			<path fill-rule="evenodd" clip-rule="evenodd" fill="#402F3C" d="M-423.843,425.187c5.72-10.037,11.271-20.015,17.052-29.866
				c10.239-17.455,20.607-34.832,30.931-52.231c7.892-13.291,15.866-26.532,23.685-39.863c10.314-17.587,20.321-35.36,30.814-52.843
				c9.508-15.846,19.682-31.299,29.211-47.132c9.454-15.7,18.471-31.66,27.671-47.509c0.399-0.688,0.891-1.395,1.029-2.148
				c1.053-5.779,2.564-5.563,8.233-5.294c10.82,0.512,21.621,1.678,32.442,1.831c23.423,0.33,46.854,0.161,70.283,0.262
				c10.043,0.042,20.083,0.379,30.127,0.347c11.471-0.035,22.941-0.345,34.412-0.507c4.624-0.063,9.253-0.024,13.875-0.078
				c3.155-0.035,5.181,1.06,6.542,4.259c4.617,10.847,9.131,21.777,14.531,32.24c6.928,13.434,14.816,26.371,22.03,39.661
				c7.299,13.439,14.329,27.023,21.375,40.599c2.715,5.229,5.207,10.576,7.686,15.926c2.67,5.768,5.147,11.627,7.828,17.391
				c1.88,4.037,3.683,8.16,6.071,11.895c1.297,2.032,2.347,3.354,6.186,10.396c3.793,6.698,7.644,13.289,11.287,19.992
				c4.873,8.949,9.57,17.997,14.37,26.99c3.82,7.147,7.745,14.235,11.491,21.419c3.828,7.341,7.444,14.794,11.254,22.145
				c3.074,5.925,6.243,11.801,9.521,17.615c0.435,0.776,3.7,5.216,1.969,5.223c-14.503,0.046-29.006,0.247-43.508,0.125
				c-16.409-0.14-32.815-0.55-49.223-0.875c-15.46-0.311-31.857,1.471-47.319,1.065c-21.675-0.565-44.455,0.545-66.133,0
				c-28.052-0.701-56.979-0.79-85.072,0c-23.582,0.667-46.273-1.074-69.85-0.24c-25.023,0.891-49.332,0.652-74.377,0.24
				c-13.054-0.217-25.192-1.278-38.255-1.079c-8.925,0.131-17.852-0.344-26.776-0.248
				C-430.074,434.968-424.339,424.724-423.843,425.187z"/>
			<path fill-rule="evenodd" clip-rule="evenodd" fill="#FFFFFF" d="M-157.403,242.301c-15.396,22.409-33.832,41.526-50.501,62.887
				c-1.974-2.866-3.577-5.178-5.168-7.502c-8.375-12.268-16.83-24.484-25.067-36.844c-1.85-2.777-4.011-4.811-6.972-6.306
				c-7.133-3.601-14.171-7.381-21.359-11.147c-32.23,26.458-64.604,53.039-96.985,79.614c-0.23-0.17-0.459-0.346-0.691-0.52
				c0.387-0.934,0.668-1.927,1.171-2.796c13.513-23.35,26.878-46.79,40.645-69.995c9.447-15.929,19.586-31.457,29.172-47.311
				c7.349-12.156,15.182-24.08,21.44-36.835c2.906-5.923,4.84-5.466,8.009-11.173c-0.768-10.035,13.917-7.231,22.563-6.087
				c16.708,0.34,33.411,1.071,50.115,1.093c19.282,0.025,38.563-0.587,57.846-0.82c3.031-0.038,6.064,0.548,9.104,0.697
				c3.365,0.168,6.772,0.519,10.099,0.171c13.455-1.411,27.487,0.211,41.433,0.406c3.886,0.375,5.585,4.51,6.503,6.502
				c4.139,8.984,6.325,15.945,9.995,24.191c7.118,14.107,15.118,27.156,22.567,41.228c5.028,7.751,8.96,16.373,13.182,24.604
				c10.611,18.497,18.152,36.165,26.829,54.82c0.122,0.24,0.794,1.542,0.964,2.458c-2.198-1.454-4.46-2.653-6.238-4.049
				c-13.471-10.587-26.913-21.213-40.33-31.862c-1.627-1.291-3.045-2.843-4.598-4.226c-2.807-2.493-3.787-2.451-6.371,0.334
				c-0.973,1.054-1.867,2.192-2.737,3.338c-9.254,12.144-20.444,22.428-31.733,32.633c-2.137,1.934-3.981,1.484-6.085,0.31
				c-8.96-4.993-17.92-9.989-26.891-14.964c-5.042-2.801-10.15-5.494-15.133-8.394c-1.296-0.754-2.457-1.956-3.303-3.205
				c-6.423-9.507-12.748-19.081-19.131-28.616C-155.571,244.172-156.285,243.547-157.403,242.301z"/>
		</g>
	</g>
</g>
<g>
	
		<ellipse fill-rule="evenodd" clip-rule="evenodd" fill="#F2EBCF" stroke="#DCEBF4" stroke-miterlimit="10" cx="70.318" cy="210.341" rx="49.717" ry="11.992"/>
	<g>
		<circle fill-rule="evenodd" clip-rule="evenodd" fill="#F2EBCF" cx="70.058" cy="79.529" r="28.654"/>
		<path fill-rule="evenodd" clip-rule="evenodd" fill="#F32842" d="M54.469,191.246c-11.058-19.191-21.703-38.622-32.453-57.992
			C9.906,111.438,2.869,88.462,4.689,63.081c0.703-9.85,3.127-18.678,8.503-26.896C20.48,25.048,29.896,15.866,41.549,9.978
			c19.148-9.679,42.844-9.717,61.118,1.53c5.159,3.171,7.894,5.687,12.569,9.579c6.083,5.056,13.6,15.753,15.721,23.351
			c4.956,17.788,5.457,32.778,2.6,51.489c-1.941,12.696-9.371,26.672-15.45,37.561c-12.649,22.659-26.571,44.604-40.097,66.767
			C76.287,203.08,65.462,214.539,54.469,191.246z M68.389,58.896c-12.65,0.027-21.554,9.767-21.32,23.312
			c0.165,9.299,9.163,18.519,18.281,18.715c13.482,0.3,23.998-9.412,23.572-22.678C88.58,67.572,83.075,58.46,68.389,58.896z"/>
	</g>
</g>
</svg>
