<?xml version="1.0" encoding="utf-8"?>
<!-- Generator: Adobe Illustrator 16.0.4, SVG Export Plug-In . SVG Version: 6.00 Build 0)  -->
<!DOCTYPE svg PUBLIC "-//W3C//DTD SVG 1.1//EN" "http://www.w3.org/Graphics/SVG/1.1/DTD/svg11.dtd" [
	<!ENTITY ns_flows "http://ns.adobe.com/Flows/1.0/">
	<!ENTITY ns_extend "http://ns.adobe.com/Extensibility/1.0/">
	<!ENTITY ns_ai "http://ns.adobe.com/AdobeIllustrator/10.0/">
	<!ENTITY ns_graphs "http://ns.adobe.com/Graphs/1.0/">
	<!ENTITY ns_vars "http://ns.adobe.com/Variables/1.0/">
	<!ENTITY ns_imrep "http://ns.adobe.com/ImageReplacement/1.0/">
	<!ENTITY ns_sfw "http://ns.adobe.com/SaveForWeb/1.0/">
	<!ENTITY ns_custom "http://ns.adobe.com/GenericCustomNamespace/1.0/">
	<!ENTITY ns_adobe_xpath "http://ns.adobe.com/XPath/1.0/">
]>
<svg version="1.1" id="Layer_1" xmlns:x="&ns_extend;" xmlns:i="&ns_ai;" xmlns:graph="&ns_graphs;"
	 xmlns="http://www.w3.org/2000/svg" xmlns:xlink="http://www.w3.org/1999/xlink" xmlns:a="http://ns.adobe.com/AdobeSVGViewerExtensions/3.0/"
	 x="0px" y="0px" width="243.5px" height="240.148px" viewBox="0 0 243.5 240.148" enable-background="new 0 0 243.5 240.148"
	 xml:space="preserve">
<metadata>
	<sfw  xmlns="&ns_sfw;">
		<slices></slices>
		<sliceSourceBounds  width="1919.144" height="1419.304" x="52" y="-1479.474" bottomLeftOrigin="true"></sliceSourceBounds>
	</sfw>
</metadata>
<g>
	<g>
		<path fill-rule="evenodd" clip-rule="evenodd" fill="#F47527" d="M237.613,208.402c0,15.716-12.742,28.459-28.458,28.459H34.847
			c-15.719,0-28.459-12.743-28.459-28.459V34.094c0-15.716,12.74-28.458,28.459-28.458h174.309
			c15.716,0,28.458,12.742,28.458,28.458V208.402z"/>
	</g>
	<g>
		<path fill-rule="evenodd" clip-rule="evenodd" fill="#FFFFFF" stroke="#FFFFFF" stroke-width="3.7278" stroke-miterlimit="10" d="
			M89.554,196.782c-8.268,0.141-17.446-5.997-20.407-12.372c-4.412-9.51-2.969-19.388-3.343-29.167
			c-0.367-9.607,0.129-19.297-3.762-28.543c-0.205-0.491-0.308-1.054-0.653-1.458c-5.819-16.077-5.503-22.572-1.007-34.108
			c4.728-12.136,15.061-19.631,27.166-25.38c8.578-4.076,18.876-3.28,27.592-1.355c13.855,3.06,20.986,13.316,25.573,24.716
			c1.874,4.657,2.901,9.688,3.45,14.624c1.781,16.091-5.948,29.294-17.113,41.284c-6.899,7.413-10.851,15.796-12.776,25.262
			c-1.256,6.163-3.275,12.532-6.731,17.929C103.857,193.962,97.285,197.304,89.554,196.782z M100.405,69.793
			c-3.05,0.438-8.259,1.049-10.877,2.239c-2.227,1.011-16.959,8.191-21.649,17.9c-4.386,9.074-6.336,18.015-3.067,27.399
			c5.568,15.983,7.641,32.219,6.703,48.906c-0.458,8.205,0.137,16.333,8.856,22.147c5.759,3.843,13.642,4.057,18.259-0.908
			c2.135-2.299,3.901-5.016,5.124-7.787c2.268-5.124,3.924-10.454,5.995-15.647c1.773-4.442,3.133-9.142,5.818-13.131
			c3.706-5.507,8.86-10.249,12.73-15.684c8.489-11.918,13.983-24.414,8.698-38.896C131.868,82.275,120.287,69.797,100.405,69.793z"
			/>
		<path fill-rule="evenodd" clip-rule="evenodd" fill="#FFFFFF" d="M165.186,49.63c4.53,4.081,5.528,6.922,8.525,11.967
			c13.785,23.196,16.451,48.033,8.605,73.954c-3.21,10.603-8.605,20.578-13.379,30.665c-3.396,3.461-5.421,2.907-7.768,0.631
			c-1.081-1.048-0.846-3.864-0.164-5.375c4.029-8.932,9.458-17.375,12.413-26.624c9.272-28.983,4.135-54.982-14.406-79.282
			c-1.655-2.167-4.875-4.333-1.665-7.217C159.847,46.1,161.99,46.643,165.186,49.63z"/>
		<path fill-rule="evenodd" clip-rule="evenodd" fill="#FFFFFF" d="M160.458,141.606c-2.762,5.205-3.684,5.822-6.802,4.537
			c-3.189-1.315-2.883-4.921-0.708-8.594c11.508-21.699,5.913-32.963,0.019-51.925c-0.754-2.433-1.385-4.962-2.555-7.197
			c-1.589-3.03-1.734-5.849,1.568-7.178c3.131-1.262,7.577,6.078,8.61,9.122c4.185,12.309,8.928,25.444,7.152,38.439
			C166.487,128.06,160.902,141.722,160.458,141.606z"/>
		<path fill-rule="evenodd" clip-rule="evenodd" fill="#FFFFFF" stroke="#FFFFFF" stroke-width="3.7278" stroke-miterlimit="10" d="
			M126.197,111.425c-0.373,8.261-1.578,12.097-3.875,17.4c-0.704,1.625-1.76,3.422-3.174,4.708c-1.04,0.943-2.42,2.92-4.382,1.752
			c-1.326-0.914-1.407-3.798-0.636-4.619c5.55-5.9,4.812-12.854,4.764-19.668c-0.08-10.928-9.726-19.782-22.119-19.848
			c-3.07-0.016-6.913,1.355-9.092,3.255c-6.593,5.748-9.352,13.017-8.362,21.259c0.059,0.522,0.472,4.02-1.804,4.73
			c-1.341,0.058-2.656-0.381-2.744-2.557c-0.143-3.507-0.709-7.062-0.265-10.523c1.161-9.043,7.207-20.862,22.483-22.417
			c4.029-0.409,8.782,0.535,12.434,2.183c7.896,3.57,12.871,9.749,15.557,17.16C125.778,106.433,126.374,107.505,126.197,111.425z"
			/>
		<path fill-rule="evenodd" clip-rule="evenodd" fill="#FFFFFF" stroke="#FFFFFF" stroke-width="3.7278" stroke-miterlimit="10" d="
			M91.864,157.681c0.688,2.105,0.371,3.711,0.269,5.258c-0.099,1.448-0.77,4.428-2.803,4.336c-1.09,0.365-1.479-0.466-1.942-2.203
			c-1.209-4.526,0.956-9.335,4.241-12.101c2.09-1.759,8.742-4.322,9.266-4.887c2.902-3.139,4.908,0.849,3.143,2.836
			C99.398,156.139,96.399,154.974,91.864,157.681z"/>
		<path fill-rule="evenodd" clip-rule="evenodd" fill="#FFFFFF" stroke="#FFFFFF" stroke-width="3.7278" stroke-miterlimit="10" d="
			M94.961,139.263c-1.149,0.638-3.002,2.888-5.893,1.483c-0.945-1.115-0.124-3.229,0.669-4.395
			c3.827-5.622,5.51-11.225,2.274-17.628c-0.643-1.276-1.039-4.299,1.385-5.13c2.463-1.031,4.488,2.062,5.311,3.66
			c1.315,2.556,2.027,5.719,2.027,8.43C100.757,128.891,98.645,137.22,94.961,139.263z"/>
	</g>
</g>
</svg>
