<?xml version="1.0" encoding="utf-8"?>
<!-- Generator: Adobe Illustrator 16.0.4, SVG Export Plug-In . SVG Version: 6.00 Build 0)  -->
<!DOCTYPE svg PUBLIC "-//W3C//DTD SVG 1.1//EN" "http://www.w3.org/Graphics/SVG/1.1/DTD/svg11.dtd" [
	<!ENTITY ns_flows "http://ns.adobe.com/Flows/1.0/">
	<!ENTITY ns_extend "http://ns.adobe.com/Extensibility/1.0/">
	<!ENTITY ns_ai "http://ns.adobe.com/AdobeIllustrator/10.0/">
	<!ENTITY ns_graphs "http://ns.adobe.com/Graphs/1.0/">
	<!ENTITY ns_vars "http://ns.adobe.com/Variables/1.0/">
	<!ENTITY ns_imrep "http://ns.adobe.com/ImageReplacement/1.0/">
	<!ENTITY ns_sfw "http://ns.adobe.com/SaveForWeb/1.0/">
	<!ENTITY ns_custom "http://ns.adobe.com/GenericCustomNamespace/1.0/">
	<!ENTITY ns_adobe_xpath "http://ns.adobe.com/XPath/1.0/">
]>
<svg version="1.1" id="Layer_1" xmlns:x="&ns_extend;" xmlns:i="&ns_ai;" xmlns:graph="&ns_graphs;"
	 xmlns="http://www.w3.org/2000/svg" xmlns:xlink="http://www.w3.org/1999/xlink" xmlns:a="http://ns.adobe.com/AdobeSVGViewerExtensions/3.0/"
	 x="0px" y="0px" width="243.5px" height="240.148px" viewBox="0 0 243.5 240.148" enable-background="new 0 0 243.5 240.148"
	 xml:space="preserve">
<metadata>
	<sfw  xmlns="&ns_sfw;">
		<slices></slices>
		<sliceSourceBounds  width="1919.144" height="1419.304" x="52" y="-1479.474" bottomLeftOrigin="true"></sliceSourceBounds>
	</sfw>
</metadata>
<g>
	<path fill-rule="evenodd" clip-rule="evenodd" fill="#F47527" d="M238.881,208.402c0,15.716-12.743,28.459-28.46,28.459H36.112
		c-15.718,0-28.458-12.743-28.458-28.459V34.094c0-15.716,12.74-28.458,28.458-28.458h174.309c15.717,0,28.46,12.742,28.46,28.458
		V208.402z"/>
	<path fill-rule="evenodd" clip-rule="evenodd" fill="#FFFFFF" d="M132.855,148.877c-0.055,5.351-0.014,9.595-0.155,13.834
		c-0.521,15.544-6.935,19.154-20.718,11.537c-15.668-8.658-26.569-17.773-39.801-27.138c-4.905-3.473-9.729-7.684-14.512-11.322
		c-2.156-1.637-4.126-3.711-5.643-5.951c-4.014-5.922-3.308-9.224,2.926-16.542c6.363-5.958,12.631-10.978,17.918-15.936
		c16.92-12.646,25.286-19.903,40.981-32.703c8.431-5.997,15.338-2.937,17.471,7.429c0.997,4.869,0.063,19.726,1.114,25.212
		c6.493-0.141,8.659,0.037,14.858-0.084c11.739,0.218,18.806,0.062,32.937,0.069c6.03-0.336,14.504,1.194,16.74,6.562
		c1.714,4.114,3.533,27.682,1.062,37.652c-1.432,5.763-9.441,6.247-15.808,6.564c-12.509,0.624-25.029-0.68-37.544-0.101
		C140.969,148.134,137.266,148.528,132.855,148.877z"/>
</g>
</svg>
