<?xml version="1.0" encoding="utf-8"?>
<!-- Generator: Adobe Illustrator 16.0.4, SVG Export Plug-In . SVG Version: 6.00 Build 0)  -->
<!DOCTYPE svg PUBLIC "-//W3C//DTD SVG 1.1//EN" "http://www.w3.org/Graphics/SVG/1.1/DTD/svg11.dtd" [
	<!ENTITY ns_flows "http://ns.adobe.com/Flows/1.0/">
	<!ENTITY ns_extend "http://ns.adobe.com/Extensibility/1.0/">
	<!ENTITY ns_ai "http://ns.adobe.com/AdobeIllustrator/10.0/">
	<!ENTITY ns_graphs "http://ns.adobe.com/Graphs/1.0/">
	<!ENTITY ns_vars "http://ns.adobe.com/Variables/1.0/">
	<!ENTITY ns_imrep "http://ns.adobe.com/ImageReplacement/1.0/">
	<!ENTITY ns_sfw "http://ns.adobe.com/SaveForWeb/1.0/">
	<!ENTITY ns_custom "http://ns.adobe.com/GenericCustomNamespace/1.0/">
	<!ENTITY ns_adobe_xpath "http://ns.adobe.com/XPath/1.0/">
]>
<svg version="1.1" id="Layer_1" xmlns:x="&ns_extend;" xmlns:i="&ns_ai;" xmlns:graph="&ns_graphs;"
	 xmlns="http://www.w3.org/2000/svg" xmlns:xlink="http://www.w3.org/1999/xlink" xmlns:a="http://ns.adobe.com/AdobeSVGViewerExtensions/3.0/"
	 x="0px" y="0px" width="243.5px" height="240.148px" viewBox="0 0 243.5 240.148" enable-background="new 0 0 243.5 240.148"
	 xml:space="preserve">
<metadata>
	<sfw  xmlns="&ns_sfw;">
		<slices></slices>
		<sliceSourceBounds  width="1919.144" height="1419.304" x="52" y="-1479.474" bottomLeftOrigin="true"></sliceSourceBounds>
	</sfw>
</metadata>
<g>
	<path fill-rule="evenodd" clip-rule="evenodd" fill="#F47527" d="M240.082,206.054c0,15.717-12.742,28.459-28.458,28.459H37.315
		c-15.719,0-28.458-12.742-28.458-28.459V31.746c0-15.717,12.739-28.458,28.458-28.458h174.309
		c15.716,0,28.458,12.742,28.458,28.458V206.054z"/>
	<g>
		<path fill-rule="evenodd" clip-rule="evenodd" fill="#FFFFFF" d="M119.732,131.513c-5.475-9.502-10.745-19.123-16.068-28.713
			c-5.995-10.801-9.479-22.178-8.578-34.744c0.348-4.877,1.548-9.248,4.21-13.317c3.608-5.514,8.271-10.06,14.04-12.976
			c9.48-4.792,21.213-4.811,30.261,0.757c2.555,1.57,3.908,2.815,6.224,4.743c3.012,2.503,6.733,7.8,7.783,11.562
			c2.454,8.808,2.702,16.229,1.287,25.494c-0.961,6.286-4.64,13.206-7.649,18.597c-6.263,11.219-13.156,22.085-19.853,33.058
			C130.535,137.373,125.176,143.046,119.732,131.513z M126.625,65.983c-6.264,0.014-10.672,4.836-10.557,11.543
			c0.082,4.604,4.537,9.169,9.052,9.266c6.676,0.148,11.882-4.66,11.671-11.228C136.622,70.279,133.896,65.768,126.625,65.983z"/>
		<path fill-rule="evenodd" clip-rule="evenodd" fill="#FFFFFF" d="M111.719,192.499c-18.37-0.574-35.427-1.304-53.801-1.65
			c-8.872-0.166-20.842-7.013-20.895-17.015c0.497-6.906-0.662-14.937-0.582-22.307c0.097-8.506,0.801-17.013,1.452-25.503
			c0.213-2.802,0.861-6.621,1.163-9.427c0.547-5.071,4.197-6.575,8.592-7.965c2.322-0.734,4.817-1.187,7.248-1.25
			c12.687-0.327,25.375-0.511,38.068-0.69c1.481-0.021,3.323-0.201,4.357,0.562c1.122,0.83,1.993,2.648,2.064,4.085
			c0.084,1.654-1.427,2.416-3.207,2.441c-11.93,0.168-23.861,0.277-35.783,0.656c-3.724,0.12-7.473,0.803-11.122,1.611
			c-2.768,0.611-4.521,2.491-4.905,5.552c-0.354,2.811-1.311,5.564-1.522,8.377c-1.003,13.373-1.246,28.038-0.037,41.481
			c0.796,8.887,5.145,12.119,14.04,12.552c22.145,1.08,42.978,2.158,65.139,2.702c13.437,0.329,26.898-0.461,40.352-0.523
			c7.768-0.036,15.532,0.396,23.302,0.581c2.461,0.058,4.939,0.15,7.389-0.052c7.271-0.601,12.041-4.618,13.246-11.844
			c0.964-5.775,1.618-11.677,1.61-17.523c-0.012-11.335,0.967-22.764-1.797-33.958c-1.389-5.629-3.596-7.696-9.366-8.013
			c-10.789-0.589-21.591-0.889-32.388-1.307c-1.703-0.064-3.412-0.057-5.106-0.185c-2.213-0.166-2.967-1.881-2.686-3.591
			c0.146-0.872,1.728-2.102,2.7-2.14c4.525-0.184,9.072-0.139,13.601,0.066c7.38,0.337,14.754,0.91,22.134,1.296
			c9.62,0.502,14.872,4.864,17.078,14.34c0.299,1.292,0.705,2.586,0.791,3.898c1.087,17.044,1.727,34.097-1.308,51.019
			c-1.455,8.104-6.813,13.032-15.166,13.747c-6.209,0.531-12.492,0.264-18.742,0.284c-17.05,0.062-34.102,0.067-51.154,0.136
			C121.554,192.966,111.713,192.742,111.719,192.499z"/>
	</g>
	<path fill-rule="evenodd" clip-rule="evenodd" fill="#FFFFFF" d="M114.055,177.067c-14.208-0.443-27.398-0.97-41.606-1.281
		c-6.86-0.15-16.156-4.202-16.257-10.016c0.343-4.012-0.604-8.687-0.583-12.97c0.023-4.945,0.517-9.885,0.969-14.817
		c0.148-1.628,0.626-3.844,0.843-5.474c0.393-2.944,3.205-3.797,6.597-4.579c1.79-0.413,3.716-0.66,5.597-0.683
		c9.806-0.114,19.613-0.144,29.428-0.172c1.145-0.003,2.566-0.097,3.372,0.353c0.873,0.489,1.556,1.551,1.619,2.387
		c0.075,0.962-1.087,1.396-2.463,1.399c-9.222,0.027-18.448,0.019-27.663,0.167c-2.879,0.047-5.771,0.422-8.59,0.87
		c-2.136,0.339-3.479,1.421-3.759,3.198c-0.256,1.632-0.98,3.227-1.129,4.86c-0.694,7.768-0.792,16.292,0.222,24.114
		c0.668,5.17,4.049,7.076,10.93,7.381c17.129,0.76,33.243,1.512,50.379,1.96c10.392,0.271,20.795-0.107,31.194-0.063
		c6.009,0.026,12.015,0.324,18.021,0.478c1.905,0.049,3.821,0.117,5.713,0.015c5.617-0.306,9.283-2.613,10.17-6.806
		c0.712-3.351,1.182-6.779,1.141-10.176c-0.074-6.589,0.611-13.228-1.591-19.751c-1.107-3.28-2.829-4.495-7.291-4.714
		c-8.346-0.407-16.698-0.646-25.05-0.954c-1.314-0.048-2.636-0.054-3.948-0.138c-1.712-0.109-2.306-1.111-2.099-2.104
		c0.108-0.505,1.322-1.211,2.077-1.228c3.495-0.079,7.013-0.026,10.515,0.121c5.708,0.239,11.413,0.617,17.12,0.885
		c7.441,0.349,11.529,2.916,13.292,8.438c0.238,0.753,0.561,1.508,0.634,2.271c0.941,9.914,1.538,19.831-0.704,29.649
		c-1.077,4.703-5.191,7.535-11.645,7.901c-4.798,0.271-9.656,0.079-14.489,0.053c-13.183-0.067-26.366-0.166-39.549-0.228
		C121.662,177.398,114.053,177.209,114.055,177.067z"/>
	<g>
		<path fill-rule="evenodd" clip-rule="evenodd" fill="#FFFFFF" d="M83.294,173.032c0.497-6.905,0.411-18.574,0.491-25.944
			c0.097-8.506-0.316-13.712-0.015-16.518c1.045-4.41,5.312-1.571,5.312-1.571s0.318,32.739-0.211,45.327
			C86.323,175.004,85.551,174.839,83.294,173.032z"/>
	</g>
	<g>
		<path fill-rule="evenodd" clip-rule="evenodd" fill="#FFFFFF" d="M157.943,174.036c0.497-6.906,0.411-18.575,0.492-25.944
			c0.096-8.506-0.317-13.712-0.016-16.519c1.046-4.41,5.312-1.571,5.312-1.571s0.318,32.739-0.211,45.327
			C160.973,176.007,160.2,175.843,157.943,174.036z"/>
	</g>
	<path fill-rule="evenodd" clip-rule="evenodd" fill="#FFFFFF" d="M112.249,161.594c-18.37-0.573-35.427-1.303-53.801-1.65
		c0.359-2.369-1.395-2.369-1.068-6.836c22.145,1.08,42.978,2.158,65.138,2.702c13.438,0.329,26.899-0.461,40.353-0.523
		c7.768-0.036,15.532,0.396,23.302,0.581c2.461,0.058,2.31,0.15,4.758-0.052c1.433,3.386,0.197,3.269-0.601,5.806
		c-6.209,0.531-5.917,0.264-12.167,0.284c-17.051,0.062-34.102,0.067-51.154,0.136C122.084,162.061,112.244,161.837,112.249,161.594
		z"/>
	<path fill-rule="evenodd" clip-rule="evenodd" fill="#FFFFFF" d="M105.528,144.006c-18.37-0.573-0.392-0.206-18.765-0.598
		c0.346-1.895-1.408-1.905-1.111-5.479c22.148,1.002,7.949,0.937,30.107,1.51c13.437,0.347,26.892-0.202,40.341-0.168
		c7.767,0.02,4.573,0.613,7.021,0.468c1.452,2.72,0.216,2.618-0.565,4.644c-6.205,0.387-5.914,0.175-12.163,0.152
		c-17.046-0.056-13.058-0.027-30.106-0.079C115.365,144.441,105.525,144.201,105.528,144.006z"/>
	<circle fill-rule="evenodd" clip-rule="evenodd" fill="#FFFFFF" cx="86.244" cy="156.841" r="12.441"/>
	<circle fill-rule="evenodd" clip-rule="evenodd" fill="#F47527" cx="86.244" cy="157.575" r="7.017"/>
</g>
</svg>
